<svg viewBox="0 0 90 90" xmlns="http://www.w3.org/2000/svg"><defs><linearGradient x1="-.132%" y1="-.107%" x2="-.132%" y2="99.96%" id="a"><stop stop-color="#F48020" offset="0%"/><stop stop-color="#F9A61A" offset="100%"/></linearGradient><linearGradient x1=".065%" y1="-.107%" x2=".065%" y2="99.96%" id="b"><stop stop-color="#F48020" offset="0%"/><stop stop-color="#F9A61A" offset="100%"/></linearGradient></defs><g fill="none"><path d="m36.61 26.001-.596-.825C32.047 19.792 19.114 3.274 8.029.254a11.656 11.656 0 0 0-.73-.145 6.306 6.306 0 0 0-4.357.954A6.265 6.265 0 0 0 .315 4.657a11.813 11.813 0 0 0 .073 5.712c1.338 5.809 6.084 12.564 13.238 16.323l3.224 1.625c-.65.15-1.292.336-1.922.558-.718.25-1.41.566-2.069.946a3.87 3.87 0 0 0-1.684 2.006 3.854 3.854 0 0 0-.02 2.615c.076.243.182.475.317.69 1.217 2.075 4.259 3.724 7.897 4.27 6.327.934 14.442-1.492 17.947-11l.304-1.08-1.01-1.321Z" fill="url(#a)" transform="translate(0 13)"/><path d="m53.39 25.959.596-.825C57.952 19.75 70.886 3.232 81.97.212c.243-.056.486-.105.73-.145a6.306 6.306 0 0 1 4.357.954 6.266 6.266 0 0 1 2.627 3.594 11.802 11.802 0 0 1-.073 5.712c-1.339 5.809-6.084 12.564-13.238 16.323l-3.225 1.625c.651.15 1.294.336 1.923.558.718.25 1.41.566 2.068.946a3.87 3.87 0 0 1 1.684 2.006c.312.843.318 1.767.02 2.615a2.94 2.94 0 0 1-.317.69c-1.217 2.075-4.258 3.724-7.896 4.27-6.327.934-14.443-1.492-17.947-11l-.304-1.08 1.01-1.321Z" fill="url(#b)" transform="translate(0 13)"/><path d="M53.365 26.606c0 .798-.247 1.577-.71 2.228a3.871 3.871 0 0 1-1.87 1.41l-5.536 1.94a1.05 1.05 0 0 1-.67 0l-5.535-1.94a3.856 3.856 0 0 1-2.046-1.68 3.834 3.834 0 0 1 .845-4.888 3.864 3.864 0 0 1 2.49-.902h9.175c1.023 0 2.004.405 2.728 1.126a3.84 3.84 0 0 1 1.129 2.718m-6.619-9.738-1.825-2.22-1.838 2.22-2.98-2.22v5.833h9.624V14.66zM57.89 58.769H31.864c0 .182 0 .364.06.546a28.29 28.29 0 0 0 1.218 5.845h23.397a33.454 33.454 0 0 0 1.35-6.391Zm-23.409 9.579a17.288 17.288 0 0 0 6.436 7.01c.962.57 2.981 1.892 4.21 1.6a14.966 14.966 0 0 0 6.083-3.118 14.915 14.915 0 0 0 4.052-5.492H34.481ZM58.122 55.58c0-2.329-.475-4.706-2.714-5.919-2.665-1.443-6.205-1.115-9.137-1.103-4.003 0-11.925-1.273-13.98 3.383a9.078 9.078 0 0 0-.645 3.639h26.476Z" fill="#F79C39"/><path d="M53.693 40.274c0 1.734-.517 3.43-1.485 4.872a8.778 8.778 0 0 1-3.955 3.224 8.799 8.799 0 0 1-9.583-1.93 8.731 8.731 0 0 1-1.857-9.567 8.76 8.76 0 0 1 3.269-3.915 8.804 8.804 0 0 1 4.9-1.44 8.791 8.791 0 0 1 6.208 2.565 8.72 8.72 0 0 1 2.565 6.19" fill="#F79C39"/><path d="M44.605 28.402Z" fill="#F99F39"/></g></svg>