<?xml version="1.0" encoding="UTF-8"?>
<svg xmlns="http://www.w3.org/2000/svg" xmlns:xlink="http://www.w3.org/1999/xlink" width="24px" height="24px" viewBox="0 0 24 24" version="1.1">
<g id="surface1">
<path style=" stroke:none;fill-rule:evenodd;fill:rgb(0%,0%,0%);fill-opacity:1;" d="M 16.511719 0.578125 C 13.976562 0.902344 11.839844 3.359375 12 5.757812 L 12.011719 5.960938 L 12.121094 5.984375 C 12.28125 6.015625 12.816406 5.964844 13.136719 5.882812 C 15.222656 5.355469 17.070312 2.746094 16.8125 0.6875 C 16.792969 0.535156 16.8125 0.539062 16.511719 0.578125 M 15.804688 6.003906 C 15.222656 6.082031 14.667969 6.234375 13.710938 6.574219 C 12.703125 6.929688 12.355469 7.03125 12.136719 7.03125 C 11.90625 7.03125 11.464844 6.902344 10.367188 6.507812 C 8.699219 5.910156 7.609375 5.882812 6.289062 6.410156 C 2.339844 7.976562 1.222656 12.910156 3.589844 18.324219 C 4.28125 19.90625 5.703125 21.898438 6.730469 22.726562 C 7.796875 23.582031 8.652344 23.652344 10.269531 23.023438 C 11.929688 22.375 12.902344 22.367188 14.507812 22.980469 C 16.070312 23.578125 16.960938 23.5625 17.921875 22.917969 C 19.007812 22.191406 20.484375 20.164062 21.261719 18.34375 C 21.398438 18.019531 21.65625 17.324219 21.644531 17.320312 C 19.269531 16.246094 18.078125 13.972656 18.589844 11.503906 C 18.847656 10.253906 19.671875 9.125 20.863281 8.390625 C 21.054688 8.273438 21.054688 8.292969 20.886719 8.070312 C 19.921875 6.789062 18.285156 6.019531 16.453125 5.988281 C 16.1875 5.984375 15.898438 5.988281 15.804688 6.003906 "/>
</g>
</svg>
