<?xml version="1.0" encoding="UTF-8"?>
<svg xmlns="http://www.w3.org/2000/svg" xmlns:xlink="http://www.w3.org/1999/xlink" width="24px" height="24px" viewBox="0 0 24 24" version="1.1">
<g id="surface1">
<path style=" stroke:none;fill-rule:evenodd;fill:rgb(0%,0%,0%);fill-opacity:1;" d="M 11.859375 1.015625 C 11.625 1.105469 3.050781 6.03125 2.964844 6.125 L 2.859375 6.238281 L 2.859375 11.453125 C 2.859375 16.570312 2.859375 16.671875 2.953125 16.769531 C 3.027344 16.847656 3.046875 16.945312 3.058594 17.296875 L 3.070312 17.726562 L 4.945312 18.792969 C 5.976562 19.378906 7.917969 20.476562 9.257812 21.230469 C 10.597656 21.984375 11.757812 22.644531 11.832031 22.699219 C 11.949219 22.78125 11.980469 22.785156 12.066406 22.730469 C 12.160156 22.671875 13.703125 21.796875 15.84375 20.589844 C 16.371094 20.292969 17.726562 19.523438 18.855469 18.878906 L 20.90625 17.714844 L 20.90625 17.3125 C 20.90625 16.953125 20.917969 16.898438 21.023438 16.773438 L 21.140625 16.632812 L 21.140625 11.445312 C 21.136719 6.601562 21.132812 6.25 21.058594 6.15625 C 20.953125 6.019531 12.246094 1.039062 12.066406 1.011719 C 11.992188 1 11.898438 1 11.859375 1.015625 M 13.292969 4.929688 C 13.957031 5.175781 14.371094 5.941406 14.136719 6.480469 C 14.101562 6.566406 13.246094 7.457031 12.195312 8.503906 L 10.320312 10.375 L 10.238281 10.082031 C 10.019531 9.304688 9.480469 8.875 8.613281 8.78125 C 8.464844 8.765625 8.34375 8.738281 8.34375 8.722656 C 8.34375 8.605469 12.003906 5.054688 12.234375 4.949219 C 12.5625 4.796875 12.925781 4.789062 13.292969 4.929688 M 15.339844 10.777344 C 16.953125 12.363281 16.957031 12.355469 14.304688 15.015625 L 12.492188 16.832031 L 12.460938 16.46875 C 12.402344 15.730469 12.386719 15.710938 9.847656 13.191406 C 7.320312 10.683594 7.277344 10.625 7.609375 9.914062 C 8.171875 8.710938 10.058594 9.265625 9.796875 10.554688 C 9.613281 11.460938 9.613281 11.414062 9.800781 11.460938 C 9.910156 11.488281 10.054688 11.355469 11.414062 9.964844 L 12.902344 8.4375 L 13.707031 9.199219 C 14.144531 9.617188 14.882812 10.328125 15.339844 10.777344 M 11.28125 15.324219 C 11.832031 15.863281 11.953125 16.074219 11.953125 16.480469 C 11.949219 17.476562 10.738281 17.960938 10.03125 17.25 C 9.460938 16.679688 9.582031 16.113281 10.488281 15.132812 C 10.804688 14.792969 10.722656 14.773438 11.28125 15.324219 "/>
</g>
</svg>
