<?xml version="1.0" encoding="UTF-8"?>
<svg xmlns="http://www.w3.org/2000/svg" xmlns:xlink="http://www.w3.org/1999/xlink" width="24px" height="24px" viewBox="0 0 24 24" version="1.1">
<g id="surface1">
<path style=" stroke:none;fill-rule:evenodd;fill:rgb(0%,0%,0%);fill-opacity:1;" d="M 11.625 0.109375 C 11.238281 0.152344 10.894531 0.242188 10.566406 0.382812 C 10.386719 0.460938 1.707031 4.925781 1.507812 5.042969 C 0.671875 5.535156 0.121094 6.328125 0.015625 7.195312 C -0.00390625 7.351562 -0.00390625 16.644531 0.015625 16.800781 C 0.125 17.671875 0.703125 18.496094 1.539062 18.972656 C 1.824219 19.132812 10.425781 23.550781 10.574219 23.613281 C 11.546875 24.019531 12.679688 23.984375 13.613281 23.523438 C 13.984375 23.339844 22.394531 19.003906 22.492188 18.945312 C 23.332031 18.441406 23.875 17.640625 23.972656 16.769531 C 23.984375 16.671875 23.988281 15.34375 23.984375 11.90625 L 23.980469 7.175781 L 23.949219 7.03125 C 23.769531 6.183594 23.269531 5.5 22.488281 5.03125 C 22.375 4.964844 13.808594 0.550781 13.554688 0.425781 C 13.015625 0.167969 12.246094 0.0429688 11.625 0.109375 M 12.199219 0.640625 C 12.539062 0.664062 12.882812 0.746094 13.167969 0.871094 C 13.316406 0.933594 21.9375 5.367188 22.121094 5.472656 C 22.6875 5.804688 23.109375 6.3125 23.273438 6.871094 C 23.339844 7.082031 23.339844 7.078125 23.265625 6.980469 C 22.96875 6.597656 22.425781 6.507812 21.851562 6.746094 C 21.738281 6.789062 13.488281 11.203125 13.105469 11.421875 C 12.1875 11.945312 11.773438 12.472656 11.703125 13.210938 C 11.675781 13.5 11.695312 22.367188 11.722656 22.484375 C 11.816406 22.882812 12.011719 23.148438 12.308594 23.277344 C 12.429688 23.328125 12.433594 23.328125 12.234375 23.347656 C 11.789062 23.386719 11.292969 23.308594 10.855469 23.125 C 10.640625 23.035156 1.933594 18.550781 1.761719 18.441406 C 1.160156 18.058594 0.734375 17.433594 0.636719 16.777344 C 0.605469 16.566406 0.605469 7.417969 0.636719 7.207031 C 0.734375 6.546875 1.148438 5.941406 1.761719 5.546875 C 1.890625 5.460938 10.582031 0.976562 10.800781 0.878906 C 11.230469 0.691406 11.734375 0.605469 12.199219 0.640625 M 15.570312 13.222656 C 15.585938 13.246094 15.589844 13.34375 15.589844 13.59375 C 15.589844 13.78125 15.589844 13.933594 15.59375 13.933594 C 15.597656 13.933594 15.628906 13.921875 15.664062 13.910156 C 15.953125 13.800781 16.425781 13.800781 16.472656 13.90625 C 16.488281 13.9375 16.332031 14.554688 16.292969 14.613281 C 16.265625 14.660156 16.195312 14.714844 16.167969 14.707031 C 16.050781 14.667969 15.738281 14.679688 15.566406 14.730469 C 15.058594 14.878906 14.746094 15.207031 14.742188 15.59375 C 14.738281 15.886719 14.890625 15.96875 15.492188 15.992188 C 16.238281 16.019531 16.539062 16.207031 16.640625 16.714844 C 16.777344 17.382812 16.425781 18.203125 15.777344 18.746094 L 15.617188 18.882812 L 15.617188 19.222656 C 15.617188 19.679688 15.640625 19.640625 15.257812 19.828125 C 14.921875 19.996094 14.941406 20.011719 14.9375 19.554688 C 14.933594 19.371094 14.925781 19.21875 14.921875 19.21875 C 14.914062 19.21875 14.875 19.234375 14.835938 19.25 C 14.625 19.328125 14.28125 19.359375 14.046875 19.320312 C 13.855469 19.289062 13.859375 19.292969 13.96875 18.878906 C 14.058594 18.554688 14.078125 18.507812 14.144531 18.460938 C 14.191406 18.425781 14.183594 18.425781 14.300781 18.449219 C 15.050781 18.605469 15.867188 18.035156 15.828125 17.378906 C 15.808594 17.085938 15.644531 16.988281 15.128906 16.964844 C 14.699219 16.949219 14.511719 16.917969 14.34375 16.835938 C 13.609375 16.480469 13.828125 15.175781 14.753906 14.410156 L 14.914062 14.277344 L 14.917969 13.921875 L 14.925781 13.566406 L 14.960938 13.511719 C 14.996094 13.464844 15.03125 13.441406 15.242188 13.324219 C 15.503906 13.179688 15.539062 13.167969 15.570312 13.222656 M 20.136719 17.324219 C 20.15625 17.34375 20.15625 17.375 20.152344 17.613281 C 20.148438 17.933594 20.171875 17.894531 19.882812 18.050781 C 19.769531 18.109375 19.277344 18.367188 18.78125 18.628906 C 17.875 19.109375 17.859375 19.117188 17.828125 19.089844 C 17.792969 19.0625 17.808594 18.519531 17.84375 18.484375 C 17.867188 18.460938 20.082031 17.304688 20.105469 17.304688 C 20.109375 17.304688 20.121094 17.3125 20.136719 17.324219 "/>
</g>
</svg>
