<?xml version="1.0" encoding="UTF-8"?>
<svg xmlns="http://www.w3.org/2000/svg" xmlns:xlink="http://www.w3.org/1999/xlink" width="24px" height="24px" viewBox="0 0 24 24" version="1.1">
<g id="surface1">
<path style=" stroke:none;fill-rule:nonzero;fill:rgb(0%,0%,0%);fill-opacity:1;" d="M 7.515625 12 C 7.515625 14.472656 9.527344 16.484375 12 16.484375 C 14.472656 16.484375 16.484375 14.472656 16.484375 12 C 16.484375 9.527344 14.472656 7.515625 12 7.515625 C 9.527344 7.515625 7.515625 9.527344 7.515625 12 Z M 7.515625 12 "/>
<path style=" stroke:none;fill-rule:nonzero;fill:rgb(0%,0%,0%);fill-opacity:1;" d="M 22.328125 6.082031 C 22.363281 6.019531 22.359375 5.945312 22.324219 5.882812 C 21.28125 4.125 19.792969 2.648438 18.027344 1.621094 C 16.203125 0.5625 14.121094 0 12 0 C 8.332031 0 4.910156 1.648438 2.621094 4.519531 C 2.570312 4.582031 2.5625 4.667969 2.601562 4.738281 L 5.980469 10.589844 C 6.015625 10.652344 6.082031 10.6875 6.152344 10.6875 C 6.160156 10.6875 6.167969 10.6875 6.175781 10.6875 C 6.257812 10.675781 6.320312 10.617188 6.339844 10.542969 C 7.007812 7.960938 9.335938 6.15625 12 6.15625 C 12.164062 6.15625 12.335938 6.164062 12.507812 6.179688 C 12.511719 6.179688 12.519531 6.179688 12.523438 6.179688 L 22.15625 6.179688 C 22.226562 6.179688 22.292969 6.144531 22.328125 6.082031 Z M 22.328125 6.082031 "/>
<path style=" stroke:none;fill-rule:nonzero;fill:rgb(0%,0%,0%);fill-opacity:1;" d="M 13.773438 17.699219 C 13.722656 17.636719 13.640625 17.609375 13.566406 17.632812 C 13.058594 17.773438 12.53125 17.84375 12 17.84375 C 9.746094 17.84375 7.667969 16.523438 6.707031 14.476562 C 6.707031 14.472656 6.703125 14.46875 6.699219 14.460938 L 1.882812 6.117188 C 1.847656 6.054688 1.78125 6.015625 1.710938 6.015625 C 1.640625 6.019531 1.574219 6.054688 1.539062 6.117188 C 0.53125 7.90625 0 9.9375 0 12 C 0 14.894531 1.042969 17.6875 2.9375 19.867188 C 4.8125 22.027344 7.394531 23.445312 10.210938 23.867188 C 10.21875 23.871094 10.230469 23.871094 10.238281 23.871094 C 10.308594 23.871094 10.375 23.832031 10.410156 23.773438 L 13.789062 17.917969 C 13.828125 17.851562 13.820312 17.761719 13.773438 17.699219 Z M 13.773438 17.699219 "/>
<path style=" stroke:none;fill-rule:nonzero;fill:rgb(0%,0%,0%);fill-opacity:1;" d="M 22.992188 7.492188 L 16.226562 7.492188 C 16.144531 7.492188 16.074219 7.542969 16.042969 7.617188 C 16.011719 7.691406 16.03125 7.773438 16.089844 7.832031 C 17.21875 8.941406 17.84375 10.421875 17.84375 12 C 17.84375 13.195312 17.480469 14.347656 16.800781 15.328125 C 16.796875 15.332031 16.792969 15.339844 16.789062 15.34375 L 11.964844 23.703125 C 11.929688 23.765625 11.929688 23.839844 11.964844 23.902344 C 12 23.960938 12.0625 24 12.132812 24 C 12.132812 24 12.136719 24 12.136719 24 C 15.3125 23.964844 18.292969 22.699219 20.53125 20.441406 C 22.769531 18.179688 24 15.183594 24 12 C 24 10.488281 23.722656 9.015625 23.175781 7.617188 C 23.144531 7.542969 23.070312 7.492188 22.992188 7.492188 Z M 22.992188 7.492188 "/>
</g>
</svg>
