<?xml version="1.0" encoding="UTF-8"?>
<svg xmlns="http://www.w3.org/2000/svg" xmlns:xlink="http://www.w3.org/1999/xlink" width="24px" height="24px" viewBox="0 0 24 24" version="1.1">
<g id="surface1">
<path style=" stroke:none;fill-rule:evenodd;fill:rgb(0%,0%,0%);fill-opacity:1;" d="M 11.113281 0.210938 C 11 0.261719 10.691406 0.304688 10.433594 0.308594 C 8.441406 0.339844 5.464844 1.832031 3.574219 3.742188 C -3.179688 10.582031 0.863281 22.421875 10.382812 23.671875 C 11.949219 23.875 12.230469 23.886719 12.664062 23.773438 C 12.902344 23.707031 13.390625 23.644531 13.746094 23.628906 C 14.105469 23.613281 14.398438 23.574219 14.398438 23.535156 C 14.398438 23.5 14.71875 23.390625 15.105469 23.292969 C 19.082031 22.289062 22.695312 18.289062 23.324219 14.195312 C 23.363281 13.933594 23.425781 13.675781 23.457031 13.617188 C 23.492188 13.5625 23.507812 13.335938 23.492188 13.117188 C 23.472656 12.886719 23.507812 12.722656 23.574219 12.722656 C 23.644531 12.722656 23.6875 12.441406 23.6875 11.984375 C 23.6875 11.53125 23.644531 11.25 23.574219 11.25 C 23.507812 11.25 23.472656 11.082031 23.492188 10.851562 C 23.507812 10.632812 23.492188 10.410156 23.457031 10.351562 C 23.425781 10.296875 23.363281 10.039062 23.324219 9.777344 C 23.117188 8.457031 22.394531 6.664062 21.5625 5.425781 C 20.957031 4.523438 20.925781 4.710938 21.945312 3.273438 C 23.117188 1.621094 23.113281 1.628906 22.128906 2.523438 C 21.648438 2.957031 21.089844 3.457031 20.882812 3.640625 L 20.511719 3.964844 L 19.671875 3.234375 C 18.265625 2.003906 16.546875 1.039062 15.105469 0.675781 C 14.71875 0.578125 14.398438 0.46875 14.398438 0.433594 C 14.398438 0.398438 14.082031 0.355469 13.695312 0.335938 C 13.308594 0.320312 12.828125 0.261719 12.625 0.207031 C 12.183594 0.0859375 11.398438 0.0859375 11.113281 0.210938 M 17.253906 3.984375 C 17.835938 4.21875 18.878906 4.96875 18.960938 5.214844 C 18.980469 5.28125 18.398438 5.875 17.664062 6.542969 C 14.121094 9.753906 12.296875 11.390625 12.0625 11.574219 L 11.808594 11.777344 L 10.78125 11.078125 C 10.21875 10.695312 9.179688 9.980469 8.476562 9.492188 C 7.773438 9.003906 7.199219 8.640625 7.199219 8.679688 C 7.199219 8.757812 7.972656 10.3125 8.710938 11.722656 C 8.953125 12.183594 9.492188 13.214844 9.90625 14.007812 C 10.882812 15.886719 11.398438 16.285156 12.484375 15.992188 C 13.066406 15.832031 13.183594 15.683594 16.59375 10.855469 C 18.277344 8.46875 19.6875 6.519531 19.726562 6.519531 C 20.109375 6.519531 20.195312 16.078125 19.824219 17.265625 C 19.453125 18.453125 18.453125 19.507812 17.242188 19.992188 C 16.542969 20.269531 9.1875 20.425781 7.488281 20.195312 C 5.554688 19.933594 4.03125 18.445312 3.761719 16.546875 C 3.625 15.605469 3.625 8.363281 3.761719 7.421875 C 4.015625 5.640625 5.546875 4.054688 7.273438 3.789062 C 8.730469 3.566406 16.589844 3.71875 17.253906 3.984375 "/>
</g>
</svg>
