<?xml version="1.0" encoding="UTF-8"?>
<svg xmlns="http://www.w3.org/2000/svg" xmlns:xlink="http://www.w3.org/1999/xlink" width="24px" height="24px" viewBox="0 0 24 24" version="1.1">
<g id="surface1">
<path style=" stroke:none;fill-rule:evenodd;fill:rgb(0%,0%,0%);fill-opacity:1;" d="M 10.132812 3.441406 C 9.851562 3.570312 9.835938 3.640625 9.835938 4.792969 L 9.835938 5.738281 L 7.644531 5.746094 L 5.457031 5.753906 L 5.355469 5.832031 C 5.164062 5.988281 5.164062 5.96875 5.164062 7.089844 L 5.164062 8.085938 L 4.171875 8.085938 C 3.09375 8.085938 3.078125 8.089844 2.941406 8.234375 C 2.820312 8.367188 2.816406 8.382812 2.816406 9.734375 C 2.816406 11.144531 2.816406 11.128906 2.988281 11.265625 C 3.128906 11.375 3.0625 11.375 9.203125 11.367188 L 15.148438 11.359375 L 15.257812 11.289062 C 15.472656 11.144531 15.46875 11.171875 15.46875 9.734375 C 15.46875 7.941406 15.585938 8.085938 14.113281 8.085938 L 13.121094 8.085938 L 13.121094 5.933594 C 13.121094 3.445312 13.136719 3.574219 12.847656 3.441406 C 12.6875 3.367188 10.296875 3.367188 10.132812 3.441406 M 12.183594 5.035156 L 12.183594 5.738281 L 10.773438 5.738281 L 10.773438 4.332031 L 12.183594 4.332031 L 12.183594 5.035156 M 7.511719 7.382812 L 7.511719 8.085938 L 6.105469 8.085938 L 6.105469 6.679688 L 7.511719 6.679688 L 7.511719 7.382812 M 9.835938 7.382812 L 9.835938 8.085938 L 8.425781 8.085938 L 8.425781 6.679688 L 9.835938 6.679688 L 9.835938 7.382812 M 12.183594 7.382812 L 12.183594 8.085938 L 10.773438 8.085938 L 10.773438 6.679688 L 12.183594 6.679688 L 12.183594 7.382812 M 17.859375 7.667969 C 17.640625 7.738281 17.144531 8.507812 16.933594 9.109375 C 16.625 9.984375 16.601562 11.128906 16.875 11.902344 L 16.925781 12.054688 L 16.867188 12.078125 C 16.585938 12.183594 16.761719 12.183594 8.847656 12.183594 C 1.109375 12.183594 1.164062 12.183594 1.015625 12.289062 C 0.613281 12.574219 0.675781 14.570312 1.128906 15.898438 C 2.179688 18.976562 4.703125 20.597656 8.425781 20.59375 C 13.542969 20.585938 17.476562 18.320312 19.496094 14.210938 L 19.734375 13.722656 L 19.878906 13.722656 C 21.3125 13.710938 22.367188 13.03125 23.042969 11.6875 C 23.355469 11.0625 23.335938 10.960938 22.8125 10.609375 C 22.183594 10.1875 21.777344 10.074219 20.808594 10.046875 L 20.238281 10.03125 L 20.15625 9.808594 C 19.765625 8.773438 18.398438 7.5 17.859375 7.667969 M 18.285156 8.863281 C 18.84375 9.320312 19.222656 9.859375 19.347656 10.371094 C 19.441406 10.769531 19.460938 10.820312 19.542969 10.902344 C 19.695312 11.046875 19.824219 11.058594 20.53125 10.96875 C 20.871094 10.925781 21.714844 11.0625 21.980469 11.199219 C 22.195312 11.3125 22.1875 11.296875 22.105469 11.457031 C 21.652344 12.355469 20.863281 12.78125 19.644531 12.78125 C 19.183594 12.78125 19.074219 12.851562 18.914062 13.242188 C 17.507812 16.628906 14.546875 18.878906 10.695312 19.484375 C 6.265625 20.183594 3.296875 18.921875 2.101562 15.824219 C 1.800781 15.050781 1.605469 13.757812 1.707031 13.222656 L 1.722656 13.136719 L 9.03125 13.132812 C 16.835938 13.132812 16.527344 13.136719 17.039062 13.003906 C 17.949219 12.765625 18.203125 12.496094 17.949219 12.015625 C 17.484375 11.136719 17.523438 9.804688 18.042969 8.929688 C 18.15625 8.734375 18.136719 8.742188 18.285156 8.863281 M 5.160156 9.722656 L 5.152344 10.421875 L 4.453125 10.429688 L 3.757812 10.4375 L 3.757812 9.027344 L 5.167969 9.027344 L 5.160156 9.722656 M 7.507812 9.722656 L 7.5 10.421875 L 6.800781 10.429688 L 6.105469 10.4375 L 6.105469 9.027344 L 7.515625 9.027344 L 7.507812 9.722656 M 9.835938 9.730469 L 9.835938 10.4375 L 8.4375 10.421875 L 8.433594 9.722656 L 8.425781 9.027344 L 9.835938 9.027344 L 9.835938 9.730469 M 12.183594 9.730469 L 12.183594 10.433594 L 10.773438 10.433594 L 10.773438 9.027344 L 12.183594 9.027344 L 12.183594 9.730469 M 14.53125 9.730469 L 14.53125 10.433594 L 13.121094 10.433594 L 13.121094 9.027344 L 14.53125 9.027344 L 14.53125 9.730469 "/>
</g>
</svg>
