<?xml version="1.0" encoding="UTF-8"?>
<svg xmlns="http://www.w3.org/2000/svg" xmlns:xlink="http://www.w3.org/1999/xlink" width="24px" height="24px" viewBox="0 0 24 24" version="1.1">
<g id="surface1">
<path style=" stroke:none;fill-rule:evenodd;fill:rgb(0%,0%,0%);fill-opacity:1;" d="M 11.3125 0.121094 C 11.15625 0.191406 10.601562 0.699219 9.871094 1.433594 L 8.679688 2.632812 L 11.410156 5.363281 L 11.988281 5.359375 C 13.167969 5.355469 13.816406 6.015625 13.816406 7.222656 L 13.816406 7.832031 L 16.371094 10.386719 L 16.886719 10.355469 C 18.894531 10.230469 19.625 12.84375 17.828125 13.726562 C 16.386719 14.4375 14.964844 13.191406 15.324219 11.53125 C 15.355469 11.394531 15.199219 11.214844 14.101562 10.121094 L 12.847656 8.867188 L 12.847656 12.199219 C 12.847656 15.453125 12.847656 15.53125 12.96875 15.570312 C 13.035156 15.59375 13.21875 15.75 13.371094 15.921875 C 14.433594 17.101562 13.625 18.890625 12.03125 18.890625 C 10.25 18.890625 9.585938 16.570312 11.089844 15.597656 L 11.40625 15.394531 L 11.40625 8.859375 L 11.042969 8.613281 C 10.414062 8.175781 10.078125 7.226562 10.328125 6.574219 C 10.386719 6.417969 10.320312 6.339844 9.019531 5.039062 L 7.644531 3.667969 L 3.941406 7.363281 C 1.4375 9.863281 0.199219 11.140625 0.121094 11.3125 C -0.0390625 11.652344 -0.0390625 12.285156 0.128906 12.65625 C 0.300781 13.046875 10.960938 23.695312 11.359375 23.878906 C 11.6875 24.027344 12.300781 24.039062 12.632812 23.902344 C 12.976562 23.761719 23.695312 13.054688 23.875 12.675781 C 24.042969 12.316406 24.039062 11.722656 23.871094 11.34375 C 23.6875 10.933594 13.066406 0.3125 12.65625 0.128906 C 12.285156 -0.0390625 11.65625 -0.0429688 11.3125 0.121094 "/>
</g>
</svg>
