<?xml version="1.0" encoding="UTF-8"?>
<svg xmlns="http://www.w3.org/2000/svg" xmlns:xlink="http://www.w3.org/1999/xlink" width="24px" height="24px" viewBox="0 0 24 24" version="1.1">
<g id="surface1">
<path style=" stroke:none;fill-rule:evenodd;fill:rgb(0%,0%,0%);fill-opacity:1;" d="M 0 12 L 0 24 L 24 24 L 24 0 L 0 0 L 0 12 M 16.472656 6.210938 C 16.773438 6.355469 16.78125 6.394531 16.78125 7.988281 L 16.78125 9.421875 L 15.890625 9.421875 L 15.890625 7.078125 L 5.859375 7.078125 L 5.859375 13.265625 L 16.734375 13.265625 L 16.734375 12.796875 C 16.734375 12.539062 16.746094 12.328125 16.761719 12.328125 C 16.808594 12.328125 18.5625 13.703125 18.5625 13.738281 C 18.5625 13.78125 16.824219 15.140625 16.769531 15.140625 C 16.75 15.140625 16.734375 14.929688 16.734375 14.671875 L 16.734375 14.203125 L 11.984375 14.203125 L 12.015625 14.601562 C 12.078125 15.523438 12.390625 15.726562 13.816406 15.78125 L 14.53125 15.8125 L 14.53125 16.546875 L 7.195312 16.523438 L 7.195312 15.820312 L 7.863281 15.789062 C 9.367188 15.71875 9.695312 15.5 9.699219 14.566406 L 9.703125 14.203125 L 7.542969 14.203125 C 5.160156 14.203125 5.195312 14.207031 5.015625 13.90625 C 4.925781 13.761719 4.921875 13.644531 4.921875 10.179688 C 4.921875 6.234375 4.90625 6.421875 5.21875 6.234375 C 5.421875 6.105469 16.207031 6.085938 16.472656 6.210938 M 11.386719 9.171875 C 11.550781 9.253906 11.6875 9.367188 11.78125 9.5 L 11.925781 9.703125 L 15.765625 9.703125 C 19.949219 9.703125 19.839844 9.695312 19.960938 9.964844 C 20 10.050781 20.015625 11.167969 20.015625 13.996094 L 20.015625 17.914062 L 19.742188 18.1875 L 17.570312 18.1875 C 15.203125 18.1875 15.257812 18.195312 15.144531 17.917969 C 15.109375 17.828125 15.097656 17.304688 15.105469 16.148438 L 15.117188 14.507812 L 15.820312 14.507812 L 15.84375 17.015625 L 19.265625 17.015625 L 19.265625 10.640625 L 11.925781 10.640625 L 11.78125 10.84375 C 11.40625 11.378906 10.558594 11.457031 10.085938 11 C 9.136719 10.089844 10.207031 8.582031 11.386719 9.171875 M 17.15625 17.601562 C 17.15625 17.71875 17.160156 17.71875 17.554688 17.71875 C 17.949219 17.71875 17.953125 17.71875 17.953125 17.601562 C 17.953125 17.484375 17.949219 17.484375 17.554688 17.484375 C 17.160156 17.484375 17.15625 17.484375 17.15625 17.601562 "/>
</g>
</svg>
