<?xml version="1.0" encoding="UTF-8"?>
<svg xmlns="http://www.w3.org/2000/svg" xmlns:xlink="http://www.w3.org/1999/xlink" width="24px" height="24px" viewBox="0 0 24 24" version="1.1">
<g id="surface1">
<path style=" stroke:none;fill-rule:evenodd;fill:rgb(0%,0%,0%);fill-opacity:1;" d="M 0.984375 0.015625 C 0.964844 0.0234375 0.941406 0.0390625 0.933594 0.0507812 C 0.929688 0.0625 0.878906 0.0703125 0.824219 0.0742188 C 0.746094 0.078125 0.71875 0.09375 0.699219 0.136719 C 0.683594 0.167969 0.664062 0.1875 0.652344 0.183594 C 0.640625 0.175781 0.609375 0.191406 0.585938 0.214844 C 0.5625 0.242188 0.523438 0.265625 0.5 0.265625 C 0.476562 0.265625 0.457031 0.277344 0.457031 0.292969 C 0.457031 0.308594 0.421875 0.34375 0.382812 0.371094 C 0.34375 0.398438 0.3125 0.433594 0.3125 0.453125 C 0.3125 0.46875 0.300781 0.476562 0.289062 0.46875 C 0.273438 0.460938 0.265625 0.460938 0.265625 0.472656 C 0.273438 0.523438 0.261719 0.550781 0.214844 0.5625 C 0.191406 0.574219 0.167969 0.59375 0.167969 0.613281 C 0.167969 0.632812 0.15625 0.648438 0.140625 0.648438 C 0.128906 0.648438 0.125 0.660156 0.132812 0.671875 C 0.140625 0.683594 0.132812 0.703125 0.113281 0.707031 C 0.0976562 0.714844 0.078125 0.753906 0.078125 0.796875 C 0.0742188 0.839844 0.0585938 0.882812 0.046875 0.890625 C 0.03125 0.898438 0.0234375 0.925781 0.0273438 0.949219 C 0.0273438 0.976562 0.0234375 1.011719 0.015625 1.03125 C -0.015625 1.105469 0.0078125 10.855469 0.0429688 10.867188 C 0.0585938 10.871094 0.0703125 10.914062 0.0703125 10.957031 C 0.0703125 11.015625 0.0859375 11.039062 0.121094 11.050781 C 0.171875 11.070312 0.183594 11.109375 0.136719 11.113281 C 0.121094 11.113281 0.132812 11.125 0.160156 11.136719 C 0.191406 11.148438 0.214844 11.175781 0.214844 11.199219 C 0.214844 11.222656 0.222656 11.234375 0.230469 11.226562 C 0.253906 11.203125 0.3125 11.269531 0.3125 11.316406 C 0.3125 11.363281 0.429688 11.464844 0.472656 11.453125 C 0.488281 11.449219 0.507812 11.46875 0.515625 11.492188 C 0.523438 11.519531 0.546875 11.546875 0.566406 11.554688 C 0.589844 11.5625 0.597656 11.558594 0.585938 11.539062 C 0.578125 11.519531 0.585938 11.523438 0.605469 11.546875 C 0.621094 11.566406 0.652344 11.578125 0.667969 11.574219 C 0.695312 11.566406 0.699219 11.574219 0.6875 11.601562 C 0.679688 11.625 0.683594 11.640625 0.703125 11.636719 C 0.777344 11.628906 0.839844 11.640625 0.828125 11.664062 C 0.820312 11.679688 0.84375 11.6875 0.882812 11.6875 C 0.925781 11.6875 0.960938 11.703125 0.96875 11.71875 C 0.976562 11.742188 0.980469 11.742188 0.980469 11.71875 C 0.984375 11.695312 0.996094 11.691406 1.03125 11.710938 C 1.082031 11.738281 6.398438 11.734375 6.492188 11.707031 C 6.519531 11.699219 6.554688 11.703125 6.570312 11.71875 C 6.589844 11.734375 6.601562 11.734375 6.601562 11.714844 C 6.601562 11.699219 6.617188 11.6875 6.636719 11.6875 C 6.65625 11.6875 6.667969 11.699219 6.660156 11.710938 C 6.652344 11.726562 6.664062 11.734375 6.683594 11.734375 C 6.707031 11.734375 6.714844 11.726562 6.707031 11.710938 C 6.695312 11.691406 6.910156 11.671875 7.050781 11.683594 C 7.085938 11.6875 7.101562 11.679688 7.09375 11.664062 C 7.085938 11.652344 7.09375 11.640625 7.117188 11.640625 C 7.136719 11.640625 7.148438 11.648438 7.140625 11.660156 C 7.136719 11.671875 7.144531 11.679688 7.164062 11.679688 C 7.183594 11.679688 7.199219 11.671875 7.199219 11.660156 C 7.199219 11.648438 7.253906 11.640625 7.320312 11.640625 C 7.398438 11.640625 7.441406 11.628906 7.441406 11.609375 C 7.441406 11.589844 7.445312 11.589844 7.460938 11.613281 C 7.476562 11.632812 7.484375 11.636719 7.492188 11.617188 C 7.496094 11.601562 7.566406 11.589844 7.648438 11.585938 C 7.734375 11.582031 7.800781 11.570312 7.800781 11.5625 C 7.800781 11.550781 7.832031 11.542969 7.875 11.542969 C 7.917969 11.542969 7.941406 11.535156 7.933594 11.519531 C 7.921875 11.503906 7.96875 11.496094 8.054688 11.496094 C 8.160156 11.492188 8.183594 11.488281 8.148438 11.472656 C 8.113281 11.453125 8.121094 11.449219 8.195312 11.457031 C 8.253906 11.460938 8.304688 11.449219 8.324219 11.429688 C 8.34375 11.410156 8.378906 11.402344 8.40625 11.410156 C 8.429688 11.414062 8.457031 11.40625 8.464844 11.386719 C 8.46875 11.367188 8.5 11.359375 8.53125 11.367188 C 8.578125 11.375 8.589844 11.367188 8.574219 11.335938 C 8.566406 11.3125 8.570312 11.300781 8.578125 11.308594 C 8.589844 11.320312 8.613281 11.316406 8.628906 11.304688 C 8.644531 11.292969 8.683594 11.277344 8.714844 11.269531 C 8.746094 11.265625 8.777344 11.257812 8.785156 11.253906 C 8.789062 11.253906 8.816406 11.253906 8.839844 11.253906 C 8.859375 11.257812 8.878906 11.246094 8.878906 11.230469 C 8.878906 11.214844 8.898438 11.210938 8.929688 11.222656 C 8.964844 11.230469 8.976562 11.226562 8.964844 11.210938 C 8.957031 11.195312 8.964844 11.183594 8.988281 11.183594 C 9.019531 11.183594 9.023438 11.175781 9.003906 11.152344 C 8.984375 11.128906 8.988281 11.121094 9.027344 11.117188 C 9.050781 11.117188 9.066406 11.125 9.058594 11.136719 C 9.054688 11.144531 9.070312 11.148438 9.097656 11.140625 C 9.125 11.136719 9.160156 11.109375 9.175781 11.085938 C 9.191406 11.058594 9.210938 11.039062 9.222656 11.039062 C 9.234375 11.039062 9.234375 11.050781 9.226562 11.0625 C 9.21875 11.078125 9.222656 11.089844 9.238281 11.089844 C 9.253906 11.089844 9.265625 11.066406 9.265625 11.039062 C 9.265625 10.984375 9.386719 10.914062 9.445312 10.933594 C 9.46875 10.945312 9.480469 10.9375 9.476562 10.917969 C 9.46875 10.894531 9.488281 10.886719 9.527344 10.890625 C 9.574219 10.898438 9.582031 10.894531 9.550781 10.875 C 9.523438 10.851562 9.523438 10.847656 9.566406 10.847656 C 9.597656 10.847656 9.625 10.832031 9.632812 10.8125 C 9.640625 10.792969 9.664062 10.777344 9.683594 10.777344 C 9.703125 10.777344 9.71875 10.761719 9.71875 10.738281 C 9.71875 10.71875 9.730469 10.703125 9.746094 10.703125 C 9.761719 10.703125 9.789062 10.6875 9.808594 10.667969 C 9.828125 10.644531 9.863281 10.636719 9.878906 10.640625 C 9.902344 10.652344 9.910156 10.640625 9.90625 10.613281 C 9.902344 10.589844 9.917969 10.570312 9.945312 10.5625 C 9.972656 10.558594 10.023438 10.523438 10.0625 10.484375 C 10.097656 10.441406 10.128906 10.417969 10.128906 10.429688 C 10.128906 10.4375 10.144531 10.433594 10.164062 10.417969 C 10.179688 10.402344 10.191406 10.371094 10.183594 10.351562 C 10.171875 10.320312 10.179688 10.316406 10.210938 10.328125 C 10.242188 10.339844 10.25 10.335938 10.238281 10.304688 C 10.226562 10.277344 10.234375 10.269531 10.257812 10.28125 C 10.28125 10.289062 10.289062 10.28125 10.28125 10.257812 C 10.269531 10.234375 10.277344 10.226562 10.304688 10.238281 C 10.332031 10.25 10.339844 10.242188 10.332031 10.21875 C 10.324219 10.199219 10.335938 10.167969 10.355469 10.152344 C 10.375 10.136719 10.390625 10.128906 10.390625 10.136719 C 10.390625 10.144531 10.417969 10.125 10.453125 10.09375 C 10.484375 10.0625 10.511719 10.019531 10.511719 10 C 10.511719 9.964844 10.539062 9.949219 10.59375 9.957031 C 10.601562 9.960938 10.605469 9.953125 10.597656 9.9375 C 10.589844 9.925781 10.601562 9.902344 10.621094 9.886719 C 10.640625 9.871094 10.65625 9.839844 10.65625 9.816406 C 10.65625 9.792969 10.679688 9.769531 10.707031 9.761719 C 10.734375 9.753906 10.75 9.738281 10.742188 9.722656 C 10.734375 9.710938 10.746094 9.6875 10.765625 9.671875 C 10.785156 9.65625 10.800781 9.632812 10.800781 9.617188 C 10.800781 9.605469 10.832031 9.566406 10.867188 9.53125 C 10.90625 9.496094 10.933594 9.449219 10.929688 9.425781 C 10.925781 9.402344 10.9375 9.375 10.957031 9.367188 C 10.976562 9.359375 10.988281 9.347656 10.980469 9.339844 C 10.964844 9.308594 11.042969 9.167969 11.070312 9.183594 C 11.085938 9.191406 11.085938 9.175781 11.074219 9.144531 C 11.066406 9.109375 11.066406 9.09375 11.082031 9.105469 C 11.121094 9.128906 11.191406 9.03125 11.171875 8.980469 C 11.164062 8.949219 11.171875 8.925781 11.199219 8.910156 C 11.226562 8.894531 11.234375 8.867188 11.226562 8.835938 C 11.210938 8.78125 11.242188 8.761719 11.265625 8.8125 C 11.269531 8.832031 11.277344 8.820312 11.277344 8.789062 C 11.277344 8.761719 11.289062 8.734375 11.300781 8.734375 C 11.3125 8.734375 11.320312 8.710938 11.316406 8.675781 C 11.3125 8.644531 11.320312 8.609375 11.339844 8.597656 C 11.355469 8.589844 11.367188 8.546875 11.367188 8.507812 C 11.363281 8.46875 11.375 8.4375 11.390625 8.441406 C 11.402344 8.441406 11.414062 8.421875 11.417969 8.398438 C 11.429688 8.296875 11.433594 8.28125 11.449219 8.28125 C 11.460938 8.28125 11.472656 8.261719 11.480469 8.242188 C 11.488281 8.222656 11.484375 8.210938 11.472656 8.21875 C 11.457031 8.226562 11.449219 8.222656 11.449219 8.210938 C 11.449219 8.195312 11.460938 8.183594 11.472656 8.183594 C 11.488281 8.183594 11.492188 8.164062 11.484375 8.136719 C 11.476562 8.113281 11.484375 8.078125 11.507812 8.054688 C 11.535156 8.027344 11.535156 8.015625 11.515625 8.007812 C 11.488281 7.996094 11.488281 7.988281 11.515625 7.976562 C 11.53125 7.96875 11.542969 7.925781 11.542969 7.882812 C 11.542969 7.835938 11.554688 7.800781 11.566406 7.800781 C 11.578125 7.800781 11.585938 7.773438 11.585938 7.738281 C 11.585938 7.703125 11.601562 7.667969 11.617188 7.65625 C 11.632812 7.644531 11.640625 7.609375 11.632812 7.574219 C 11.628906 7.539062 11.636719 7.496094 11.652344 7.480469 C 11.667969 7.464844 11.679688 7.410156 11.683594 7.359375 C 11.683594 7.304688 11.699219 7.257812 11.714844 7.246094 C 11.726562 7.238281 11.738281 7.203125 11.734375 7.171875 C 11.726562 7.050781 11.738281 6.957031 11.761719 6.972656 C 11.773438 6.980469 11.78125 6.949219 11.78125 6.890625 C 11.777344 6.835938 11.789062 6.78125 11.800781 6.761719 C 11.828125 6.730469 11.847656 6.628906 11.871094 6.425781 C 11.878906 6.363281 11.894531 6.316406 11.90625 6.324219 C 11.917969 6.332031 11.925781 6.296875 11.917969 6.242188 C 11.910156 6.167969 11.917969 6.148438 11.945312 6.160156 C 11.976562 6.171875 11.976562 6.167969 11.949219 6.125 C 11.925781 6.082031 11.921875 6.066406 11.945312 6.042969 C 11.960938 6.027344 11.976562 5.988281 11.976562 5.957031 C 11.976562 5.925781 11.984375 5.90625 12 5.914062 C 12.011719 5.921875 12.015625 5.894531 12.011719 5.851562 C 12.011719 5.808594 12.011719 5.761719 12.019531 5.746094 C 12.027344 5.734375 12.039062 5.714844 12.039062 5.699219 C 12.042969 5.6875 12.054688 5.648438 12.0625 5.617188 C 12.074219 5.574219 12.070312 5.566406 12.050781 5.578125 C 12.027344 5.59375 12.027344 5.582031 12.050781 5.546875 C 12.070312 5.519531 12.089844 5.496094 12.097656 5.496094 C 12.105469 5.496094 12.109375 5.4375 12.109375 5.371094 C 12.105469 5.300781 12.117188 5.230469 12.128906 5.210938 C 12.144531 5.191406 12.15625 5.144531 12.160156 5.101562 C 12.164062 5 12.164062 5 12.191406 5.039062 C 12.210938 5.070312 12.214844 5.070312 12.214844 5.035156 C 12.214844 5.011719 12.203125 4.992188 12.1875 4.992188 C 12.171875 4.992188 12.167969 4.980469 12.1875 4.960938 C 12.199219 4.945312 12.207031 4.910156 12.203125 4.878906 C 12.203125 4.84375 12.210938 4.832031 12.234375 4.84375 C 12.265625 4.851562 12.269531 4.832031 12.257812 4.707031 C 12.25 4.59375 12.257812 4.558594 12.28125 4.558594 C 12.300781 4.558594 12.308594 4.539062 12.300781 4.5 C 12.296875 4.46875 12.304688 4.429688 12.328125 4.414062 C 12.351562 4.394531 12.359375 4.355469 12.351562 4.292969 C 12.34375 4.234375 12.351562 4.191406 12.367188 4.183594 C 12.386719 4.171875 12.398438 4.109375 12.398438 4.042969 C 12.398438 3.96875 12.410156 3.925781 12.425781 3.929688 C 12.441406 3.933594 12.445312 3.890625 12.441406 3.816406 C 12.4375 3.738281 12.441406 3.695312 12.460938 3.695312 C 12.472656 3.695312 12.480469 3.675781 12.472656 3.648438 C 12.464844 3.625 12.472656 3.597656 12.488281 3.59375 C 12.5 3.589844 12.515625 3.519531 12.523438 3.4375 C 12.527344 3.355469 12.542969 3.289062 12.554688 3.289062 C 12.566406 3.289062 12.574219 3.234375 12.574219 3.167969 C 12.574219 3.105469 12.585938 3.042969 12.601562 3.035156 C 12.613281 3.027344 12.625 2.984375 12.625 2.9375 C 12.625 2.890625 12.632812 2.859375 12.648438 2.867188 C 12.660156 2.875 12.667969 2.839844 12.667969 2.777344 C 12.667969 2.71875 12.675781 2.652344 12.691406 2.625 C 12.707031 2.597656 12.714844 2.539062 12.710938 2.488281 C 12.703125 2.425781 12.710938 2.398438 12.734375 2.398438 C 12.757812 2.398438 12.769531 2.371094 12.769531 2.316406 C 12.769531 2.269531 12.78125 2.230469 12.792969 2.230469 C 12.808594 2.230469 12.816406 2.195312 12.816406 2.152344 C 12.804688 1.992188 12.816406 1.929688 12.839844 1.96875 C 12.855469 1.996094 12.863281 1.976562 12.863281 1.902344 C 12.863281 1.847656 12.875 1.800781 12.886719 1.800781 C 12.902344 1.800781 12.910156 1.789062 12.910156 1.773438 C 12.910156 1.761719 12.898438 1.757812 12.882812 1.765625 C 12.867188 1.777344 12.863281 1.773438 12.875 1.753906 C 12.894531 1.71875 12.910156 1.640625 12.917969 1.53125 C 12.917969 1.480469 12.929688 1.449219 12.941406 1.453125 C 12.96875 1.472656 12.964844 1.429688 12.933594 1.402344 C 12.921875 1.386719 12.910156 1.308594 12.910156 1.226562 C 12.90625 1.148438 12.898438 1.085938 12.886719 1.09375 C 12.875 1.101562 12.863281 1.078125 12.863281 1.039062 C 12.863281 0.988281 12.871094 0.980469 12.886719 1.007812 C 12.902344 1.027344 12.910156 1.03125 12.910156 1.019531 C 12.910156 1.003906 12.890625 0.96875 12.863281 0.941406 C 12.8125 0.886719 12.796875 0.824219 12.84375 0.851562 C 12.855469 0.863281 12.855469 0.847656 12.835938 0.820312 C 12.820312 0.792969 12.796875 0.777344 12.789062 0.78125 C 12.777344 0.789062 12.773438 0.78125 12.78125 0.761719 C 12.789062 0.742188 12.777344 0.714844 12.757812 0.695312 C 12.738281 0.679688 12.71875 0.648438 12.71875 0.621094 C 12.71875 0.597656 12.699219 0.574219 12.671875 0.5625 C 12.644531 0.554688 12.625 0.527344 12.625 0.503906 C 12.625 0.472656 12.609375 0.457031 12.574219 0.457031 C 12.550781 0.457031 12.527344 0.441406 12.527344 0.421875 C 12.527344 0.402344 12.507812 0.378906 12.480469 0.371094 C 12.453125 0.363281 12.4375 0.347656 12.445312 0.335938 C 12.453125 0.320312 12.445312 0.3125 12.433594 0.3125 C 12.417969 0.3125 12.410156 0.300781 12.421875 0.289062 C 12.429688 0.273438 12.410156 0.265625 12.378906 0.261719 C 12.335938 0.261719 12.332031 0.257812 12.359375 0.238281 C 12.390625 0.21875 12.390625 0.214844 12.355469 0.214844 C 12.332031 0.214844 12.3125 0.203125 12.3125 0.1875 C 12.3125 0.175781 12.296875 0.167969 12.277344 0.175781 C 12.257812 0.183594 12.226562 0.167969 12.203125 0.140625 C 12.171875 0.105469 12.15625 0.101562 12.140625 0.125 C 12.128906 0.148438 12.117188 0.144531 12.105469 0.113281 C 12.097656 0.0898438 12.070312 0.0703125 12.042969 0.0703125 C 12.019531 0.0703125 12.003906 0.0625 12.011719 0.0507812 C 12.03125 0.015625 1.078125 -0.0195312 0.984375 0.015625 M 18.167969 4.320312 C 18.167969 4.335938 18.078125 4.34375 17.949219 4.34375 C 17.8125 4.34375 17.738281 4.351562 17.746094 4.367188 C 17.757812 4.382812 17.707031 4.390625 17.621094 4.390625 C 17.539062 4.390625 17.472656 4.402344 17.46875 4.417969 C 17.464844 4.429688 17.402344 4.441406 17.332031 4.445312 C 17.265625 4.445312 17.207031 4.457031 17.207031 4.46875 C 17.207031 4.480469 17.1875 4.488281 17.160156 4.488281 C 17.132812 4.488281 17.113281 4.472656 17.113281 4.457031 C 17.113281 4.433594 17.105469 4.433594 17.089844 4.460938 C 17.082031 4.476562 17.039062 4.492188 16.996094 4.492188 C 16.953125 4.496094 16.921875 4.503906 16.921875 4.515625 C 16.921875 4.53125 16.898438 4.53125 16.871094 4.523438 C 16.84375 4.515625 16.824219 4.519531 16.824219 4.535156 C 16.824219 4.550781 16.796875 4.554688 16.761719 4.550781 C 16.726562 4.542969 16.707031 4.546875 16.71875 4.5625 C 16.730469 4.582031 16.714844 4.582031 16.679688 4.570312 C 16.644531 4.558594 16.632812 4.5625 16.640625 4.582031 C 16.652344 4.597656 16.648438 4.609375 16.632812 4.609375 C 16.621094 4.609375 16.609375 4.59375 16.609375 4.578125 C 16.605469 4.554688 16.601562 4.554688 16.585938 4.578125 C 16.578125 4.597656 16.546875 4.613281 16.519531 4.613281 C 16.488281 4.617188 16.472656 4.628906 16.480469 4.648438 C 16.488281 4.667969 16.464844 4.675781 16.394531 4.667969 C 16.3125 4.660156 16.296875 4.664062 16.296875 4.699219 C 16.296875 4.726562 16.289062 4.730469 16.277344 4.710938 C 16.257812 4.679688 16.191406 4.707031 16.203125 4.742188 C 16.207031 4.75 16.1875 4.761719 16.152344 4.769531 C 16.121094 4.773438 16.078125 4.789062 16.058594 4.804688 C 16.027344 4.832031 16.027344 4.828125 16.039062 4.792969 C 16.046875 4.769531 16.042969 4.753906 16.03125 4.753906 C 16.019531 4.753906 16.007812 4.769531 16.007812 4.789062 C 16.007812 4.816406 15.996094 4.824219 15.957031 4.8125 C 15.921875 4.800781 15.910156 4.804688 15.921875 4.820312 C 15.933594 4.839844 15.914062 4.847656 15.875 4.847656 C 15.839844 4.847656 15.820312 4.855469 15.824219 4.867188 C 15.84375 4.894531 15.648438 5.003906 15.597656 4.996094 C 15.574219 4.992188 15.539062 5.015625 15.519531 5.042969 C 15.496094 5.074219 15.480469 5.085938 15.480469 5.066406 C 15.480469 5.042969 15.46875 5.046875 15.4375 5.078125 C 15.414062 5.101562 15.378906 5.128906 15.359375 5.132812 C 15.339844 5.136719 15.316406 5.15625 15.304688 5.175781 C 15.292969 5.195312 15.277344 5.203125 15.265625 5.195312 C 15.253906 5.1875 15.234375 5.195312 15.226562 5.210938 C 15.214844 5.230469 15.21875 5.234375 15.242188 5.21875 C 15.269531 5.203125 15.269531 5.203125 15.242188 5.238281 C 15.226562 5.261719 15.203125 5.273438 15.191406 5.265625 C 15.179688 5.261719 15.15625 5.277344 15.140625 5.308594 C 15.113281 5.359375 15.113281 5.363281 15.09375 5.316406 C 15.082031 5.28125 15.074219 5.277344 15.074219 5.304688 C 15.074219 5.328125 15.027344 5.363281 14.976562 5.386719 C 14.902344 5.421875 14.882812 5.441406 14.894531 5.476562 C 14.902344 5.5 14.894531 5.519531 14.878906 5.519531 C 14.867188 5.519531 14.859375 5.507812 14.867188 5.496094 C 14.898438 5.449219 14.851562 5.472656 14.792969 5.539062 C 14.757812 5.574219 14.722656 5.601562 14.710938 5.597656 C 14.699219 5.59375 14.695312 5.609375 14.703125 5.632812 C 14.714844 5.652344 14.710938 5.664062 14.699219 5.65625 C 14.683594 5.652344 14.648438 5.660156 14.617188 5.679688 L 14.554688 5.714844 L 14.617188 5.699219 L 14.675781 5.683594 L 14.617188 5.746094 C 14.585938 5.78125 14.542969 5.804688 14.523438 5.796875 C 14.480469 5.78125 14.410156 5.847656 14.453125 5.863281 C 14.476562 5.875 14.476562 5.875 14.453125 5.878906 C 14.4375 5.878906 14.425781 5.894531 14.425781 5.914062 C 14.425781 5.9375 14.410156 5.945312 14.382812 5.933594 C 14.351562 5.921875 14.347656 5.929688 14.359375 5.964844 C 14.371094 5.988281 14.371094 6.003906 14.363281 5.996094 C 14.34375 5.976562 14.230469 6.089844 14.230469 6.128906 C 14.230469 6.144531 14.203125 6.1875 14.167969 6.21875 C 14.132812 6.25 14.113281 6.261719 14.121094 6.246094 C 14.132812 6.230469 14.128906 6.214844 14.113281 6.214844 C 14.097656 6.214844 14.089844 6.234375 14.089844 6.257812 C 14.089844 6.28125 14.066406 6.316406 14.042969 6.335938 C 14.015625 6.351562 14 6.378906 14.007812 6.394531 C 14.011719 6.410156 13.988281 6.449219 13.957031 6.480469 C 13.921875 6.511719 13.894531 6.550781 13.894531 6.566406 C 13.894531 6.585938 13.875 6.609375 13.851562 6.621094 C 13.820312 6.636719 13.808594 6.664062 13.816406 6.691406 C 13.824219 6.71875 13.816406 6.746094 13.800781 6.753906 C 13.789062 6.761719 13.777344 6.757812 13.777344 6.742188 C 13.777344 6.722656 13.761719 6.730469 13.742188 6.757812 C 13.722656 6.78125 13.714844 6.8125 13.71875 6.820312 C 13.726562 6.832031 13.714844 6.847656 13.691406 6.855469 C 13.664062 6.867188 13.660156 6.875 13.679688 6.886719 C 13.695312 6.898438 13.699219 6.921875 13.683594 6.960938 C 13.667969 6.992188 13.660156 7.003906 13.65625 6.988281 C 13.65625 6.972656 13.644531 6.964844 13.632812 6.972656 C 13.617188 6.980469 13.613281 7.007812 13.621094 7.035156 C 13.632812 7.066406 13.625 7.078125 13.597656 7.078125 C 13.574219 7.078125 13.5625 7.089844 13.570312 7.101562 C 13.578125 7.117188 13.570312 7.15625 13.550781 7.195312 C 13.53125 7.234375 13.519531 7.273438 13.527344 7.28125 C 13.539062 7.289062 13.527344 7.296875 13.503906 7.296875 C 13.484375 7.296875 13.460938 7.308594 13.449219 7.324219 C 13.441406 7.339844 13.441406 7.34375 13.457031 7.335938 C 13.476562 7.324219 13.472656 7.339844 13.457031 7.378906 C 13.441406 7.414062 13.417969 7.441406 13.410156 7.441406 C 13.398438 7.441406 13.390625 7.472656 13.390625 7.511719 C 13.390625 7.550781 13.375 7.589844 13.351562 7.605469 C 13.332031 7.617188 13.308594 7.660156 13.304688 7.703125 C 13.300781 7.746094 13.273438 7.800781 13.25 7.824219 C 13.21875 7.851562 13.210938 7.871094 13.226562 7.886719 C 13.238281 7.902344 13.234375 7.925781 13.207031 7.957031 C 13.183594 7.984375 13.160156 8.03125 13.15625 8.0625 C 13.152344 8.09375 13.144531 8.128906 13.132812 8.136719 C 13.125 8.140625 13.113281 8.1875 13.109375 8.230469 C 13.101562 8.277344 13.09375 8.320312 13.082031 8.328125 C 13.074219 8.335938 13.0625 8.367188 13.058594 8.398438 C 13.054688 8.433594 13.042969 8.464844 13.035156 8.472656 C 13.027344 8.480469 13.019531 8.503906 13.019531 8.53125 C 13.019531 8.5625 13.003906 8.578125 12.984375 8.570312 C 12.957031 8.566406 12.953125 8.570312 12.976562 8.59375 C 12.996094 8.617188 12.992188 8.632812 12.957031 8.671875 C 12.929688 8.699219 12.921875 8.730469 12.933594 8.746094 C 12.957031 8.777344 12.90625 8.914062 12.878906 8.886719 C 12.867188 8.875 12.863281 8.910156 12.867188 8.957031 C 12.875 9.019531 12.871094 9.046875 12.851562 9.039062 C 12.835938 9.035156 12.824219 9.050781 12.820312 9.082031 C 12.820312 9.121094 12.824219 9.125 12.839844 9.09375 C 12.851562 9.074219 12.863281 9.070312 12.863281 9.085938 C 12.863281 9.121094 12.804688 9.171875 12.785156 9.152344 C 12.773438 9.144531 12.769531 9.15625 12.769531 9.175781 C 12.769531 9.199219 12.777344 9.210938 12.792969 9.203125 C 12.804688 9.195312 12.816406 9.199219 12.816406 9.210938 C 12.816406 9.222656 12.796875 9.242188 12.777344 9.25 C 12.757812 9.257812 12.746094 9.28125 12.753906 9.300781 C 12.761719 9.320312 12.753906 9.339844 12.742188 9.347656 C 12.730469 9.355469 12.71875 9.390625 12.71875 9.421875 C 12.71875 9.457031 12.710938 9.476562 12.699219 9.46875 C 12.6875 9.460938 12.679688 9.484375 12.683594 9.519531 C 12.6875 9.554688 12.675781 9.585938 12.65625 9.59375 C 12.640625 9.597656 12.625 9.617188 12.625 9.628906 C 12.625 9.640625 12.636719 9.644531 12.652344 9.632812 C 12.675781 9.621094 12.671875 9.628906 12.652344 9.65625 C 12.632812 9.675781 12.625 9.695312 12.636719 9.695312 C 12.648438 9.695312 12.640625 9.714844 12.617188 9.738281 C 12.574219 9.789062 12.546875 9.886719 12.578125 9.886719 C 12.589844 9.886719 12.601562 9.898438 12.601562 9.910156 C 12.601562 9.925781 12.585938 9.9375 12.566406 9.9375 C 12.546875 9.9375 12.527344 9.957031 12.523438 9.980469 C 12.511719 10.015625 12.519531 10.023438 12.546875 10.015625 C 12.578125 10.003906 12.574219 10.011719 12.539062 10.074219 C 12.515625 10.117188 12.484375 10.152344 12.472656 10.152344 C 12.460938 10.152344 12.457031 10.167969 12.464844 10.191406 C 12.484375 10.242188 12.457031 10.359375 12.429688 10.320312 C 12.417969 10.300781 12.414062 10.308594 12.410156 10.347656 C 12.410156 10.472656 12.402344 10.535156 12.386719 10.523438 C 12.378906 10.519531 12.355469 10.578125 12.339844 10.652344 C 12.320312 10.726562 12.296875 10.792969 12.285156 10.800781 C 12.273438 10.808594 12.261719 10.839844 12.257812 10.867188 C 12.253906 10.898438 12.246094 10.921875 12.234375 10.921875 C 12.222656 10.921875 12.214844 10.933594 12.21875 10.949219 C 12.226562 11.019531 12.214844 11.089844 12.195312 11.078125 C 12.183594 11.070312 12.175781 11.089844 12.179688 11.121094 C 12.183594 11.15625 12.171875 11.1875 12.148438 11.195312 C 12.128906 11.203125 12.121094 11.226562 12.125 11.253906 C 12.132812 11.28125 12.125 11.316406 12.105469 11.332031 C 12.085938 11.347656 12.074219 11.371094 12.078125 11.386719 C 12.085938 11.398438 12.074219 11.445312 12.054688 11.484375 C 12.035156 11.523438 12.007812 11.574219 11.996094 11.597656 C 11.964844 11.660156 11.972656 11.71875 12.007812 11.695312 C 12.027344 11.683594 12.027344 11.691406 12.003906 11.71875 C 11.984375 11.742188 11.957031 11.753906 11.941406 11.742188 C 11.929688 11.734375 11.929688 11.746094 11.949219 11.765625 C 11.96875 11.789062 11.972656 11.808594 11.960938 11.808594 C 11.917969 11.808594 11.839844 12.074219 11.851562 12.175781 C 11.859375 12.207031 11.847656 12.21875 11.828125 12.210938 C 11.804688 12.203125 11.792969 12.214844 11.789062 12.246094 C 11.789062 12.273438 11.773438 12.304688 11.757812 12.3125 C 11.738281 12.324219 11.734375 12.363281 11.742188 12.417969 C 11.753906 12.480469 11.746094 12.507812 11.71875 12.523438 C 11.695312 12.539062 11.6875 12.566406 11.695312 12.59375 C 11.703125 12.632812 11.699219 12.640625 11.667969 12.628906 C 11.640625 12.621094 11.636719 12.625 11.644531 12.652344 C 11.652344 12.671875 11.644531 12.714844 11.625 12.742188 C 11.605469 12.769531 11.59375 12.804688 11.597656 12.824219 C 11.605469 12.839844 11.597656 12.875 11.585938 12.898438 C 11.570312 12.925781 11.5625 12.976562 11.5625 13.015625 C 11.566406 13.050781 11.558594 13.078125 11.542969 13.078125 C 11.527344 13.078125 11.523438 13.089844 11.53125 13.105469 C 11.539062 13.117188 11.535156 13.128906 11.523438 13.128906 C 11.507812 13.128906 11.503906 13.148438 11.507812 13.175781 C 11.511719 13.203125 11.507812 13.222656 11.5 13.222656 C 11.488281 13.222656 11.480469 13.25 11.476562 13.277344 C 11.476562 13.308594 11.460938 13.335938 11.449219 13.339844 C 11.433594 13.34375 11.425781 13.378906 11.425781 13.417969 C 11.425781 13.457031 11.414062 13.488281 11.398438 13.488281 C 11.386719 13.488281 11.375 13.507812 11.375 13.53125 C 11.375 13.566406 11.378906 13.566406 11.398438 13.535156 C 11.414062 13.515625 11.421875 13.511719 11.421875 13.527344 C 11.421875 13.542969 11.402344 13.574219 11.375 13.59375 C 11.347656 13.609375 11.328125 13.640625 11.328125 13.660156 C 11.339844 13.738281 11.324219 13.824219 11.304688 13.8125 C 11.289062 13.804688 11.28125 13.820312 11.28125 13.847656 C 11.28125 13.875 11.269531 13.894531 11.257812 13.894531 C 11.242188 13.894531 11.230469 13.933594 11.230469 13.980469 C 11.230469 14.058594 11.195312 14.15625 11.152344 14.1875 C 11.140625 14.195312 11.136719 14.210938 11.136719 14.222656 C 11.148438 14.289062 11.132812 14.402344 11.113281 14.386719 C 11.097656 14.378906 11.089844 14.40625 11.089844 14.457031 C 11.089844 14.503906 11.078125 14.542969 11.0625 14.542969 C 11.050781 14.542969 11.039062 14.558594 11.039062 14.578125 C 11.039062 14.601562 11.03125 14.617188 11.019531 14.617188 C 11.003906 14.617188 10.996094 14.652344 10.992188 14.695312 C 10.992188 14.738281 10.992188 14.792969 10.988281 14.816406 C 10.988281 14.835938 10.976562 14.851562 10.964844 14.84375 C 10.949219 14.832031 10.941406 14.851562 10.945312 14.882812 C 10.953125 14.992188 10.945312 15.015625 10.917969 14.976562 C 10.898438 14.945312 10.894531 14.953125 10.902344 14.996094 C 10.921875 15.070312 10.875 15.191406 10.835938 15.175781 C 10.808594 15.164062 10.785156 15.234375 10.769531 15.402344 C 10.765625 15.433594 10.75 15.46875 10.730469 15.476562 C 10.710938 15.488281 10.707031 15.511719 10.714844 15.523438 C 10.722656 15.539062 10.714844 15.550781 10.691406 15.550781 C 10.664062 15.550781 10.65625 15.570312 10.664062 15.625 C 10.671875 15.664062 10.664062 15.695312 10.652344 15.695312 C 10.636719 15.695312 10.632812 15.679688 10.640625 15.660156 C 10.675781 15.570312 10.628906 15.636719 10.574219 15.75 C 10.519531 15.867188 10.511719 15.941406 10.5625 15.863281 C 10.578125 15.835938 10.582031 15.835938 10.582031 15.859375 C 10.582031 15.878906 10.5625 15.898438 10.535156 15.90625 C 10.507812 15.910156 10.488281 15.933594 10.488281 15.949219 C 10.488281 15.996094 10.4375 16.082031 10.386719 16.128906 C 10.363281 16.152344 10.34375 16.1875 10.34375 16.207031 C 10.34375 16.226562 10.332031 16.253906 10.320312 16.261719 C 10.304688 16.269531 10.296875 16.292969 10.304688 16.308594 C 10.3125 16.328125 10.308594 16.34375 10.292969 16.34375 C 10.261719 16.34375 10.214844 16.394531 10.207031 16.4375 C 10.203125 16.453125 10.175781 16.488281 10.152344 16.519531 C 10.125 16.546875 10.105469 16.582031 10.105469 16.601562 C 10.105469 16.621094 10.09375 16.628906 10.078125 16.621094 C 10.066406 16.613281 10.054688 16.621094 10.054688 16.640625 C 10.054688 16.65625 10.03125 16.683594 10.003906 16.699219 C 9.957031 16.722656 9.957031 16.726562 9.996094 16.714844 C 10.042969 16.703125 10.042969 16.703125 9.996094 16.738281 C 9.972656 16.761719 9.941406 16.777344 9.929688 16.777344 C 9.921875 16.777344 9.910156 16.789062 9.910156 16.804688 C 9.910156 16.820312 9.925781 16.820312 9.953125 16.796875 C 9.988281 16.765625 9.988281 16.769531 9.960938 16.816406 C 9.941406 16.84375 9.917969 16.863281 9.910156 16.859375 C 9.886719 16.84375 9.835938 16.910156 9.859375 16.929688 C 9.867188 16.941406 9.863281 16.945312 9.851562 16.941406 C 9.800781 16.933594 9.765625 16.945312 9.78125 16.96875 C 9.789062 16.980469 9.777344 16.992188 9.757812 16.992188 C 9.738281 16.992188 9.71875 17.015625 9.714844 17.046875 C 9.710938 17.074219 9.691406 17.101562 9.671875 17.101562 C 9.652344 17.101562 9.625 17.125 9.609375 17.15625 C 9.59375 17.183594 9.574219 17.214844 9.5625 17.226562 C 9.554688 17.234375 9.550781 17.230469 9.5625 17.214844 C 9.570312 17.199219 9.566406 17.183594 9.554688 17.183594 C 9.542969 17.183594 9.523438 17.207031 9.515625 17.230469 C 9.503906 17.277344 9.476562 17.289062 9.425781 17.28125 C 9.417969 17.28125 9.410156 17.289062 9.414062 17.296875 C 9.417969 17.308594 9.414062 17.316406 9.40625 17.316406 C 9.402344 17.316406 9.363281 17.351562 9.320312 17.394531 C 9.269531 17.449219 9.242188 17.464844 9.230469 17.441406 C 9.222656 17.421875 9.21875 17.425781 9.21875 17.453125 C 9.21875 17.472656 9.1875 17.496094 9.152344 17.507812 C 9.097656 17.519531 9.09375 17.527344 9.121094 17.546875 C 9.148438 17.566406 9.136719 17.566406 9.089844 17.558594 C 9.042969 17.546875 9.027344 17.550781 9.03125 17.574219 C 9.035156 17.59375 9.015625 17.601562 8.980469 17.597656 C 8.949219 17.59375 8.929688 17.601562 8.941406 17.617188 C 8.949219 17.628906 8.925781 17.640625 8.886719 17.644531 C 8.847656 17.644531 8.835938 17.648438 8.863281 17.65625 C 8.886719 17.664062 8.902344 17.679688 8.902344 17.691406 C 8.902344 17.703125 8.894531 17.707031 8.878906 17.699219 C 8.867188 17.691406 8.855469 17.699219 8.855469 17.714844 C 8.855469 17.734375 8.847656 17.738281 8.835938 17.722656 C 8.816406 17.695312 8.734375 17.6875 8.734375 17.710938 C 8.734375 17.722656 8.75 17.738281 8.765625 17.746094 C 8.78125 17.753906 8.765625 17.75 8.726562 17.742188 C 8.675781 17.734375 8.660156 17.738281 8.675781 17.757812 C 8.683594 17.773438 8.671875 17.785156 8.640625 17.785156 C 8.613281 17.785156 8.59375 17.800781 8.59375 17.820312 C 8.59375 17.847656 8.570312 17.855469 8.507812 17.847656 C 8.460938 17.839844 8.417969 17.84375 8.410156 17.859375 C 8.402344 17.871094 8.382812 17.878906 8.363281 17.878906 C 8.347656 17.878906 8.300781 17.890625 8.261719 17.90625 C 8.226562 17.921875 8.1875 17.933594 8.179688 17.933594 C 8.167969 17.929688 8.160156 17.9375 8.160156 17.953125 C 8.160156 17.964844 8.105469 17.976562 8.042969 17.976562 C 7.960938 17.976562 7.921875 17.988281 7.910156 18.011719 C 7.902344 18.03125 7.882812 18.042969 7.859375 18.03125 C 7.839844 18.023438 7.808594 18.03125 7.789062 18.046875 C 7.761719 18.070312 7.753906 18.070312 7.753906 18.050781 C 7.753906 18.03125 7.738281 18.027344 7.707031 18.046875 C 7.679688 18.0625 7.582031 18.070312 7.492188 18.070312 C 7.386719 18.070312 7.320312 18.082031 7.316406 18.101562 C 7.308594 18.117188 7.265625 18.125 7.210938 18.125 C 7.160156 18.121094 7.105469 18.132812 7.085938 18.148438 C 7.066406 18.167969 7.054688 18.167969 7.054688 18.148438 C 7.054688 18.128906 7.003906 18.121094 6.925781 18.121094 C 6.851562 18.121094 6.792969 18.128906 6.792969 18.144531 C 6.792969 18.15625 6.769531 18.167969 6.742188 18.167969 C 6.710938 18.167969 6.699219 18.15625 6.710938 18.136719 C 6.722656 18.121094 6.710938 18.121094 6.683594 18.144531 C 6.65625 18.164062 6.644531 18.167969 6.65625 18.148438 C 6.671875 18.125 6.121094 18.121094 3.929688 18.125 L 1.1875 18.132812 L 6.5625 18.15625 L 3.820312 18.164062 C 1.996094 18.167969 1.082031 18.160156 1.09375 18.144531 C 1.101562 18.128906 1.09375 18.121094 1.082031 18.121094 C 1.066406 18.121094 1.054688 18.128906 1.054688 18.144531 C 1.054688 18.15625 1.015625 18.167969 0.96875 18.167969 C 0.910156 18.167969 0.890625 18.175781 0.902344 18.199219 C 0.914062 18.222656 0.914062 18.222656 0.886719 18.199219 C 0.84375 18.15625 0.816406 18.160156 0.832031 18.203125 C 0.839844 18.230469 0.835938 18.238281 0.804688 18.222656 C 0.773438 18.214844 0.765625 18.214844 0.777344 18.234375 C 0.789062 18.253906 0.78125 18.265625 0.757812 18.265625 C 0.734375 18.265625 0.722656 18.253906 0.730469 18.238281 C 0.738281 18.226562 0.734375 18.214844 0.722656 18.214844 C 0.707031 18.214844 0.695312 18.226562 0.695312 18.238281 C 0.695312 18.253906 0.683594 18.265625 0.664062 18.265625 C 0.648438 18.265625 0.601562 18.296875 0.5625 18.335938 C 0.527344 18.375 0.484375 18.40625 0.46875 18.40625 C 0.453125 18.40625 0.414062 18.4375 0.386719 18.476562 C 0.355469 18.515625 0.304688 18.554688 0.273438 18.5625 C 0.242188 18.570312 0.214844 18.59375 0.214844 18.613281 C 0.214844 18.632812 0.203125 18.648438 0.1875 18.648438 C 0.171875 18.648438 0.171875 18.664062 0.195312 18.6875 C 0.21875 18.714844 0.21875 18.722656 0.199219 18.710938 C 0.179688 18.699219 0.167969 18.703125 0.167969 18.71875 C 0.167969 18.734375 0.15625 18.738281 0.140625 18.730469 C 0.121094 18.71875 0.117188 18.730469 0.125 18.765625 C 0.136719 18.800781 0.128906 18.816406 0.101562 18.816406 C 0.0820312 18.816406 0.0703125 18.828125 0.0820312 18.851562 C 0.0859375 18.871094 0.0742188 18.90625 0.0546875 18.925781 C 0.0078125 18.972656 -0.0234375 23.015625 0.0195312 23.074219 C 0.03125 23.085938 0.0390625 23.128906 0.03125 23.164062 C 0.0273438 23.203125 0.0351562 23.230469 0.046875 23.230469 C 0.0625 23.230469 0.0703125 23.253906 0.0703125 23.28125 C 0.0703125 23.304688 0.0820312 23.328125 0.09375 23.328125 C 0.109375 23.328125 0.140625 23.386719 0.152344 23.453125 C 0.15625 23.460938 0.179688 23.488281 0.210938 23.515625 C 0.238281 23.539062 0.257812 23.566406 0.253906 23.570312 C 0.234375 23.589844 0.410156 23.761719 0.433594 23.746094 C 0.445312 23.738281 0.457031 23.757812 0.457031 23.785156 C 0.457031 23.820312 0.464844 23.832031 0.492188 23.824219 C 0.515625 23.816406 0.535156 23.824219 0.542969 23.84375 C 0.550781 23.863281 0.566406 23.875 0.578125 23.867188 C 0.589844 23.859375 0.605469 23.871094 0.613281 23.890625 C 0.625 23.917969 0.636719 23.921875 0.660156 23.902344 C 0.683594 23.886719 0.695312 23.890625 0.707031 23.917969 C 0.714844 23.941406 0.734375 23.949219 0.753906 23.945312 C 0.773438 23.9375 0.820312 23.945312 0.855469 23.964844 C 0.929688 24.003906 23.054688 24.019531 23.03125 23.980469 C 23.027344 23.972656 23.066406 23.964844 23.125 23.96875 C 23.195312 23.972656 23.230469 23.960938 23.242188 23.9375 C 23.25 23.917969 23.269531 23.910156 23.292969 23.917969 C 23.3125 23.925781 23.328125 23.921875 23.328125 23.90625 C 23.328125 23.890625 23.347656 23.878906 23.375 23.878906 C 23.402344 23.878906 23.425781 23.871094 23.425781 23.855469 C 23.425781 23.84375 23.441406 23.832031 23.460938 23.832031 C 23.480469 23.832031 23.496094 23.808594 23.496094 23.777344 C 23.496094 23.734375 23.5 23.730469 23.519531 23.761719 C 23.539062 23.789062 23.542969 23.789062 23.542969 23.753906 C 23.542969 23.730469 23.554688 23.714844 23.566406 23.722656 C 23.578125 23.730469 23.59375 23.714844 23.605469 23.6875 C 23.613281 23.660156 23.632812 23.640625 23.652344 23.640625 C 23.671875 23.640625 23.6875 23.625 23.6875 23.605469 C 23.6875 23.585938 23.710938 23.5625 23.738281 23.554688 C 23.761719 23.546875 23.777344 23.53125 23.773438 23.519531 C 23.765625 23.511719 23.777344 23.496094 23.796875 23.488281 C 23.816406 23.480469 23.832031 23.449219 23.832031 23.417969 C 23.832031 23.378906 23.839844 23.375 23.851562 23.394531 C 23.875 23.429688 23.914062 23.367188 23.90625 23.308594 C 23.90625 23.292969 23.921875 23.25 23.945312 23.214844 C 23.984375 23.152344 23.988281 22.753906 23.988281 14.125 L 23.988281 5.097656 L 23.933594 5.039062 C 23.90625 5.007812 23.878906 4.964844 23.878906 4.941406 C 23.878906 4.914062 23.863281 4.894531 23.84375 4.894531 C 23.820312 4.894531 23.8125 4.886719 23.820312 4.871094 C 23.828125 4.859375 23.824219 4.847656 23.808594 4.847656 C 23.796875 4.847656 23.785156 4.824219 23.785156 4.796875 C 23.785156 4.769531 23.773438 4.753906 23.761719 4.761719 C 23.75 4.769531 23.734375 4.757812 23.726562 4.738281 C 23.71875 4.714844 23.722656 4.707031 23.742188 4.71875 C 23.757812 4.726562 23.742188 4.707031 23.707031 4.667969 C 23.667969 4.632812 23.640625 4.59375 23.640625 4.585938 C 23.640625 4.574219 23.617188 4.570312 23.585938 4.570312 C 23.554688 4.570312 23.535156 4.558594 23.539062 4.542969 C 23.539062 4.527344 23.523438 4.507812 23.496094 4.5 C 23.46875 4.492188 23.449219 4.476562 23.449219 4.460938 C 23.449219 4.449219 23.441406 4.441406 23.429688 4.441406 C 23.386719 4.449219 23.351562 4.4375 23.359375 4.421875 C 23.367188 4.410156 23.34375 4.402344 23.308594 4.402344 C 23.273438 4.40625 23.195312 4.382812 23.132812 4.351562 L 23.023438 4.296875 L 20.914062 4.304688 C 19.753906 4.308594 18.761719 4.320312 18.707031 4.328125 C 18.621094 4.339844 18.621094 4.339844 18.695312 4.320312 C 18.769531 4.304688 18.757812 4.300781 18.628906 4.300781 C 18.546875 4.300781 18.480469 4.308594 18.480469 4.320312 C 18.480469 4.328125 18.464844 4.335938 18.445312 4.335938 C 18.425781 4.335938 18.414062 4.328125 18.421875 4.316406 C 18.429688 4.308594 18.410156 4.300781 18.386719 4.300781 C 18.359375 4.304688 18.34375 4.316406 18.351562 4.324219 C 18.359375 4.335938 18.347656 4.34375 18.328125 4.34375 C 18.308594 4.34375 18.285156 4.332031 18.277344 4.3125 C 18.265625 4.289062 18.261719 4.289062 18.25 4.3125 C 18.242188 4.332031 18.226562 4.34375 18.210938 4.34375 C 18.199219 4.34375 18.195312 4.332031 18.203125 4.320312 C 18.210938 4.308594 18.207031 4.296875 18.195312 4.296875 C 18.179688 4.296875 18.167969 4.308594 18.167969 4.320312 "/>
<path style=" stroke:none;fill-rule:evenodd;fill:rgb(45.490196%,58.039216%,70.588235%);fill-opacity:1;" d="M 11.808594 0.0234375 C 11.855469 0.0546875 11.878906 0.0546875 11.878906 0.0234375 C 11.878906 0.0117188 11.855469 0 11.824219 0 C 11.78125 0 11.777344 0.00390625 11.808594 0.0234375 M 0.59375 0.175781 C 0.542969 0.203125 0.503906 0.234375 0.503906 0.246094 C 0.503906 0.277344 0.542969 0.265625 0.585938 0.214844 C 0.609375 0.191406 0.640625 0.175781 0.648438 0.179688 C 0.667969 0.191406 0.707031 0.148438 0.691406 0.132812 C 0.6875 0.128906 0.644531 0.144531 0.59375 0.175781 M 12.433594 0.3125 C 12.453125 0.324219 12.457031 0.335938 12.445312 0.335938 C 12.429688 0.335938 12.4375 0.347656 12.457031 0.359375 C 12.515625 0.398438 12.53125 0.386719 12.488281 0.335938 C 12.464844 0.308594 12.433594 0.289062 12.421875 0.289062 C 12.40625 0.289062 12.414062 0.300781 12.433594 0.3125 M 0.230469 0.515625 C 0.191406 0.550781 0.171875 0.574219 0.183594 0.574219 C 0.210938 0.574219 0.246094 0.550781 0.285156 0.496094 C 0.332031 0.4375 0.3125 0.445312 0.230469 0.515625 M 0.0234375 0.851562 C 0.0234375 0.871094 0.0351562 0.886719 0.046875 0.886719 C 0.0625 0.886719 0.0703125 0.871094 0.0703125 0.851562 C 0.0703125 0.832031 0.0625 0.816406 0.046875 0.816406 C 0.0351562 0.816406 0.0234375 0.832031 0.0234375 0.851562 M 12.832031 0.832031 C 12.808594 0.855469 12.8125 0.910156 12.839844 0.910156 C 12.851562 0.910156 12.859375 0.890625 12.855469 0.863281 C 12.851562 0.808594 12.855469 0.808594 12.832031 0.832031 M 12.878906 0.976562 C 12.871094 0.984375 12.863281 1.019531 12.863281 1.050781 C 12.863281 1.128906 12.898438 1.097656 12.902344 1.019531 C 12.902344 0.953125 12.902344 0.953125 12.878906 0.976562 M 12.910156 1.300781 C 12.910156 1.351562 12.921875 1.394531 12.929688 1.402344 C 12.953125 1.414062 12.949219 1.253906 12.929688 1.230469 C 12.917969 1.222656 12.910156 1.253906 12.910156 1.300781 M 12.433594 3.746094 C 12.433594 3.773438 12.441406 3.789062 12.457031 3.78125 C 12.46875 3.773438 12.480469 3.75 12.480469 3.730469 C 12.480469 3.710938 12.46875 3.695312 12.457031 3.695312 C 12.441406 3.695312 12.433594 3.71875 12.433594 3.746094 M 18.289062 4.320312 C 18.289062 4.347656 18.351562 4.351562 18.367188 4.324219 C 18.375 4.316406 18.359375 4.304688 18.335938 4.300781 C 18.308594 4.300781 18.289062 4.308594 18.289062 4.320312 M 18.695312 4.320312 C 18.613281 4.335938 18.613281 4.335938 18.683594 4.339844 C 18.722656 4.34375 18.773438 4.332031 18.792969 4.320312 C 18.832031 4.292969 18.820312 4.292969 18.695312 4.320312 M 17.664062 4.367188 C 17.664062 4.382812 17.6875 4.390625 17.714844 4.390625 C 17.742188 4.390625 17.757812 4.382812 17.746094 4.367188 C 17.738281 4.355469 17.71875 4.34375 17.699219 4.34375 C 17.679688 4.34375 17.664062 4.355469 17.664062 4.367188 M 17.339844 4.417969 C 17.332031 4.429688 17.359375 4.441406 17.398438 4.441406 C 17.4375 4.441406 17.472656 4.429688 17.472656 4.417969 C 17.472656 4.40625 17.445312 4.398438 17.410156 4.398438 C 17.378906 4.398438 17.34375 4.40625 17.339844 4.417969 M 17.113281 4.464844 C 17.113281 4.476562 17.132812 4.488281 17.160156 4.488281 C 17.1875 4.488281 17.207031 4.476562 17.207031 4.464844 C 17.207031 4.449219 17.1875 4.441406 17.160156 4.441406 C 17.132812 4.441406 17.113281 4.449219 17.113281 4.464844 M 23.53125 4.558594 C 23.539062 4.574219 23.5625 4.585938 23.582031 4.585938 C 23.601562 4.585938 23.613281 4.574219 23.605469 4.558594 C 23.597656 4.546875 23.574219 4.535156 23.554688 4.535156 C 23.535156 4.535156 23.523438 4.546875 23.53125 4.558594 M 16.390625 4.644531 C 16.367188 4.675781 16.371094 4.679688 16.425781 4.675781 C 16.457031 4.671875 16.492188 4.65625 16.496094 4.644531 C 16.511719 4.605469 16.421875 4.605469 16.390625 4.644531 M 16.109375 4.742188 C 16.066406 4.761719 16.03125 4.789062 16.03125 4.804688 C 16.03125 4.824219 16.039062 4.824219 16.0625 4.804688 C 16.082031 4.789062 16.117188 4.773438 16.148438 4.769531 C 16.207031 4.761719 16.234375 4.738281 16.207031 4.722656 C 16.195312 4.714844 16.152344 4.726562 16.109375 4.742188 M 23.785156 4.8125 C 23.785156 4.832031 23.796875 4.847656 23.808594 4.847656 C 23.824219 4.847656 23.828125 4.859375 23.820312 4.871094 C 23.8125 4.886719 23.820312 4.894531 23.839844 4.894531 C 23.871094 4.894531 23.871094 4.886719 23.847656 4.835938 C 23.816406 4.769531 23.785156 4.757812 23.785156 4.8125 M 15.703125 4.933594 C 15.660156 4.949219 15.625 4.976562 15.625 4.988281 C 15.625 5.003906 15.660156 4.992188 15.707031 4.964844 C 15.828125 4.894531 15.828125 4.878906 15.703125 4.933594 M 12.140625 5.136719 C 12.136719 5.183594 12.132812 5.195312 12.109375 5.226562 C 12.089844 5.261719 12.109375 5.296875 12.136719 5.273438 C 12.152344 5.253906 12.171875 5.113281 12.15625 5.113281 C 12.148438 5.113281 12.144531 5.121094 12.140625 5.136719 M 15.230469 5.210938 C 15.234375 5.21875 15.222656 5.230469 15.199219 5.238281 C 15.171875 5.242188 15.164062 5.25 15.183594 5.261719 C 15.199219 5.269531 15.226562 5.257812 15.25 5.234375 C 15.28125 5.199219 15.28125 5.191406 15.253906 5.191406 C 15.234375 5.191406 15.222656 5.199219 15.230469 5.210938 M 14.691406 5.613281 C 14.65625 5.640625 14.648438 5.65625 14.671875 5.65625 C 14.691406 5.65625 14.71875 5.636719 14.734375 5.613281 C 14.765625 5.558594 14.761719 5.558594 14.691406 5.613281 M 14.574219 5.71875 C 14.542969 5.730469 14.519531 5.757812 14.519531 5.777344 C 14.519531 5.824219 14.554688 5.816406 14.617188 5.746094 C 14.675781 5.683594 14.664062 5.675781 14.574219 5.71875 M 14.402344 5.890625 C 14.382812 5.914062 14.382812 5.929688 14.398438 5.9375 C 14.414062 5.949219 14.425781 5.9375 14.425781 5.917969 C 14.425781 5.898438 14.4375 5.878906 14.453125 5.871094 C 14.472656 5.863281 14.472656 5.859375 14.457031 5.859375 C 14.441406 5.855469 14.417969 5.871094 14.402344 5.890625 M 11.9375 6.0625 C 11.929688 6.082031 11.933594 6.113281 11.949219 6.125 C 11.96875 6.148438 11.976562 6.136719 11.976562 6.089844 C 11.976562 6.015625 11.957031 6.003906 11.9375 6.0625 M 14.171875 6.152344 C 14.109375 6.222656 14.105469 6.277344 14.171875 6.21875 C 14.230469 6.160156 14.25 6.117188 14.214844 6.121094 C 14.203125 6.121094 14.183594 6.136719 14.171875 6.152344 M 13.96875 6.421875 C 13.949219 6.441406 13.941406 6.460938 13.949219 6.46875 C 13.957031 6.476562 13.976562 6.464844 13.992188 6.445312 C 14.007812 6.421875 14.015625 6.402344 14.011719 6.394531 C 14.003906 6.386719 13.984375 6.398438 13.96875 6.421875 M 13.804688 6.675781 C 13.773438 6.710938 13.765625 6.777344 13.796875 6.757812 C 13.816406 6.746094 13.851562 6.648438 13.839844 6.648438 C 13.835938 6.648438 13.820312 6.660156 13.804688 6.675781 M 13.664062 6.953125 C 13.660156 7.011719 13.660156 7.011719 13.679688 6.972656 C 13.707031 6.910156 13.707031 6.886719 13.683594 6.886719 C 13.675781 6.886719 13.664062 6.917969 13.664062 6.953125 M 13.515625 7.183594 C 13.480469 7.28125 13.480469 7.296875 13.515625 7.296875 C 13.53125 7.296875 13.539062 7.289062 13.527344 7.28125 C 13.519531 7.273438 13.53125 7.234375 13.550781 7.199219 C 13.589844 7.121094 13.59375 7.105469 13.566406 7.105469 C 13.554688 7.105469 13.53125 7.140625 13.515625 7.183594 M 11.542969 7.851562 C 11.542969 7.878906 11.550781 7.894531 11.5625 7.886719 C 11.585938 7.863281 11.589844 7.800781 11.566406 7.800781 C 11.554688 7.800781 11.542969 7.824219 11.542969 7.851562 M 11.382812 8.425781 C 11.363281 8.449219 11.351562 8.492188 11.351562 8.515625 C 11.351562 8.539062 11.371094 8.519531 11.390625 8.472656 C 11.429688 8.382812 11.425781 8.355469 11.382812 8.425781 M 12.917969 8.75 C 12.929688 8.757812 12.921875 8.792969 12.898438 8.824219 C 12.878906 8.851562 12.875 8.882812 12.882812 8.890625 C 12.894531 8.894531 12.914062 8.871094 12.929688 8.832031 C 12.949219 8.777344 12.949219 8.757812 12.929688 8.746094 C 12.914062 8.734375 12.90625 8.738281 12.917969 8.75 M 12.835938 8.988281 C 12.828125 8.996094 12.824219 9.03125 12.832031 9.0625 C 12.835938 9.09375 12.828125 9.121094 12.816406 9.121094 C 12.804688 9.121094 12.792969 9.132812 12.792969 9.148438 C 12.792969 9.164062 12.804688 9.164062 12.828125 9.144531 C 12.847656 9.125 12.859375 9.097656 12.855469 9.082031 C 12.847656 9.066406 12.851562 9.046875 12.863281 9.042969 C 12.875 9.039062 12.878906 9.023438 12.867188 9.003906 C 12.855469 8.988281 12.84375 8.980469 12.835938 8.988281 M 11.070312 9.125 C 11.074219 9.136719 11.085938 9.148438 11.101562 9.148438 C 11.113281 9.148438 11.125 9.136719 11.128906 9.125 C 11.132812 9.113281 11.121094 9.105469 11.101562 9.105469 C 11.078125 9.105469 11.066406 9.113281 11.070312 9.125 M 11.015625 9.234375 C 10.996094 9.269531 10.976562 9.308594 10.972656 9.320312 C 10.964844 9.332031 10.972656 9.335938 10.988281 9.328125 C 11.003906 9.316406 11.015625 9.296875 11.015625 9.28125 C 11.015625 9.269531 11.035156 9.246094 11.054688 9.226562 C 11.078125 9.210938 11.085938 9.191406 11.070312 9.183594 C 11.058594 9.175781 11.03125 9.199219 11.015625 9.234375 M 10.574219 9.925781 C 10.539062 9.960938 10.511719 9.992188 10.515625 9.996094 C 10.523438 10.003906 10.558594 9.976562 10.597656 9.9375 C 10.679688 9.847656 10.667969 9.84375 10.574219 9.925781 M 12.527344 10.015625 C 12.5 10.101562 12.515625 10.125 12.550781 10.054688 C 12.570312 10.023438 12.570312 10.007812 12.554688 10.007812 C 12.539062 10.007812 12.527344 10.011719 12.527344 10.015625 M 10.417969 10.121094 C 10.40625 10.144531 10.394531 10.15625 10.394531 10.144531 C 10.390625 10.117188 10.320312 10.175781 10.320312 10.203125 C 10.320312 10.214844 10.332031 10.222656 10.34375 10.222656 C 10.359375 10.222656 10.363281 10.214844 10.355469 10.199219 C 10.347656 10.1875 10.359375 10.175781 10.378906 10.175781 C 10.398438 10.175781 10.425781 10.15625 10.441406 10.128906 C 10.472656 10.070312 10.453125 10.0625 10.417969 10.121094 M 10.253906 10.261719 C 10.238281 10.277344 10.234375 10.296875 10.242188 10.304688 C 10.253906 10.308594 10.273438 10.300781 10.289062 10.28125 C 10.304688 10.265625 10.3125 10.246094 10.300781 10.238281 C 10.292969 10.234375 10.269531 10.242188 10.253906 10.261719 M 10.152344 10.363281 C 10.121094 10.398438 10.121094 10.398438 10.160156 10.382812 C 10.183594 10.375 10.207031 10.367188 10.214844 10.367188 C 10.21875 10.367188 10.222656 10.355469 10.222656 10.34375 C 10.222656 10.308594 10.191406 10.316406 10.152344 10.363281 M 12.359375 10.472656 C 12.359375 10.492188 12.371094 10.515625 12.382812 10.523438 C 12.394531 10.53125 12.402344 10.515625 12.402344 10.488281 C 12.398438 10.433594 12.359375 10.421875 12.359375 10.472656 M 12.304688 10.648438 C 12.300781 10.6875 12.285156 10.734375 12.277344 10.757812 C 12.265625 10.78125 12.269531 10.800781 12.28125 10.800781 C 12.296875 10.800781 12.3125 10.769531 12.320312 10.734375 C 12.328125 10.699219 12.339844 10.648438 12.347656 10.625 C 12.359375 10.601562 12.355469 10.585938 12.339844 10.585938 C 12.328125 10.585938 12.3125 10.613281 12.304688 10.648438 M 9.328125 10.957031 C 9.273438 10.988281 9.230469 11.0625 9.28125 11.035156 C 9.398438 10.980469 9.433594 10.957031 9.433594 10.941406 C 9.433594 10.910156 9.40625 10.917969 9.328125 10.957031 M 12.199219 10.996094 C 12.171875 11.03125 12.167969 11.117188 12.191406 11.097656 C 12.207031 11.089844 12.242188 10.96875 12.226562 10.96875 C 12.222656 10.96875 12.210938 10.980469 12.199219 10.996094 M 9.003906 11.152344 C 9.039062 11.195312 9.0625 11.191406 9.0625 11.148438 C 9.0625 11.132812 9.042969 11.117188 9.019531 11.117188 C 8.988281 11.121094 8.984375 11.128906 9.003906 11.152344 M 0.230469 11.226562 C 0.203125 11.25 0.214844 11.28125 0.25 11.28125 C 0.269531 11.28125 0.289062 11.292969 0.296875 11.308594 C 0.304688 11.332031 0.308594 11.332031 0.308594 11.308594 C 0.3125 11.269531 0.25 11.203125 0.230469 11.226562 M 8.660156 11.289062 C 8.625 11.308594 8.589844 11.316406 8.582031 11.308594 C 8.574219 11.300781 8.566406 11.308594 8.566406 11.324219 C 8.566406 11.34375 8.585938 11.347656 8.621094 11.335938 C 8.652344 11.328125 8.691406 11.320312 8.707031 11.320312 C 8.722656 11.320312 8.734375 11.304688 8.734375 11.289062 C 8.734375 11.25 8.738281 11.25 8.660156 11.289062 M 6.453125 11.714844 C 6.429688 11.730469 6.445312 11.734375 6.503906 11.734375 C 6.546875 11.734375 6.578125 11.726562 6.566406 11.71875 C 6.542969 11.695312 6.488281 11.691406 6.453125 11.714844 M 11.96875 11.730469 C 11.921875 11.785156 11.917969 11.808594 11.957031 11.808594 C 11.972656 11.808594 11.976562 11.800781 11.96875 11.792969 C 11.960938 11.78125 11.96875 11.757812 11.992188 11.730469 C 12.011719 11.707031 12.027344 11.6875 12.019531 11.6875 C 12.011719 11.6875 11.988281 11.707031 11.96875 11.730469 M 11.820312 12.164062 C 11.78125 12.191406 11.78125 12.238281 11.820312 12.222656 C 11.839844 12.21875 11.855469 12.195312 11.855469 12.175781 C 11.855469 12.140625 11.851562 12.136719 11.820312 12.164062 M 11.710938 12.480469 C 11.691406 12.492188 11.683594 12.507812 11.695312 12.519531 C 11.703125 12.527344 11.726562 12.523438 11.742188 12.507812 C 11.777344 12.472656 11.757812 12.453125 11.710938 12.480469 M 11.535156 13.015625 C 11.527344 13.042969 11.523438 13.070312 11.53125 13.074219 C 11.554688 13.097656 11.574219 13.0625 11.5625 13.015625 C 11.554688 12.972656 11.554688 12.972656 11.535156 13.015625 M 10.910156 14.921875 C 10.90625 14.933594 10.90625 14.957031 10.917969 14.972656 C 10.933594 14.996094 10.941406 14.996094 10.953125 14.964844 C 10.964844 14.925781 10.933594 14.890625 10.910156 14.921875 M 10.882812 15.054688 C 10.871094 15.070312 10.859375 15.109375 10.855469 15.144531 C 10.851562 15.195312 10.855469 15.191406 10.886719 15.125 C 10.925781 15.039062 10.921875 15.011719 10.882812 15.054688 M 10.714844 15.433594 C 10.707031 15.449219 10.703125 15.464844 10.710938 15.472656 C 10.730469 15.488281 10.777344 15.457031 10.777344 15.429688 C 10.777344 15.398438 10.734375 15.402344 10.714844 15.433594 M 9.429688 17.296875 L 9.371094 17.359375 L 9.4375 17.3125 C 9.472656 17.289062 9.503906 17.261719 9.503906 17.25 C 9.503906 17.21875 9.492188 17.230469 9.429688 17.296875 M 8.832031 17.707031 C 8.835938 17.730469 8.839844 17.734375 8.847656 17.71875 C 8.855469 17.703125 8.871094 17.695312 8.882812 17.703125 C 8.894531 17.707031 8.902344 17.703125 8.902344 17.6875 C 8.902344 17.675781 8.886719 17.664062 8.867188 17.664062 C 8.847656 17.664062 8.832031 17.683594 8.832031 17.707031 M 8.519531 17.820312 C 8.519531 17.839844 8.535156 17.855469 8.554688 17.855469 C 8.574219 17.855469 8.59375 17.839844 8.59375 17.820312 C 8.59375 17.800781 8.574219 17.785156 8.554688 17.785156 C 8.535156 17.785156 8.519531 17.800781 8.519531 17.820312 M 1.089844 18.148438 C 1.082031 18.160156 2.3125 18.164062 3.820312 18.164062 C 5.328125 18.160156 6.328125 18.152344 6.035156 18.152344 C 4.695312 18.132812 1.097656 18.132812 1.089844 18.148438 M 6.660156 18.144531 C 6.65625 18.152344 6.683594 18.160156 6.722656 18.164062 C 6.761719 18.167969 6.792969 18.15625 6.792969 18.144531 C 6.792969 18.121094 6.675781 18.121094 6.660156 18.144531 M 0.511719 18.34375 C 0.480469 18.359375 0.457031 18.378906 0.457031 18.390625 C 0.457031 18.421875 0.496094 18.410156 0.539062 18.359375 C 0.589844 18.308594 0.585938 18.304688 0.511719 18.34375 M 0 23.109375 C 0 23.136719 0.0117188 23.160156 0.0234375 23.160156 C 0.046875 23.160156 0.0429688 23.097656 0.015625 23.074219 C 0.0078125 23.0625 0 23.078125 0 23.109375 M 23.929688 23.242188 C 23.910156 23.277344 23.902344 23.3125 23.910156 23.320312 C 23.921875 23.328125 23.929688 23.320312 23.929688 23.296875 C 23.929688 23.277344 23.941406 23.257812 23.957031 23.25 C 23.972656 23.246094 23.980469 23.226562 23.972656 23.210938 C 23.964844 23.191406 23.949219 23.203125 23.929688 23.242188 M 0.101562 23.386719 C 0.117188 23.421875 0.136719 23.449219 0.144531 23.449219 C 0.15625 23.449219 0.152344 23.421875 0.136719 23.386719 C 0.121094 23.355469 0.101562 23.328125 0.0898438 23.328125 C 0.0820312 23.328125 0.0859375 23.355469 0.101562 23.386719 M 0.167969 23.507812 C 0.167969 23.535156 0.234375 23.589844 0.246094 23.574219 C 0.253906 23.570312 0.246094 23.546875 0.230469 23.527344 C 0.195312 23.496094 0.167969 23.484375 0.167969 23.507812 "/>
</g>
</svg>
