<?xml version="1.0" encoding="UTF-8"?>
<svg xmlns="http://www.w3.org/2000/svg" xmlns:xlink="http://www.w3.org/1999/xlink" width="24px" height="24px" viewBox="0 0 24 24" version="1.1">
<g id="surface1">
<path style=" stroke:none;fill-rule:evenodd;fill:rgb(0%,0%,0%);fill-opacity:1;" d="M 11.90625 0.109375 C 11.871094 0.167969 11.8125 0.265625 11.777344 0.332031 C 11.703125 0.464844 11.027344 1.644531 10.789062 2.054688 C 10.277344 2.9375 9.988281 3.445312 9.988281 3.476562 C 9.988281 3.492188 9.976562 3.511719 9.964844 3.515625 C 9.941406 3.527344 9.761719 3.828125 9.550781 4.207031 C 9.488281 4.320312 9.339844 4.578125 8.949219 5.25 C 8.851562 5.421875 8.660156 5.753906 8.527344 5.984375 C 8.121094 6.707031 7.515625 7.757812 7.351562 8.035156 C 7.265625 8.179688 7.15625 8.367188 7.113281 8.449219 C 7.066406 8.53125 6.960938 8.71875 6.875 8.863281 C 6.785156 9.007812 6.59375 9.34375 6.445312 9.609375 C 6.296875 9.871094 6.042969 10.3125 5.882812 10.585938 C 5.726562 10.859375 5.53125 11.199219 5.449219 11.339844 C 5.371094 11.484375 5.269531 11.660156 5.222656 11.730469 C 5.179688 11.800781 5.144531 11.871094 5.144531 11.878906 C 5.144531 11.890625 5.117188 11.941406 5.082031 11.988281 C 5.046875 12.039062 4.984375 12.144531 4.9375 12.226562 C 4.890625 12.308594 4.710938 12.628906 4.53125 12.9375 C 4.019531 13.832031 3.949219 14.042969 3.949219 14.699219 C 3.949219 15.34375 4.03125 15.570312 4.648438 16.632812 C 4.78125 16.859375 4.917969 17.097656 4.953125 17.164062 C 4.988281 17.226562 5.234375 17.652344 5.496094 18.105469 C 6.019531 19.011719 6.042969 19.054688 6.246094 19.414062 C 6.648438 20.132812 6.839844 20.4375 6.867188 20.417969 C 6.886719 20.40625 6.890625 20.417969 6.875 20.441406 C 6.859375 20.464844 6.878906 20.523438 6.917969 20.578125 C 6.957031 20.628906 6.988281 20.683594 6.988281 20.699219 C 6.988281 20.714844 7.050781 20.832031 7.128906 20.957031 C 7.207031 21.085938 7.304688 21.25 7.34375 21.324219 C 7.980469 22.558594 9.414062 23.632812 10.855469 23.957031 C 11.277344 24.050781 12.722656 24.050781 13.128906 23.957031 C 14.082031 23.734375 14.925781 23.28125 15.601562 22.632812 C 16.171875 22.089844 16.335938 21.851562 17.257812 20.242188 C 17.316406 20.144531 17.476562 19.867188 17.613281 19.625 C 17.753906 19.386719 17.894531 19.140625 17.929688 19.078125 C 18.054688 18.855469 18.910156 17.367188 19.476562 16.382812 C 19.769531 15.875 19.851562 15.710938 19.921875 15.488281 C 20.148438 14.777344 20.054688 13.996094 19.667969 13.320312 C 19.589844 13.183594 19.484375 12.996094 19.433594 12.90625 C 19.382812 12.8125 19.308594 12.6875 19.269531 12.625 C 19.230469 12.558594 19.125 12.382812 19.039062 12.226562 C 18.953125 12.070312 18.636719 11.519531 18.335938 11 C 17.722656 9.933594 17.484375 9.523438 17.308594 9.210938 C 17.238281 9.09375 17.15625 8.941406 17.117188 8.878906 C 17.082031 8.816406 16.964844 8.609375 16.855469 8.425781 C 16.65625 8.070312 16.636719 8.046875 16.601562 8.140625 C 16.589844 8.175781 16.523438 8.296875 16.453125 8.414062 C 16.382812 8.535156 16.203125 8.847656 16.054688 9.113281 C 15.90625 9.375 15.746094 9.644531 15.707031 9.710938 C 15.523438 10.003906 15.296875 10.441406 15.316406 10.472656 C 15.324219 10.488281 15.316406 10.5 15.296875 10.496094 C 15.25 10.484375 14.867188 11.132812 14.886719 11.191406 C 14.894531 11.214844 14.886719 11.226562 14.875 11.21875 C 14.859375 11.210938 14.8125 11.265625 14.769531 11.339844 C 14.726562 11.417969 14.625 11.601562 14.539062 11.746094 C 14.304688 12.140625 14.019531 12.640625 13.863281 12.921875 C 13.734375 13.148438 13.605469 13.378906 13.074219 14.296875 C 12.765625 14.824219 12.277344 15.675781 12.199219 15.820312 C 12.160156 15.894531 12.09375 16.003906 12.058594 16.0625 L 11.992188 16.171875 L 11.917969 16.046875 C 11.878906 15.976562 11.6875 15.648438 11.492188 15.3125 C 11.078125 14.59375 11.09375 14.734375 11.375 14.265625 C 11.5 14.054688 11.605469 13.875 11.605469 13.863281 C 11.605469 13.855469 11.640625 13.792969 11.683594 13.722656 C 11.722656 13.65625 12.023438 13.140625 12.347656 12.574219 C 12.671875 12.007812 13.097656 11.261719 13.296875 10.917969 C 13.496094 10.570312 13.695312 10.21875 13.738281 10.136719 C 13.785156 10.054688 13.832031 9.972656 13.847656 9.957031 C 13.859375 9.9375 14.042969 9.621094 14.253906 9.253906 C 14.460938 8.886719 14.671875 8.523438 14.71875 8.453125 C 14.765625 8.378906 14.800781 8.308594 14.800781 8.300781 C 14.800781 8.289062 14.859375 8.1875 14.929688 8.074219 C 15.09375 7.808594 15.386719 7.289062 15.492188 7.074219 C 15.566406 6.929688 15.578125 6.867188 15.578125 6.578125 C 15.578125 6.175781 15.605469 6.246094 14.917969 5.054688 C 14.636719 4.5625 14.40625 4.152344 14.40625 4.136719 C 14.40625 4.121094 14.394531 4.109375 14.375 4.109375 C 14.359375 4.109375 14.339844 4.082031 14.335938 4.054688 C 14.328125 4.019531 14.289062 4.066406 14.230469 4.175781 C 14.175781 4.277344 14.117188 4.378906 14.09375 4.40625 C 14.070312 4.433594 14 4.554688 13.9375 4.671875 C 13.785156 4.957031 13.355469 5.703125 13.226562 5.917969 C 13.167969 6.011719 13.121094 6.097656 13.121094 6.105469 C 13.121094 6.117188 13.042969 6.257812 12.945312 6.417969 C 12.726562 6.777344 11.949219 8.132812 11.738281 8.515625 C 11.652344 8.671875 11.484375 8.960938 11.367188 9.160156 C 11.25 9.363281 11.09375 9.628906 11.019531 9.757812 C 10.949219 9.886719 10.699219 10.316406 10.464844 10.71875 C 10.234375 11.121094 9.984375 11.558594 9.90625 11.695312 C 9.832031 11.832031 9.683594 12.085938 9.585938 12.257812 C 9.40625 12.5625 9.039062 13.203125 8.460938 14.214844 L 8.1875 14.695312 L 8.292969 14.859375 C 8.351562 14.949219 8.429688 15.085938 8.46875 15.160156 C 8.566406 15.335938 8.632812 15.457031 9.015625 16.117188 C 9.195312 16.429688 9.367188 16.730469 9.402344 16.792969 C 9.570312 17.097656 10.203125 18.199219 10.335938 18.421875 C 10.394531 18.523438 10.476562 18.664062 10.515625 18.738281 C 10.945312 19.515625 11.097656 19.703125 11.449219 19.886719 C 11.992188 20.171875 12.824219 19.921875 13.089844 19.390625 C 13.113281 19.339844 13.207031 19.183594 13.292969 19.039062 C 13.378906 18.898438 13.449219 18.773438 13.449219 18.761719 C 13.449219 18.746094 13.753906 18.222656 13.917969 17.953125 C 13.96875 17.871094 14.011719 17.792969 14.011719 17.78125 C 14.011719 17.769531 14.0625 17.679688 14.128906 17.578125 C 14.191406 17.476562 14.253906 17.367188 14.265625 17.335938 C 14.277344 17.304688 14.304688 17.257812 14.324219 17.230469 C 14.347656 17.203125 14.40625 17.105469 14.457031 17.011719 C 14.671875 16.625 15.445312 15.28125 15.515625 15.175781 C 15.558594 15.113281 15.59375 15.050781 15.59375 15.035156 C 15.59375 15.023438 15.671875 14.882812 15.769531 14.722656 C 15.867188 14.5625 16.097656 14.15625 16.289062 13.824219 C 16.679688 13.132812 16.640625 13.167969 16.765625 13.390625 C 16.820312 13.484375 16.886719 13.601562 16.914062 13.648438 C 17.523438 14.699219 17.515625 14.6875 17.472656 14.757812 C 17.425781 14.832031 16.78125 15.941406 16.671875 16.136719 C 16.636719 16.199219 16.570312 16.320312 16.523438 16.402344 C 16.476562 16.484375 16.335938 16.730469 16.210938 16.949219 C 16.082031 17.167969 15.925781 17.441406 15.855469 17.558594 C 15.789062 17.679688 15.542969 18.109375 15.304688 18.519531 C 15.070312 18.929688 14.761719 19.46875 14.621094 19.714844 C 13.878906 21.015625 13.1875 21.484375 12 21.484375 C 10.910156 21.484375 10.082031 20.984375 9.523438 19.988281 C 9.429688 19.824219 8.578125 18.34375 7.894531 17.164062 C 7.566406 16.589844 7.308594 16.144531 7.15625 15.871094 C 7.089844 15.753906 6.914062 15.445312 6.765625 15.1875 C 6.445312 14.632812 6.457031 14.714844 6.652344 14.371094 C 6.738281 14.222656 6.828125 14.066406 6.847656 14.03125 C 6.867188 13.996094 6.96875 13.828125 7.070312 13.660156 C 7.171875 13.492188 7.253906 13.34375 7.253906 13.335938 C 7.253906 13.324219 7.289062 13.261719 7.332031 13.191406 C 7.375 13.121094 7.507812 12.894531 7.625 12.6875 C 7.738281 12.480469 7.921875 12.160156 8.027344 11.976562 C 8.363281 11.394531 8.710938 10.792969 8.769531 10.683594 C 8.910156 10.433594 9.347656 9.679688 9.417969 9.566406 C 9.460938 9.5 9.496094 9.433594 9.496094 9.421875 C 9.496094 9.410156 9.5625 9.289062 9.644531 9.148438 C 9.730469 9.011719 9.808594 8.875 9.824219 8.847656 C 9.894531 8.722656 10.339844 7.953125 10.617188 7.472656 C 10.785156 7.179688 11.199219 6.464844 11.53125 5.882812 C 11.867188 5.296875 12.25 4.632812 12.382812 4.40625 C 12.515625 4.179688 12.667969 3.910156 12.726562 3.808594 C 12.78125 3.710938 12.878906 3.539062 12.941406 3.429688 C 13.402344 2.636719 13.378906 2.335938 12.773438 1.320312 C 12.675781 1.152344 12.59375 1.015625 12.59375 1.007812 C 12.59375 1.003906 12.535156 0.90625 12.46875 0.789062 C 12.398438 0.675781 12.296875 0.496094 12.242188 0.398438 C 11.988281 -0.0625 12.003906 -0.0507812 11.90625 0.109375 "/>
</g>
</svg>
