<?xml version="1.0" encoding="UTF-8"?>
<svg xmlns="http://www.w3.org/2000/svg" xmlns:xlink="http://www.w3.org/1999/xlink" width="24px" height="24px" viewBox="0 0 24 24" version="1.1">
<g id="surface1">
<path style=" stroke:none;fill-rule:evenodd;fill:rgb(0%,0%,0%);fill-opacity:1;" d="M 10.777344 1.671875 C 9.664062 1.703125 8.46875 1.941406 7.300781 2.355469 C 7.042969 2.449219 6.617188 2.613281 6.625 2.621094 C 6.628906 2.625 6.730469 2.605469 6.855469 2.578125 C 7.699219 2.40625 8.761719 2.335938 9.457031 2.398438 C 11.605469 2.601562 13.351562 3.433594 14.882812 4.988281 C 18.109375 8.257812 19.058594 13.808594 16.988281 17.296875 C 16.808594 17.597656 17.484375 16.730469 17.804688 16.242188 C 19.84375 13.171875 20.136719 9.410156 18.585938 6.304688 C 17.089844 3.308594 14.164062 1.570312 10.777344 1.671875 M 8.269531 4.308594 C 5.394531 4.460938 2.851562 6.34375 1.386719 9.410156 C 1.226562 9.738281 0.925781 10.445312 0.925781 10.484375 C 0.925781 10.488281 0.964844 10.421875 1.007812 10.335938 C 1.816406 8.796875 2.945312 7.65625 4.339844 6.96875 C 8.742188 4.796875 14.761719 7.601562 16.34375 12.5625 C 16.378906 12.671875 16.40625 12.742188 16.40625 12.722656 C 16.414062 11.675781 16.160156 10.339844 15.757812 9.316406 C 14.511719 6.144531 11.507812 4.136719 8.269531 4.308594 M 8.25 8.355469 C 6.210938 8.445312 4.375 9.476562 3.261719 11.160156 C 2.566406 12.21875 2.171875 13.4375 2.046875 14.929688 C 2.027344 15.175781 2.027344 16.226562 2.046875 16.488281 C 2.070312 16.789062 2.132812 17.347656 2.140625 17.339844 C 2.140625 17.339844 2.148438 17.230469 2.15625 17.097656 C 2.210938 16.082031 2.425781 15.195312 2.816406 14.347656 C 4.867188 9.917969 11.398438 8.835938 14.933594 12.339844 L 15.1875 12.589844 L 15.136719 12.503906 C 13.875 10.183594 11.660156 8.636719 9.242188 8.386719 C 9.085938 8.367188 8.585938 8.34375 8.5 8.347656 C 8.484375 8.347656 8.371094 8.351562 8.25 8.355469 "/>
</g>
</svg>
