<?xml version="1.0" encoding="UTF-8"?>
<svg xmlns="http://www.w3.org/2000/svg" xmlns:xlink="http://www.w3.org/1999/xlink" width="24px" height="24px" viewBox="0 0 24 24" version="1.1">
<g id="surface1">
<path style=" stroke:none;fill-rule:evenodd;fill:rgb(0%,0%,0%);fill-opacity:1;" d="M 14.757812 0.0234375 C 14.738281 0.0429688 12.523438 0.871094 12.1875 0.984375 C 12.125 1.007812 11.554688 1.214844 10.921875 1.453125 C 10.289062 1.6875 9.339844 2.039062 8.8125 2.234375 C 8.285156 2.429688 7.683594 2.648438 7.476562 2.726562 C 7.269531 2.804688 6.878906 2.949219 6.609375 3.046875 C 6.339844 3.148438 5.855469 3.324219 5.53125 3.445312 C 5.207031 3.566406 4.722656 3.746094 4.453125 3.84375 C 4.183594 3.945312 3.707031 4.121094 3.398438 4.234375 C 3.089844 4.347656 2.652344 4.511719 2.425781 4.59375 L 2.015625 4.746094 L 2.015625 19.363281 L 2.121094 19.40625 C 2.179688 19.429688 2.605469 19.585938 3.070312 19.75 C 3.535156 19.914062 4.777344 20.363281 5.835938 20.742188 C 6.894531 21.125 8.09375 21.554688 8.507812 21.703125 C 8.921875 21.851562 9.5625 22.082031 9.9375 22.214844 C 12.898438 23.285156 14.910156 24 14.949219 24 C 14.972656 24 15.273438 23.914062 15.617188 23.8125 C 16.476562 23.550781 18.035156 23.082031 18.515625 22.9375 C 18.734375 22.875 19.179688 22.738281 19.5 22.640625 C 19.820312 22.542969 20.277344 22.40625 20.507812 22.335938 C 20.738281 22.269531 21.167969 22.136719 21.457031 22.046875 L 21.984375 21.886719 L 21.984375 2.222656 L 18.503906 1.109375 C 15.332031 0.09375 14.832031 -0.0507812 14.757812 0.0234375 M 14.90625 12.425781 L 14.90625 20.863281 L 14.707031 20.839844 C 14.25 20.78125 12.894531 20.617188 11.953125 20.507812 C 11.398438 20.441406 10.597656 20.347656 10.171875 20.292969 C 9.746094 20.242188 9.144531 20.171875 8.835938 20.132812 C 8.527344 20.097656 7.925781 20.023438 7.5 19.972656 C 7.074219 19.917969 6.273438 19.824219 5.71875 19.757812 C 5.164062 19.691406 4.375 19.597656 3.960938 19.546875 C 3.546875 19.496094 2.984375 19.429688 2.707031 19.398438 C 2.429688 19.367188 2.21875 19.328125 2.238281 19.308594 C 2.257812 19.292969 2.769531 19.0625 3.375 18.796875 C 5.210938 17.996094 5.960938 17.664062 6.269531 17.527344 L 6.5625 17.398438 L 6.5625 5.914062 L 7.394531 5.71875 C 7.851562 5.613281 8.394531 5.484375 8.601562 5.4375 C 8.921875 5.359375 10.40625 5.015625 13.546875 4.285156 C 13.945312 4.191406 14.378906 4.085938 14.507812 4.054688 C 14.636719 4.019531 14.777344 3.992188 14.824219 3.988281 C 14.902344 3.984375 14.90625 4.414062 14.90625 12.425781 "/>
</g>
</svg>
