<?xml version="1.0" encoding="UTF-8"?>
<svg xmlns="http://www.w3.org/2000/svg" xmlns:xlink="http://www.w3.org/1999/xlink" width="24px" height="24px" viewBox="0 0 24 24" version="1.1">
<g id="surface1">
<path style=" stroke:none;fill-rule:evenodd;fill:rgb(0%,0%,0%);fill-opacity:1;" d="M 14.84375 3.027344 L 13.417969 4.042969 L 13.03125 3.796875 C 12.816406 3.660156 12.160156 3.230469 11.578125 2.84375 L 10.515625 2.144531 L 9.335938 2.769531 C 8.691406 3.117188 7.464844 3.777344 6.613281 4.238281 L 5.066406 5.078125 L 4.308594 8.113281 C 2.59375 14.964844 2.171875 16.742188 2.230469 16.824219 C 2.265625 16.875 2.964844 17.421875 3.785156 18.039062 C 4.609375 18.660156 6.113281 19.796875 7.132812 20.570312 C 8.152344 21.339844 9.015625 21.96875 9.054688 21.964844 C 9.089844 21.960938 9.597656 21.386719 10.183594 20.6875 C 10.769531 19.984375 11.277344 19.414062 11.316406 19.414062 C 11.351562 19.414062 11.808594 19.683594 12.332031 20.011719 C 12.851562 20.339844 13.707031 20.871094 14.226562 21.191406 L 15.175781 21.769531 L 15.828125 21.613281 C 16.1875 21.527344 17.222656 21.285156 18.132812 21.078125 C 19.042969 20.867188 20.351562 20.5625 21.042969 20.402344 L 22.296875 20.105469 L 20.890625 17.1875 L 19.480469 14.269531 L 20.539062 12.148438 C 21.457031 10.300781 21.574219 10.011719 21.4375 9.882812 C 21.351562 9.804688 20.71875 9.273438 20.03125 8.703125 L 18.78125 7.664062 L 18.71875 5.28125 L 17.867188 5.226562 L 17.019531 5.171875 L 16.640625 3.59375 L 16.265625 2.011719 L 14.84375 3.027344 M 11.308594 4.441406 C 12.394531 5.164062 12.285156 5.226562 9.878906 5.222656 L 7.945312 5.222656 L 9.066406 4.59375 C 10.433594 3.828125 10.390625 3.832031 11.308594 4.441406 M 15.40625 4.867188 C 15.5 5.230469 15.472656 5.246094 14.871094 5.207031 L 14.359375 5.171875 L 14.78125 4.886719 C 15.304688 4.527344 15.320312 4.527344 15.40625 4.867188 M 17.28125 12 L 17.28125 17.28125 L 6.71875 17.28125 L 6.71875 6.71875 L 17.28125 6.71875 L 17.28125 12 M 8.320312 10.335938 L 8.320312 12.351562 L 8.746094 12.390625 L 9.171875 12.433594 L 9.171875 11.199219 L 9.703125 11.199219 C 10.84375 11.199219 11.519531 10.664062 11.519531 9.761719 C 11.519531 8.6875 10.960938 8.320312 9.332031 8.320312 L 8.320312 8.320312 L 8.320312 10.335938 M 13.386719 8.605469 C 10.980469 9.867188 12.75 13.582031 15.199219 12.417969 C 16.148438 11.96875 15.992188 11.144531 15.042969 11.570312 C 14.003906 12.039062 13.171875 11.566406 13.171875 10.507812 C 13.171875 9.449219 14.121094 8.914062 15.039062 9.453125 L 15.375 9.652344 L 15.648438 9.339844 L 15.917969 9.023438 L 15.625 8.789062 C 15.125 8.390625 13.972656 8.296875 13.386719 8.605469 M 10.453125 9.386719 C 10.949219 9.882812 10.546875 10.453125 9.707031 10.453125 L 9.171875 10.453125 L 9.171875 9.171875 L 9.707031 9.171875 C 10.097656 9.171875 10.296875 9.230469 10.453125 9.386719 M 19.335938 10.058594 L 19.734375 10.402344 L 19.300781 11.253906 C 19.0625 11.722656 18.84375 12.125 18.820312 12.148438 C 18.792969 12.175781 18.773438 11.636719 18.773438 10.949219 C 18.773438 9.570312 18.769531 9.574219 19.335938 10.058594 M 5.179688 17.148438 C 5.09375 17.234375 3.824219 16.191406 3.871094 16.070312 C 3.894531 16 4.195312 14.773438 4.542969 13.34375 L 5.171875 10.738281 L 5.203125 13.917969 C 5.21875 15.667969 5.207031 17.121094 5.179688 17.148438 M 8.214844 15.414062 L 8.214844 15.785156 L 12.695312 15.785156 L 12.695312 15.039062 L 8.214844 15.039062 L 8.214844 15.414062 M 19.953125 19.105469 C 19.863281 19.140625 18.808594 19.398438 17.617188 19.675781 L 15.445312 20.175781 L 14.332031 19.503906 L 13.222656 18.828125 L 15.972656 18.773438 L 18.71875 18.71875 L 18.789062 16.265625 L 19.457031 17.652344 C 20.011719 18.808594 20.09375 19.050781 19.953125 19.105469 M 9.691406 18.960938 C 9.613281 19.0625 9.378906 19.328125 9.171875 19.550781 L 8.792969 19.957031 L 8.078125 19.414062 C 7.171875 18.730469 7.140625 18.773438 8.601562 18.773438 C 9.765625 18.773438 9.832031 18.785156 9.691406 18.960938 "/>
</g>
</svg>
