<?xml version="1.0" encoding="UTF-8"?>
<svg xmlns="http://www.w3.org/2000/svg" xmlns:xlink="http://www.w3.org/1999/xlink" width="24px" height="24px" viewBox="0 0 24 24" version="1.1">
<g id="surface1">
<path style=" stroke:none;fill-rule:evenodd;fill:rgb(0%,0%,0%);fill-opacity:1;" d="M 11.109375 0.0234375 C 8.457031 0.222656 6.378906 1.285156 6.039062 2.613281 C 6.003906 2.757812 6 2.839844 6 4.082031 L 6 5.398438 L 12 5.398438 L 12 6 L 7.382812 6 C 2.167969 6 2.65625 5.984375 2.292969 6.15625 C -0.632812 7.550781 -0.792969 15.851562 2.074219 17.722656 C 2.492188 17.996094 2.527344 18 4.09375 18 L 5.398438 18 L 5.398438 17.714844 C 5.402344 14.5 5.976562 12.863281 7.328125 12.203125 C 8.160156 11.792969 8.992188 11.699219 11.78125 11.699219 C 14.324219 11.699219 15.21875 11.632812 15.984375 11.378906 C 17.28125 10.953125 17.785156 9.96875 17.960938 7.511719 C 18.011719 6.847656 18.011719 2.808594 17.960938 2.621094 C 17.542969 0.953125 14.425781 -0.226562 11.109375 0.0234375 M 8.988281 1.929688 C 9.667969 2.105469 10.007812 2.902344 9.675781 3.527344 C 9.273438 4.285156 8.128906 4.285156 7.726562 3.527344 C 7.273438 2.675781 8.054688 1.6875 8.988281 1.929688 M 18.601562 6.285156 C 18.597656 10.273438 17.753906 11.773438 15.300781 12.148438 C 14.566406 12.261719 14.175781 12.28125 11.839844 12.300781 C 9.570312 12.320312 9.121094 12.339844 8.515625 12.449219 C 6.820312 12.761719 6.238281 13.707031 6.039062 16.488281 C 5.996094 17.03125 5.988281 21.183594 6.027344 21.347656 C 6.316406 22.59375 8.117188 23.617188 10.539062 23.917969 C 14.03125 24.351562 17.503906 23.167969 17.960938 21.386719 C 17.996094 21.242188 18 21.15625 18 19.917969 L 18 18.601562 L 12 18.601562 L 12 18 L 16.605469 18 C 21.640625 18 21.324219 18.007812 21.621094 17.882812 C 24.578125 16.648438 24.84375 8.339844 21.992188 6.324219 C 21.550781 6.007812 21.496094 6 19.917969 6 L 18.601562 6 L 18.601562 6.285156 M 15.589844 19.929688 C 16.265625 20.105469 16.605469 20.902344 16.273438 21.527344 C 15.871094 22.285156 14.726562 22.285156 14.324219 21.527344 C 13.875 20.675781 14.65625 19.6875 15.589844 19.929688 "/>
</g>
</svg>
