<?xml version="1.0" encoding="UTF-8"?>
<svg xmlns="http://www.w3.org/2000/svg" xmlns:xlink="http://www.w3.org/1999/xlink" width="24px" height="24px" viewBox="0 0 24 24" version="1.1">
<g id="surface1">
<path style=" stroke:none;fill-rule:evenodd;fill:rgb(0%,0%,0%);fill-opacity:1;" d="M 6.828125 0.015625 C 6.761719 0.03125 6.734375 0.0390625 6.589844 0.0859375 C 6.433594 0.140625 6.085938 0.324219 6.050781 0.371094 C 6.050781 0.375 6.03125 0.390625 6.015625 0.398438 C 5.902344 0.464844 5.527344 0.867188 5.472656 0.980469 C 5.46875 0.992188 5.460938 1.003906 5.457031 1.007812 C 5.449219 1.015625 5.316406 1.234375 5.308594 1.257812 C 5.304688 1.269531 5.289062 1.300781 5.277344 1.324219 C 5.261719 1.351562 5.222656 1.433594 5.191406 1.511719 C 5.160156 1.585938 5.125 1.664062 5.117188 1.679688 C 5.113281 1.695312 5.097656 1.730469 5.09375 1.757812 C 5.085938 1.785156 5.074219 1.808594 5.070312 1.816406 C 5.0625 1.832031 4.953125 2.214844 4.933594 2.308594 C 4.921875 2.347656 4.910156 2.40625 4.90625 2.433594 C 4.898438 2.464844 4.886719 2.523438 4.878906 2.566406 C 4.871094 2.609375 4.863281 2.660156 4.859375 2.679688 C 4.855469 2.699219 4.847656 2.769531 4.835938 2.835938 C 4.679688 4 4.765625 5.40625 5.097656 7.066406 C 5.121094 7.191406 5.152344 7.335938 5.164062 7.382812 L 5.183594 7.46875 L 5.121094 7.488281 C 5.085938 7.5 5.042969 7.515625 5.023438 7.519531 C 4.898438 7.5625 4.664062 7.648438 4.582031 7.679688 C 4.476562 7.714844 4.089844 7.871094 4.027344 7.898438 C 4.007812 7.90625 3.933594 7.941406 3.859375 7.972656 C 3.71875 8.03125 3.390625 8.1875 3.292969 8.238281 C 3.257812 8.257812 3.207031 8.28125 3.183594 8.296875 C 3.019531 8.375 2.414062 8.738281 2.273438 8.839844 C 2.265625 8.847656 2.246094 8.859375 2.226562 8.871094 C 2.210938 8.882812 2.160156 8.917969 2.121094 8.949219 C 2.078125 8.980469 2.039062 9.007812 2.035156 9.007812 C 2.03125 9.007812 2.023438 9.011719 2.023438 9.015625 C 2.015625 9.03125 1.953125 9.078125 1.941406 9.078125 C 1.9375 9.078125 1.929688 9.082031 1.929688 9.089844 C 1.925781 9.09375 1.886719 9.128906 1.835938 9.167969 C 1.789062 9.203125 1.714844 9.261719 1.675781 9.300781 C 1.632812 9.335938 1.578125 9.386719 1.550781 9.410156 C 1.5 9.457031 1.488281 9.46875 1.40625 9.550781 C 0.957031 9.992188 0.636719 10.472656 0.449219 10.980469 C 0.410156 11.09375 0.390625 11.144531 0.351562 11.304688 C 0.324219 11.410156 0.320312 11.417969 0.292969 11.621094 C 0.242188 11.960938 0.292969 12.578125 0.386719 12.816406 C 0.390625 12.828125 0.40625 12.878906 0.421875 12.929688 C 0.457031 13.042969 0.582031 13.332031 0.640625 13.433594 C 0.714844 13.5625 0.796875 13.703125 0.804688 13.710938 C 0.8125 13.71875 0.890625 13.828125 0.917969 13.878906 C 1.066406 14.105469 1.480469 14.535156 1.765625 14.761719 C 1.796875 14.785156 1.828125 14.816406 1.839844 14.828125 C 1.851562 14.839844 1.863281 14.847656 1.867188 14.847656 C 1.871094 14.847656 1.894531 14.867188 1.921875 14.890625 C 1.945312 14.914062 1.96875 14.933594 1.976562 14.933594 C 1.980469 14.933594 2.019531 14.960938 2.0625 14.996094 C 2.15625 15.070312 2.300781 15.171875 2.308594 15.171875 C 2.3125 15.171875 2.339844 15.191406 2.371094 15.210938 C 2.464844 15.28125 3.027344 15.617188 3.160156 15.679688 C 3.1875 15.695312 3.242188 15.722656 3.285156 15.746094 C 3.328125 15.765625 3.375 15.789062 3.386719 15.796875 C 3.398438 15.800781 3.429688 15.816406 3.453125 15.832031 C 3.480469 15.84375 3.507812 15.855469 3.511719 15.855469 C 3.515625 15.855469 3.539062 15.867188 3.5625 15.878906 C 3.585938 15.890625 3.671875 15.933594 3.757812 15.96875 C 3.839844 16.007812 3.917969 16.042969 3.933594 16.050781 C 3.988281 16.074219 4.160156 16.148438 4.277344 16.191406 C 4.34375 16.21875 4.410156 16.242188 4.425781 16.25 C 4.445312 16.261719 4.765625 16.378906 4.890625 16.421875 C 4.988281 16.457031 5.140625 16.507812 5.160156 16.511719 C 5.183594 16.519531 5.183594 16.519531 5.167969 16.578125 C 5.148438 16.648438 5.117188 16.820312 5.046875 17.1875 C 5.015625 17.351562 4.949219 17.742188 4.914062 17.980469 C 4.894531 18.105469 4.851562 18.441406 4.835938 18.585938 C 4.816406 18.785156 4.8125 18.820312 4.785156 19.21875 C 4.761719 19.507812 4.753906 20.339844 4.773438 20.492188 C 4.773438 20.511719 4.78125 20.578125 4.785156 20.636719 C 4.804688 20.949219 4.871094 21.4375 4.925781 21.644531 C 4.929688 21.664062 4.945312 21.722656 4.957031 21.773438 C 4.984375 21.894531 5.0625 22.15625 5.070312 22.171875 C 5.074219 22.175781 5.085938 22.210938 5.097656 22.242188 C 5.121094 22.324219 5.230469 22.574219 5.273438 22.660156 C 5.292969 22.699219 5.3125 22.734375 5.3125 22.742188 C 5.3125 22.746094 5.316406 22.753906 5.320312 22.753906 C 5.328125 22.753906 5.332031 22.757812 5.332031 22.765625 C 5.332031 22.78125 5.503906 23.054688 5.554688 23.121094 C 5.605469 23.191406 5.773438 23.378906 5.8125 23.414062 C 5.828125 23.429688 5.855469 23.453125 5.867188 23.464844 C 5.882812 23.480469 5.902344 23.5 5.917969 23.507812 C 5.929688 23.519531 5.945312 23.53125 5.953125 23.542969 C 5.960938 23.550781 5.972656 23.554688 5.976562 23.554688 C 5.984375 23.554688 5.992188 23.5625 6 23.574219 C 6.027344 23.609375 6.257812 23.753906 6.386719 23.816406 C 6.507812 23.875 6.589844 23.90625 6.742188 23.945312 C 6.773438 23.957031 6.8125 23.96875 6.832031 23.972656 C 6.902344 23.992188 7.742188 23.992188 7.847656 23.96875 C 7.902344 23.957031 7.960938 23.945312 7.976562 23.945312 C 8.105469 23.917969 8.4375 23.804688 8.644531 23.71875 C 8.683594 23.699219 8.730469 23.683594 8.746094 23.675781 C 8.761719 23.671875 8.78125 23.660156 8.792969 23.65625 C 8.804688 23.648438 8.828125 23.632812 8.847656 23.625 C 9.113281 23.492188 9.410156 23.324219 9.5625 23.21875 C 9.582031 23.207031 9.601562 23.191406 9.609375 23.1875 C 9.617188 23.183594 9.671875 23.144531 9.730469 23.105469 C 9.792969 23.0625 9.84375 23.027344 9.84375 23.027344 C 9.847656 23.027344 9.863281 23.019531 9.878906 23.007812 C 9.902344 22.988281 10.070312 22.859375 10.300781 22.683594 C 10.328125 22.660156 10.363281 22.632812 10.375 22.621094 C 10.386719 22.605469 10.398438 22.597656 10.402344 22.597656 C 10.40625 22.597656 10.4375 22.574219 10.46875 22.546875 C 10.5 22.519531 10.535156 22.488281 10.550781 22.476562 C 10.585938 22.449219 10.714844 22.332031 10.785156 22.269531 C 10.820312 22.238281 10.859375 22.203125 10.871094 22.191406 C 10.882812 22.179688 10.898438 22.164062 10.90625 22.160156 C 10.914062 22.152344 10.9375 22.132812 10.957031 22.113281 C 10.976562 22.097656 11.007812 22.066406 11.027344 22.046875 C 11.046875 22.027344 11.078125 22 11.09375 21.984375 C 11.113281 21.96875 11.136719 21.945312 11.152344 21.929688 C 11.164062 21.917969 11.203125 21.878906 11.234375 21.847656 C 11.269531 21.8125 11.320312 21.761719 11.347656 21.734375 C 11.378906 21.703125 11.414062 21.664062 11.433594 21.648438 C 11.550781 21.53125 11.742188 21.328125 11.914062 21.140625 L 12 21.042969 L 12.054688 21.105469 C 12.082031 21.136719 12.128906 21.183594 12.152344 21.210938 C 12.214844 21.285156 12.355469 21.429688 12.433594 21.511719 C 12.472656 21.550781 12.519531 21.597656 12.535156 21.621094 C 12.589844 21.675781 12.707031 21.792969 12.796875 21.878906 C 12.808594 21.886719 12.828125 21.910156 12.84375 21.925781 C 12.863281 21.941406 12.882812 21.960938 12.890625 21.96875 C 12.90625 21.980469 13.023438 22.09375 13.039062 22.109375 C 13.046875 22.117188 13.066406 22.136719 13.085938 22.152344 C 13.105469 22.167969 13.125 22.1875 13.132812 22.195312 C 13.136719 22.203125 13.179688 22.238281 13.222656 22.273438 C 13.265625 22.3125 13.316406 22.359375 13.335938 22.378906 C 13.355469 22.398438 13.375 22.417969 13.378906 22.417969 C 13.382812 22.417969 13.390625 22.421875 13.398438 22.433594 C 13.40625 22.441406 13.464844 22.488281 13.523438 22.535156 C 13.582031 22.585938 13.636719 22.628906 13.636719 22.632812 C 13.640625 22.636719 13.671875 22.660156 13.707031 22.6875 C 13.742188 22.710938 13.769531 22.738281 13.773438 22.742188 C 13.777344 22.746094 13.835938 22.789062 13.90625 22.84375 C 14.152344 23.027344 14.160156 23.03125 14.394531 23.191406 C 14.59375 23.324219 14.898438 23.503906 15.09375 23.597656 C 15.15625 23.628906 15.21875 23.65625 15.230469 23.664062 C 15.363281 23.738281 15.847656 23.90625 16.03125 23.945312 C 16.238281 23.988281 16.242188 23.988281 16.703125 23.984375 L 17.160156 23.980469 L 17.265625 23.949219 C 17.515625 23.867188 17.761719 23.753906 17.902344 23.652344 C 18.15625 23.460938 18.320312 23.300781 18.484375 23.066406 C 18.527344 23 18.566406 22.945312 18.574219 22.9375 C 18.585938 22.917969 18.667969 22.773438 18.722656 22.664062 C 18.765625 22.585938 18.828125 22.445312 18.890625 22.285156 C 18.921875 22.203125 18.992188 21.972656 19.039062 21.804688 C 19.0625 21.714844 19.113281 21.46875 19.125 21.390625 C 19.132812 21.351562 19.144531 21.261719 19.15625 21.1875 C 19.167969 21.113281 19.179688 21.03125 19.183594 21 C 19.195312 20.878906 19.203125 20.8125 19.207031 20.78125 C 19.207031 20.761719 19.210938 20.695312 19.214844 20.636719 C 19.21875 20.578125 19.222656 20.511719 19.226562 20.492188 C 19.234375 20.414062 19.238281 19.703125 19.230469 19.515625 C 19.207031 18.996094 19.160156 18.496094 19.085938 17.980469 C 19.078125 17.941406 19.074219 17.894531 19.070312 17.871094 C 19.058594 17.777344 19.03125 17.617188 18.996094 17.425781 C 18.976562 17.316406 18.957031 17.214844 18.957031 17.199219 C 18.949219 17.167969 18.945312 17.148438 18.914062 16.972656 C 18.902344 16.921875 18.878906 16.808594 18.859375 16.71875 C 18.820312 16.527344 18.816406 16.519531 18.84375 16.511719 C 18.851562 16.507812 18.910156 16.488281 18.96875 16.46875 C 19.03125 16.449219 19.101562 16.425781 19.128906 16.414062 C 19.152344 16.40625 19.25 16.371094 19.347656 16.335938 C 19.441406 16.300781 19.578125 16.25 19.648438 16.222656 C 19.71875 16.191406 19.789062 16.164062 19.804688 16.160156 C 19.820312 16.15625 19.835938 16.148438 19.839844 16.144531 C 19.847656 16.140625 19.875 16.128906 19.898438 16.121094 C 19.925781 16.109375 19.957031 16.097656 19.972656 16.085938 C 19.988281 16.078125 20.003906 16.070312 20.011719 16.070312 C 20.019531 16.070312 20.039062 16.0625 20.058594 16.054688 C 20.078125 16.046875 20.121094 16.027344 20.15625 16.011719 C 20.1875 15.996094 20.234375 15.976562 20.253906 15.96875 C 20.273438 15.957031 20.300781 15.945312 20.3125 15.941406 C 20.390625 15.902344 20.488281 15.859375 20.535156 15.835938 C 20.625 15.792969 20.628906 15.789062 20.714844 15.746094 C 20.757812 15.722656 20.816406 15.691406 20.847656 15.675781 C 21.019531 15.59375 21.605469 15.238281 21.742188 15.136719 C 21.808594 15.085938 21.824219 15.078125 21.839844 15.066406 C 21.847656 15.0625 21.882812 15.035156 21.921875 15.007812 C 21.957031 14.980469 21.988281 14.957031 21.996094 14.957031 C 22 14.957031 22.007812 14.953125 22.007812 14.945312 C 22.011719 14.941406 22.054688 14.90625 22.105469 14.867188 C 22.15625 14.828125 22.203125 14.792969 22.207031 14.789062 C 22.207031 14.785156 22.246094 14.753906 22.289062 14.714844 C 22.53125 14.515625 22.824219 14.210938 22.988281 13.996094 C 23.023438 13.949219 23.074219 13.886719 23.09375 13.859375 C 23.132812 13.808594 23.191406 13.722656 23.21875 13.679688 C 23.441406 13.304688 23.578125 12.992188 23.652344 12.671875 C 23.777344 12.128906 23.75 11.542969 23.570312 11.039062 C 23.566406 11.023438 23.558594 11 23.550781 10.984375 C 23.484375 10.792969 23.308594 10.441406 23.195312 10.277344 C 23.171875 10.242188 23.132812 10.1875 23.113281 10.15625 C 23.058594 10.074219 22.933594 9.917969 22.804688 9.777344 C 22.675781 9.628906 22.691406 9.644531 22.601562 9.558594 C 22.566406 9.523438 22.527344 9.484375 22.519531 9.476562 C 22.507812 9.464844 22.484375 9.441406 22.460938 9.421875 C 22.4375 9.402344 22.410156 9.375 22.398438 9.367188 C 22.386719 9.355469 22.34375 9.316406 22.300781 9.277344 C 22.257812 9.242188 22.214844 9.207031 22.210938 9.203125 C 22.203125 9.195312 22.132812 9.140625 22.054688 9.082031 C 21.972656 9.019531 21.894531 8.957031 21.878906 8.945312 C 21.863281 8.933594 21.847656 8.921875 21.84375 8.921875 C 21.839844 8.921875 21.8125 8.902344 21.777344 8.875 C 21.742188 8.847656 21.703125 8.820312 21.691406 8.816406 C 21.679688 8.808594 21.660156 8.796875 21.648438 8.789062 C 21.636719 8.78125 21.589844 8.75 21.546875 8.722656 C 21.503906 8.695312 21.457031 8.664062 21.445312 8.652344 C 21.339844 8.582031 20.679688 8.214844 20.65625 8.214844 C 20.652344 8.214844 20.636719 8.207031 20.625 8.199219 C 20.613281 8.191406 20.570312 8.167969 20.53125 8.152344 C 20.457031 8.117188 20.445312 8.109375 20.332031 8.054688 C 20.296875 8.039062 20.25 8.019531 20.226562 8.007812 C 20.203125 8 20.152344 7.976562 20.113281 7.957031 C 19.890625 7.859375 19.550781 7.722656 19.332031 7.648438 C 19.261719 7.621094 19.152344 7.582031 19.089844 7.5625 C 18.941406 7.507812 18.921875 7.5 18.867188 7.484375 C 18.8125 7.46875 18.808594 7.515625 18.902344 7.070312 C 18.957031 6.8125 19.035156 6.359375 19.082031 6.039062 C 19.089844 5.980469 19.101562 5.902344 19.105469 5.863281 C 19.117188 5.796875 19.152344 5.503906 19.164062 5.386719 C 19.167969 5.347656 19.171875 5.304688 19.175781 5.289062 C 19.183594 5.222656 19.199219 5.027344 19.207031 4.917969 C 19.210938 4.855469 19.214844 4.789062 19.214844 4.769531 C 19.238281 4.542969 19.246094 3.667969 19.226562 3.496094 C 19.222656 3.476562 19.21875 3.414062 19.214844 3.359375 C 19.210938 3.300781 19.207031 3.214844 19.199219 3.167969 C 19.195312 3.117188 19.1875 3.046875 19.183594 3.011719 C 19.152344 2.695312 19.027344 2.078125 18.960938 1.914062 C 18.957031 1.898438 18.941406 1.855469 18.929688 1.816406 C 18.871094 1.628906 18.722656 1.300781 18.636719 1.160156 C 18.605469 1.117188 18.585938 1.074219 18.585938 1.070312 C 18.585938 1.0625 18.523438 0.976562 18.445312 0.871094 C 18.386719 0.789062 18.246094 0.628906 18.1875 0.574219 C 18.164062 0.550781 18.136719 0.527344 18.132812 0.519531 C 18.066406 0.453125 17.839844 0.292969 17.714844 0.222656 C 17.554688 0.136719 17.484375 0.105469 17.300781 0.0507812 L 17.160156 0.0078125 L 16.699219 0.00390625 C 16.207031 0 16.214844 -0.00390625 15.945312 0.0664062 C 15.707031 0.125 15.28125 0.285156 15.082031 0.398438 C 15.058594 0.410156 15.035156 0.417969 15.03125 0.417969 C 15.011719 0.417969 14.566406 0.679688 14.445312 0.765625 C 14.402344 0.792969 14.367188 0.816406 14.363281 0.816406 C 14.355469 0.816406 14.121094 0.980469 14.070312 1.019531 C 14.046875 1.035156 13.960938 1.105469 13.871094 1.167969 C 13.785156 1.234375 13.714844 1.289062 13.710938 1.292969 C 13.707031 1.296875 13.675781 1.324219 13.636719 1.355469 C 13.601562 1.382812 13.566406 1.410156 13.566406 1.414062 C 13.5625 1.417969 13.546875 1.433594 13.527344 1.445312 C 13.511719 1.457031 13.492188 1.472656 13.488281 1.476562 C 13.46875 1.496094 13.402344 1.550781 13.371094 1.578125 C 13.355469 1.589844 13.328125 1.617188 13.304688 1.640625 C 13.285156 1.660156 13.265625 1.679688 13.261719 1.679688 C 13.257812 1.679688 13.234375 1.695312 13.214844 1.71875 C 13.191406 1.738281 13.15625 1.769531 13.136719 1.785156 C 13.117188 1.804688 13.09375 1.824219 13.085938 1.835938 C 13.074219 1.84375 13.046875 1.871094 13.023438 1.894531 C 12.996094 1.917969 12.972656 1.941406 12.964844 1.949219 C 12.960938 1.957031 12.933594 1.980469 12.90625 2.003906 C 12.882812 2.027344 12.855469 2.050781 12.847656 2.058594 C 12.84375 2.0625 12.8125 2.09375 12.78125 2.121094 C 12.703125 2.199219 12.566406 2.335938 12.511719 2.390625 C 12.488281 2.417969 12.453125 2.457031 12.433594 2.476562 C 12.308594 2.605469 12.203125 2.71875 12.109375 2.820312 C 12.054688 2.886719 12.003906 2.9375 12 2.9375 C 11.992188 2.933594 11.945312 2.882812 11.886719 2.820312 C 11.765625 2.683594 11.667969 2.578125 11.5625 2.472656 C 11.519531 2.429688 11.441406 2.347656 11.382812 2.289062 C 11.328125 2.234375 11.269531 2.175781 11.253906 2.160156 C 11.234375 2.140625 11.1875 2.09375 11.144531 2.050781 C 11.046875 1.957031 11.046875 1.957031 10.90625 1.832031 C 10.84375 1.773438 10.785156 1.71875 10.777344 1.710938 C 10.769531 1.703125 10.726562 1.664062 10.683594 1.628906 C 10.640625 1.589844 10.578125 1.539062 10.546875 1.507812 C 10.515625 1.480469 10.464844 1.4375 10.433594 1.414062 C 10.40625 1.390625 10.375 1.367188 10.367188 1.359375 C 10.363281 1.351562 10.335938 1.332031 10.308594 1.3125 C 10.285156 1.292969 10.261719 1.277344 10.257812 1.273438 C 10.25 1.257812 9.863281 0.96875 9.796875 0.925781 C 9.777344 0.914062 9.714844 0.871094 9.65625 0.832031 C 9.601562 0.792969 9.546875 0.757812 9.539062 0.753906 C 9.527344 0.746094 9.492188 0.726562 9.460938 0.703125 C 9.390625 0.65625 9.082031 0.480469 8.972656 0.421875 C 8.695312 0.273438 8.273438 0.113281 7.96875 0.0390625 C 7.804688 0 6.980469 -0.015625 6.828125 0.015625 M 7.710938 1.191406 C 7.789062 1.207031 7.878906 1.230469 7.914062 1.242188 C 7.949219 1.253906 7.992188 1.265625 8.007812 1.273438 C 8.058594 1.285156 8.296875 1.378906 8.363281 1.414062 C 8.574219 1.511719 8.828125 1.652344 9.074219 1.808594 C 9.207031 1.898438 9.253906 1.929688 9.335938 1.992188 C 9.359375 2.011719 9.382812 2.027344 9.382812 2.027344 C 9.386719 2.027344 9.425781 2.058594 9.472656 2.09375 C 9.519531 2.128906 9.5625 2.160156 9.5625 2.160156 C 9.570312 2.160156 9.710938 2.273438 9.714844 2.28125 C 9.714844 2.285156 9.722656 2.289062 9.726562 2.289062 C 9.734375 2.289062 9.742188 2.296875 9.75 2.304688 C 9.757812 2.3125 9.777344 2.332031 9.792969 2.34375 C 9.808594 2.359375 9.84375 2.386719 9.871094 2.410156 C 9.898438 2.433594 9.933594 2.460938 9.945312 2.472656 C 9.957031 2.480469 9.972656 2.496094 9.980469 2.5 C 9.984375 2.507812 10 2.519531 10.015625 2.53125 C 10.046875 2.554688 10.207031 2.699219 10.222656 2.714844 C 10.226562 2.722656 10.25 2.742188 10.269531 2.757812 C 10.285156 2.773438 10.308594 2.792969 10.3125 2.800781 C 10.320312 2.808594 10.335938 2.820312 10.347656 2.832031 C 10.367188 2.847656 10.410156 2.886719 10.5 2.980469 C 10.511719 2.992188 10.542969 3.019531 10.570312 3.042969 C 10.59375 3.070312 10.625 3.097656 10.640625 3.113281 C 10.652344 3.125 10.691406 3.164062 10.722656 3.195312 C 10.757812 3.230469 10.792969 3.265625 10.804688 3.28125 C 10.835938 3.316406 10.933594 3.417969 11.078125 3.566406 C 11.144531 3.640625 11.21875 3.722656 11.238281 3.746094 L 11.28125 3.792969 L 11.246094 3.835938 C 11.230469 3.859375 11.1875 3.914062 11.148438 3.957031 C 11.066406 4.0625 10.984375 4.164062 10.925781 4.246094 C 10.898438 4.28125 10.867188 4.324219 10.855469 4.335938 C 10.847656 4.351562 10.816406 4.390625 10.789062 4.425781 C 10.714844 4.523438 10.695312 4.550781 10.671875 4.582031 C 10.65625 4.597656 10.628906 4.640625 10.605469 4.671875 C 10.582031 4.703125 10.554688 4.742188 10.542969 4.757812 C 10.519531 4.789062 10.511719 4.800781 10.445312 4.894531 C 10.417969 4.929688 10.394531 4.960938 10.394531 4.964844 C 10.390625 4.96875 10.363281 5.007812 10.332031 5.054688 C 10.300781 5.097656 10.265625 5.148438 10.257812 5.160156 C 10.21875 5.214844 10.105469 5.378906 10.070312 5.433594 C 10.050781 5.460938 10.015625 5.515625 9.992188 5.546875 C 9.96875 5.582031 9.9375 5.628906 9.921875 5.648438 C 9.910156 5.671875 9.886719 5.707031 9.871094 5.726562 C 9.855469 5.746094 9.828125 5.789062 9.808594 5.820312 C 9.792969 5.851562 9.773438 5.882812 9.765625 5.890625 C 9.757812 5.898438 9.726562 5.945312 9.699219 5.988281 C 9.671875 6.035156 9.617188 6.117188 9.578125 6.179688 C 9.539062 6.238281 9.507812 6.289062 9.507812 6.289062 C 9.507812 6.296875 9.414062 6.441406 9.386719 6.480469 C 9.378906 6.492188 9.371094 6.507812 9.371094 6.511719 C 9.371094 6.519531 9.367188 6.523438 9.363281 6.527344 C 9.359375 6.527344 9.34375 6.550781 9.328125 6.574219 C 9.316406 6.601562 9.300781 6.621094 9.292969 6.621094 C 9.265625 6.621094 8.855469 6.671875 8.554688 6.710938 C 8.480469 6.722656 8.347656 6.742188 8.265625 6.753906 C 8.179688 6.765625 8.0625 6.785156 8 6.796875 C 7.8125 6.824219 7.234375 6.933594 7.039062 6.976562 C 6.742188 7.039062 6.203125 7.167969 6.1875 7.179688 C 6.179688 7.183594 6.171875 7.160156 6.152344 7.046875 C 6.148438 7.035156 6.136719 6.980469 6.125 6.925781 C 6.113281 6.875 6.09375 6.78125 6.082031 6.722656 C 6.074219 6.664062 6.054688 6.5625 6.042969 6.5 C 6.019531 6.378906 6.015625 6.347656 6.003906 6.289062 C 6 6.269531 5.992188 6.203125 5.980469 6.140625 C 5.925781 5.835938 5.84375 5.179688 5.828125 4.898438 C 5.824219 4.855469 5.820312 4.800781 5.816406 4.78125 C 5.789062 4.582031 5.789062 3.488281 5.816406 3.328125 C 5.820312 3.316406 5.824219 3.273438 5.828125 3.230469 C 5.839844 3.09375 5.894531 2.746094 5.921875 2.632812 C 6 2.324219 6.015625 2.269531 6.105469 2.050781 C 6.152344 1.945312 6.234375 1.785156 6.292969 1.699219 C 6.457031 1.441406 6.769531 1.226562 7.042969 1.175781 C 7.085938 1.167969 7.128906 1.160156 7.136719 1.15625 C 7.199219 1.140625 7.582031 1.164062 7.710938 1.191406 M 16.914062 1.167969 C 17.902344 1.355469 18.359375 2.730469 18.171875 4.921875 C 18.164062 5.023438 18.152344 5.132812 18.152344 5.167969 C 18.121094 5.488281 18.003906 6.277344 17.917969 6.714844 C 17.910156 6.738281 17.902344 6.789062 17.898438 6.824219 C 17.882812 6.90625 17.824219 7.164062 17.816406 7.167969 C 17.816406 7.171875 17.769531 7.164062 17.710938 7.148438 C 17.570312 7.113281 17.160156 7.019531 17.097656 7.003906 C 17.070312 7 17.007812 6.984375 16.960938 6.976562 C 16.914062 6.964844 16.835938 6.949219 16.785156 6.9375 C 16.734375 6.929688 16.679688 6.917969 16.667969 6.914062 C 16.65625 6.914062 16.628906 6.90625 16.605469 6.902344 C 16.582031 6.898438 16.554688 6.894531 16.539062 6.890625 C 16.523438 6.886719 16.464844 6.878906 16.410156 6.867188 C 16.351562 6.855469 16.292969 6.84375 16.277344 6.84375 C 16.210938 6.828125 16.113281 6.8125 16.0625 6.804688 C 16.035156 6.804688 16.003906 6.796875 15.992188 6.792969 C 15.980469 6.792969 15.945312 6.785156 15.917969 6.78125 C 15.890625 6.777344 15.816406 6.765625 15.757812 6.757812 C 15.695312 6.75 15.625 6.738281 15.601562 6.734375 C 15.574219 6.730469 15.539062 6.726562 15.523438 6.722656 C 15.4375 6.707031 15.023438 6.65625 14.875 6.640625 C 14.683594 6.617188 14.710938 6.632812 14.609375 6.472656 C 14.578125 6.421875 14.546875 6.371094 14.539062 6.363281 C 14.535156 6.355469 14.519531 6.335938 14.511719 6.316406 C 14.5 6.296875 14.488281 6.273438 14.480469 6.265625 C 14.476562 6.261719 14.410156 6.15625 14.328125 6.03125 C 14.25 5.910156 14.183594 5.804688 14.175781 5.796875 C 14.171875 5.789062 14.15625 5.769531 14.144531 5.75 C 14.132812 5.730469 14.105469 5.6875 14.082031 5.65625 C 14.058594 5.621094 14.015625 5.558594 13.988281 5.515625 C 13.933594 5.433594 13.921875 5.417969 13.902344 5.394531 C 13.898438 5.386719 13.84375 5.304688 13.777344 5.210938 C 13.714844 5.117188 13.65625 5.03125 13.644531 5.019531 C 13.539062 4.871094 13.496094 4.8125 13.488281 4.804688 C 13.480469 4.796875 13.460938 4.769531 13.445312 4.742188 C 13.429688 4.71875 13.410156 4.691406 13.402344 4.683594 C 13.386719 4.664062 13.261719 4.496094 13.210938 4.425781 C 13.183594 4.390625 13.160156 4.355469 13.152344 4.347656 C 13.148438 4.34375 13.113281 4.296875 13.074219 4.246094 C 13.039062 4.199219 13 4.144531 12.988281 4.132812 C 12.976562 4.117188 12.9375 4.070312 12.902344 4.023438 C 12.828125 3.929688 12.8125 3.90625 12.757812 3.839844 L 12.71875 3.792969 L 12.808594 3.691406 C 12.972656 3.511719 13.109375 3.371094 13.269531 3.207031 C 13.324219 3.148438 13.378906 3.097656 13.382812 3.089844 C 13.390625 3.082031 13.417969 3.054688 13.445312 3.027344 C 13.472656 3.003906 13.503906 2.972656 13.511719 2.960938 C 13.523438 2.953125 13.546875 2.929688 13.566406 2.910156 C 13.585938 2.894531 13.617188 2.867188 13.632812 2.847656 C 13.648438 2.832031 13.664062 2.820312 13.667969 2.816406 C 13.671875 2.816406 13.691406 2.800781 13.710938 2.78125 C 13.734375 2.757812 13.765625 2.726562 13.785156 2.710938 C 13.800781 2.695312 13.828125 2.667969 13.84375 2.652344 C 13.859375 2.640625 13.875 2.625 13.878906 2.625 C 13.878906 2.625 13.898438 2.613281 13.917969 2.59375 C 13.933594 2.574219 13.960938 2.550781 13.972656 2.542969 C 13.984375 2.53125 14.023438 2.5 14.054688 2.472656 C 14.152344 2.386719 14.1875 2.355469 14.425781 2.171875 C 14.644531 2.003906 14.621094 2.019531 14.722656 1.945312 C 14.8125 1.882812 14.847656 1.859375 14.941406 1.800781 C 14.980469 1.777344 15.023438 1.75 15.035156 1.738281 C 15.070312 1.710938 15.398438 1.527344 15.515625 1.46875 C 15.835938 1.308594 16.164062 1.203125 16.472656 1.160156 C 16.554688 1.148438 16.835938 1.152344 16.914062 1.167969 M 12.160156 4.847656 C 12.203125 4.894531 12.257812 4.964844 12.28125 5 C 12.308594 5.039062 12.347656 5.089844 12.371094 5.121094 C 12.394531 5.152344 12.457031 5.230469 12.503906 5.300781 C 12.554688 5.371094 12.605469 5.4375 12.613281 5.445312 C 12.625 5.457031 12.644531 5.484375 12.664062 5.511719 C 12.679688 5.535156 12.730469 5.609375 12.777344 5.671875 C 12.917969 5.867188 12.933594 5.890625 13.011719 6.003906 C 13.050781 6.0625 13.089844 6.117188 13.09375 6.121094 C 13.097656 6.128906 13.128906 6.171875 13.160156 6.21875 C 13.191406 6.265625 13.230469 6.324219 13.246094 6.351562 C 13.265625 6.378906 13.285156 6.410156 13.296875 6.421875 C 13.308594 6.4375 13.324219 6.460938 13.332031 6.480469 L 13.347656 6.515625 L 13.21875 6.507812 C 12.605469 6.472656 11.433594 6.472656 10.78125 6.507812 C 10.644531 6.515625 10.640625 6.515625 10.65625 6.492188 C 10.667969 6.480469 10.722656 6.402344 10.777344 6.316406 C 10.976562 6.019531 11.003906 5.980469 11.015625 5.96875 C 11.019531 5.960938 11.0625 5.902344 11.109375 5.835938 C 11.152344 5.769531 11.195312 5.710938 11.203125 5.703125 C 11.207031 5.695312 11.226562 5.667969 11.242188 5.644531 C 11.261719 5.617188 11.28125 5.59375 11.285156 5.585938 C 11.304688 5.558594 11.417969 5.402344 11.457031 5.347656 C 11.511719 5.273438 11.546875 5.226562 11.644531 5.097656 C 11.695312 5.035156 11.761719 4.945312 11.796875 4.898438 C 11.832031 4.855469 11.871094 4.804688 11.886719 4.785156 C 11.898438 4.769531 11.929688 4.726562 11.957031 4.699219 L 12 4.640625 L 12.042969 4.699219 C 12.066406 4.730469 12.121094 4.796875 12.160156 4.847656 M 13.074219 7.683594 C 13.136719 7.6875 13.324219 7.695312 13.492188 7.707031 C 13.660156 7.714844 13.820312 7.726562 13.847656 7.730469 C 13.871094 7.734375 13.945312 7.738281 14.007812 7.742188 C 14.125 7.75 14.160156 7.765625 14.160156 7.804688 C 14.160156 7.8125 14.164062 7.820312 14.167969 7.820312 C 14.171875 7.820312 14.183594 7.835938 14.191406 7.851562 C 14.199219 7.871094 14.210938 7.890625 14.210938 7.890625 C 14.214844 7.894531 14.238281 7.9375 14.265625 7.980469 C 14.289062 8.027344 14.3125 8.066406 14.316406 8.070312 C 14.324219 8.070312 14.328125 8.082031 14.328125 8.089844 C 14.328125 8.101562 14.332031 8.109375 14.335938 8.109375 C 14.34375 8.109375 14.347656 8.113281 14.347656 8.125 C 14.347656 8.132812 14.355469 8.148438 14.367188 8.164062 C 14.378906 8.175781 14.386719 8.191406 14.390625 8.199219 C 14.394531 8.203125 14.425781 8.265625 14.464844 8.328125 C 14.5 8.394531 14.558594 8.5 14.59375 8.5625 C 14.628906 8.625 14.664062 8.6875 14.671875 8.707031 C 14.683594 8.722656 14.699219 8.753906 14.707031 8.773438 C 14.71875 8.792969 14.738281 8.832031 14.753906 8.859375 C 14.789062 8.917969 14.828125 8.984375 14.867188 9.058594 C 14.882812 9.09375 14.902344 9.132812 14.914062 9.148438 C 14.921875 9.167969 14.933594 9.191406 14.9375 9.199219 C 14.945312 9.214844 14.996094 9.308594 15.042969 9.398438 C 15.050781 9.410156 15.074219 9.457031 15.09375 9.5 C 15.117188 9.542969 15.152344 9.613281 15.175781 9.65625 C 15.222656 9.742188 15.246094 9.789062 15.289062 9.882812 C 15.308594 9.917969 15.328125 9.960938 15.339844 9.980469 C 15.347656 9.996094 15.375 10.042969 15.394531 10.085938 C 15.414062 10.128906 15.441406 10.1875 15.457031 10.21875 C 15.46875 10.25 15.496094 10.300781 15.511719 10.339844 C 15.546875 10.410156 15.703125 10.742188 15.777344 10.898438 C 15.894531 11.140625 16.160156 11.75 16.226562 11.914062 L 16.257812 11.996094 L 16.226562 12.074219 C 16.175781 12.203125 15.851562 12.9375 15.785156 13.074219 C 15.769531 13.101562 15.738281 13.175781 15.710938 13.234375 C 15.683594 13.292969 15.644531 13.375 15.625 13.414062 C 15.605469 13.453125 15.582031 13.511719 15.566406 13.542969 C 15.550781 13.570312 15.535156 13.605469 15.53125 13.621094 C 15.460938 13.757812 15.394531 13.890625 15.355469 13.976562 C 15.28125 14.128906 15.148438 14.390625 15.121094 14.441406 C 15.113281 14.449219 15.105469 14.46875 15.101562 14.484375 C 15.09375 14.496094 15.078125 14.527344 15.0625 14.550781 C 15.046875 14.578125 15.035156 14.601562 15.035156 14.605469 C 15.035156 14.609375 14.992188 14.695312 14.933594 14.796875 C 14.878906 14.902344 14.816406 15.015625 14.796875 15.050781 C 14.746094 15.152344 14.742188 15.160156 14.707031 15.222656 C 14.6875 15.253906 14.671875 15.28125 14.671875 15.285156 C 14.671875 15.292969 14.660156 15.3125 14.648438 15.332031 C 14.632812 15.355469 14.605469 15.40625 14.582031 15.449219 C 14.558594 15.492188 14.535156 15.539062 14.523438 15.554688 C 14.476562 15.625 14.285156 15.964844 14.285156 15.976562 C 14.285156 15.984375 14.28125 15.988281 14.273438 15.988281 C 14.269531 15.988281 14.265625 15.996094 14.265625 16.003906 C 14.265625 16.015625 14.261719 16.023438 14.257812 16.027344 C 14.25 16.027344 14.222656 16.078125 14.1875 16.136719 C 14.132812 16.230469 14.125 16.238281 14.09375 16.238281 C 14.0625 16.238281 13.820312 16.257812 13.695312 16.269531 C 13.660156 16.273438 13.558594 16.277344 13.472656 16.28125 C 13.382812 16.285156 13.296875 16.292969 13.277344 16.292969 C 13.035156 16.324219 10.753906 16.324219 10.707031 16.292969 C 10.703125 16.292969 10.621094 16.285156 10.523438 16.28125 C 10.425781 16.277344 10.332031 16.273438 10.316406 16.269531 C 10.296875 16.269531 10.191406 16.257812 10.078125 16.25 L 9.871094 16.234375 L 9.832031 16.171875 C 9.8125 16.136719 9.789062 16.09375 9.777344 16.082031 C 9.765625 16.066406 9.757812 16.046875 9.757812 16.039062 C 9.757812 16.03125 9.75 16.023438 9.746094 16.023438 C 9.742188 16.023438 9.734375 16.015625 9.734375 16.007812 C 9.734375 15.996094 9.730469 15.988281 9.726562 15.988281 C 9.71875 15.988281 9.714844 15.980469 9.714844 15.96875 C 9.714844 15.960938 9.710938 15.953125 9.703125 15.953125 C 9.699219 15.953125 9.695312 15.945312 9.695312 15.933594 C 9.695312 15.925781 9.6875 15.917969 9.683594 15.917969 C 9.679688 15.917969 9.671875 15.90625 9.671875 15.898438 C 9.671875 15.886719 9.667969 15.878906 9.664062 15.878906 C 9.65625 15.878906 9.652344 15.875 9.652344 15.863281 C 9.652344 15.855469 9.644531 15.835938 9.632812 15.820312 C 9.597656 15.773438 9.496094 15.589844 9.496094 15.578125 C 9.496094 15.574219 9.492188 15.570312 9.488281 15.566406 C 9.484375 15.5625 9.460938 15.527344 9.4375 15.484375 C 9.394531 15.402344 9.339844 15.300781 9.316406 15.265625 C 9.308594 15.253906 9.292969 15.226562 9.28125 15.203125 C 9.222656 15.085938 9.164062 14.976562 9.125 14.910156 C 9.101562 14.867188 9.058594 14.785156 9.03125 14.730469 C 9.003906 14.675781 8.957031 14.589844 8.929688 14.539062 C 8.902344 14.488281 8.875 14.4375 8.871094 14.421875 C 8.863281 14.410156 8.847656 14.378906 8.832031 14.351562 C 8.820312 14.324219 8.800781 14.292969 8.796875 14.277344 C 8.792969 14.265625 8.773438 14.234375 8.761719 14.207031 C 8.746094 14.179688 8.714844 14.117188 8.691406 14.070312 C 8.667969 14.019531 8.609375 13.90625 8.566406 13.816406 C 8.519531 13.722656 8.484375 13.648438 8.484375 13.644531 C 8.484375 13.640625 8.460938 13.59375 8.429688 13.535156 C 8.402344 13.476562 8.378906 13.429688 8.378906 13.425781 C 8.378906 13.425781 8.359375 13.386719 8.339844 13.339844 C 8.21875 13.09375 7.785156 12.121094 7.753906 12.023438 C 7.742188 11.988281 7.746094 11.976562 7.902344 11.609375 C 8.105469 11.148438 8.253906 10.824219 8.386719 10.546875 C 8.40625 10.507812 8.429688 10.457031 8.441406 10.429688 C 8.453125 10.402344 8.472656 10.363281 8.484375 10.339844 C 8.496094 10.316406 8.519531 10.265625 8.539062 10.230469 C 8.582031 10.132812 8.628906 10.035156 8.648438 10.003906 C 8.65625 9.988281 8.679688 9.941406 8.695312 9.90625 C 8.710938 9.871094 8.730469 9.832031 8.738281 9.824219 C 8.746094 9.8125 8.761719 9.78125 8.773438 9.75 C 8.789062 9.722656 8.804688 9.6875 8.8125 9.679688 C 8.816406 9.667969 8.835938 9.636719 8.847656 9.605469 C 8.863281 9.578125 8.878906 9.546875 8.882812 9.539062 C 8.886719 9.53125 8.945312 9.425781 9.003906 9.304688 C 9.066406 9.183594 9.125 9.078125 9.128906 9.070312 C 9.136719 9.0625 9.140625 9.054688 9.140625 9.050781 C 9.140625 9.046875 9.160156 9.011719 9.183594 8.972656 C 9.207031 8.933594 9.222656 8.898438 9.222656 8.894531 C 9.222656 8.890625 9.234375 8.867188 9.246094 8.847656 C 9.261719 8.828125 9.28125 8.789062 9.289062 8.769531 C 9.300781 8.746094 9.3125 8.722656 9.316406 8.71875 C 9.328125 8.707031 9.382812 8.613281 9.382812 8.601562 C 9.382812 8.59375 9.382812 8.589844 9.390625 8.585938 C 9.398438 8.578125 9.453125 8.484375 9.453125 8.46875 C 9.453125 8.460938 9.457031 8.457031 9.464844 8.457031 C 9.46875 8.457031 9.476562 8.449219 9.476562 8.445312 C 9.476562 8.433594 9.59375 8.21875 9.621094 8.183594 C 9.625 8.175781 9.632812 8.164062 9.632812 8.15625 C 9.632812 8.148438 9.636719 8.144531 9.640625 8.144531 C 9.648438 8.144531 9.652344 8.136719 9.652344 8.125 C 9.652344 8.117188 9.65625 8.109375 9.664062 8.109375 C 9.667969 8.109375 9.671875 8.101562 9.671875 8.089844 C 9.671875 8.078125 9.679688 8.070312 9.683594 8.070312 C 9.6875 8.070312 9.695312 8.066406 9.695312 8.058594 C 9.695312 8.050781 9.761719 7.933594 9.785156 7.898438 C 9.789062 7.890625 9.8125 7.855469 9.832031 7.816406 L 9.871094 7.75 L 10 7.742188 C 10.070312 7.738281 10.140625 7.730469 10.15625 7.730469 C 10.171875 7.726562 10.289062 7.71875 10.421875 7.710938 C 10.550781 7.707031 10.671875 7.699219 10.691406 7.695312 C 10.707031 7.691406 10.855469 7.6875 11.019531 7.679688 C 11.183594 7.675781 11.320312 7.671875 11.320312 7.667969 C 11.328125 7.660156 12.933594 7.671875 13.074219 7.683594 M 8.546875 7.910156 C 8.546875 7.914062 8.527344 7.949219 8.503906 7.984375 C 8.464844 8.054688 8.414062 8.144531 8.394531 8.183594 C 8.390625 8.195312 8.34375 8.28125 8.292969 8.375 C 8.242188 8.46875 8.195312 8.5625 8.183594 8.582031 C 8.171875 8.601562 8.164062 8.621094 8.160156 8.625 C 8.15625 8.628906 8.140625 8.652344 8.128906 8.683594 C 8.113281 8.714844 8.101562 8.742188 8.097656 8.742188 C 8.09375 8.746094 8.078125 8.777344 8.058594 8.8125 C 8.042969 8.847656 8.007812 8.914062 7.980469 8.96875 C 7.898438 9.128906 7.824219 9.269531 7.746094 9.4375 C 7.730469 9.46875 7.695312 9.539062 7.667969 9.59375 C 7.636719 9.652344 7.609375 9.707031 7.605469 9.71875 C 7.601562 9.734375 7.585938 9.761719 7.578125 9.78125 C 7.566406 9.800781 7.539062 9.859375 7.515625 9.90625 C 7.429688 10.09375 7.40625 10.140625 7.398438 10.152344 C 7.394531 10.160156 7.347656 10.257812 7.300781 10.367188 C 7.25 10.480469 7.203125 10.578125 7.199219 10.582031 C 7.191406 10.59375 7.179688 10.570312 7.121094 10.40625 C 7.101562 10.34375 7.078125 10.277344 7.070312 10.257812 C 7.058594 10.234375 7.03125 10.144531 7 10.058594 C 6.972656 9.972656 6.941406 9.886719 6.933594 9.867188 C 6.925781 9.847656 6.914062 9.808594 6.90625 9.78125 C 6.894531 9.753906 6.878906 9.703125 6.867188 9.667969 C 6.84375 9.605469 6.773438 9.378906 6.746094 9.289062 C 6.738281 9.261719 6.707031 9.164062 6.679688 9.066406 C 6.609375 8.84375 6.480469 8.398438 6.472656 8.359375 C 6.46875 8.34375 6.464844 8.328125 6.464844 8.324219 C 6.460938 8.316406 6.480469 8.308594 6.503906 8.304688 C 6.527344 8.300781 6.5625 8.292969 6.585938 8.285156 C 6.660156 8.265625 7.117188 8.160156 7.289062 8.125 C 7.378906 8.105469 7.789062 8.027344 7.851562 8.015625 C 7.871094 8.015625 7.914062 8.007812 7.953125 8 C 8.210938 7.949219 8.546875 7.902344 8.546875 7.910156 M 15.542969 7.914062 C 15.582031 7.921875 15.628906 7.929688 15.648438 7.933594 C 15.664062 7.9375 15.714844 7.945312 15.761719 7.949219 C 15.832031 7.960938 15.980469 7.984375 16.089844 8.003906 C 16.242188 8.03125 16.523438 8.085938 16.566406 8.097656 C 16.59375 8.101562 16.65625 8.117188 16.707031 8.125 C 16.890625 8.160156 17.53125 8.308594 17.539062 8.316406 C 17.542969 8.320312 17.375 8.902344 17.308594 9.117188 C 17.191406 9.488281 17.058594 9.898438 17.023438 9.988281 C 17.015625 10.007812 17.007812 10.027344 17.007812 10.03125 C 17.007812 10.039062 17.003906 10.058594 16.996094 10.078125 C 16.984375 10.101562 16.972656 10.140625 16.960938 10.171875 C 16.953125 10.199219 16.9375 10.242188 16.929688 10.265625 C 16.917969 10.289062 16.910156 10.320312 16.90625 10.332031 C 16.894531 10.359375 16.855469 10.46875 16.828125 10.546875 C 16.804688 10.605469 16.808594 10.609375 16.714844 10.40625 C 16.675781 10.3125 16.628906 10.210938 16.613281 10.183594 C 16.519531 9.988281 16.484375 9.910156 16.429688 9.792969 C 16.398438 9.71875 16.363281 9.652344 16.355469 9.644531 C 16.351562 9.632812 16.335938 9.609375 16.328125 9.589844 C 16.296875 9.511719 16.160156 9.234375 16.121094 9.167969 C 16.105469 9.144531 16.089844 9.113281 16.085938 9.101562 C 16.082031 9.09375 16.070312 9.0625 16.054688 9.039062 C 16.023438 8.976562 15.953125 8.839844 15.941406 8.816406 C 15.9375 8.804688 15.925781 8.78125 15.914062 8.761719 C 15.902344 8.742188 15.890625 8.71875 15.886719 8.707031 C 15.882812 8.699219 15.859375 8.65625 15.835938 8.613281 C 15.796875 8.539062 15.714844 8.390625 15.6875 8.335938 C 15.679688 8.320312 15.652344 8.269531 15.585938 8.144531 C 15.570312 8.121094 15.539062 8.058594 15.507812 8.007812 C 15.476562 7.957031 15.453125 7.914062 15.453125 7.910156 C 15.453125 7.902344 15.453125 7.902344 15.542969 7.914062 M 5.484375 8.703125 C 5.5 8.75 5.542969 8.90625 5.585938 9.054688 C 5.695312 9.433594 5.859375 9.960938 5.894531 10.058594 C 5.902344 10.070312 5.925781 10.140625 5.949219 10.214844 C 5.972656 10.285156 6.023438 10.4375 6.0625 10.554688 C 6.105469 10.671875 6.15625 10.820312 6.179688 10.882812 C 6.203125 10.949219 6.226562 11.019531 6.234375 11.039062 C 6.242188 11.058594 6.273438 11.140625 6.300781 11.21875 C 6.332031 11.300781 6.367188 11.386719 6.375 11.414062 C 6.386719 11.441406 6.398438 11.46875 6.398438 11.472656 C 6.398438 11.472656 6.414062 11.515625 6.433594 11.5625 C 6.453125 11.613281 6.480469 11.6875 6.496094 11.730469 C 6.511719 11.773438 6.527344 11.8125 6.53125 11.820312 C 6.574219 11.882812 6.601562 12.011719 6.578125 12.050781 C 6.5625 12.089844 6.46875 12.316406 6.46875 12.324219 C 6.46875 12.328125 6.445312 12.394531 6.398438 12.515625 C 6.386719 12.542969 6.34375 12.660156 6.296875 12.78125 C 6.191406 13.066406 6.175781 13.109375 6.167969 13.140625 C 6.160156 13.167969 6.148438 13.195312 6.109375 13.292969 C 6.09375 13.332031 6.082031 13.367188 6.082031 13.371094 C 6.082031 13.378906 6.0625 13.445312 6.035156 13.519531 C 5.96875 13.703125 5.976562 13.6875 5.929688 13.828125 C 5.90625 13.898438 5.882812 13.96875 5.878906 13.988281 C 5.875 14.007812 5.867188 14.023438 5.863281 14.027344 C 5.859375 14.03125 5.855469 14.042969 5.855469 14.054688 C 5.855469 14.0625 5.847656 14.089844 5.839844 14.109375 C 5.792969 14.234375 5.527344 15.117188 5.484375 15.300781 C 5.460938 15.386719 5.464844 15.386719 5.359375 15.347656 C 5.3125 15.332031 5.28125 15.320312 5.179688 15.285156 C 5.144531 15.273438 5.070312 15.246094 5.015625 15.226562 C 4.957031 15.203125 4.863281 15.171875 4.808594 15.152344 C 4.710938 15.113281 4.558594 15.054688 4.429688 14.996094 C 4.390625 14.980469 4.339844 14.960938 4.320312 14.953125 C 4.300781 14.949219 4.265625 14.933594 4.242188 14.921875 C 4.203125 14.902344 4.0625 14.835938 3.933594 14.777344 C 3.726562 14.683594 3.328125 14.464844 3.113281 14.332031 C 3.070312 14.304688 3.011719 14.269531 2.984375 14.25 C 2.914062 14.210938 2.878906 14.1875 2.832031 14.152344 C 2.808594 14.136719 2.777344 14.113281 2.757812 14.105469 C 2.71875 14.078125 2.652344 14.027344 2.617188 13.996094 C 2.605469 13.984375 2.589844 13.972656 2.585938 13.972656 C 2.582031 13.972656 2.542969 13.941406 2.496094 13.90625 C 2.453125 13.871094 2.390625 13.820312 2.359375 13.796875 C 2.328125 13.769531 2.296875 13.746094 2.292969 13.738281 C 2.285156 13.730469 2.261719 13.710938 2.238281 13.691406 C 2.214844 13.671875 2.195312 13.652344 2.191406 13.648438 C 2.1875 13.644531 2.164062 13.621094 2.132812 13.59375 C 2.085938 13.550781 1.933594 13.386719 1.828125 13.265625 C 1.4375 12.8125 1.226562 12.210938 1.308594 11.785156 C 1.347656 11.578125 1.40625 11.390625 1.460938 11.285156 C 1.480469 11.253906 1.492188 11.226562 1.492188 11.222656 C 1.492188 11.207031 1.605469 11.023438 1.679688 10.917969 C 1.800781 10.742188 1.945312 10.578125 2.171875 10.359375 C 2.207031 10.320312 2.429688 10.132812 2.476562 10.09375 C 2.5 10.078125 2.542969 10.046875 2.566406 10.027344 C 2.617188 9.984375 2.621094 9.984375 2.761719 9.886719 C 2.8125 9.851562 2.859375 9.816406 2.871094 9.8125 C 3.101562 9.648438 3.65625 9.335938 3.898438 9.230469 C 3.933594 9.214844 3.984375 9.191406 4.011719 9.175781 C 4.09375 9.132812 4.125 9.117188 4.152344 9.109375 C 4.167969 9.105469 4.191406 9.09375 4.210938 9.085938 C 4.273438 9.054688 4.410156 8.996094 4.417969 8.996094 C 4.421875 8.996094 4.441406 8.988281 4.460938 8.976562 C 4.476562 8.96875 4.519531 8.949219 4.554688 8.9375 C 4.589844 8.921875 4.671875 8.890625 4.742188 8.863281 C 4.8125 8.835938 4.890625 8.804688 4.914062 8.796875 C 4.941406 8.789062 5.007812 8.765625 5.066406 8.742188 C 5.328125 8.648438 5.433594 8.613281 5.453125 8.617188 C 5.457031 8.617188 5.472656 8.65625 5.484375 8.703125 M 18.667969 8.648438 C 18.730469 8.667969 18.796875 8.691406 18.820312 8.703125 C 18.84375 8.710938 18.925781 8.742188 19 8.769531 C 19.328125 8.882812 19.910156 9.128906 20.105469 9.230469 C 20.121094 9.238281 20.140625 9.246094 20.144531 9.246094 C 20.148438 9.246094 20.246094 9.296875 20.445312 9.402344 C 20.691406 9.53125 20.933594 9.679688 21.113281 9.800781 C 21.132812 9.8125 21.167969 9.835938 21.191406 9.851562 C 21.257812 9.894531 21.3125 9.933594 21.457031 10.046875 C 21.492188 10.070312 21.527344 10.097656 21.535156 10.105469 C 21.578125 10.132812 21.84375 10.367188 21.875 10.402344 C 21.882812 10.410156 21.910156 10.4375 21.9375 10.464844 C 22.015625 10.539062 22.285156 10.859375 22.324219 10.917969 C 22.335938 10.9375 22.367188 10.980469 22.390625 11.015625 C 22.414062 11.050781 22.433594 11.082031 22.433594 11.085938 C 22.433594 11.089844 22.453125 11.125 22.476562 11.164062 C 22.773438 11.679688 22.773438 12.320312 22.472656 12.832031 C 22.453125 12.867188 22.433594 12.898438 22.433594 12.902344 C 22.433594 12.910156 22.421875 12.925781 22.410156 12.945312 C 22.394531 12.960938 22.371094 12.996094 22.355469 13.019531 C 22.300781 13.113281 22.042969 13.425781 21.941406 13.523438 C 21.910156 13.550781 21.867188 13.59375 21.84375 13.617188 C 21.816406 13.644531 21.769531 13.6875 21.734375 13.714844 C 21.703125 13.742188 21.675781 13.765625 21.671875 13.769531 C 21.671875 13.773438 21.648438 13.792969 21.625 13.808594 C 21.601562 13.824219 21.5625 13.859375 21.53125 13.882812 C 21.472656 13.933594 21.375 14.007812 21.347656 14.027344 C 21.335938 14.035156 21.265625 14.082031 21.191406 14.136719 C 21.113281 14.1875 21.035156 14.242188 21.011719 14.257812 C 20.988281 14.269531 20.941406 14.300781 20.90625 14.320312 C 20.710938 14.441406 20.402344 14.613281 20.226562 14.699219 C 20.203125 14.707031 20.175781 14.726562 20.160156 14.734375 C 20.144531 14.742188 20.113281 14.757812 20.09375 14.765625 C 20.070312 14.773438 20.046875 14.785156 20.039062 14.789062 C 19.980469 14.835938 19.234375 15.140625 18.828125 15.28125 C 18.789062 15.296875 18.742188 15.3125 18.726562 15.320312 C 18.640625 15.351562 18.546875 15.375 18.542969 15.367188 C 18.539062 15.363281 18.523438 15.324219 18.511719 15.28125 C 18.5 15.238281 18.457031 15.082031 18.414062 14.933594 C 18.34375 14.695312 18.308594 14.574219 18.21875 14.277344 C 18.207031 14.238281 18.179688 14.160156 18.164062 14.105469 C 18.144531 14.050781 18.109375 13.941406 18.082031 13.863281 C 18.058594 13.789062 18.03125 13.710938 18.023438 13.691406 C 18.007812 13.640625 17.917969 13.375 17.917969 13.367188 C 17.917969 13.363281 17.90625 13.332031 17.890625 13.296875 C 17.878906 13.265625 17.84375 13.167969 17.8125 13.085938 C 17.785156 13.003906 17.75 12.90625 17.734375 12.867188 C 17.71875 12.828125 17.707031 12.796875 17.707031 12.792969 C 17.707031 12.789062 17.695312 12.75 17.675781 12.707031 C 17.660156 12.660156 17.640625 12.613281 17.636719 12.601562 C 17.628906 12.585938 17.601562 12.507812 17.566406 12.429688 C 17.535156 12.347656 17.507812 12.277344 17.507812 12.277344 C 17.507812 12.269531 17.476562 12.179688 17.429688 12.070312 C 17.402344 12 17.398438 11.984375 17.421875 11.9375 C 17.429688 11.917969 17.449219 11.867188 17.46875 11.820312 C 17.484375 11.773438 17.503906 11.726562 17.507812 11.710938 C 17.515625 11.699219 17.53125 11.652344 17.550781 11.609375 C 17.589844 11.507812 17.613281 11.445312 17.65625 11.335938 C 17.671875 11.285156 17.695312 11.226562 17.703125 11.207031 C 17.710938 11.1875 17.726562 11.148438 17.734375 11.117188 C 17.746094 11.089844 17.757812 11.058594 17.761719 11.054688 C 17.765625 11.046875 17.769531 11.035156 17.769531 11.027344 C 17.769531 11.019531 17.78125 10.980469 17.796875 10.941406 C 17.835938 10.839844 17.84375 10.824219 17.929688 10.574219 C 18.066406 10.179688 18.121094 10.011719 18.140625 9.941406 C 18.152344 9.90625 18.164062 9.871094 18.167969 9.863281 C 18.171875 9.859375 18.175781 9.84375 18.179688 9.828125 C 18.183594 9.816406 18.199219 9.757812 18.21875 9.703125 C 18.289062 9.488281 18.449219 8.933594 18.507812 8.722656 C 18.523438 8.660156 18.542969 8.613281 18.546875 8.613281 C 18.554688 8.613281 18.609375 8.628906 18.667969 8.648438 M 11.792969 9.597656 C 11.742188 9.601562 11.65625 9.617188 11.597656 9.632812 C 11.542969 9.644531 11.484375 9.660156 11.46875 9.664062 C 11.4375 9.667969 11.292969 9.722656 11.265625 9.738281 C 11.253906 9.746094 11.203125 9.769531 11.15625 9.792969 C 10.578125 10.078125 10.171875 10.621094 9.976562 11.363281 C 9.902344 11.648438 9.886719 12.097656 9.941406 12.433594 C 9.949219 12.5 9.988281 12.671875 9.996094 12.703125 C 10 12.71875 10.023438 12.785156 10.042969 12.851562 C 10.09375 13.007812 10.199219 13.238281 10.273438 13.355469 C 10.289062 13.382812 10.3125 13.417969 10.320312 13.433594 C 10.335938 13.457031 10.367188 13.503906 10.425781 13.582031 C 10.511719 13.699219 10.664062 13.859375 10.777344 13.949219 C 10.816406 13.980469 10.847656 14.007812 10.851562 14.011719 C 10.851562 14.015625 10.859375 14.019531 10.863281 14.019531 C 10.871094 14.019531 10.894531 14.035156 10.917969 14.054688 C 11.292969 14.347656 11.964844 14.476562 12.4375 14.351562 C 12.746094 14.265625 13.132812 14.0625 13.261719 13.917969 C 13.269531 13.90625 13.292969 13.886719 13.3125 13.867188 C 13.394531 13.796875 13.519531 13.660156 13.59375 13.558594 C 13.613281 13.527344 13.636719 13.496094 13.644531 13.488281 C 13.722656 13.394531 13.851562 13.140625 13.945312 12.894531 C 14.140625 12.371094 14.140625 11.609375 13.941406 11.089844 C 13.929688 11.0625 13.914062 11.019531 13.90625 10.992188 C 13.859375 10.867188 13.726562 10.617188 13.65625 10.519531 C 13.636719 10.492188 13.605469 10.453125 13.585938 10.421875 C 13.519531 10.328125 13.347656 10.140625 13.28125 10.085938 C 13.265625 10.078125 13.253906 10.066406 13.253906 10.0625 C 13.242188 10.046875 13.066406 9.917969 12.992188 9.875 C 12.636719 9.652344 12.191406 9.550781 11.792969 9.597656 M 7.273438 13.566406 C 7.3125 13.648438 7.347656 13.726562 7.355469 13.738281 C 7.359375 13.753906 7.421875 13.882812 7.492188 14.03125 C 7.5625 14.179688 7.625 14.3125 7.632812 14.320312 C 7.640625 14.332031 7.648438 14.34375 7.648438 14.351562 C 7.648438 14.355469 7.679688 14.421875 7.71875 14.5 C 7.757812 14.574219 7.816406 14.6875 7.84375 14.746094 C 7.871094 14.804688 7.941406 14.945312 8 15.054688 C 8.054688 15.164062 8.105469 15.265625 8.113281 15.28125 C 8.117188 15.292969 8.125 15.304688 8.132812 15.304688 C 8.136719 15.304688 8.140625 15.3125 8.140625 15.320312 C 8.140625 15.328125 8.167969 15.386719 8.203125 15.449219 C 8.242188 15.515625 8.289062 15.601562 8.308594 15.644531 C 8.332031 15.683594 8.371094 15.761719 8.402344 15.8125 C 8.429688 15.867188 8.457031 15.921875 8.464844 15.933594 C 8.472656 15.945312 8.488281 15.972656 8.5 15.992188 C 8.550781 16.082031 8.550781 16.085938 8.503906 16.078125 C 8.449219 16.070312 8.441406 16.066406 8.238281 16.035156 C 8.152344 16.023438 8.074219 16.011719 8.0625 16.007812 C 8.050781 16.003906 8.015625 16 7.988281 15.996094 C 7.9375 15.988281 7.574219 15.921875 7.527344 15.910156 C 7.515625 15.910156 7.492188 15.902344 7.472656 15.898438 C 7.292969 15.863281 6.882812 15.773438 6.75 15.742188 C 6.664062 15.71875 6.574219 15.699219 6.558594 15.695312 C 6.492188 15.679688 6.464844 15.667969 6.46875 15.648438 C 6.472656 15.625 6.65625 14.980469 6.667969 14.949219 C 6.671875 14.9375 6.683594 14.902344 6.691406 14.871094 C 6.703125 14.84375 6.722656 14.773438 6.742188 14.714844 C 6.757812 14.660156 6.78125 14.585938 6.792969 14.546875 C 6.800781 14.511719 6.820312 14.453125 6.835938 14.417969 C 6.847656 14.378906 6.863281 14.328125 6.875 14.304688 C 6.882812 14.277344 6.894531 14.238281 6.902344 14.21875 C 6.910156 14.199219 6.917969 14.167969 6.921875 14.152344 C 6.925781 14.136719 6.9375 14.105469 6.945312 14.085938 C 6.953125 14.066406 6.984375 13.980469 7.011719 13.894531 C 7.039062 13.808594 7.070312 13.726562 7.074219 13.714844 C 7.097656 13.65625 7.117188 13.601562 7.144531 13.523438 C 7.195312 13.367188 7.183594 13.363281 7.273438 13.566406 M 16.820312 13.414062 C 16.820312 13.425781 16.832031 13.460938 16.847656 13.496094 C 16.859375 13.53125 16.878906 13.582031 16.890625 13.613281 C 16.898438 13.644531 16.917969 13.6875 16.925781 13.714844 C 16.949219 13.773438 17.042969 14.046875 17.101562 14.230469 C 17.125 14.304688 17.152344 14.382812 17.160156 14.40625 C 17.246094 14.660156 17.511719 15.542969 17.523438 15.628906 L 17.53125 15.671875 L 17.425781 15.699219 C 17.363281 15.710938 17.261719 15.738281 17.195312 15.753906 C 17.082031 15.785156 16.707031 15.863281 16.535156 15.898438 C 16.488281 15.90625 16.410156 15.921875 16.363281 15.933594 C 16.3125 15.941406 16.234375 15.957031 16.191406 15.964844 C 16.144531 15.972656 16.097656 15.980469 16.089844 15.980469 C 16.082031 15.984375 16.050781 15.988281 16.023438 15.992188 C 15.992188 15.996094 15.910156 16.011719 15.835938 16.023438 C 15.761719 16.035156 15.675781 16.050781 15.648438 16.054688 C 15.617188 16.058594 15.5625 16.066406 15.527344 16.074219 C 15.445312 16.085938 15.445312 16.085938 15.480469 16.03125 C 15.492188 16.011719 15.507812 15.984375 15.507812 15.976562 C 15.507812 15.96875 15.511719 15.964844 15.515625 15.964844 C 15.523438 15.964844 15.527344 15.957031 15.527344 15.953125 C 15.527344 15.945312 15.550781 15.898438 15.578125 15.851562 C 15.609375 15.804688 15.632812 15.757812 15.632812 15.753906 C 15.632812 15.75 15.644531 15.722656 15.660156 15.695312 C 15.703125 15.625 15.738281 15.5625 15.789062 15.460938 C 15.8125 15.414062 15.84375 15.359375 15.851562 15.339844 C 15.863281 15.324219 15.875 15.300781 15.882812 15.285156 C 15.886719 15.273438 15.898438 15.25 15.90625 15.238281 C 15.914062 15.226562 15.945312 15.164062 15.976562 15.101562 C 16.007812 15.042969 16.042969 14.972656 16.058594 14.945312 C 16.070312 14.921875 16.085938 14.890625 16.089844 14.878906 C 16.097656 14.867188 16.109375 14.84375 16.113281 14.832031 C 16.164062 14.738281 16.238281 14.59375 16.238281 14.589844 C 16.238281 14.589844 16.253906 14.550781 16.277344 14.503906 C 16.300781 14.457031 16.328125 14.398438 16.339844 14.375 C 16.351562 14.351562 16.371094 14.3125 16.382812 14.289062 C 16.394531 14.261719 16.421875 14.214844 16.4375 14.175781 C 16.453125 14.140625 16.480469 14.082031 16.5 14.046875 C 16.515625 14.011719 16.542969 13.957031 16.558594 13.921875 C 16.574219 13.886719 16.597656 13.839844 16.609375 13.8125 C 16.621094 13.789062 16.660156 13.707031 16.691406 13.632812 C 16.792969 13.410156 16.820312 13.359375 16.820312 13.414062 M 6.253906 16.828125 C 6.273438 16.835938 6.359375 16.855469 6.445312 16.875 C 6.53125 16.898438 6.605469 16.914062 6.617188 16.917969 C 6.640625 16.925781 6.785156 16.957031 6.8125 16.964844 C 7.121094 17.027344 7.203125 17.046875 7.246094 17.054688 C 7.367188 17.082031 7.960938 17.1875 8.164062 17.21875 C 8.1875 17.222656 8.234375 17.230469 8.269531 17.234375 C 8.304688 17.242188 8.363281 17.25 8.398438 17.253906 C 8.4375 17.257812 8.476562 17.265625 8.488281 17.265625 C 8.507812 17.269531 8.945312 17.328125 9.03125 17.335938 C 9.273438 17.363281 9.300781 17.367188 9.316406 17.394531 C 9.328125 17.410156 9.351562 17.453125 9.375 17.488281 C 9.398438 17.527344 9.460938 17.625 9.511719 17.703125 C 9.5625 17.785156 9.621094 17.871094 9.636719 17.898438 C 9.730469 18.050781 9.953125 18.390625 10.042969 18.511719 C 10.058594 18.539062 10.078125 18.566406 10.085938 18.578125 C 10.089844 18.589844 10.105469 18.613281 10.121094 18.632812 C 10.136719 18.652344 10.160156 18.691406 10.179688 18.714844 C 10.195312 18.742188 10.21875 18.769531 10.226562 18.78125 C 10.234375 18.792969 10.253906 18.820312 10.269531 18.84375 C 10.28125 18.863281 10.320312 18.917969 10.351562 18.960938 C 10.382812 19.003906 10.445312 19.089844 10.488281 19.15625 C 10.53125 19.21875 10.582031 19.285156 10.597656 19.308594 C 10.613281 19.328125 10.644531 19.367188 10.664062 19.394531 C 10.683594 19.425781 10.714844 19.460938 10.730469 19.480469 C 10.746094 19.5 10.773438 19.535156 10.789062 19.5625 C 10.832031 19.621094 10.851562 19.648438 10.921875 19.742188 C 11.105469 19.976562 11.175781 20.066406 11.226562 20.128906 L 11.285156 20.199219 L 11.234375 20.253906 C 11.203125 20.285156 11.144531 20.351562 11.097656 20.398438 C 11.050781 20.449219 10.972656 20.53125 10.925781 20.582031 C 10.878906 20.632812 10.824219 20.683594 10.8125 20.699219 C 10.796875 20.714844 10.757812 20.757812 10.722656 20.789062 C 10.691406 20.824219 10.648438 20.863281 10.632812 20.882812 C 10.617188 20.898438 10.585938 20.929688 10.5625 20.949219 C 10.542969 20.96875 10.515625 20.996094 10.503906 21.007812 C 10.492188 21.023438 10.445312 21.0625 10.402344 21.101562 C 10.359375 21.144531 10.316406 21.179688 10.308594 21.191406 C 10.183594 21.304688 10.101562 21.378906 9.96875 21.492188 C 9.882812 21.566406 9.808594 21.632812 9.796875 21.640625 C 9.789062 21.648438 9.761719 21.671875 9.734375 21.691406 C 9.710938 21.710938 9.6875 21.730469 9.683594 21.734375 C 9.671875 21.746094 9.308594 22.019531 9.304688 22.019531 C 9.300781 22.019531 9.257812 22.050781 9.210938 22.085938 C 8.933594 22.289062 8.472656 22.542969 8.144531 22.667969 C 7.492188 22.914062 6.953125 22.890625 6.582031 22.597656 C 6.453125 22.5 6.300781 22.316406 6.21875 22.164062 C 6.199219 22.128906 6.179688 22.097656 6.175781 22.09375 C 6.167969 22.085938 6.0625 21.835938 6.035156 21.75 C 5.917969 21.429688 5.839844 20.972656 5.800781 20.445312 C 5.789062 20.277344 5.796875 19.425781 5.8125 19.273438 C 5.816406 19.210938 5.824219 19.121094 5.828125 19.070312 C 5.839844 18.871094 5.867188 18.636719 5.914062 18.296875 C 5.921875 18.230469 5.929688 18.160156 5.933594 18.140625 C 5.960938 17.9375 6.113281 17.082031 6.144531 16.964844 C 6.152344 16.945312 6.15625 16.914062 6.160156 16.894531 C 6.171875 16.808594 6.179688 16.804688 6.253906 16.828125 M 17.828125 16.839844 C 17.828125 16.847656 17.847656 16.925781 17.863281 17.011719 C 17.941406 17.394531 17.988281 17.636719 18.042969 17.984375 C 18.085938 18.273438 18.105469 18.425781 18.128906 18.625 C 18.148438 18.78125 18.152344 18.839844 18.164062 18.949219 C 18.164062 18.992188 18.171875 19.039062 18.171875 19.054688 C 18.175781 19.070312 18.179688 19.128906 18.183594 19.191406 C 18.1875 19.253906 18.191406 19.324219 18.195312 19.351562 C 18.203125 19.449219 18.207031 20.316406 18.199219 20.457031 C 18.152344 21.144531 18.023438 21.710938 17.824219 22.085938 C 17.804688 22.121094 17.789062 22.15625 17.785156 22.164062 C 17.769531 22.199219 17.695312 22.304688 17.597656 22.425781 C 17.476562 22.578125 17.234375 22.742188 17.070312 22.78125 C 17.0625 22.785156 17.035156 22.792969 17.015625 22.796875 C 16.886719 22.835938 16.597656 22.847656 16.414062 22.820312 C 16.191406 22.785156 15.921875 22.703125 15.683594 22.597656 C 15.652344 22.582031 15.609375 22.5625 15.589844 22.554688 C 15.515625 22.523438 15.109375 22.296875 15 22.226562 C 14.972656 22.207031 14.925781 22.175781 14.894531 22.160156 C 14.867188 22.140625 14.832031 22.117188 14.816406 22.105469 C 14.773438 22.074219 14.75 22.058594 14.71875 22.039062 C 14.699219 22.027344 14.605469 21.953125 14.507812 21.878906 C 14.40625 21.800781 14.304688 21.722656 14.28125 21.707031 C 14.257812 21.6875 14.230469 21.664062 14.222656 21.65625 C 14.214844 21.648438 14.164062 21.609375 14.113281 21.566406 C 14.0625 21.523438 14.015625 21.484375 14.015625 21.480469 C 14.011719 21.476562 13.972656 21.441406 13.925781 21.402344 C 13.847656 21.339844 13.691406 21.195312 13.679688 21.183594 C 13.675781 21.179688 13.660156 21.160156 13.636719 21.144531 C 13.617188 21.125 13.589844 21.101562 13.574219 21.085938 C 13.5625 21.070312 13.527344 21.039062 13.503906 21.015625 C 13.480469 20.992188 13.449219 20.964844 13.441406 20.953125 C 13.378906 20.890625 13.300781 20.8125 13.289062 20.804688 C 13.28125 20.796875 13.238281 20.75 13.1875 20.703125 C 13.140625 20.652344 13.089844 20.597656 13.074219 20.582031 C 13.058594 20.566406 12.988281 20.488281 12.917969 20.414062 C 12.847656 20.339844 12.773438 20.257812 12.753906 20.234375 L 12.71875 20.195312 L 12.757812 20.144531 C 12.78125 20.117188 12.8125 20.074219 12.835938 20.046875 C 12.855469 20.023438 12.917969 19.941406 12.972656 19.875 C 13.023438 19.804688 13.074219 19.738281 13.085938 19.730469 C 13.09375 19.71875 13.121094 19.679688 13.148438 19.644531 C 13.171875 19.609375 13.214844 19.558594 13.238281 19.527344 C 13.257812 19.496094 13.300781 19.441406 13.324219 19.40625 C 13.351562 19.371094 13.382812 19.328125 13.398438 19.3125 C 13.410156 19.292969 13.449219 19.242188 13.480469 19.195312 C 13.511719 19.148438 13.554688 19.089844 13.574219 19.0625 C 13.625 18.996094 13.648438 18.960938 13.691406 18.902344 C 13.710938 18.871094 13.734375 18.835938 13.746094 18.824219 C 13.753906 18.8125 13.777344 18.777344 13.800781 18.746094 C 13.820312 18.71875 13.847656 18.679688 13.859375 18.664062 C 13.871094 18.644531 13.902344 18.601562 13.925781 18.566406 C 13.949219 18.53125 13.972656 18.496094 13.976562 18.488281 C 13.984375 18.480469 13.996094 18.457031 14.007812 18.441406 C 14.019531 18.421875 14.035156 18.402344 14.039062 18.394531 C 14.046875 18.386719 14.078125 18.335938 14.113281 18.285156 C 14.148438 18.230469 14.179688 18.1875 14.179688 18.183594 C 14.183594 18.179688 14.199219 18.15625 14.210938 18.136719 C 14.226562 18.113281 14.246094 18.082031 14.257812 18.070312 C 14.265625 18.058594 14.289062 18.023438 14.304688 17.996094 C 14.320312 17.972656 14.335938 17.945312 14.339844 17.941406 C 14.339844 17.941406 14.367188 17.898438 14.394531 17.851562 C 14.421875 17.808594 14.453125 17.757812 14.464844 17.746094 C 14.476562 17.734375 14.484375 17.71875 14.484375 17.714844 C 14.484375 17.710938 14.492188 17.695312 14.5 17.683594 C 14.511719 17.667969 14.539062 17.628906 14.5625 17.589844 C 14.585938 17.554688 14.621094 17.496094 14.644531 17.460938 C 14.664062 17.429688 14.683594 17.398438 14.683594 17.390625 C 14.683594 17.375 14.710938 17.367188 14.917969 17.34375 C 15.03125 17.328125 15.164062 17.3125 15.214844 17.308594 C 15.261719 17.300781 15.324219 17.292969 15.355469 17.289062 C 15.433594 17.277344 15.699219 17.238281 15.917969 17.207031 C 16.429688 17.125 17.421875 16.921875 17.746094 16.828125 C 17.796875 16.8125 17.824219 16.816406 17.828125 16.839844 M 11.226562 17.496094 C 11.847656 17.511719 12.875 17.503906 13.234375 17.480469 C 13.363281 17.472656 13.363281 17.46875 13.296875 17.5625 C 13.269531 17.601562 13.238281 17.644531 13.230469 17.660156 C 13.222656 17.671875 13.1875 17.726562 13.152344 17.773438 C 13.117188 17.824219 13.082031 17.878906 13.074219 17.894531 C 13.0625 17.910156 13.042969 17.941406 13.03125 17.957031 C 13.015625 17.976562 12.996094 18.003906 12.984375 18.023438 C 12.972656 18.039062 12.957031 18.066406 12.945312 18.082031 C 12.933594 18.097656 12.910156 18.125 12.898438 18.148438 C 12.882812 18.167969 12.851562 18.210938 12.828125 18.242188 C 12.804688 18.273438 12.777344 18.316406 12.761719 18.339844 C 12.722656 18.398438 12.675781 18.460938 12.65625 18.484375 C 12.648438 18.492188 12.609375 18.542969 12.574219 18.597656 C 12.535156 18.648438 12.5 18.699219 12.496094 18.703125 C 12.488281 18.710938 12.429688 18.785156 12.363281 18.871094 C 12.257812 19.011719 12.125 19.1875 12.082031 19.238281 C 12.074219 19.25 12.050781 19.277344 12.03125 19.304688 L 12 19.347656 L 11.976562 19.320312 C 11.9375 19.265625 11.816406 19.113281 11.796875 19.089844 C 11.785156 19.074219 11.75 19.027344 11.714844 18.984375 C 11.65625 18.902344 11.617188 18.851562 11.574219 18.800781 C 11.542969 18.761719 11.34375 18.492188 11.304688 18.429688 C 11.230469 18.328125 11.152344 18.214844 11.144531 18.207031 C 11.140625 18.203125 11.121094 18.175781 11.101562 18.148438 C 11.082031 18.117188 11.0625 18.089844 11.0625 18.085938 C 11.058594 18.082031 11.011719 18.019531 10.960938 17.941406 C 10.910156 17.867188 10.863281 17.796875 10.855469 17.785156 C 10.847656 17.777344 10.820312 17.738281 10.796875 17.703125 C 10.726562 17.597656 10.691406 17.542969 10.671875 17.519531 C 10.640625 17.476562 10.648438 17.472656 10.765625 17.480469 C 10.828125 17.484375 11.035156 17.492188 11.226562 17.496094 "/>
<path style=" stroke:none;fill-rule:evenodd;fill:rgb(0%,0%,0%);fill-opacity:1;" d="M 5.671875 0.722656 L 5.640625 0.761719 L 5.675781 0.726562 C 5.691406 0.707031 5.707031 0.6875 5.707031 0.6875 C 5.707031 0.679688 5.699219 0.6875 5.671875 0.722656 M 11.191406 3.902344 L 11.160156 3.941406 L 11.195312 3.90625 C 11.226562 3.871094 11.234375 3.863281 11.222656 3.863281 C 11.222656 3.863281 11.207031 3.878906 11.191406 3.902344 M 22.800781 9.765625 C 22.800781 9.769531 22.816406 9.785156 22.832031 9.804688 L 22.867188 9.839844 L 22.835938 9.800781 C 22.808594 9.765625 22.800781 9.757812 22.800781 9.765625 "/>
</g>
</svg>
