<?xml version="1.0" encoding="UTF-8"?>
<svg xmlns="http://www.w3.org/2000/svg" xmlns:xlink="http://www.w3.org/1999/xlink" width="24px" height="24px" viewBox="0 0 24 24" version="1.1">
<g id="surface1">
<path style=" stroke:none;fill-rule:evenodd;fill:rgb(0%,0%,0%);fill-opacity:1;" d="M 12.101562 0.179688 C 11.886719 0.238281 11.761719 0.34375 11.425781 0.742188 C 10.738281 1.566406 10.371094 1.601562 9.34375 0.945312 C 8.71875 0.550781 8.535156 0.476562 8.199219 0.476562 C 7.492188 0.480469 7 1.085938 6.625 2.425781 C 6.46875 2.984375 5.503906 6.601562 5.429688 6.925781 C 5.417969 6.964844 4.953125 8.488281 4.945312 8.496094 C 4.945312 8.496094 4.863281 8.503906 4.761719 8.511719 C 1.78125 8.730469 0.375 9.730469 0.144531 11.785156 C -0.15625 14.464844 2.175781 17.742188 6.257812 20.386719 C 11.886719 24.03125 18.539062 24.933594 21.777344 22.496094 C 23.148438 21.464844 23.917969 19.792969 23.914062 17.84375 C 23.914062 15.625 22.445312 13.324219 20.179688 12.003906 L 20.066406 11.9375 L 19.929688 11.144531 C 19.851562 10.710938 19.582031 9.152344 19.324219 7.683594 C 18.839844 4.882812 18.8125 4.730469 18.746094 4.472656 C 18.621094 3.980469 18.4375 3.625 18.128906 3.292969 C 17.046875 2.109375 12.882812 -0.0390625 12.101562 0.179688 "/>
</g>
</svg>
