<?xml version="1.0" encoding="UTF-8"?>
<svg xmlns="http://www.w3.org/2000/svg" xmlns:xlink="http://www.w3.org/1999/xlink" width="24px" height="24px" viewBox="0 0 24 24" version="1.1">
<g id="surface1">
<path style=" stroke:none;fill-rule:evenodd;fill:rgb(0%,0%,0%);fill-opacity:1;" d="M 11.496094 1.222656 C 11.496094 1.238281 11.398438 1.246094 11.1875 1.246094 C 10.960938 1.246094 10.871094 1.257812 10.863281 1.277344 C 10.855469 1.300781 10.84375 1.300781 10.824219 1.273438 C 10.804688 1.246094 10.792969 1.242188 10.785156 1.265625 C 10.777344 1.285156 10.710938 1.296875 10.582031 1.296875 C 10.472656 1.296875 10.390625 1.304688 10.390625 1.320312 C 10.390625 1.332031 10.328125 1.34375 10.25 1.34375 C 10.171875 1.34375 10.105469 1.355469 10.101562 1.367188 C 10.09375 1.382812 10.035156 1.394531 9.964844 1.394531 C 9.894531 1.398438 9.832031 1.40625 9.824219 1.417969 C 9.820312 1.429688 9.777344 1.441406 9.730469 1.441406 C 9.683594 1.441406 9.648438 1.449219 9.648438 1.464844 C 9.648438 1.476562 9.636719 1.488281 9.621094 1.488281 C 9.609375 1.488281 9.605469 1.472656 9.613281 1.457031 C 9.628906 1.433594 9.625 1.433594 9.597656 1.457031 C 9.582031 1.472656 9.535156 1.488281 9.5 1.488281 C 9.464844 1.488281 9.429688 1.5 9.421875 1.511719 C 9.414062 1.523438 9.371094 1.527344 9.324219 1.519531 C 9.273438 1.511719 9.238281 1.515625 9.238281 1.53125 C 9.238281 1.542969 9.222656 1.5625 9.203125 1.570312 C 9.179688 1.578125 9.171875 1.574219 9.183594 1.554688 C 9.195312 1.539062 9.1875 1.535156 9.164062 1.550781 C 9.148438 1.5625 9.109375 1.566406 9.082031 1.5625 C 9.050781 1.558594 9.023438 1.570312 9.011719 1.582031 C 9.003906 1.597656 9.015625 1.601562 9.039062 1.59375 C 9.074219 1.582031 9.078125 1.585938 9.050781 1.601562 C 9.03125 1.617188 8.972656 1.621094 8.917969 1.617188 C 8.863281 1.613281 8.832031 1.613281 8.851562 1.621094 C 8.902344 1.648438 8.882812 1.671875 8.816406 1.667969 C 8.777344 1.664062 8.734375 1.671875 8.714844 1.6875 C 8.6875 1.710938 8.683594 1.710938 8.695312 1.6875 C 8.707031 1.667969 8.703125 1.65625 8.691406 1.65625 C 8.675781 1.65625 8.660156 1.667969 8.652344 1.679688 C 8.644531 1.691406 8.609375 1.703125 8.574219 1.703125 C 8.527344 1.703125 8.519531 1.710938 8.539062 1.726562 C 8.5625 1.738281 8.539062 1.75 8.472656 1.761719 C 8.421875 1.769531 8.375 1.785156 8.375 1.800781 C 8.375 1.8125 8.34375 1.816406 8.304688 1.808594 C 8.257812 1.800781 8.230469 1.804688 8.230469 1.820312 C 8.230469 1.835938 8.210938 1.847656 8.183594 1.847656 C 8.15625 1.847656 8.136719 1.859375 8.136719 1.871094 C 8.136719 1.886719 8.09375 1.894531 8.039062 1.894531 C 7.988281 1.894531 7.945312 1.90625 7.945312 1.921875 C 7.945312 1.933594 7.914062 1.945312 7.875 1.945312 C 7.835938 1.945312 7.800781 1.953125 7.796875 1.964844 C 7.792969 1.976562 7.773438 1.992188 7.753906 1.996094 C 7.734375 2 7.695312 2.023438 7.671875 2.046875 C 7.644531 2.070312 7.613281 2.085938 7.597656 2.085938 C 7.582031 2.085938 7.589844 2.074219 7.609375 2.0625 C 7.640625 2.039062 7.640625 2.039062 7.609375 2.050781 C 7.589844 2.058594 7.554688 2.070312 7.53125 2.078125 C 7.507812 2.085938 7.488281 2.101562 7.488281 2.113281 C 7.488281 2.125 7.464844 2.136719 7.4375 2.136719 C 7.410156 2.136719 7.394531 2.144531 7.398438 2.152344 C 7.40625 2.164062 7.378906 2.175781 7.335938 2.175781 C 7.292969 2.179688 7.257812 2.195312 7.253906 2.207031 C 7.246094 2.222656 7.222656 2.230469 7.199219 2.230469 C 7.171875 2.230469 7.152344 2.242188 7.152344 2.257812 C 7.152344 2.269531 7.136719 2.28125 7.117188 2.28125 C 7.097656 2.28125 7.078125 2.289062 7.078125 2.300781 C 7.078125 2.3125 7.046875 2.320312 7.003906 2.324219 C 6.960938 2.324219 6.921875 2.335938 6.917969 2.351562 C 6.910156 2.363281 6.886719 2.375 6.859375 2.375 C 6.835938 2.375 6.820312 2.386719 6.828125 2.398438 C 6.839844 2.421875 6.792969 2.433594 6.738281 2.425781 C 6.726562 2.425781 6.71875 2.433594 6.71875 2.449219 C 6.71875 2.460938 6.703125 2.472656 6.683594 2.472656 C 6.664062 2.472656 6.648438 2.484375 6.648438 2.496094 C 6.648438 2.507812 6.632812 2.515625 6.617188 2.515625 C 6.601562 2.511719 6.589844 2.523438 6.59375 2.539062 C 6.597656 2.558594 6.582031 2.566406 6.546875 2.554688 C 6.511719 2.546875 6.472656 2.558594 6.441406 2.589844 C 6.402344 2.625 6.382812 2.628906 6.375 2.609375 C 6.367188 2.589844 6.363281 2.59375 6.363281 2.617188 C 6.359375 2.640625 6.339844 2.671875 6.316406 2.691406 C 6.28125 2.722656 6.277344 2.71875 6.308594 2.683594 C 6.359375 2.617188 6.304688 2.632812 6.238281 2.699219 C 6.207031 2.734375 6.171875 2.757812 6.15625 2.753906 C 6.144531 2.746094 6.117188 2.757812 6.101562 2.777344 C 6.082031 2.792969 6.058594 2.800781 6.046875 2.792969 C 6.035156 2.789062 6.023438 2.792969 6.023438 2.804688 C 6.023438 2.820312 6.007812 2.832031 5.984375 2.832031 C 5.945312 2.832031 5.863281 2.902344 5.875 2.925781 C 5.878906 2.933594 5.871094 2.941406 5.859375 2.941406 C 5.847656 2.941406 5.828125 2.949219 5.816406 2.957031 C 5.808594 2.96875 5.777344 2.976562 5.75 2.976562 C 5.707031 2.976562 5.707031 2.980469 5.734375 3 C 5.765625 3.019531 5.757812 3.023438 5.703125 3.023438 C 5.664062 3.023438 5.644531 3.035156 5.652344 3.046875 C 5.660156 3.0625 5.648438 3.070312 5.628906 3.070312 C 5.609375 3.070312 5.570312 3.09375 5.542969 3.121094 C 5.519531 3.144531 5.476562 3.167969 5.453125 3.167969 C 5.417969 3.167969 5.417969 3.171875 5.449219 3.191406 C 5.476562 3.210938 5.472656 3.214844 5.429688 3.214844 C 5.398438 3.214844 5.375 3.226562 5.375 3.238281 C 5.375 3.253906 5.359375 3.265625 5.339844 3.265625 C 5.320312 3.265625 5.304688 3.273438 5.304688 3.289062 C 5.304688 3.300781 5.289062 3.3125 5.273438 3.3125 C 5.257812 3.3125 5.226562 3.332031 5.207031 3.359375 C 5.1875 3.386719 5.152344 3.40625 5.128906 3.40625 C 5.105469 3.40625 5.089844 3.417969 5.089844 3.433594 C 5.089844 3.445312 5.066406 3.457031 5.039062 3.457031 C 5.011719 3.457031 4.992188 3.464844 4.992188 3.476562 C 4.992188 3.488281 4.964844 3.507812 4.933594 3.523438 C 4.898438 3.539062 4.871094 3.566406 4.871094 3.585938 C 4.871094 3.605469 4.847656 3.636719 4.816406 3.648438 C 4.789062 3.664062 4.738281 3.699219 4.707031 3.730469 C 4.675781 3.757812 4.65625 3.765625 4.664062 3.75 C 4.710938 3.667969 4.582031 3.785156 4.46875 3.921875 C 4.453125 3.941406 4.417969 3.960938 4.390625 3.960938 C 4.363281 3.960938 4.347656 3.972656 4.355469 3.984375 C 4.363281 3.996094 4.355469 4.007812 4.332031 4.007812 C 4.3125 4.007812 4.296875 4.023438 4.296875 4.042969 C 4.296875 4.066406 4.265625 4.085938 4.222656 4.09375 C 4.183594 4.105469 4.152344 4.121094 4.152344 4.132812 C 4.152344 4.144531 4.164062 4.148438 4.183594 4.136719 C 4.199219 4.128906 4.183594 4.148438 4.152344 4.183594 C 4.117188 4.214844 4.082031 4.238281 4.074219 4.230469 C 4.0625 4.226562 4.054688 4.234375 4.054688 4.25 C 4.054688 4.265625 4.050781 4.273438 4.042969 4.265625 C 4.023438 4.25 3.742188 4.523438 3.742188 4.558594 C 3.742188 4.574219 3.722656 4.585938 3.695312 4.585938 C 3.664062 4.585938 3.648438 4.601562 3.648438 4.632812 C 3.648438 4.671875 3.636719 4.679688 3.609375 4.671875 C 3.589844 4.664062 3.578125 4.667969 3.589844 4.679688 C 3.597656 4.691406 3.585938 4.703125 3.566406 4.703125 C 3.542969 4.703125 3.535156 4.71875 3.542969 4.746094 C 3.554688 4.769531 3.550781 4.78125 3.539062 4.769531 C 3.527344 4.761719 3.503906 4.773438 3.488281 4.800781 C 3.46875 4.828125 3.441406 4.84375 3.429688 4.835938 C 3.417969 4.828125 3.40625 4.839844 3.40625 4.859375 C 3.40625 4.882812 3.398438 4.894531 3.386719 4.886719 C 3.375 4.878906 3.347656 4.902344 3.320312 4.9375 C 3.296875 4.972656 3.253906 5.023438 3.226562 5.054688 C 3.199219 5.082031 3.167969 5.125 3.160156 5.144531 C 3.152344 5.167969 3.132812 5.183594 3.117188 5.183594 C 3.09375 5.183594 3.007812 5.257812 3.019531 5.273438 C 3.019531 5.277344 3.023438 5.292969 3.023438 5.308594 C 3.023438 5.328125 3.015625 5.328125 3 5.304688 C 2.976562 5.269531 2.964844 5.296875 2.972656 5.359375 C 2.976562 5.371094 2.96875 5.375 2.953125 5.367188 C 2.941406 5.359375 2.90625 5.386719 2.875 5.429688 C 2.847656 5.472656 2.804688 5.523438 2.78125 5.539062 C 2.753906 5.558594 2.742188 5.585938 2.753906 5.609375 C 2.765625 5.636719 2.757812 5.644531 2.730469 5.632812 C 2.683594 5.617188 2.648438 5.65625 2.660156 5.714844 C 2.664062 5.738281 2.644531 5.757812 2.617188 5.765625 C 2.589844 5.773438 2.566406 5.789062 2.570312 5.800781 C 2.578125 5.851562 2.5625 5.875 2.519531 5.886719 C 2.492188 5.894531 2.472656 5.917969 2.472656 5.949219 C 2.472656 5.980469 2.460938 5.996094 2.449219 5.988281 C 2.433594 5.980469 2.425781 5.988281 2.425781 6.007812 C 2.425781 6.027344 2.402344 6.050781 2.371094 6.0625 C 2.339844 6.070312 2.332031 6.082031 2.351562 6.09375 C 2.367188 6.105469 2.347656 6.140625 2.28125 6.199219 C 2.226562 6.25 2.183594 6.304688 2.183594 6.324219 C 2.183594 6.34375 2.171875 6.359375 2.160156 6.359375 C 2.148438 6.359375 2.136719 6.378906 2.136719 6.40625 C 2.136719 6.429688 2.101562 6.480469 2.0625 6.515625 C 2.023438 6.546875 2.003906 6.574219 2.019531 6.574219 C 2.035156 6.574219 2.027344 6.59375 1.996094 6.613281 C 1.96875 6.632812 1.945312 6.675781 1.945312 6.703125 C 1.941406 6.746094 1.9375 6.75 1.921875 6.71875 C 1.898438 6.6875 1.898438 6.691406 1.894531 6.726562 C 1.894531 6.75 1.882812 6.769531 1.871094 6.769531 C 1.855469 6.769531 1.851562 6.777344 1.859375 6.789062 C 1.875 6.816406 1.847656 6.890625 1.828125 6.878906 C 1.816406 6.871094 1.796875 6.890625 1.777344 6.917969 C 1.753906 6.957031 1.753906 6.960938 1.78125 6.949219 C 1.796875 6.941406 1.789062 6.953125 1.757812 6.980469 C 1.726562 7.007812 1.703125 7.042969 1.703125 7.066406 C 1.703125 7.085938 1.683594 7.125 1.65625 7.152344 C 1.628906 7.179688 1.609375 7.207031 1.609375 7.214844 C 1.609375 7.226562 1.589844 7.253906 1.566406 7.28125 C 1.542969 7.304688 1.539062 7.320312 1.554688 7.3125 C 1.570312 7.300781 1.585938 7.304688 1.585938 7.320312 C 1.585938 7.332031 1.566406 7.34375 1.546875 7.34375 C 1.527344 7.34375 1.515625 7.355469 1.523438 7.367188 C 1.53125 7.382812 1.527344 7.390625 1.507812 7.390625 C 1.492188 7.390625 1.488281 7.398438 1.496094 7.40625 C 1.503906 7.417969 1.496094 7.449219 1.476562 7.480469 C 1.402344 7.59375 1.34375 7.707031 1.34375 7.742188 C 1.34375 7.761719 1.332031 7.773438 1.320312 7.765625 C 1.296875 7.75 1.285156 7.78125 1.292969 7.84375 C 1.296875 7.863281 1.289062 7.871094 1.273438 7.859375 C 1.25 7.847656 1.238281 7.878906 1.246094 7.925781 C 1.246094 7.9375 1.238281 7.945312 1.222656 7.945312 C 1.207031 7.945312 1.203125 7.953125 1.210938 7.964844 C 1.21875 7.976562 1.207031 7.992188 1.1875 8 C 1.164062 8.007812 1.15625 8.023438 1.160156 8.035156 C 1.167969 8.046875 1.15625 8.085938 1.140625 8.121094 C 1.121094 8.160156 1.105469 8.203125 1.105469 8.222656 C 1.105469 8.242188 1.09375 8.253906 1.078125 8.242188 C 1.066406 8.234375 1.054688 8.25 1.054688 8.277344 C 1.054688 8.304688 1.046875 8.328125 1.03125 8.328125 C 1.019531 8.328125 1.007812 8.359375 1.007812 8.398438 C 1.007812 8.441406 0.996094 8.472656 0.984375 8.472656 C 0.972656 8.472656 0.960938 8.492188 0.960938 8.519531 C 0.960938 8.546875 0.949219 8.566406 0.9375 8.566406 C 0.921875 8.566406 0.910156 8.585938 0.910156 8.605469 C 0.910156 8.625 0.902344 8.640625 0.886719 8.640625 C 0.875 8.640625 0.863281 8.660156 0.863281 8.6875 C 0.863281 8.714844 0.855469 8.753906 0.84375 8.777344 C 0.777344 8.90625 0.761719 8.953125 0.773438 8.984375 C 0.78125 9.003906 0.773438 9.027344 0.753906 9.035156 C 0.734375 9.042969 0.722656 9.054688 0.730469 9.066406 C 0.734375 9.078125 0.726562 9.117188 0.710938 9.148438 C 0.691406 9.183594 0.683594 9.21875 0.691406 9.226562 C 0.699219 9.234375 0.683594 9.261719 0.664062 9.285156 C 0.640625 9.3125 0.621094 9.347656 0.625 9.363281 C 0.632812 9.425781 0.625 9.457031 0.601562 9.445312 C 0.589844 9.4375 0.582031 9.464844 0.582031 9.507812 C 0.582031 9.546875 0.570312 9.589844 0.550781 9.601562 C 0.535156 9.609375 0.527344 9.636719 0.535156 9.65625 C 0.542969 9.679688 0.542969 9.695312 0.53125 9.695312 C 0.523438 9.695312 0.511719 9.71875 0.511719 9.746094 C 0.507812 9.777344 0.496094 9.804688 0.488281 9.8125 C 0.476562 9.820312 0.464844 9.855469 0.460938 9.886719 C 0.453125 9.921875 0.441406 9.953125 0.425781 9.964844 C 0.410156 9.972656 0.414062 9.984375 0.433594 9.992188 C 0.460938 10.003906 0.460938 10.011719 0.4375 10.023438 C 0.421875 10.03125 0.40625 10.074219 0.40625 10.117188 C 0.40625 10.164062 0.398438 10.199219 0.382812 10.199219 C 0.371094 10.199219 0.359375 10.230469 0.359375 10.269531 C 0.359375 10.308594 0.347656 10.34375 0.328125 10.351562 C 0.308594 10.359375 0.308594 10.363281 0.332031 10.367188 C 0.355469 10.367188 0.359375 10.375 0.339844 10.398438 C 0.324219 10.417969 0.3125 10.464844 0.308594 10.507812 C 0.304688 10.550781 0.292969 10.59375 0.28125 10.597656 C 0.273438 10.605469 0.261719 10.65625 0.261719 10.710938 C 0.261719 10.789062 0.257812 10.800781 0.238281 10.765625 C 0.222656 10.726562 0.21875 10.746094 0.21875 10.828125 C 0.214844 10.894531 0.207031 10.945312 0.191406 10.945312 C 0.179688 10.945312 0.167969 10.957031 0.167969 10.96875 C 0.167969 10.984375 0.179688 10.988281 0.191406 10.980469 C 0.207031 10.972656 0.214844 10.976562 0.214844 10.992188 C 0.214844 11.003906 0.207031 11.015625 0.195312 11.015625 C 0.1875 11.015625 0.175781 11.050781 0.171875 11.09375 C 0.167969 11.136719 0.152344 11.179688 0.140625 11.1875 C 0.117188 11.199219 0.121094 11.214844 0.140625 11.242188 C 0.160156 11.261719 0.164062 11.28125 0.152344 11.28125 C 0.140625 11.28125 0.125 11.335938 0.121094 11.40625 C 0.121094 11.476562 0.105469 11.542969 0.09375 11.554688 C 0.0820312 11.566406 0.0703125 11.648438 0.0703125 11.734375 C 0.0703125 11.839844 0.0625 11.878906 0.0507812 11.855469 C 0.0351562 11.832031 0.0273438 11.847656 0.0234375 11.917969 C -0.0078125 13.796875 0 14.777344 0.0507812 14.746094 C 0.0703125 14.734375 0.0859375 14.960938 0.0742188 15.074219 C 0.0703125 15.097656 0.0820312 15.121094 0.09375 15.132812 C 0.109375 15.140625 0.121094 15.191406 0.121094 15.25 C 0.121094 15.304688 0.132812 15.363281 0.148438 15.378906 C 0.171875 15.402344 0.171875 15.414062 0.148438 15.429688 C 0.125 15.445312 0.121094 15.453125 0.140625 15.464844 C 0.15625 15.476562 0.167969 15.53125 0.167969 15.589844 C 0.167969 15.65625 0.175781 15.691406 0.191406 15.683594 C 0.207031 15.675781 0.214844 15.710938 0.214844 15.777344 C 0.214844 15.835938 0.226562 15.890625 0.242188 15.902344 C 0.261719 15.914062 0.257812 15.925781 0.238281 15.9375 C 0.210938 15.953125 0.210938 15.960938 0.234375 15.960938 C 0.25 15.960938 0.265625 15.992188 0.265625 16.03125 C 0.265625 16.070312 0.273438 16.105469 0.289062 16.105469 C 0.300781 16.105469 0.3125 16.136719 0.3125 16.175781 C 0.3125 16.214844 0.320312 16.265625 0.332031 16.289062 C 0.359375 16.34375 0.40625 16.546875 0.40625 16.609375 C 0.40625 16.632812 0.417969 16.65625 0.425781 16.65625 C 0.4375 16.65625 0.449219 16.695312 0.453125 16.746094 C 0.457031 16.796875 0.46875 16.839844 0.480469 16.84375 C 0.492188 16.847656 0.503906 16.871094 0.503906 16.898438 C 0.503906 16.921875 0.515625 16.949219 0.527344 16.957031 C 0.539062 16.964844 0.542969 17 0.535156 17.039062 C 0.523438 17.097656 0.53125 17.113281 0.5625 17.113281 C 0.582031 17.113281 0.601562 17.128906 0.601562 17.148438 C 0.601562 17.171875 0.589844 17.179688 0.578125 17.175781 C 0.566406 17.167969 0.5625 17.1875 0.570312 17.222656 C 0.578125 17.261719 0.59375 17.277344 0.613281 17.269531 C 0.636719 17.261719 0.644531 17.277344 0.632812 17.328125 C 0.621094 17.382812 0.625 17.398438 0.65625 17.398438 C 0.683594 17.398438 0.691406 17.417969 0.683594 17.472656 C 0.679688 17.515625 0.683594 17.539062 0.695312 17.53125 C 0.710938 17.523438 0.71875 17.550781 0.71875 17.589844 C 0.71875 17.628906 0.730469 17.664062 0.742188 17.667969 C 0.761719 17.675781 0.78125 17.738281 0.789062 17.816406 C 0.792969 17.824219 0.800781 17.828125 0.816406 17.820312 C 0.828125 17.8125 0.832031 17.820312 0.824219 17.84375 C 0.816406 17.863281 0.820312 17.894531 0.832031 17.910156 C 0.847656 17.925781 0.871094 17.992188 0.890625 18.054688 C 0.90625 18.117188 0.9375 18.167969 0.953125 18.167969 C 0.972656 18.167969 0.984375 18.179688 0.980469 18.199219 C 0.972656 18.242188 1.066406 18.4375 1.085938 18.417969 C 1.097656 18.40625 1.105469 18.429688 1.105469 18.464844 C 1.105469 18.5 1.117188 18.527344 1.128906 18.527344 C 1.144531 18.527344 1.148438 18.539062 1.140625 18.550781 C 1.132812 18.5625 1.144531 18.582031 1.164062 18.601562 C 1.183594 18.617188 1.199219 18.660156 1.199219 18.695312 C 1.199219 18.730469 1.21875 18.773438 1.246094 18.792969 C 1.28125 18.816406 1.289062 18.832031 1.265625 18.84375 C 1.242188 18.859375 1.242188 18.863281 1.265625 18.863281 C 1.28125 18.863281 1.296875 18.886719 1.296875 18.910156 C 1.296875 18.9375 1.316406 18.964844 1.34375 18.972656 C 1.378906 18.984375 1.386719 18.996094 1.371094 19.015625 C 1.355469 19.039062 1.359375 19.054688 1.394531 19.074219 C 1.421875 19.09375 1.4375 19.113281 1.429688 19.125 C 1.421875 19.136719 1.433594 19.152344 1.453125 19.160156 C 1.472656 19.167969 1.488281 19.195312 1.488281 19.21875 C 1.488281 19.246094 1.503906 19.28125 1.523438 19.296875 C 1.546875 19.3125 1.554688 19.34375 1.550781 19.363281 C 1.539062 19.382812 1.554688 19.402344 1.585938 19.410156 C 1.621094 19.417969 1.632812 19.4375 1.625 19.46875 C 1.617188 19.492188 1.621094 19.511719 1.632812 19.511719 C 1.644531 19.511719 1.65625 19.535156 1.65625 19.558594 C 1.65625 19.585938 1.667969 19.605469 1.6875 19.601562 C 1.703125 19.597656 1.714844 19.609375 1.710938 19.625 C 1.707031 19.640625 1.714844 19.65625 1.726562 19.65625 C 1.742188 19.65625 1.753906 19.675781 1.753906 19.703125 C 1.753906 19.730469 1.773438 19.753906 1.804688 19.765625 C 1.84375 19.777344 1.847656 19.785156 1.820312 19.800781 C 1.796875 19.816406 1.796875 19.824219 1.816406 19.824219 C 1.835938 19.824219 1.847656 19.835938 1.847656 19.851562 C 1.847656 19.863281 1.863281 19.890625 1.882812 19.910156 C 1.902344 19.929688 1.914062 19.957031 1.90625 19.96875 C 1.902344 19.980469 1.917969 19.996094 1.945312 20.003906 C 1.992188 20.019531 2.003906 20.042969 1.992188 20.109375 C 1.992188 20.125 2 20.132812 2.015625 20.125 C 2.027344 20.117188 2.039062 20.121094 2.039062 20.132812 C 2.039062 20.1875 2.042969 20.195312 2.089844 20.21875 C 2.132812 20.242188 2.136719 20.25 2.136719 20.308594 C 2.136719 20.324219 2.144531 20.328125 2.152344 20.320312 C 2.175781 20.296875 2.257812 20.425781 2.238281 20.457031 C 2.230469 20.472656 2.234375 20.476562 2.242188 20.46875 C 2.265625 20.445312 2.375 20.554688 2.375 20.601562 C 2.375 20.625 2.386719 20.640625 2.398438 20.640625 C 2.414062 20.640625 2.425781 20.660156 2.425781 20.6875 C 2.425781 20.710938 2.445312 20.738281 2.46875 20.746094 C 2.496094 20.753906 2.523438 20.789062 2.53125 20.820312 C 2.539062 20.851562 2.558594 20.878906 2.578125 20.878906 C 2.59375 20.878906 2.625 20.898438 2.644531 20.921875 C 2.671875 20.960938 2.671875 20.960938 2.628906 20.929688 C 2.585938 20.894531 2.585938 20.894531 2.617188 20.953125 C 2.65625 21.027344 2.699219 21.070312 2.734375 21.070312 C 2.75 21.070312 2.777344 21.109375 2.800781 21.15625 C 2.824219 21.203125 2.851562 21.238281 2.859375 21.238281 C 2.871094 21.238281 2.878906 21.257812 2.878906 21.277344 C 2.878906 21.304688 2.894531 21.3125 2.917969 21.300781 C 2.945312 21.292969 2.953125 21.296875 2.941406 21.328125 C 2.933594 21.355469 2.9375 21.363281 2.964844 21.351562 C 2.988281 21.34375 3.003906 21.355469 3.015625 21.398438 C 3.023438 21.429688 3.039062 21.457031 3.046875 21.457031 C 3.074219 21.457031 3.15625 21.535156 3.175781 21.582031 C 3.183594 21.605469 3.207031 21.625 3.230469 21.625 C 3.25 21.625 3.261719 21.632812 3.253906 21.644531 C 3.25 21.652344 3.253906 21.679688 3.265625 21.695312 C 3.285156 21.726562 3.289062 21.726562 3.289062 21.695312 C 3.289062 21.675781 3.300781 21.6875 3.320312 21.71875 C 3.335938 21.753906 3.363281 21.777344 3.378906 21.773438 C 3.394531 21.769531 3.40625 21.792969 3.410156 21.820312 C 3.410156 21.867188 3.414062 21.867188 3.433594 21.839844 C 3.449219 21.8125 3.457031 21.816406 3.457031 21.863281 C 3.457031 21.910156 3.460938 21.917969 3.480469 21.886719 C 3.5 21.859375 3.503906 21.863281 3.503906 21.910156 C 3.507812 21.945312 3.511719 21.957031 3.519531 21.941406 C 3.527344 21.925781 3.542969 21.917969 3.554688 21.925781 C 3.566406 21.933594 3.570312 21.953125 3.5625 21.96875 C 3.554688 21.984375 3.570312 22.015625 3.59375 22.035156 C 3.632812 22.066406 3.632812 22.0625 3.601562 22.027344 C 3.558594 21.96875 3.578125 21.972656 3.648438 22.03125 C 3.675781 22.054688 3.695312 22.089844 3.6875 22.101562 C 3.667969 22.128906 3.765625 22.203125 3.796875 22.1875 C 3.808594 22.179688 3.816406 22.191406 3.816406 22.210938 C 3.816406 22.234375 3.828125 22.246094 3.839844 22.234375 C 3.851562 22.226562 3.863281 22.238281 3.863281 22.257812 C 3.863281 22.277344 3.882812 22.296875 3.902344 22.296875 C 3.921875 22.296875 3.933594 22.308594 3.925781 22.320312 C 3.914062 22.332031 3.925781 22.34375 3.949219 22.34375 C 3.972656 22.34375 4.011719 22.367188 4.035156 22.394531 C 4.078125 22.445312 4.082031 22.445312 4.082031 22.402344 C 4.082031 22.359375 4.085938 22.359375 4.101562 22.398438 C 4.109375 22.425781 4.125 22.441406 4.132812 22.441406 C 4.167969 22.441406 4.238281 22.472656 4.273438 22.511719 C 4.292969 22.53125 4.339844 22.550781 4.378906 22.554688 C 4.417969 22.5625 4.457031 22.574219 4.460938 22.585938 C 4.464844 22.597656 4.492188 22.609375 4.523438 22.609375 C 4.554688 22.609375 4.585938 22.617188 4.597656 22.632812 C 4.605469 22.644531 4.640625 22.65625 4.675781 22.65625 C 4.734375 22.660156 4.734375 22.660156 4.691406 22.679688 C 4.65625 22.695312 4.667969 22.699219 4.746094 22.703125 C 4.800781 22.703125 4.847656 22.714844 4.847656 22.722656 C 4.847656 22.734375 4.929688 22.746094 5.035156 22.75 C 5.144531 22.753906 5.226562 22.765625 5.238281 22.785156 C 5.25 22.804688 5.253906 22.804688 5.253906 22.78125 C 5.257812 22.761719 5.289062 22.753906 5.347656 22.753906 L 5.4375 22.757812 L 5.351562 22.777344 L 5.269531 22.792969 L 5.359375 22.796875 C 5.414062 22.800781 5.449219 22.789062 5.449219 22.769531 C 5.449219 22.75 5.457031 22.753906 5.472656 22.777344 C 5.488281 22.800781 5.496094 22.800781 5.496094 22.78125 C 5.496094 22.761719 5.542969 22.753906 5.652344 22.753906 C 5.734375 22.753906 5.808594 22.742188 5.816406 22.734375 C 5.824219 22.722656 5.871094 22.710938 5.917969 22.707031 C 5.96875 22.703125 6.019531 22.691406 6.035156 22.679688 C 6.046875 22.667969 6.09375 22.65625 6.132812 22.652344 C 6.171875 22.648438 6.210938 22.640625 6.214844 22.632812 C 6.242188 22.605469 6.335938 22.558594 6.363281 22.558594 C 6.417969 22.558594 6.574219 22.476562 6.574219 22.449219 C 6.574219 22.433594 6.597656 22.421875 6.625 22.429688 C 6.652344 22.433594 6.667969 22.429688 6.660156 22.417969 C 6.644531 22.390625 6.746094 22.316406 6.78125 22.328125 C 6.800781 22.335938 6.816406 22.328125 6.816406 22.308594 C 6.816406 22.289062 6.824219 22.273438 6.835938 22.277344 C 6.871094 22.285156 6.960938 22.242188 6.945312 22.222656 C 6.9375 22.210938 6.957031 22.199219 6.988281 22.199219 C 7.03125 22.199219 7.035156 22.195312 7.007812 22.175781 C 6.976562 22.15625 6.992188 22.140625 7.039062 22.148438 C 7.050781 22.152344 7.082031 22.128906 7.109375 22.105469 C 7.136719 22.078125 7.183594 22.054688 7.210938 22.054688 C 7.25 22.054688 7.253906 22.050781 7.222656 22.03125 C 7.191406 22.011719 7.191406 22.007812 7.226562 22.007812 C 7.246094 22.007812 7.277344 21.988281 7.296875 21.960938 C 7.320312 21.925781 7.335938 21.921875 7.347656 21.941406 C 7.359375 21.960938 7.378906 21.953125 7.410156 21.917969 C 7.4375 21.886719 7.46875 21.863281 7.484375 21.863281 C 7.5 21.863281 7.511719 21.851562 7.511719 21.839844 C 7.511719 21.828125 7.535156 21.816406 7.5625 21.816406 C 7.589844 21.816406 7.605469 21.804688 7.597656 21.792969 C 7.585938 21.777344 7.601562 21.769531 7.625 21.769531 C 7.648438 21.769531 7.6875 21.746094 7.710938 21.71875 C 7.734375 21.695312 7.773438 21.671875 7.800781 21.671875 C 7.828125 21.671875 7.847656 21.660156 7.847656 21.648438 C 7.847656 21.636719 7.871094 21.625 7.898438 21.625 C 7.925781 21.625 7.941406 21.613281 7.933594 21.601562 C 7.925781 21.585938 7.933594 21.574219 7.957031 21.574219 C 7.976562 21.574219 7.988281 21.566406 7.980469 21.550781 C 7.972656 21.539062 7.996094 21.527344 8.039062 21.527344 C 8.078125 21.527344 8.113281 21.515625 8.113281 21.503906 C 8.113281 21.492188 8.132812 21.480469 8.160156 21.480469 C 8.191406 21.480469 8.203125 21.46875 8.195312 21.453125 C 8.183594 21.433594 8.1875 21.429688 8.203125 21.441406 C 8.242188 21.464844 8.332031 21.433594 8.3125 21.402344 C 8.304688 21.386719 8.308594 21.382812 8.324219 21.394531 C 8.355469 21.414062 8.496094 21.359375 8.496094 21.332031 C 8.496094 21.320312 8.519531 21.3125 8.542969 21.3125 C 8.570312 21.3125 8.59375 21.296875 8.59375 21.277344 C 8.59375 21.253906 8.613281 21.246094 8.664062 21.253906 C 8.703125 21.257812 8.734375 21.25 8.734375 21.238281 C 8.734375 21.226562 8.757812 21.214844 8.785156 21.214844 C 8.808594 21.214844 8.832031 21.207031 8.832031 21.191406 C 8.832031 21.179688 8.847656 21.167969 8.867188 21.167969 C 8.886719 21.167969 8.902344 21.15625 8.902344 21.140625 C 8.902344 21.128906 8.914062 21.125 8.925781 21.132812 C 8.9375 21.136719 9.003906 21.121094 9.070312 21.097656 C 9.140625 21.070312 9.207031 21.054688 9.21875 21.0625 C 9.230469 21.070312 9.238281 21.0625 9.238281 21.050781 C 9.238281 21.035156 9.265625 21.023438 9.296875 21.023438 C 9.328125 21.023438 9.359375 21.011719 9.363281 21 C 9.367188 20.988281 9.40625 20.972656 9.445312 20.972656 C 9.484375 20.96875 9.53125 20.953125 9.546875 20.933594 C 9.566406 20.917969 9.589844 20.910156 9.601562 20.914062 C 9.609375 20.921875 9.625 20.917969 9.628906 20.90625 C 9.632812 20.894531 9.6875 20.878906 9.75 20.875 C 9.8125 20.875 9.855469 20.863281 9.847656 20.851562 C 9.84375 20.839844 9.875 20.832031 9.925781 20.832031 C 9.976562 20.832031 10.003906 20.824219 9.996094 20.808594 C 9.988281 20.792969 9.992188 20.785156 10.007812 20.785156 C 10.019531 20.785156 10.03125 20.796875 10.03125 20.8125 C 10.03125 20.835938 10.039062 20.835938 10.050781 20.8125 C 10.0625 20.796875 10.113281 20.78125 10.160156 20.777344 C 10.207031 20.773438 10.246094 20.765625 10.246094 20.753906 C 10.246094 20.742188 10.28125 20.734375 10.320312 20.734375 C 10.355469 20.734375 10.394531 20.726562 10.402344 20.710938 C 10.414062 20.699219 10.484375 20.6875 10.570312 20.6875 C 10.652344 20.6875 10.730469 20.675781 10.742188 20.664062 C 10.753906 20.652344 10.863281 20.640625 10.980469 20.636719 C 11.113281 20.636719 11.179688 20.628906 11.15625 20.613281 C 11.132812 20.597656 12.035156 20.574219 12.148438 20.589844 C 12.15625 20.589844 12.320312 20.589844 12.511719 20.59375 C 12.714844 20.59375 12.859375 20.605469 12.851562 20.617188 C 12.84375 20.628906 12.90625 20.640625 12.996094 20.640625 C 13.082031 20.640625 13.152344 20.652344 13.152344 20.664062 C 13.152344 20.675781 13.160156 20.6875 13.171875 20.683594 C 13.273438 20.667969 13.488281 20.691406 13.472656 20.71875 C 13.460938 20.734375 13.472656 20.734375 13.5 20.710938 C 13.527344 20.691406 13.539062 20.6875 13.527344 20.707031 C 13.511719 20.730469 13.542969 20.734375 13.644531 20.734375 C 13.726562 20.734375 13.773438 20.746094 13.765625 20.761719 C 13.753906 20.773438 13.78125 20.785156 13.824219 20.785156 C 13.863281 20.785156 13.894531 20.792969 13.894531 20.808594 C 13.894531 20.820312 13.90625 20.832031 13.921875 20.832031 C 13.933594 20.832031 13.9375 20.820312 13.929688 20.800781 C 13.917969 20.777344 13.917969 20.777344 13.945312 20.800781 C 13.964844 20.820312 14.011719 20.832031 14.054688 20.832031 C 14.097656 20.832031 14.140625 20.84375 14.148438 20.855469 C 14.15625 20.871094 14.195312 20.878906 14.234375 20.878906 C 14.273438 20.878906 14.300781 20.886719 14.296875 20.898438 C 14.285156 20.914062 14.335938 20.925781 14.441406 20.933594 C 14.457031 20.933594 14.472656 20.945312 14.472656 20.957031 C 14.472656 20.96875 14.492188 20.976562 14.519531 20.976562 C 14.546875 20.976562 14.566406 20.988281 14.566406 21 C 14.566406 21.011719 14.605469 21.023438 14.652344 21.023438 C 14.699219 21.023438 14.734375 21.035156 14.734375 21.046875 C 14.734375 21.0625 14.773438 21.070312 14.816406 21.070312 C 14.863281 21.070312 14.902344 21.085938 14.910156 21.097656 C 14.914062 21.113281 14.945312 21.125 14.984375 21.125 C 15.019531 21.125 15.042969 21.136719 15.035156 21.148438 C 15.027344 21.160156 15.042969 21.167969 15.070312 21.167969 C 15.097656 21.167969 15.121094 21.179688 15.121094 21.191406 C 15.121094 21.207031 15.140625 21.214844 15.167969 21.214844 C 15.195312 21.214844 15.214844 21.226562 15.214844 21.238281 C 15.214844 21.253906 15.226562 21.265625 15.242188 21.265625 C 15.253906 21.265625 15.261719 21.253906 15.253906 21.242188 C 15.246094 21.226562 15.28125 21.238281 15.339844 21.261719 C 15.394531 21.285156 15.445312 21.320312 15.457031 21.335938 C 15.46875 21.355469 15.496094 21.359375 15.527344 21.351562 C 15.566406 21.34375 15.578125 21.347656 15.566406 21.371094 C 15.5625 21.390625 15.574219 21.410156 15.601562 21.414062 C 15.628906 21.421875 15.640625 21.417969 15.632812 21.40625 C 15.628906 21.394531 15.632812 21.382812 15.648438 21.382812 C 15.660156 21.382812 15.671875 21.398438 15.671875 21.417969 C 15.671875 21.4375 15.71875 21.460938 15.78125 21.476562 C 15.839844 21.492188 15.894531 21.519531 15.902344 21.539062 C 15.910156 21.5625 15.949219 21.574219 15.988281 21.574219 C 16.027344 21.574219 16.050781 21.585938 16.042969 21.601562 C 16.035156 21.613281 16.046875 21.625 16.066406 21.625 C 16.085938 21.625 16.105469 21.636719 16.105469 21.648438 C 16.105469 21.660156 16.113281 21.671875 16.121094 21.667969 C 16.167969 21.660156 16.230469 21.671875 16.21875 21.6875 C 16.195312 21.707031 16.261719 21.769531 16.304688 21.769531 C 16.328125 21.769531 16.34375 21.78125 16.34375 21.792969 C 16.34375 21.808594 16.355469 21.8125 16.367188 21.804688 C 16.378906 21.796875 16.417969 21.816406 16.449219 21.851562 C 16.484375 21.882812 16.527344 21.914062 16.554688 21.917969 C 16.601562 21.925781 16.703125 21.980469 16.671875 21.984375 C 16.660156 21.984375 16.667969 22 16.691406 22.023438 C 16.710938 22.042969 16.742188 22.054688 16.761719 22.046875 C 16.777344 22.042969 16.8125 22.058594 16.832031 22.082031 C 16.855469 22.109375 16.886719 22.121094 16.898438 22.113281 C 16.917969 22.101562 16.921875 22.105469 16.910156 22.125 C 16.898438 22.144531 16.910156 22.160156 16.941406 22.167969 C 16.96875 22.175781 16.992188 22.195312 16.992188 22.214844 C 16.992188 22.234375 17.007812 22.246094 17.03125 22.246094 C 17.050781 22.246094 17.097656 22.28125 17.136719 22.320312 C 17.179688 22.367188 17.21875 22.386719 17.242188 22.378906 C 17.265625 22.367188 17.28125 22.375 17.28125 22.398438 C 17.28125 22.445312 17.34375 22.472656 17.359375 22.433594 C 17.367188 22.414062 17.371094 22.421875 17.375 22.441406 C 17.375 22.464844 17.40625 22.488281 17.449219 22.496094 C 17.488281 22.503906 17.542969 22.53125 17.574219 22.558594 C 17.601562 22.585938 17.648438 22.609375 17.679688 22.609375 C 17.707031 22.609375 17.738281 22.617188 17.746094 22.632812 C 17.757812 22.644531 17.792969 22.65625 17.832031 22.65625 C 17.871094 22.65625 17.902344 22.667969 17.902344 22.679688 C 17.902344 22.691406 17.9375 22.703125 17.976562 22.703125 C 18.019531 22.703125 18.046875 22.710938 18.039062 22.722656 C 18.03125 22.734375 18.078125 22.746094 18.140625 22.75 C 18.277344 22.753906 18.316406 22.761719 18.347656 22.78125 C 18.386719 22.800781 18.914062 22.800781 18.902344 22.777344 C 18.894531 22.769531 18.957031 22.757812 19.039062 22.753906 C 19.121094 22.753906 19.191406 22.738281 19.195312 22.726562 C 19.199219 22.714844 19.230469 22.703125 19.261719 22.703125 C 19.292969 22.703125 19.320312 22.691406 19.320312 22.675781 C 19.320312 22.652344 19.328125 22.652344 19.339844 22.675781 C 19.355469 22.699219 19.367188 22.699219 19.378906 22.683594 C 19.386719 22.667969 19.421875 22.65625 19.453125 22.65625 C 19.488281 22.65625 19.507812 22.644531 19.5 22.632812 C 19.492188 22.617188 19.511719 22.609375 19.546875 22.609375 C 19.582031 22.609375 19.609375 22.597656 19.609375 22.585938 C 19.609375 22.570312 19.621094 22.558594 19.640625 22.558594 C 19.65625 22.558594 19.695312 22.539062 19.722656 22.511719 C 19.75 22.484375 19.789062 22.472656 19.8125 22.480469 C 19.835938 22.488281 19.847656 22.480469 19.847656 22.449219 C 19.847656 22.414062 19.855469 22.410156 19.867188 22.4375 C 19.890625 22.472656 19.96875 22.414062 19.96875 22.359375 C 19.96875 22.34375 19.976562 22.347656 19.992188 22.367188 C 20.015625 22.402344 20.019531 22.398438 20.023438 22.339844 C 20.027344 22.320312 20.050781 22.304688 20.082031 22.300781 C 20.113281 22.296875 20.128906 22.28125 20.121094 22.269531 C 20.117188 22.257812 20.125 22.246094 20.144531 22.246094 C 20.164062 22.246094 20.199219 22.222656 20.21875 22.195312 C 20.238281 22.164062 20.261719 22.144531 20.269531 22.148438 C 20.277344 22.152344 20.292969 22.148438 20.300781 22.136719 C 20.308594 22.128906 20.300781 22.128906 20.285156 22.136719 C 20.269531 22.148438 20.257812 22.148438 20.257812 22.140625 C 20.257812 22.113281 20.324219 22.054688 20.351562 22.054688 C 20.363281 22.054688 20.375 22.046875 20.375 22.03125 C 20.375 22.019531 20.382812 22.007812 20.394531 22.011719 C 20.441406 22.019531 20.457031 22.003906 20.425781 21.984375 C 20.394531 21.964844 20.402344 21.960938 20.449219 21.960938 C 20.496094 21.960938 20.5 21.953125 20.472656 21.9375 C 20.441406 21.917969 20.441406 21.914062 20.480469 21.914062 C 20.527344 21.910156 20.59375 21.859375 20.59375 21.816406 C 20.59375 21.800781 20.601562 21.796875 20.613281 21.804688 C 20.625 21.808594 20.648438 21.785156 20.667969 21.742188 C 20.6875 21.703125 20.71875 21.671875 20.742188 21.671875 C 20.765625 21.671875 20.785156 21.660156 20.785156 21.648438 C 20.785156 21.632812 20.773438 21.628906 20.757812 21.636719 C 20.738281 21.648438 20.734375 21.644531 20.746094 21.628906 C 20.753906 21.613281 20.777344 21.609375 20.796875 21.617188 C 20.820312 21.625 20.832031 21.613281 20.832031 21.585938 C 20.832031 21.546875 20.917969 21.457031 20.957031 21.457031 C 20.96875 21.457031 20.972656 21.445312 20.964844 21.433594 C 20.957031 21.417969 20.960938 21.40625 20.976562 21.40625 C 20.992188 21.40625 21.027344 21.382812 21.0625 21.347656 C 21.09375 21.316406 21.109375 21.289062 21.097656 21.289062 C 21.082031 21.289062 21.070312 21.277344 21.070312 21.265625 C 21.070312 21.25 21.089844 21.238281 21.109375 21.238281 C 21.128906 21.238281 21.140625 21.230469 21.132812 21.21875 C 21.125 21.207031 21.136719 21.183594 21.160156 21.164062 C 21.195312 21.136719 21.199219 21.136719 21.179688 21.167969 C 21.167969 21.1875 21.191406 21.171875 21.230469 21.132812 C 21.277344 21.085938 21.292969 21.054688 21.277344 21.042969 C 21.261719 21.03125 21.277344 21.023438 21.304688 21.023438 C 21.335938 21.023438 21.359375 21.011719 21.359375 21 C 21.359375 20.925781 21.402344 20.851562 21.433594 20.867188 C 21.445312 20.875 21.460938 20.855469 21.46875 20.820312 C 21.476562 20.789062 21.496094 20.765625 21.511719 20.777344 C 21.523438 20.785156 21.527344 20.78125 21.519531 20.765625 C 21.511719 20.753906 21.53125 20.710938 21.566406 20.671875 C 21.597656 20.636719 21.625 20.589844 21.625 20.574219 C 21.625 20.558594 21.640625 20.542969 21.660156 20.542969 C 21.679688 20.542969 21.707031 20.515625 21.71875 20.484375 C 21.734375 20.449219 21.753906 20.425781 21.765625 20.425781 C 21.777344 20.425781 21.808594 20.386719 21.828125 20.339844 C 21.851562 20.292969 21.878906 20.257812 21.890625 20.257812 C 21.902344 20.257812 21.910156 20.234375 21.910156 20.203125 C 21.910156 20.175781 21.917969 20.160156 21.925781 20.167969 C 21.945312 20.1875 22.054688 20.0625 22.054688 20.023438 C 22.054688 20.003906 22.066406 19.992188 22.078125 19.992188 C 22.09375 19.992188 22.105469 19.96875 22.105469 19.945312 C 22.105469 19.917969 22.117188 19.894531 22.128906 19.894531 C 22.144531 19.894531 22.148438 19.886719 22.140625 19.871094 C 22.132812 19.859375 22.136719 19.847656 22.15625 19.847656 C 22.171875 19.847656 22.175781 19.839844 22.167969 19.832031 C 22.160156 19.824219 22.171875 19.800781 22.195312 19.777344 C 22.21875 19.757812 22.234375 19.730469 22.238281 19.714844 C 22.238281 19.679688 22.347656 19.511719 22.367188 19.511719 C 22.378906 19.511719 22.394531 19.496094 22.402344 19.476562 C 22.410156 19.449219 22.40625 19.445312 22.386719 19.453125 C 22.371094 19.464844 22.367188 19.457031 22.371094 19.4375 C 22.378906 19.417969 22.394531 19.402344 22.410156 19.402344 C 22.425781 19.402344 22.445312 19.394531 22.453125 19.386719 C 22.464844 19.375 22.457031 19.367188 22.4375 19.367188 C 22.414062 19.367188 22.414062 19.363281 22.429688 19.351562 C 22.46875 19.324219 22.558594 19.160156 22.558594 19.117188 C 22.558594 19.097656 22.570312 19.078125 22.585938 19.078125 C 22.597656 19.078125 22.609375 19.054688 22.609375 19.027344 C 22.609375 18.972656 22.613281 18.972656 22.632812 19.019531 C 22.648438 19.058594 22.652344 19.054688 22.65625 18.988281 C 22.65625 18.941406 22.671875 18.902344 22.703125 18.882812 C 22.730469 18.867188 22.753906 18.835938 22.753906 18.8125 C 22.753906 18.789062 22.761719 18.769531 22.773438 18.765625 C 22.785156 18.757812 22.800781 18.726562 22.804688 18.691406 C 22.808594 18.65625 22.820312 18.617188 22.832031 18.609375 C 22.839844 18.597656 22.847656 18.570312 22.847656 18.546875 C 22.847656 18.519531 22.867188 18.492188 22.894531 18.488281 C 22.929688 18.480469 22.941406 18.457031 22.9375 18.402344 C 22.9375 18.359375 22.949219 18.324219 22.964844 18.316406 C 22.980469 18.3125 22.992188 18.289062 22.992188 18.269531 C 22.992188 18.25 23.015625 18.203125 23.046875 18.171875 C 23.074219 18.140625 23.085938 18.121094 23.070312 18.128906 C 23.054688 18.140625 23.039062 18.136719 23.039062 18.121094 C 23.039062 18.109375 23.046875 18.097656 23.058594 18.097656 C 23.085938 18.09375 23.136719 17.972656 23.136719 17.910156 C 23.136719 17.878906 23.148438 17.855469 23.164062 17.855469 C 23.175781 17.855469 23.183594 17.839844 23.175781 17.820312 C 23.167969 17.796875 23.175781 17.785156 23.199219 17.785156 C 23.222656 17.785156 23.230469 17.769531 23.222656 17.75 C 23.214844 17.730469 23.226562 17.703125 23.242188 17.6875 C 23.261719 17.671875 23.273438 17.644531 23.265625 17.628906 C 23.257812 17.613281 23.269531 17.582031 23.292969 17.558594 C 23.316406 17.535156 23.328125 17.496094 23.320312 17.460938 C 23.316406 17.425781 23.320312 17.40625 23.335938 17.40625 C 23.351562 17.410156 23.363281 17.386719 23.359375 17.359375 C 23.355469 17.328125 23.367188 17.304688 23.382812 17.304688 C 23.402344 17.304688 23.398438 17.296875 23.375 17.28125 C 23.34375 17.261719 23.34375 17.257812 23.378906 17.257812 C 23.402344 17.257812 23.421875 17.230469 23.429688 17.195312 C 23.4375 17.160156 23.429688 17.144531 23.417969 17.152344 C 23.40625 17.160156 23.398438 17.152344 23.40625 17.132812 C 23.414062 17.113281 23.429688 17.101562 23.449219 17.105469 C 23.46875 17.113281 23.472656 17.09375 23.464844 17.050781 C 23.460938 17.019531 23.464844 16.984375 23.476562 16.976562 C 23.488281 16.972656 23.496094 16.933594 23.496094 16.894531 C 23.496094 16.855469 23.503906 16.824219 23.515625 16.824219 C 23.523438 16.824219 23.535156 16.789062 23.539062 16.746094 C 23.542969 16.703125 23.554688 16.660156 23.570312 16.644531 C 23.582031 16.632812 23.59375 16.59375 23.59375 16.554688 C 23.59375 16.519531 23.601562 16.484375 23.617188 16.476562 C 23.628906 16.46875 23.640625 16.429688 23.640625 16.394531 C 23.640625 16.359375 23.648438 16.320312 23.65625 16.3125 C 23.667969 16.300781 23.679688 16.265625 23.683594 16.230469 C 23.6875 16.195312 23.699219 16.160156 23.707031 16.152344 C 23.714844 16.144531 23.726562 16.089844 23.730469 16.03125 C 23.734375 15.972656 23.75 15.914062 23.761719 15.902344 C 23.773438 15.886719 23.785156 15.828125 23.785156 15.769531 C 23.785156 15.691406 23.792969 15.667969 23.808594 15.695312 C 23.824219 15.722656 23.832031 15.6875 23.832031 15.582031 C 23.832031 15.5 23.84375 15.433594 23.855469 15.433594 C 23.871094 15.433594 23.878906 15.363281 23.878906 15.277344 C 23.878906 15.191406 23.890625 15.117188 23.898438 15.109375 C 23.910156 15.101562 23.921875 15.023438 23.925781 14.933594 C 23.929688 14.847656 23.941406 14.765625 23.949219 14.761719 C 24.007812 14.722656 24.003906 11.875 23.949219 11.84375 C 23.9375 11.835938 23.929688 11.769531 23.929688 11.699219 C 23.929688 11.628906 23.917969 11.5625 23.902344 11.554688 C 23.890625 11.546875 23.878906 11.488281 23.878906 11.425781 C 23.878906 11.359375 23.871094 11.300781 23.855469 11.292969 C 23.84375 11.285156 23.832031 11.207031 23.832031 11.121094 C 23.832031 11.023438 23.824219 10.96875 23.808594 10.980469 C 23.792969 10.988281 23.785156 10.957031 23.785156 10.898438 C 23.785156 10.847656 23.773438 10.800781 23.761719 10.796875 C 23.75 10.792969 23.734375 10.730469 23.730469 10.660156 C 23.726562 10.59375 23.714844 10.535156 23.707031 10.535156 C 23.695312 10.535156 23.6875 10.503906 23.6875 10.460938 C 23.6875 10.417969 23.679688 10.394531 23.664062 10.402344 C 23.648438 10.414062 23.640625 10.375 23.640625 10.308594 C 23.640625 10.25 23.628906 10.199219 23.617188 10.199219 C 23.601562 10.199219 23.59375 10.164062 23.59375 10.117188 C 23.59375 10.066406 23.582031 10.03125 23.5625 10.03125 C 23.539062 10.03125 23.539062 10.027344 23.566406 10.011719 C 23.582031 10 23.585938 9.984375 23.574219 9.980469 C 23.558594 9.976562 23.542969 9.941406 23.539062 9.898438 C 23.535156 9.859375 23.523438 9.824219 23.515625 9.816406 C 23.5 9.800781 23.476562 9.695312 23.472656 9.605469 C 23.472656 9.574219 23.460938 9.554688 23.449219 9.5625 C 23.433594 9.574219 23.425781 9.546875 23.425781 9.503906 C 23.425781 9.460938 23.414062 9.433594 23.398438 9.445312 C 23.378906 9.457031 23.363281 9.386719 23.375 9.328125 C 23.375 9.3125 23.367188 9.296875 23.347656 9.285156 C 23.332031 9.277344 23.320312 9.234375 23.320312 9.191406 C 23.320312 9.144531 23.308594 9.121094 23.289062 9.128906 C 23.273438 9.136719 23.261719 9.125 23.265625 9.101562 C 23.269531 9.078125 23.261719 9.054688 23.25 9.046875 C 23.238281 9.039062 23.226562 9.015625 23.222656 8.996094 C 23.222656 8.980469 23.210938 8.949219 23.199219 8.929688 C 23.183594 8.90625 23.183594 8.902344 23.203125 8.914062 C 23.21875 8.921875 23.230469 8.917969 23.230469 8.90625 C 23.230469 8.890625 23.21875 8.878906 23.199219 8.878906 C 23.175781 8.878906 23.167969 8.863281 23.175781 8.835938 C 23.183594 8.808594 23.175781 8.78125 23.160156 8.773438 C 23.148438 8.765625 23.136719 8.730469 23.136719 8.699219 C 23.136719 8.667969 23.125 8.640625 23.113281 8.640625 C 23.097656 8.640625 23.089844 8.625 23.089844 8.601562 C 23.089844 8.582031 23.078125 8.570312 23.0625 8.578125 C 23.042969 8.59375 23.027344 8.503906 23.039062 8.441406 C 23.039062 8.429688 23.03125 8.425781 23.015625 8.4375 C 23.003906 8.445312 22.992188 8.433594 22.992188 8.414062 C 22.992188 8.394531 22.980469 8.375 22.96875 8.375 C 22.953125 8.375 22.945312 8.34375 22.945312 8.304688 C 22.945312 8.265625 22.933594 8.230469 22.921875 8.230469 C 22.90625 8.230469 22.894531 8.210938 22.894531 8.183594 C 22.894531 8.15625 22.886719 8.136719 22.871094 8.136719 C 22.859375 8.136719 22.847656 8.121094 22.847656 8.101562 C 22.847656 8.082031 22.835938 8.0625 22.824219 8.0625 C 22.8125 8.0625 22.800781 8.042969 22.800781 8.015625 C 22.800781 7.988281 22.789062 7.96875 22.773438 7.96875 C 22.757812 7.96875 22.753906 7.953125 22.761719 7.933594 C 22.769531 7.914062 22.761719 7.890625 22.75 7.882812 C 22.738281 7.875 22.734375 7.859375 22.742188 7.847656 C 22.75 7.835938 22.742188 7.824219 22.730469 7.824219 C 22.714844 7.824219 22.703125 7.804688 22.703125 7.785156 C 22.703125 7.761719 22.695312 7.75 22.6875 7.757812 C 22.667969 7.78125 22.609375 7.664062 22.609375 7.605469 C 22.609375 7.582031 22.597656 7.558594 22.585938 7.558594 C 22.570312 7.558594 22.558594 7.546875 22.558594 7.53125 C 22.558594 7.519531 22.539062 7.484375 22.511719 7.460938 C 22.484375 7.4375 22.464844 7.40625 22.464844 7.386719 C 22.472656 7.324219 22.464844 7.292969 22.441406 7.308594 C 22.425781 7.316406 22.414062 7.304688 22.414062 7.285156 C 22.414062 7.265625 22.402344 7.246094 22.390625 7.246094 C 22.375 7.246094 22.371094 7.230469 22.378906 7.207031 C 22.386719 7.183594 22.375 7.15625 22.34375 7.136719 C 22.316406 7.117188 22.296875 7.082031 22.296875 7.054688 C 22.296875 7.027344 22.285156 7.007812 22.273438 7.007812 C 22.257812 7.007812 22.246094 6.992188 22.246094 6.976562 C 22.246094 6.960938 22.226562 6.921875 22.199219 6.894531 C 22.171875 6.863281 22.152344 6.824219 22.152344 6.804688 C 22.152344 6.78125 22.140625 6.773438 22.128906 6.78125 C 22.113281 6.789062 22.105469 6.769531 22.105469 6.738281 C 22.101562 6.703125 22.097656 6.695312 22.085938 6.714844 C 22.070312 6.734375 22.054688 6.714844 22.035156 6.660156 C 22.019531 6.613281 21.996094 6.574219 21.984375 6.574219 C 21.96875 6.574219 21.960938 6.5625 21.960938 6.546875 C 21.960938 6.535156 21.941406 6.503906 21.917969 6.484375 C 21.871094 6.4375 21.816406 6.347656 21.816406 6.3125 C 21.816406 6.277344 21.703125 6.167969 21.6875 6.183594 C 21.679688 6.195312 21.671875 6.183594 21.671875 6.160156 C 21.671875 6.140625 21.660156 6.121094 21.648438 6.117188 C 21.636719 6.113281 21.625 6.09375 21.621094 6.070312 C 21.617188 6.050781 21.59375 6.019531 21.570312 5.996094 C 21.546875 5.976562 21.527344 5.945312 21.527344 5.933594 C 21.527344 5.917969 21.507812 5.894531 21.484375 5.882812 C 21.464844 5.867188 21.453125 5.855469 21.46875 5.855469 C 21.480469 5.855469 21.457031 5.824219 21.414062 5.785156 C 21.371094 5.75 21.34375 5.710938 21.351562 5.703125 C 21.359375 5.695312 21.351562 5.671875 21.335938 5.652344 C 21.3125 5.621094 21.300781 5.621094 21.285156 5.644531 C 21.269531 5.667969 21.265625 5.664062 21.265625 5.632812 C 21.265625 5.585938 21.210938 5.519531 21.171875 5.519531 C 21.15625 5.519531 21.152344 5.503906 21.160156 5.484375 C 21.167969 5.460938 21.15625 5.441406 21.128906 5.429688 C 21.070312 5.410156 21.011719 5.351562 21.046875 5.351562 C 21.0625 5.351562 20.976562 5.257812 20.855469 5.140625 C 20.738281 5.023438 20.640625 4.90625 20.636719 4.882812 C 20.636719 4.855469 20.632812 4.847656 20.625 4.867188 C 20.613281 4.890625 20.601562 4.890625 20.566406 4.859375 C 20.542969 4.835938 20.527344 4.808594 20.535156 4.796875 C 20.546875 4.777344 20.441406 4.65625 20.414062 4.65625 C 20.40625 4.65625 20.410156 4.675781 20.417969 4.699219 C 20.433594 4.738281 20.429688 4.738281 20.390625 4.699219 C 20.367188 4.675781 20.355469 4.644531 20.367188 4.628906 C 20.378906 4.609375 20.371094 4.605469 20.355469 4.617188 C 20.328125 4.636719 20.257812 4.582031 20.257812 4.539062 C 20.257812 4.527344 20.234375 4.507812 20.207031 4.5 C 20.179688 4.492188 20.160156 4.476562 20.160156 4.464844 C 20.160156 4.429688 20.015625 4.296875 19.972656 4.296875 C 19.9375 4.296875 19.9375 4.292969 19.96875 4.273438 C 19.996094 4.253906 19.992188 4.25 19.949219 4.25 C 19.914062 4.25 19.894531 4.234375 19.894531 4.199219 C 19.894531 4.171875 19.878906 4.152344 19.859375 4.152344 C 19.835938 4.152344 19.78125 4.113281 19.734375 4.066406 C 19.6875 4.023438 19.640625 3.992188 19.628906 3.996094 C 19.617188 4.003906 19.609375 4.003906 19.609375 3.992188 C 19.621094 3.9375 19.601562 3.910156 19.554688 3.910156 C 19.515625 3.910156 19.507812 3.90625 19.53125 3.890625 C 19.558594 3.875 19.546875 3.863281 19.492188 3.851562 C 19.449219 3.84375 19.414062 3.820312 19.414062 3.804688 C 19.414062 3.789062 19.398438 3.757812 19.375 3.742188 C 19.335938 3.710938 19.335938 3.710938 19.363281 3.75 C 19.386719 3.777344 19.390625 3.792969 19.371094 3.792969 C 19.355469 3.792969 19.335938 3.773438 19.328125 3.75 C 19.308594 3.699219 19.230469 3.621094 19.207031 3.628906 C 19.195312 3.632812 19.1875 3.625 19.183594 3.613281 C 19.179688 3.582031 19.050781 3.503906 19.027344 3.519531 C 19.015625 3.527344 19.007812 3.511719 19.007812 3.488281 C 19.007812 3.453125 19.003906 3.449219 18.984375 3.476562 C 18.96875 3.503906 18.957031 3.5 18.933594 3.460938 C 18.914062 3.429688 18.882812 3.40625 18.859375 3.40625 C 18.835938 3.40625 18.816406 3.390625 18.816406 3.375 C 18.816406 3.355469 18.804688 3.332031 18.789062 3.320312 C 18.769531 3.308594 18.765625 3.316406 18.78125 3.339844 C 18.789062 3.355469 18.765625 3.335938 18.722656 3.292969 C 18.675781 3.25 18.632812 3.214844 18.617188 3.214844 C 18.605469 3.214844 18.578125 3.195312 18.554688 3.171875 C 18.515625 3.128906 18.433594 3.085938 18.402344 3.09375 C 18.390625 3.09375 18.375 3.082031 18.371094 3.0625 C 18.363281 3.042969 18.34375 3.03125 18.324219 3.039062 C 18.308594 3.046875 18.273438 3.023438 18.246094 2.988281 C 18.21875 2.957031 18.179688 2.929688 18.160156 2.929688 C 18.136719 2.929688 18.121094 2.917969 18.121094 2.902344 C 18.121094 2.886719 18.109375 2.882812 18.097656 2.890625 C 18.082031 2.898438 18.070312 2.890625 18.070312 2.867188 C 18.070312 2.847656 18.0625 2.835938 18.050781 2.84375 C 18.039062 2.851562 18.011719 2.84375 17.996094 2.824219 C 17.976562 2.804688 17.953125 2.796875 17.9375 2.800781 C 17.921875 2.804688 17.898438 2.792969 17.878906 2.773438 C 17.863281 2.753906 17.835938 2.734375 17.820312 2.734375 C 17.800781 2.734375 17.785156 2.722656 17.78125 2.710938 C 17.773438 2.695312 17.75 2.679688 17.722656 2.675781 C 17.699219 2.671875 17.671875 2.664062 17.664062 2.664062 C 17.65625 2.660156 17.644531 2.660156 17.636719 2.660156 C 17.625 2.664062 17.625 2.648438 17.632812 2.628906 C 17.640625 2.601562 17.628906 2.597656 17.59375 2.605469 C 17.5625 2.609375 17.535156 2.597656 17.527344 2.578125 C 17.519531 2.558594 17.503906 2.550781 17.492188 2.558594 C 17.480469 2.566406 17.453125 2.554688 17.433594 2.53125 C 17.410156 2.511719 17.378906 2.5 17.363281 2.503906 C 17.347656 2.511719 17.320312 2.496094 17.300781 2.46875 C 17.285156 2.445312 17.25 2.425781 17.226562 2.425781 C 17.203125 2.425781 17.183594 2.410156 17.183594 2.394531 C 17.183594 2.371094 17.179688 2.371094 17.164062 2.390625 C 17.152344 2.414062 17.136719 2.414062 17.105469 2.390625 C 17.082031 2.371094 17.070312 2.351562 17.082031 2.34375 C 17.09375 2.328125 17.011719 2.316406 16.960938 2.324219 C 16.949219 2.328125 16.949219 2.316406 16.957031 2.304688 C 16.964844 2.292969 16.953125 2.28125 16.933594 2.28125 C 16.914062 2.28125 16.894531 2.269531 16.894531 2.257812 C 16.894531 2.242188 16.882812 2.230469 16.871094 2.230469 C 16.855469 2.230469 16.851562 2.242188 16.859375 2.257812 C 16.867188 2.269531 16.863281 2.28125 16.847656 2.28125 C 16.835938 2.28125 16.824219 2.269531 16.824219 2.261719 C 16.824219 2.25 16.785156 2.226562 16.738281 2.207031 C 16.695312 2.191406 16.65625 2.164062 16.65625 2.148438 C 16.65625 2.136719 16.644531 2.140625 16.632812 2.160156 C 16.621094 2.179688 16.609375 2.183594 16.609375 2.171875 C 16.609375 2.160156 16.585938 2.132812 16.558594 2.117188 C 16.53125 2.097656 16.515625 2.097656 16.523438 2.109375 C 16.546875 2.152344 16.515625 2.140625 16.457031 2.089844 C 16.429688 2.0625 16.386719 2.039062 16.363281 2.039062 C 16.339844 2.039062 16.320312 2.027344 16.320312 2.011719 C 16.320312 1.988281 16.3125 1.992188 16.296875 2.015625 C 16.28125 2.039062 16.273438 2.042969 16.273438 2.023438 C 16.273438 2.003906 16.257812 1.992188 16.238281 1.992188 C 16.21875 1.992188 16.199219 1.976562 16.191406 1.960938 C 16.183594 1.9375 16.171875 1.941406 16.152344 1.96875 C 16.136719 1.992188 16.128906 1.996094 16.128906 1.972656 C 16.128906 1.957031 16.113281 1.945312 16.09375 1.945312 C 16.070312 1.945312 16.054688 1.933594 16.054688 1.921875 C 16.054688 1.90625 16.015625 1.894531 15.96875 1.894531 C 15.917969 1.894531 15.890625 1.886719 15.898438 1.871094 C 15.910156 1.859375 15.882812 1.847656 15.839844 1.847656 C 15.796875 1.847656 15.769531 1.839844 15.78125 1.824219 C 15.789062 1.808594 15.785156 1.800781 15.777344 1.800781 C 15.710938 1.8125 15.625 1.796875 15.636719 1.777344 C 15.644531 1.761719 15.617188 1.753906 15.566406 1.753906 C 15.519531 1.753906 15.480469 1.742188 15.480469 1.730469 C 15.480469 1.707031 15.367188 1.679688 15.234375 1.671875 C 15.1875 1.667969 15.136719 1.65625 15.128906 1.644531 C 15.117188 1.632812 15.121094 1.632812 15.136719 1.640625 C 15.15625 1.652344 15.167969 1.648438 15.167969 1.636719 C 15.167969 1.613281 15.046875 1.585938 14.902344 1.574219 C 14.859375 1.574219 14.804688 1.558594 14.785156 1.546875 C 14.734375 1.515625 14.699219 1.507812 14.515625 1.496094 C 14.425781 1.488281 14.351562 1.472656 14.351562 1.464844 C 14.351562 1.453125 14.300781 1.4375 14.238281 1.429688 C 14 1.402344 13.921875 1.386719 13.933594 1.367188 C 13.941406 1.355469 13.9375 1.34375 13.921875 1.34375 C 13.910156 1.34375 13.894531 1.359375 13.886719 1.375 C 13.875 1.398438 13.871094 1.398438 13.859375 1.375 C 13.847656 1.355469 13.796875 1.34375 13.726562 1.34375 C 13.648438 1.34375 13.609375 1.332031 13.609375 1.3125 C 13.605469 1.292969 13.601562 1.292969 13.585938 1.320312 C 13.570312 1.34375 13.554688 1.347656 13.53125 1.328125 C 13.515625 1.3125 13.433594 1.296875 13.355469 1.292969 C 13.277344 1.292969 13.199219 1.277344 13.183594 1.265625 C 13.160156 1.25 13.152344 1.253906 13.152344 1.273438 C 13.152344 1.300781 13.148438 1.300781 13.132812 1.277344 C 13.121094 1.257812 13.097656 1.246094 13.078125 1.25 C 12.96875 1.265625 12.550781 1.246094 12.5625 1.226562 C 12.570312 1.210938 12.382812 1.203125 12.0625 1.203125 C 11.675781 1.203125 11.546875 1.210938 11.5625 1.230469 C 11.570312 1.246094 11.558594 1.246094 11.535156 1.226562 C 11.511719 1.207031 11.496094 1.203125 11.496094 1.222656 M 11.617188 7.179688 C 11.585938 7.199219 11.589844 7.199219 11.628906 7.183594 C 11.714844 7.148438 12.246094 7.144531 12.265625 7.179688 C 12.28125 7.203125 12.289062 7.203125 12.289062 7.183594 C 12.289062 7.164062 12.3125 7.152344 12.34375 7.152344 C 12.386719 7.152344 12.390625 7.15625 12.359375 7.175781 C 12.332031 7.195312 12.335938 7.199219 12.382812 7.195312 C 12.535156 7.1875 12.816406 7.203125 12.804688 7.222656 C 12.796875 7.234375 12.859375 7.242188 12.941406 7.246094 C 13.03125 7.246094 13.097656 7.257812 13.105469 7.277344 C 13.117188 7.292969 13.132812 7.300781 13.140625 7.289062 C 13.148438 7.28125 13.183594 7.285156 13.214844 7.296875 C 13.253906 7.3125 13.269531 7.3125 13.261719 7.296875 C 13.25 7.28125 13.261719 7.273438 13.28125 7.273438 C 13.304688 7.273438 13.3125 7.285156 13.304688 7.308594 C 13.292969 7.335938 13.308594 7.34375 13.390625 7.332031 C 13.464844 7.324219 13.492188 7.328125 13.503906 7.355469 C 13.511719 7.375 13.53125 7.382812 13.550781 7.375 C 13.566406 7.367188 13.601562 7.378906 13.621094 7.402344 C 13.648438 7.425781 13.683594 7.433594 13.742188 7.425781 C 13.808594 7.414062 13.824219 7.421875 13.824219 7.453125 C 13.824219 7.476562 13.832031 7.488281 13.839844 7.480469 C 13.847656 7.472656 13.875 7.476562 13.898438 7.488281 C 13.925781 7.503906 13.941406 7.503906 13.949219 7.488281 C 13.953125 7.472656 13.980469 7.484375 14.007812 7.511719 C 14.039062 7.539062 14.089844 7.558594 14.121094 7.558594 C 14.152344 7.558594 14.183594 7.570312 14.1875 7.582031 C 14.191406 7.59375 14.222656 7.605469 14.257812 7.613281 C 14.289062 7.617188 14.335938 7.640625 14.359375 7.664062 C 14.390625 7.699219 14.402344 7.703125 14.402344 7.675781 C 14.402344 7.652344 14.40625 7.652344 14.414062 7.675781 C 14.421875 7.691406 14.449219 7.703125 14.472656 7.703125 C 14.5 7.703125 14.519531 7.710938 14.519531 7.722656 C 14.519531 7.742188 14.636719 7.800781 14.679688 7.800781 C 14.699219 7.800781 14.710938 7.8125 14.710938 7.824219 C 14.710938 7.835938 14.734375 7.847656 14.761719 7.847656 C 14.785156 7.847656 14.808594 7.859375 14.808594 7.871094 C 14.808594 7.886719 14.828125 7.894531 14.851562 7.894531 C 14.878906 7.894531 14.90625 7.914062 14.914062 7.933594 C 14.921875 7.953125 14.9375 7.964844 14.949219 7.957031 C 14.960938 7.949219 14.988281 7.96875 15.011719 7.996094 C 15.03125 8.027344 15.046875 8.035156 15.046875 8.019531 C 15.046875 7.996094 15.054688 7.996094 15.082031 8.019531 C 15.101562 8.039062 15.109375 8.058594 15.105469 8.070312 C 15.097656 8.078125 15.125 8.089844 15.160156 8.089844 C 15.214844 8.089844 15.21875 8.09375 15.191406 8.113281 C 15.164062 8.132812 15.164062 8.136719 15.203125 8.136719 C 15.230469 8.136719 15.269531 8.15625 15.289062 8.183594 C 15.324219 8.234375 15.375 8.253906 15.347656 8.207031 C 15.335938 8.1875 15.347656 8.1875 15.382812 8.207031 C 15.410156 8.222656 15.425781 8.246094 15.417969 8.257812 C 15.410156 8.269531 15.421875 8.28125 15.445312 8.28125 C 15.464844 8.28125 15.476562 8.289062 15.46875 8.304688 C 15.453125 8.328125 15.488281 8.339844 15.539062 8.328125 C 15.554688 8.328125 15.554688 8.332031 15.546875 8.339844 C 15.519531 8.367188 15.652344 8.460938 15.703125 8.453125 C 15.730469 8.445312 15.742188 8.453125 15.734375 8.46875 C 15.722656 8.484375 15.722656 8.507812 15.734375 8.523438 C 15.746094 8.542969 15.757812 8.539062 15.769531 8.515625 C 15.78125 8.5 15.792969 8.496094 15.792969 8.511719 C 15.792969 8.539062 15.875 8.640625 15.898438 8.640625 C 15.90625 8.640625 15.929688 8.65625 15.953125 8.675781 C 15.972656 8.695312 15.980469 8.710938 15.972656 8.710938 C 15.933594 8.710938 16.03125 8.785156 16.070312 8.785156 C 16.097656 8.785156 16.101562 8.792969 16.085938 8.800781 C 16.046875 8.816406 16.160156 8.929688 16.21875 8.929688 C 16.253906 8.929688 16.253906 8.933594 16.222656 8.953125 C 16.195312 8.972656 16.199219 8.976562 16.242188 8.976562 C 16.28125 8.976562 16.296875 8.992188 16.296875 9.023438 C 16.296875 9.050781 16.304688 9.070312 16.3125 9.070312 C 16.359375 9.0625 16.394531 9.074219 16.382812 9.09375 C 16.367188 9.121094 16.449219 9.214844 16.484375 9.214844 C 16.503906 9.214844 16.507812 9.226562 16.5 9.238281 C 16.492188 9.253906 16.496094 9.265625 16.507812 9.265625 C 16.542969 9.265625 16.621094 9.34375 16.648438 9.414062 C 16.664062 9.449219 16.691406 9.480469 16.703125 9.480469 C 16.71875 9.480469 16.722656 9.492188 16.714844 9.503906 C 16.707031 9.515625 16.71875 9.527344 16.738281 9.527344 C 16.769531 9.527344 16.773438 9.542969 16.765625 9.582031 C 16.753906 9.621094 16.753906 9.628906 16.773438 9.601562 C 16.796875 9.5625 16.847656 9.652344 16.847656 9.734375 C 16.847656 9.753906 16.863281 9.765625 16.878906 9.761719 C 16.894531 9.757812 16.90625 9.769531 16.902344 9.785156 C 16.898438 9.800781 16.90625 9.816406 16.921875 9.816406 C 16.933594 9.816406 16.945312 9.835938 16.945312 9.863281 C 16.945312 9.894531 16.960938 9.910156 16.984375 9.910156 C 17.007812 9.910156 17.015625 9.917969 17.007812 9.925781 C 17 9.9375 17.015625 9.960938 17.042969 9.984375 C 17.070312 10.007812 17.089844 10.035156 17.089844 10.042969 C 17.082031 10.089844 17.089844 10.105469 17.117188 10.089844 C 17.132812 10.078125 17.140625 10.085938 17.128906 10.109375 C 17.121094 10.132812 17.136719 10.164062 17.160156 10.1875 C 17.1875 10.210938 17.203125 10.238281 17.195312 10.25 C 17.1875 10.261719 17.195312 10.277344 17.207031 10.285156 C 17.222656 10.292969 17.230469 10.320312 17.230469 10.347656 C 17.230469 10.378906 17.238281 10.394531 17.246094 10.386719 C 17.273438 10.359375 17.328125 10.433594 17.328125 10.5 C 17.328125 10.53125 17.339844 10.558594 17.351562 10.558594 C 17.363281 10.558594 17.375 10.582031 17.375 10.609375 C 17.375 10.632812 17.382812 10.65625 17.394531 10.65625 C 17.414062 10.65625 17.472656 10.773438 17.472656 10.816406 C 17.472656 10.835938 17.484375 10.84375 17.496094 10.835938 C 17.507812 10.828125 17.519531 10.847656 17.519531 10.882812 C 17.519531 10.917969 17.53125 10.945312 17.542969 10.945312 C 17.558594 10.945312 17.566406 10.957031 17.566406 10.96875 C 17.566406 10.984375 17.554688 10.988281 17.539062 10.976562 C 17.515625 10.960938 17.515625 10.964844 17.539062 10.996094 C 17.554688 11.015625 17.5625 11.039062 17.554688 11.046875 C 17.542969 11.054688 17.554688 11.078125 17.574219 11.097656 C 17.59375 11.117188 17.605469 11.15625 17.597656 11.183594 C 17.589844 11.214844 17.601562 11.238281 17.621094 11.246094 C 17.644531 11.253906 17.652344 11.277344 17.648438 11.304688 C 17.640625 11.332031 17.648438 11.351562 17.664062 11.351562 C 17.679688 11.351562 17.683594 11.363281 17.675781 11.375 C 17.667969 11.386719 17.675781 11.402344 17.6875 11.414062 C 17.703125 11.421875 17.707031 11.449219 17.699219 11.472656 C 17.691406 11.496094 17.699219 11.523438 17.710938 11.53125 C 17.726562 11.539062 17.734375 11.585938 17.738281 11.636719 C 17.738281 11.703125 17.742188 11.714844 17.761719 11.6875 C 17.777344 11.664062 17.785156 11.695312 17.785156 11.796875 C 17.785156 11.882812 17.792969 11.925781 17.804688 11.90625 C 17.820312 11.886719 17.828125 11.914062 17.835938 11.992188 C 17.84375 12.054688 17.859375 12.128906 17.867188 12.15625 C 17.882812 12.195312 17.878906 12.195312 17.859375 12.167969 C 17.84375 12.148438 17.832031 12.144531 17.832031 12.15625 C 17.832031 12.171875 17.84375 12.195312 17.855469 12.207031 C 17.871094 12.222656 17.882812 12.300781 17.882812 12.378906 C 17.882812 12.464844 17.894531 12.523438 17.90625 12.515625 C 17.929688 12.5 17.933594 12.597656 17.925781 13.453125 C 17.925781 13.769531 17.921875 14.046875 17.925781 14.070312 C 17.925781 14.09375 17.914062 14.113281 17.902344 14.113281 C 17.890625 14.113281 17.878906 14.125 17.878906 14.136719 C 17.878906 14.152344 17.894531 14.15625 17.910156 14.144531 C 17.933594 14.132812 17.933594 14.132812 17.914062 14.160156 C 17.898438 14.179688 17.882812 14.246094 17.882812 14.304688 C 17.882812 14.363281 17.871094 14.414062 17.859375 14.417969 C 17.84375 14.425781 17.832031 14.4375 17.832031 14.453125 C 17.832031 14.464844 17.84375 14.46875 17.855469 14.460938 C 17.886719 14.441406 17.886719 14.503906 17.855469 14.535156 C 17.839844 14.546875 17.828125 14.59375 17.824219 14.636719 C 17.824219 14.675781 17.8125 14.710938 17.808594 14.710938 C 17.800781 14.710938 17.792969 14.753906 17.792969 14.800781 C 17.792969 14.851562 17.78125 14.890625 17.769531 14.886719 C 17.753906 14.882812 17.746094 14.921875 17.75 14.972656 C 17.75 15.019531 17.738281 15.085938 17.71875 15.113281 C 17.703125 15.144531 17.691406 15.179688 17.699219 15.191406 C 17.707031 15.207031 17.703125 15.214844 17.6875 15.214844 C 17.671875 15.214844 17.667969 15.226562 17.675781 15.238281 C 17.683594 15.253906 17.679688 15.265625 17.667969 15.265625 C 17.65625 15.265625 17.648438 15.292969 17.652344 15.324219 C 17.65625 15.359375 17.648438 15.390625 17.632812 15.398438 C 17.617188 15.410156 17.617188 15.402344 17.625 15.386719 C 17.636719 15.371094 17.632812 15.359375 17.621094 15.359375 C 17.597656 15.359375 17.558594 15.507812 17.5625 15.585938 C 17.5625 15.609375 17.542969 15.652344 17.515625 15.679688 C 17.492188 15.707031 17.472656 15.753906 17.472656 15.785156 C 17.472656 15.816406 17.460938 15.835938 17.449219 15.828125 C 17.433594 15.820312 17.425781 15.835938 17.425781 15.863281 C 17.425781 15.890625 17.414062 15.910156 17.398438 15.910156 C 17.386719 15.910156 17.375 15.945312 17.375 15.984375 C 17.375 16.023438 17.363281 16.054688 17.351562 16.054688 C 17.339844 16.054688 17.328125 16.070312 17.328125 16.09375 C 17.328125 16.113281 17.316406 16.128906 17.304688 16.128906 C 17.289062 16.128906 17.28125 16.15625 17.28125 16.1875 C 17.28125 16.222656 17.269531 16.246094 17.257812 16.246094 C 17.242188 16.246094 17.230469 16.261719 17.230469 16.28125 C 17.230469 16.296875 17.210938 16.335938 17.183594 16.363281 C 17.15625 16.390625 17.136719 16.429688 17.136719 16.449219 C 17.136719 16.472656 17.125 16.488281 17.113281 16.488281 C 17.097656 16.488281 17.085938 16.511719 17.085938 16.542969 C 17.085938 16.585938 17.082031 16.589844 17.0625 16.558594 C 17.042969 16.53125 17.039062 16.53125 17.039062 16.570312 C 17.039062 16.597656 17.019531 16.632812 16.992188 16.652344 C 16.964844 16.667969 16.945312 16.703125 16.945312 16.730469 C 16.945312 16.761719 16.9375 16.777344 16.929688 16.769531 C 16.921875 16.761719 16.898438 16.773438 16.875 16.792969 C 16.847656 16.820312 16.84375 16.835938 16.863281 16.839844 C 16.882812 16.847656 16.859375 16.882812 16.8125 16.925781 C 16.765625 16.964844 16.726562 17.015625 16.726562 17.042969 C 16.726562 17.066406 16.707031 17.097656 16.679688 17.113281 C 16.652344 17.125 16.632812 17.152344 16.632812 17.175781 C 16.632812 17.195312 16.625 17.207031 16.613281 17.199219 C 16.589844 17.1875 16.535156 17.246094 16.554688 17.265625 C 16.5625 17.273438 16.550781 17.28125 16.527344 17.28125 C 16.507812 17.28125 16.488281 17.296875 16.488281 17.316406 C 16.488281 17.359375 16.308594 17.542969 16.269531 17.542969 C 16.257812 17.542969 16.246094 17.5625 16.246094 17.585938 C 16.246094 17.605469 16.242188 17.617188 16.230469 17.609375 C 16.214844 17.59375 16.105469 17.710938 16.105469 17.742188 C 16.105469 17.753906 16.09375 17.757812 16.078125 17.746094 C 16.066406 17.738281 16.054688 17.746094 16.054688 17.757812 C 16.054688 17.773438 16.023438 17.816406 15.984375 17.855469 C 15.910156 17.925781 15.871094 17.949219 15.898438 17.902344 C 15.90625 17.890625 15.902344 17.878906 15.890625 17.878906 C 15.875 17.878906 15.863281 17.894531 15.863281 17.914062 C 15.863281 17.9375 15.851562 17.953125 15.839844 17.953125 C 15.824219 17.953125 15.820312 17.964844 15.832031 17.980469 C 15.839844 17.996094 15.835938 18 15.820312 17.988281 C 15.804688 17.980469 15.773438 17.988281 15.753906 18.011719 C 15.734375 18.03125 15.726562 18.050781 15.734375 18.050781 C 15.746094 18.050781 15.730469 18.058594 15.695312 18.070312 C 15.660156 18.082031 15.636719 18.105469 15.640625 18.125 C 15.640625 18.148438 15.636719 18.164062 15.628906 18.164062 C 15.574219 18.15625 15.527344 18.171875 15.539062 18.191406 C 15.546875 18.207031 15.539062 18.214844 15.515625 18.214844 C 15.496094 18.214844 15.484375 18.226562 15.492188 18.238281 C 15.5 18.253906 15.488281 18.265625 15.464844 18.265625 C 15.445312 18.265625 15.40625 18.28125 15.386719 18.304688 C 15.335938 18.359375 15.203125 18.433594 15.1875 18.417969 C 15.179688 18.410156 15.164062 18.425781 15.15625 18.453125 C 15.148438 18.480469 15.113281 18.503906 15.058594 18.515625 C 15.011719 18.523438 14.976562 18.539062 14.976562 18.554688 C 14.976562 18.566406 14.960938 18.574219 14.941406 18.574219 C 14.925781 18.574219 14.898438 18.589844 14.882812 18.609375 C 14.867188 18.628906 14.835938 18.636719 14.8125 18.628906 C 14.789062 18.621094 14.78125 18.625 14.792969 18.640625 C 14.800781 18.65625 14.796875 18.675781 14.785156 18.683594 C 14.769531 18.691406 14.757812 18.683594 14.757812 18.667969 C 14.757812 18.648438 14.746094 18.648438 14.726562 18.679688 C 14.710938 18.699219 14.667969 18.71875 14.636719 18.71875 C 14.605469 18.71875 14.566406 18.742188 14.546875 18.773438 C 14.519531 18.8125 14.511719 18.816406 14.492188 18.789062 C 14.480469 18.765625 14.472656 18.765625 14.472656 18.785156 C 14.472656 18.800781 14.449219 18.816406 14.421875 18.816406 C 14.394531 18.816406 14.378906 18.828125 14.386719 18.839844 C 14.394531 18.851562 14.382812 18.863281 14.355469 18.863281 C 14.332031 18.863281 14.304688 18.871094 14.292969 18.882812 C 14.273438 18.902344 14.261719 18.902344 14.179688 18.910156 C 14.132812 18.914062 14.128906 18.917969 14.160156 18.9375 C 14.1875 18.953125 14.167969 18.960938 14.089844 18.960938 C 14.007812 18.960938 13.988281 18.96875 14.015625 18.984375 C 14.042969 19 14.03125 19.007812 13.972656 19.007812 C 13.929688 19.007812 13.894531 19.019531 13.894531 19.03125 C 13.894531 19.046875 13.871094 19.054688 13.839844 19.054688 C 13.804688 19.054688 13.777344 19.066406 13.773438 19.078125 C 13.769531 19.089844 13.714844 19.105469 13.65625 19.109375 C 13.597656 19.113281 13.542969 19.125 13.535156 19.132812 C 13.527344 19.140625 13.472656 19.152344 13.410156 19.15625 C 13.347656 19.160156 13.296875 19.167969 13.296875 19.179688 C 13.296875 19.191406 13.257812 19.199219 13.210938 19.199219 C 13.164062 19.199219 13.128906 19.210938 13.128906 19.21875 C 13.128906 19.230469 13.058594 19.242188 12.976562 19.246094 C 12.894531 19.246094 12.824219 19.261719 12.820312 19.273438 C 12.816406 19.285156 12.792969 19.296875 12.773438 19.296875 C 12.738281 19.296875 12.738281 19.292969 12.769531 19.273438 C 12.800781 19.25 12.796875 19.25 12.765625 19.25 C 12.742188 19.25 12.71875 19.257812 12.714844 19.273438 C 12.710938 19.289062 12.457031 19.296875 11.988281 19.296875 C 11.285156 19.296875 11.222656 19.296875 11.171875 19.269531 C 11.160156 19.261719 11.082031 19.253906 11.003906 19.25 C 10.925781 19.25 10.855469 19.238281 10.847656 19.226562 C 10.839844 19.214844 10.789062 19.207031 10.730469 19.203125 C 10.671875 19.203125 10.613281 19.1875 10.597656 19.175781 C 10.578125 19.164062 10.523438 19.148438 10.46875 19.148438 C 10.414062 19.144531 10.375 19.136719 10.382812 19.125 C 10.390625 19.113281 10.363281 19.105469 10.324219 19.105469 C 10.285156 19.105469 10.246094 19.09375 10.238281 19.085938 C 10.234375 19.074219 10.191406 19.0625 10.148438 19.058594 C 10.105469 19.058594 10.058594 19.042969 10.042969 19.03125 C 10.027344 19.019531 9.996094 19.003906 9.96875 19 C 9.875 18.976562 9.816406 18.953125 9.816406 18.9375 C 9.816406 18.917969 9.722656 18.898438 9.597656 18.882812 C 9.574219 18.878906 9.5625 18.863281 9.570312 18.847656 C 9.574219 18.832031 9.554688 18.824219 9.503906 18.824219 C 9.457031 18.828125 9.433594 18.820312 9.433594 18.796875 C 9.433594 18.777344 9.417969 18.769531 9.398438 18.777344 C 9.378906 18.78125 9.359375 18.773438 9.351562 18.753906 C 9.34375 18.734375 9.320312 18.71875 9.304688 18.71875 C 9.253906 18.71875 9.140625 18.65625 9.160156 18.640625 C 9.167969 18.632812 9.148438 18.632812 9.121094 18.640625 C 9.085938 18.648438 9.070312 18.640625 9.070312 18.617188 C 9.070312 18.589844 9.058594 18.582031 9.035156 18.589844 C 9.015625 18.597656 8.992188 18.589844 8.984375 18.566406 C 8.976562 18.542969 8.953125 18.53125 8.933594 18.539062 C 8.914062 18.546875 8.871094 18.523438 8.828125 18.480469 C 8.789062 18.441406 8.738281 18.40625 8.714844 18.40625 C 8.691406 18.40625 8.648438 18.386719 8.621094 18.359375 C 8.59375 18.332031 8.558594 18.3125 8.542969 18.3125 C 8.527344 18.3125 8.5 18.296875 8.480469 18.277344 C 8.460938 18.257812 8.453125 18.238281 8.460938 18.238281 C 8.472656 18.238281 8.453125 18.21875 8.421875 18.191406 C 8.390625 18.164062 8.351562 18.148438 8.335938 18.15625 C 8.316406 18.160156 8.289062 18.144531 8.273438 18.121094 C 8.257812 18.09375 8.226562 18.070312 8.207031 18.070312 C 8.175781 18.070312 8.175781 18.070312 8.207031 18.046875 C 8.238281 18.027344 8.238281 18.023438 8.199219 18.023438 C 8.175781 18.023438 8.164062 18.015625 8.167969 18.003906 C 8.175781 17.996094 8.160156 17.972656 8.132812 17.953125 C 8.089844 17.929688 8.085938 17.929688 8.101562 17.957031 C 8.113281 17.972656 8.066406 17.9375 8 17.878906 C 7.933594 17.820312 7.886719 17.765625 7.890625 17.753906 C 7.894531 17.746094 7.878906 17.742188 7.855469 17.753906 C 7.824219 17.765625 7.820312 17.757812 7.832031 17.726562 C 7.84375 17.691406 7.839844 17.6875 7.8125 17.695312 C 7.789062 17.703125 7.78125 17.703125 7.785156 17.691406 C 7.792969 17.679688 7.773438 17.644531 7.738281 17.613281 C 7.589844 17.480469 7.441406 17.324219 7.441406 17.304688 C 7.441406 17.289062 7.421875 17.28125 7.402344 17.28125 C 7.382812 17.28125 7.367188 17.257812 7.367188 17.226562 C 7.367188 17.1875 7.363281 17.179688 7.347656 17.203125 C 7.332031 17.230469 7.324219 17.230469 7.3125 17.199219 C 7.304688 17.179688 7.3125 17.15625 7.328125 17.152344 C 7.34375 17.144531 7.332031 17.140625 7.300781 17.136719 C 7.253906 17.136719 7.242188 17.125 7.25 17.074219 C 7.25 17.066406 7.226562 17.039062 7.199219 17.015625 C 7.167969 16.988281 7.152344 16.96875 7.164062 16.96875 C 7.175781 16.96875 7.15625 16.941406 7.121094 16.914062 C 7.085938 16.882812 7.054688 16.835938 7.054688 16.804688 C 7.054688 16.773438 7.042969 16.753906 7.019531 16.753906 C 6.996094 16.753906 6.988281 16.742188 6.996094 16.730469 C 7.003906 16.71875 6.988281 16.699219 6.960938 16.691406 C 6.933594 16.683594 6.917969 16.667969 6.925781 16.65625 C 6.929688 16.644531 6.921875 16.621094 6.898438 16.601562 C 6.878906 16.578125 6.863281 16.546875 6.863281 16.527344 C 6.863281 16.503906 6.851562 16.488281 6.839844 16.488281 C 6.828125 16.488281 6.816406 16.464844 6.816406 16.433594 C 6.816406 16.398438 6.808594 16.390625 6.796875 16.410156 C 6.773438 16.441406 6.71875 16.351562 6.71875 16.285156 C 6.71875 16.265625 6.710938 16.25 6.699219 16.242188 C 6.6875 16.238281 6.671875 16.21875 6.667969 16.199219 C 6.664062 16.179688 6.644531 16.152344 6.628906 16.132812 C 6.613281 16.113281 6.605469 16.089844 6.613281 16.078125 C 6.621094 16.066406 6.617188 16.054688 6.601562 16.054688 C 6.585938 16.054688 6.574219 16.035156 6.574219 16.007812 C 6.574219 15.980469 6.566406 15.960938 6.550781 15.960938 C 6.539062 15.960938 6.527344 15.945312 6.527344 15.925781 C 6.527344 15.902344 6.519531 15.886719 6.507812 15.886719 C 6.496094 15.886719 6.484375 15.851562 6.484375 15.8125 C 6.484375 15.769531 6.464844 15.722656 6.445312 15.707031 C 6.425781 15.691406 6.414062 15.671875 6.425781 15.664062 C 6.433594 15.65625 6.425781 15.648438 6.410156 15.648438 C 6.390625 15.648438 6.386719 15.632812 6.394531 15.609375 C 6.402344 15.589844 6.394531 15.558594 6.375 15.539062 C 6.355469 15.519531 6.347656 15.484375 6.351562 15.457031 C 6.359375 15.429688 6.355469 15.40625 6.339844 15.40625 C 6.3125 15.40625 6.277344 15.316406 6.238281 15.132812 C 6.214844 15 6.195312 14.945312 6.140625 14.820312 C 6.128906 14.792969 6.117188 14.722656 6.113281 14.660156 C 6.109375 14.597656 6.101562 14.554688 6.089844 14.558594 C 6.082031 14.566406 6.070312 14.496094 6.070312 14.402344 C 6.070312 14.308594 6.0625 14.226562 6.046875 14.21875 C 6.035156 14.210938 6.023438 14.117188 6.023438 14.011719 C 6.023438 13.90625 6.015625 13.828125 6.003906 13.832031 C 5.992188 13.839844 5.984375 13.832031 5.984375 13.8125 C 5.984375 13.792969 5.992188 13.777344 6.003906 13.777344 C 6.015625 13.777344 6.023438 13.757812 6.023438 13.738281 C 6.023438 13.71875 6.015625 13.707031 6.003906 13.714844 C 5.996094 13.71875 5.984375 13.703125 5.980469 13.679688 C 5.980469 13.652344 5.988281 13.636719 5.996094 13.640625 C 6.003906 13.648438 6.003906 13.527344 5.988281 13.375 C 5.972656 13.171875 5.976562 13.085938 5.996094 13.054688 C 6.011719 13.027344 6.023438 13 6.023438 12.992188 C 6.023438 12.980469 6.011719 12.988281 6 13.007812 C 5.984375 13.035156 5.976562 13.011719 5.976562 12.929688 C 5.976562 12.867188 5.984375 12.816406 5.996094 12.816406 C 6.007812 12.816406 6.019531 12.800781 6.019531 12.785156 C 6.011719 12.605469 6.03125 12.285156 6.046875 12.324219 C 6.058594 12.355469 6.066406 12.3125 6.066406 12.195312 C 6.070312 12.089844 6.082031 12.007812 6.097656 12 C 6.113281 11.988281 6.121094 11.945312 6.117188 11.902344 C 6.113281 11.855469 6.121094 11.820312 6.132812 11.824219 C 6.148438 11.828125 6.160156 11.800781 6.164062 11.765625 C 6.164062 11.734375 6.175781 11.691406 6.1875 11.679688 C 6.199219 11.664062 6.210938 11.617188 6.210938 11.570312 C 6.210938 11.527344 6.222656 11.480469 6.234375 11.472656 C 6.246094 11.464844 6.253906 11.429688 6.253906 11.390625 C 6.25 11.355469 6.261719 11.316406 6.277344 11.308594 C 6.316406 11.285156 6.335938 11.210938 6.308594 11.203125 C 6.292969 11.199219 6.3125 11.160156 6.347656 11.117188 C 6.390625 11.066406 6.410156 11.019531 6.402344 10.992188 C 6.394531 10.964844 6.398438 10.945312 6.40625 10.945312 C 6.417969 10.945312 6.4375 10.917969 6.453125 10.882812 C 6.472656 10.835938 6.472656 10.824219 6.449219 10.824219 C 6.425781 10.824219 6.429688 10.816406 6.453125 10.804688 C 6.46875 10.792969 6.484375 10.761719 6.484375 10.734375 C 6.488281 10.707031 6.5 10.6875 6.507812 10.695312 C 6.519531 10.703125 6.527344 10.691406 6.527344 10.675781 C 6.527344 10.628906 6.585938 10.511719 6.605469 10.511719 C 6.617188 10.511719 6.625 10.5 6.625 10.488281 C 6.625 10.472656 6.613281 10.46875 6.597656 10.476562 C 6.578125 10.488281 6.574219 10.484375 6.585938 10.46875 C 6.59375 10.453125 6.617188 10.441406 6.640625 10.441406 C 6.660156 10.441406 6.667969 10.429688 6.660156 10.417969 C 6.640625 10.386719 6.671875 10.316406 6.699219 10.332031 C 6.710938 10.339844 6.71875 10.320312 6.71875 10.285156 C 6.71875 10.25 6.730469 10.222656 6.742188 10.222656 C 6.757812 10.222656 6.769531 10.199219 6.769531 10.171875 C 6.769531 10.125 6.773438 10.121094 6.792969 10.152344 C 6.8125 10.183594 6.816406 10.183594 6.816406 10.144531 C 6.816406 10.121094 6.828125 10.105469 6.839844 10.105469 C 6.855469 10.105469 6.859375 10.09375 6.851562 10.082031 C 6.84375 10.070312 6.863281 10.035156 6.894531 10.003906 C 6.925781 9.972656 6.960938 9.917969 6.96875 9.882812 C 6.976562 9.84375 7 9.816406 7.019531 9.816406 C 7.039062 9.816406 7.054688 9.792969 7.054688 9.769531 C 7.054688 9.742188 7.066406 9.71875 7.078125 9.71875 C 7.09375 9.71875 7.101562 9.710938 7.101562 9.703125 C 7.097656 9.664062 7.136719 9.574219 7.15625 9.574219 C 7.203125 9.574219 7.277344 9.472656 7.242188 9.453125 C 7.222656 9.441406 7.234375 9.429688 7.277344 9.417969 C 7.3125 9.410156 7.355469 9.371094 7.382812 9.324219 C 7.40625 9.277344 7.433594 9.25 7.445312 9.253906 C 7.460938 9.265625 7.472656 9.230469 7.46875 9.1875 C 7.464844 9.175781 7.476562 9.171875 7.488281 9.175781 C 7.503906 9.175781 7.527344 9.160156 7.542969 9.132812 C 7.585938 9.0625 7.886719 8.761719 7.917969 8.761719 C 7.929688 8.761719 7.9375 8.742188 7.929688 8.722656 C 7.917969 8.699219 7.925781 8.6875 7.945312 8.6875 C 8.011719 8.699219 8.039062 8.6875 8.039062 8.648438 C 8.039062 8.628906 8.0625 8.605469 8.085938 8.597656 C 8.113281 8.59375 8.128906 8.578125 8.121094 8.566406 C 8.113281 8.554688 8.121094 8.542969 8.136719 8.542969 C 8.148438 8.542969 8.195312 8.511719 8.234375 8.472656 C 8.273438 8.429688 8.304688 8.410156 8.304688 8.425781 C 8.304688 8.441406 8.332031 8.425781 8.367188 8.390625 C 8.402344 8.355469 8.445312 8.328125 8.464844 8.328125 C 8.480469 8.328125 8.496094 8.308594 8.496094 8.289062 C 8.496094 8.265625 8.503906 8.253906 8.511719 8.265625 C 8.519531 8.273438 8.542969 8.257812 8.5625 8.230469 C 8.578125 8.207031 8.605469 8.183594 8.617188 8.183594 C 8.632812 8.183594 8.664062 8.164062 8.695312 8.136719 C 8.722656 8.109375 8.75 8.097656 8.757812 8.109375 C 8.765625 8.125 8.792969 8.109375 8.816406 8.078125 C 8.84375 8.039062 8.875 8.023438 8.898438 8.035156 C 8.921875 8.042969 8.929688 8.039062 8.917969 8.019531 C 8.90625 8.003906 8.917969 7.992188 8.941406 7.992188 C 8.960938 7.992188 8.972656 7.980469 8.964844 7.96875 C 8.957031 7.953125 8.972656 7.945312 9 7.945312 C 9.027344 7.945312 9.046875 7.933594 9.046875 7.921875 C 9.046875 7.90625 9.074219 7.894531 9.109375 7.894531 C 9.140625 7.894531 9.167969 7.886719 9.167969 7.871094 C 9.167969 7.859375 9.191406 7.847656 9.214844 7.847656 C 9.242188 7.847656 9.265625 7.835938 9.265625 7.824219 C 9.265625 7.8125 9.285156 7.800781 9.3125 7.800781 C 9.339844 7.800781 9.359375 7.789062 9.359375 7.777344 C 9.359375 7.761719 9.375 7.753906 9.398438 7.753906 C 9.417969 7.753906 9.429688 7.742188 9.417969 7.722656 C 9.40625 7.707031 9.410156 7.703125 9.425781 7.710938 C 9.4375 7.71875 9.46875 7.710938 9.496094 7.691406 C 9.519531 7.671875 9.570312 7.65625 9.605469 7.65625 C 9.640625 7.65625 9.671875 7.644531 9.671875 7.632812 C 9.671875 7.617188 9.695312 7.609375 9.71875 7.609375 C 9.746094 7.609375 9.769531 7.601562 9.769531 7.589844 C 9.769531 7.582031 9.796875 7.558594 9.828125 7.542969 C 9.859375 7.527344 9.882812 7.523438 9.875 7.535156 C 9.871094 7.546875 9.890625 7.542969 9.921875 7.527344 C 9.953125 7.511719 9.976562 7.492188 9.96875 7.484375 C 9.964844 7.476562 9.992188 7.472656 10.035156 7.476562 C 10.074219 7.480469 10.121094 7.46875 10.136719 7.449219 C 10.15625 7.433594 10.191406 7.425781 10.222656 7.433594 C 10.257812 7.441406 10.273438 7.433594 10.273438 7.40625 C 10.273438 7.386719 10.285156 7.367188 10.296875 7.367188 C 10.3125 7.367188 10.316406 7.378906 10.304688 7.394531 C 10.292969 7.414062 10.300781 7.417969 10.324219 7.402344 C 10.339844 7.390625 10.382812 7.386719 10.414062 7.390625 C 10.449219 7.394531 10.464844 7.386719 10.453125 7.371094 C 10.4375 7.34375 10.480469 7.335938 10.566406 7.34375 C 10.589844 7.34375 10.609375 7.335938 10.609375 7.324219 C 10.609375 7.300781 10.609375 7.300781 10.789062 7.292969 C 10.855469 7.292969 10.894531 7.285156 10.878906 7.277344 C 10.808594 7.253906 10.855469 7.234375 10.957031 7.242188 C 11.023438 7.246094 11.0625 7.242188 11.0625 7.226562 C 11.0625 7.210938 11.074219 7.199219 11.089844 7.199219 C 11.101562 7.199219 11.109375 7.210938 11.101562 7.222656 C 11.09375 7.238281 11.109375 7.246094 11.136719 7.246094 C 11.164062 7.246094 11.179688 7.238281 11.171875 7.222656 C 11.164062 7.210938 11.183594 7.199219 11.210938 7.199219 C 11.472656 7.191406 11.566406 7.183594 11.582031 7.167969 C 11.59375 7.160156 11.613281 7.152344 11.625 7.152344 C 11.640625 7.152344 11.636719 7.164062 11.617188 7.179688 "/>
<path style=" stroke:none;fill-rule:evenodd;fill:rgb(0%,0%,0%);fill-opacity:1;" d="M 11.386719 1.222656 C 11.378906 1.238281 11.398438 1.246094 11.433594 1.246094 C 11.46875 1.246094 11.496094 1.238281 11.496094 1.222656 C 11.496094 1.210938 11.476562 1.199219 11.449219 1.199219 C 11.421875 1.199219 11.394531 1.210938 11.386719 1.222656 M 12.5625 1.230469 C 12.554688 1.238281 12.578125 1.246094 12.609375 1.246094 C 12.644531 1.246094 12.671875 1.238281 12.671875 1.226562 C 12.671875 1.199219 12.578125 1.203125 12.5625 1.230469 M 8.351562 1.789062 C 8.332031 1.8125 8.332031 1.824219 8.347656 1.824219 C 8.363281 1.824219 8.375 1.8125 8.375 1.800781 C 8.375 1.789062 8.394531 1.773438 8.417969 1.769531 C 8.453125 1.757812 8.453125 1.757812 8.421875 1.753906 C 8.398438 1.753906 8.367188 1.769531 8.351562 1.789062 M 5.171875 3.359375 C 5.148438 3.386719 5.136719 3.40625 5.144531 3.40625 C 5.171875 3.40625 5.238281 3.335938 5.226562 3.324219 C 5.21875 3.316406 5.195312 3.332031 5.171875 3.359375 M 4.800781 3.625 C 4.765625 3.652344 4.722656 3.683594 4.703125 3.703125 C 4.683594 3.71875 4.660156 3.730469 4.648438 3.726562 C 4.636719 3.722656 4.636719 3.730469 4.644531 3.742188 C 4.652344 3.761719 4.683594 3.75 4.726562 3.714844 C 4.761719 3.683594 4.8125 3.648438 4.839844 3.632812 C 4.863281 3.617188 4.878906 3.601562 4.871094 3.59375 C 4.867188 3.585938 4.832031 3.601562 4.800781 3.625 M 4.433594 3.910156 C 4.386719 3.96875 4.417969 3.976562 4.472656 3.921875 C 4.515625 3.878906 4.519531 3.863281 4.492188 3.863281 C 4.484375 3.863281 4.457031 3.886719 4.433594 3.910156 M 19.769531 4.101562 C 19.824219 4.15625 19.847656 4.164062 19.847656 4.132812 C 19.847656 4.121094 19.816406 4.097656 19.78125 4.082031 L 19.714844 4.050781 L 19.769531 4.101562 M 4.121094 4.171875 C 4.082031 4.199219 4.0625 4.222656 4.070312 4.230469 C 4.082031 4.238281 4.117188 4.214844 4.152344 4.183594 C 4.222656 4.117188 4.210938 4.113281 4.121094 4.171875 M 20.257812 4.546875 C 20.257812 4.554688 20.292969 4.597656 20.339844 4.644531 C 20.386719 4.691406 20.425781 4.71875 20.425781 4.707031 C 20.425781 4.691406 20.390625 4.648438 20.351562 4.609375 C 20.285156 4.539062 20.257812 4.519531 20.257812 4.546875 M 3.59375 4.65625 C 3.550781 4.707031 3.5625 4.71875 3.621094 4.683594 C 3.640625 4.671875 3.648438 4.648438 3.644531 4.632812 C 3.640625 4.617188 3.621094 4.625 3.59375 4.65625 M 3.472656 4.773438 C 3.449219 4.796875 3.433594 4.824219 3.433594 4.835938 C 3.433594 4.851562 3.453125 4.835938 3.476562 4.808594 C 3.503906 4.777344 3.527344 4.761719 3.535156 4.769531 C 3.546875 4.777344 3.550781 4.769531 3.550781 4.757812 C 3.550781 4.714844 3.515625 4.722656 3.472656 4.773438 M 20.554688 4.84375 C 20.605469 4.902344 20.617188 4.90625 20.617188 4.871094 C 20.617188 4.859375 20.589844 4.835938 20.5625 4.820312 C 20.507812 4.792969 20.507812 4.792969 20.554688 4.84375 M 20.640625 4.914062 C 20.640625 4.945312 20.707031 5.003906 20.726562 4.988281 C 20.730469 4.980469 20.714844 4.957031 20.6875 4.933594 C 20.660156 4.90625 20.640625 4.898438 20.640625 4.914062 M 21.058594 5.390625 C 21.082031 5.414062 21.105469 5.421875 21.113281 5.414062 C 21.125 5.40625 21.113281 5.386719 21.09375 5.375 C 21.039062 5.339844 21.015625 5.347656 21.058594 5.390625 M 2.617188 5.722656 C 2.589844 5.753906 2.59375 5.761719 2.625 5.761719 C 2.644531 5.761719 2.664062 5.742188 2.664062 5.722656 C 2.664062 5.703125 2.660156 5.6875 2.65625 5.6875 C 2.648438 5.6875 2.632812 5.703125 2.617188 5.722656 M 2.535156 5.824219 C 2.511719 5.847656 2.515625 5.878906 2.542969 5.878906 C 2.554688 5.878906 2.570312 5.863281 2.578125 5.84375 C 2.589844 5.808594 2.566406 5.792969 2.535156 5.824219 M 1.828125 6.824219 C 1.808594 6.847656 1.808594 6.867188 1.820312 6.875 C 1.832031 6.882812 1.851562 6.871094 1.859375 6.847656 C 1.878906 6.796875 1.863281 6.78125 1.828125 6.824219 M 1.664062 7.09375 C 1.65625 7.121094 1.636719 7.148438 1.621094 7.15625 C 1.605469 7.167969 1.605469 7.175781 1.625 7.175781 C 1.65625 7.175781 1.714844 7.082031 1.695312 7.0625 C 1.6875 7.054688 1.671875 7.070312 1.664062 7.09375 M 12.289062 7.175781 C 12.289062 7.207031 12.3125 7.207031 12.359375 7.175781 C 12.390625 7.15625 12.386719 7.152344 12.34375 7.152344 C 12.3125 7.152344 12.289062 7.164062 12.289062 7.175781 M 22.367188 7.222656 C 22.367188 7.234375 22.378906 7.246094 22.390625 7.246094 C 22.402344 7.246094 22.417969 7.265625 22.421875 7.289062 C 22.433594 7.324219 22.433594 7.324219 22.4375 7.292969 C 22.4375 7.269531 22.421875 7.242188 22.402344 7.222656 C 22.378906 7.203125 22.367188 7.203125 22.367188 7.222656 M 13.453125 7.355469 C 13.503906 7.390625 13.527344 7.386719 13.5 7.34375 C 13.492188 7.332031 13.46875 7.320312 13.445312 7.320312 C 13.414062 7.320312 13.414062 7.324219 13.453125 7.355469 M 16.535156 9.3125 C 16.550781 9.339844 16.570312 9.359375 16.585938 9.359375 C 16.597656 9.359375 16.609375 9.375 16.609375 9.394531 C 16.609375 9.414062 16.617188 9.433594 16.632812 9.433594 C 16.664062 9.433594 16.632812 9.355469 16.574219 9.304688 C 16.515625 9.25 16.503906 9.253906 16.535156 9.3125 M 7.253906 9.429688 C 7.226562 9.445312 7.226562 9.453125 7.257812 9.464844 C 7.277344 9.472656 7.296875 9.460938 7.304688 9.441406 C 7.320312 9.402344 7.300781 9.398438 7.253906 9.429688 M 16.726562 9.550781 C 16.726562 9.566406 16.738281 9.574219 16.75 9.574219 C 16.761719 9.574219 16.78125 9.597656 16.789062 9.625 C 16.796875 9.652344 16.8125 9.667969 16.816406 9.660156 C 16.835938 9.644531 16.773438 9.527344 16.746094 9.527344 C 16.738281 9.527344 16.726562 9.539062 16.726562 9.550781 M 7.113281 9.632812 C 7.09375 9.679688 7.09375 9.691406 7.117188 9.679688 C 7.148438 9.667969 7.183594 9.574219 7.15625 9.578125 C 7.148438 9.578125 7.128906 9.601562 7.113281 9.632812 M 23.738281 10.746094 C 23.734375 10.777344 23.746094 10.800781 23.761719 10.800781 C 23.789062 10.800781 23.789062 10.773438 23.761719 10.726562 C 23.742188 10.699219 23.738281 10.703125 23.738281 10.746094 M 6.308594 11.164062 C 6.289062 11.203125 6.289062 11.210938 6.3125 11.203125 C 6.332031 11.199219 6.347656 11.175781 6.351562 11.152344 C 6.359375 11.097656 6.34375 11.101562 6.308594 11.164062 M 23.832031 11.226562 C 23.832031 11.253906 23.839844 11.28125 23.851562 11.289062 C 23.875 11.304688 23.871094 11.214844 23.847656 11.191406 C 23.839844 11.183594 23.832031 11.199219 23.832031 11.226562 M 0.078125 11.519531 C 0.078125 11.546875 0.0859375 11.5625 0.0976562 11.554688 C 0.125 11.539062 0.128906 11.472656 0.101562 11.472656 C 0.0898438 11.472656 0.0820312 11.492188 0.078125 11.519531 M 6.121094 11.816406 C 6.101562 11.839844 6.101562 11.855469 6.117188 11.867188 C 6.132812 11.875 6.144531 11.878906 6.144531 11.875 C 6.167969 11.78125 6.164062 11.769531 6.121094 11.816406 M 6.070312 12.0625 C 6.070312 12.097656 6.078125 12.121094 6.089844 12.113281 C 6.113281 12.085938 6.117188 12 6.09375 12 C 6.082031 12 6.070312 12.027344 6.070312 12.0625 M 6.023438 12.347656 C 6.023438 12.382812 6.035156 12.40625 6.046875 12.398438 C 6.058594 12.390625 6.0625 12.363281 6.054688 12.335938 C 6.039062 12.269531 6.023438 12.277344 6.023438 12.347656 M 5.976562 12.929688 C 5.976562 12.988281 5.984375 13.03125 5.992188 13.023438 C 6.015625 13 6.023438 12.816406 5.996094 12.816406 C 5.984375 12.816406 5.976562 12.867188 5.976562 12.929688 M 5.984375 13.402344 C 5.984375 13.578125 5.996094 13.71875 6.003906 13.714844 C 6.027344 13.699219 6.019531 13.105469 5.996094 13.089844 C 5.984375 13.082031 5.980469 13.222656 5.984375 13.402344 M 17.847656 14.460938 C 17.839844 14.472656 17.832031 14.496094 17.832031 14.515625 C 17.832031 14.542969 17.839844 14.546875 17.859375 14.527344 C 17.875 14.511719 17.882812 14.488281 17.875 14.472656 C 17.871094 14.457031 17.859375 14.453125 17.847656 14.460938 M 6.121094 14.753906 C 6.121094 14.78125 6.128906 14.8125 6.140625 14.816406 C 6.164062 14.832031 6.160156 14.746094 6.136719 14.71875 C 6.128906 14.710938 6.121094 14.726562 6.121094 14.753906 M 0.0390625 14.765625 C 0.0273438 14.789062 0.0273438 14.828125 0.0390625 14.851562 C 0.0585938 14.902344 0.0820312 14.835938 0.0664062 14.765625 C 0.0546875 14.726562 0.0546875 14.726562 0.0390625 14.765625 M 23.929688 14.8125 C 23.929688 14.859375 23.933594 14.859375 23.953125 14.832031 C 23.980469 14.785156 23.980469 14.761719 23.953125 14.761719 C 23.9375 14.761719 23.929688 14.785156 23.929688 14.8125 M 17.703125 15.089844 C 17.691406 15.152344 17.695312 15.152344 17.726562 15.109375 C 17.765625 15.054688 17.769531 15.023438 17.738281 15.023438 C 17.726562 15.023438 17.710938 15.054688 17.703125 15.089844 M 23.894531 15.113281 C 23.886719 15.121094 23.878906 15.148438 23.878906 15.175781 C 23.878906 15.234375 23.910156 15.210938 23.921875 15.144531 C 23.929688 15.09375 23.921875 15.085938 23.894531 15.113281 M 0.3125 16.320312 C 0.3125 16.347656 0.324219 16.367188 0.335938 16.367188 C 0.347656 16.367188 0.359375 16.351562 0.359375 16.332031 C 0.359375 16.3125 0.347656 16.292969 0.335938 16.285156 C 0.324219 16.277344 0.3125 16.292969 0.3125 16.320312 M 6.722656 16.308594 C 6.722656 16.320312 6.738281 16.359375 6.757812 16.390625 L 6.792969 16.453125 L 6.777344 16.390625 C 6.761719 16.328125 6.71875 16.269531 6.722656 16.308594 M 15.910156 17.882812 C 15.886719 17.925781 15.886719 17.929688 15.933594 17.90625 C 15.984375 17.878906 16.003906 17.832031 15.960938 17.832031 C 15.949219 17.832031 15.925781 17.855469 15.910156 17.882812 M 23.136719 17.890625 C 23.136719 17.910156 23.148438 17.929688 23.160156 17.929688 C 23.171875 17.929688 23.183594 17.910156 23.183594 17.890625 C 23.183594 17.871094 23.171875 17.855469 23.160156 17.855469 C 23.148438 17.855469 23.136719 17.871094 23.136719 17.890625 M 8.257812 18.09375 C 8.257812 18.125 8.320312 18.171875 8.335938 18.148438 C 8.34375 18.140625 8.328125 18.117188 8.300781 18.101562 C 8.277344 18.085938 8.257812 18.082031 8.257812 18.09375 M 8.484375 18.277344 C 8.503906 18.300781 8.53125 18.308594 8.539062 18.300781 C 8.546875 18.292969 8.539062 18.273438 8.519531 18.261719 C 8.460938 18.226562 8.441406 18.238281 8.484375 18.277344 M 11.742188 19.3125 C 11.777344 19.320312 11.835938 19.320312 11.875 19.3125 C 11.910156 19.308594 11.878906 19.304688 11.808594 19.304688 C 11.734375 19.304688 11.707031 19.308594 11.742188 19.3125 M 22.246094 19.667969 C 22.230469 19.6875 22.222656 19.710938 22.230469 19.71875 C 22.234375 19.722656 22.253906 19.710938 22.273438 19.691406 C 22.289062 19.671875 22.296875 19.648438 22.289062 19.644531 C 22.285156 19.636719 22.265625 19.648438 22.246094 19.667969 M 1.949219 20.042969 C 1.953125 20.058594 1.972656 20.078125 1.988281 20.082031 C 2.003906 20.089844 2.011719 20.078125 2 20.054688 C 1.984375 20.011719 1.933594 20 1.949219 20.042969 M 2.160156 20.316406 C 2.160156 20.332031 2.1875 20.371094 2.222656 20.410156 L 2.285156 20.484375 L 2.230469 20.398438 C 2.160156 20.292969 2.160156 20.292969 2.160156 20.316406 M 2.28125 20.507812 C 2.28125 20.535156 2.355469 20.597656 2.367188 20.585938 C 2.375 20.578125 2.363281 20.554688 2.34375 20.53125 C 2.304688 20.496094 2.28125 20.484375 2.28125 20.507812 M 12.726562 20.609375 C 12.753906 20.632812 12.835938 20.640625 12.847656 20.621094 C 12.855469 20.609375 12.828125 20.597656 12.785156 20.597656 C 12.746094 20.59375 12.71875 20.597656 12.726562 20.609375 M 10.40625 20.707031 C 10.402344 20.71875 10.421875 20.726562 10.453125 20.726562 C 10.484375 20.726562 10.511719 20.71875 10.511719 20.707031 C 10.511719 20.695312 10.492188 20.6875 10.464844 20.6875 C 10.441406 20.6875 10.414062 20.695312 10.40625 20.707031 M 21.507812 20.738281 C 21.480469 20.78125 21.484375 20.78125 21.527344 20.753906 C 21.554688 20.738281 21.574219 20.714844 21.574219 20.707031 C 21.574219 20.671875 21.539062 20.6875 21.507812 20.738281 M 13.679688 20.757812 C 13.679688 20.78125 13.742188 20.777344 13.765625 20.753906 C 13.777344 20.742188 13.761719 20.734375 13.730469 20.734375 C 13.703125 20.734375 13.679688 20.746094 13.679688 20.757812 M 21.148438 21.175781 C 21.132812 21.195312 21.128906 21.214844 21.136719 21.222656 C 21.144531 21.234375 21.132812 21.238281 21.113281 21.238281 C 21.089844 21.238281 21.070312 21.25 21.070312 21.265625 C 21.070312 21.324219 21.144531 21.269531 21.175781 21.1875 C 21.195312 21.136719 21.183594 21.132812 21.148438 21.175781 M 3.609375 22.035156 C 3.648438 22.089844 3.742188 22.164062 3.742188 22.140625 C 3.742188 22.121094 3.601562 21.984375 3.585938 21.984375 C 3.578125 21.984375 3.589844 22.007812 3.609375 22.035156 M 20.375 22.027344 C 20.375 22.042969 20.363281 22.054688 20.347656 22.054688 C 20.320312 22.054688 20.230469 22.148438 20.230469 22.179688 C 20.230469 22.1875 20.273438 22.160156 20.320312 22.117188 C 20.371094 22.070312 20.402344 22.027344 20.394531 22.015625 C 20.382812 22.007812 20.375 22.011719 20.375 22.027344 M 6.671875 22.378906 C 6.640625 22.410156 6.605469 22.433594 6.597656 22.425781 C 6.585938 22.417969 6.574219 22.425781 6.574219 22.4375 C 6.574219 22.472656 6.589844 22.472656 6.667969 22.421875 C 6.765625 22.359375 6.804688 22.320312 6.765625 22.320312 C 6.746094 22.320312 6.707031 22.347656 6.671875 22.378906 M 4.164062 22.464844 C 4.207031 22.511719 4.25 22.527344 4.246094 22.492188 C 4.246094 22.484375 4.21875 22.464844 4.183594 22.445312 C 4.125 22.417969 4.125 22.417969 4.164062 22.464844 M 4.390625 22.585938 C 4.390625 22.597656 4.40625 22.609375 4.429688 22.609375 C 4.449219 22.609375 4.464844 22.597656 4.464844 22.585938 C 4.464844 22.570312 4.449219 22.558594 4.429688 22.558594 C 4.40625 22.558594 4.390625 22.570312 4.390625 22.585938 M 5.257812 22.769531 C 5.257812 22.78125 5.292969 22.785156 5.339844 22.78125 C 5.386719 22.773438 5.425781 22.765625 5.425781 22.761719 C 5.425781 22.757812 5.386719 22.753906 5.339844 22.753906 C 5.292969 22.753906 5.257812 22.761719 5.257812 22.769531 M 18.265625 22.777344 C 18.265625 22.789062 18.289062 22.800781 18.316406 22.800781 C 18.34375 22.800781 18.359375 22.792969 18.351562 22.785156 C 18.324219 22.757812 18.265625 22.753906 18.265625 22.777344 "/>
</g>
</svg>
