<?xml version="1.0" encoding="UTF-8"?>
<svg xmlns="http://www.w3.org/2000/svg" xmlns:xlink="http://www.w3.org/1999/xlink" width="24px" height="24px" viewBox="0 0 24 24" version="1.1">
<g id="surface1">
<path style=" stroke:none;fill-rule:evenodd;fill:rgb(0%,0%,0%);fill-opacity:1;" d="M 13.394531 0.0078125 C 12.058594 0.09375 11.121094 1.371094 11.449219 2.664062 C 11.476562 2.773438 12.175781 4.9375 12.1875 4.953125 C 12.195312 4.957031 12.691406 4.800781 14.144531 4.324219 C 14.335938 4.261719 14.890625 4.082031 15.375 3.925781 C 15.859375 3.769531 16.253906 3.636719 16.257812 3.636719 C 16.265625 3.628906 15.566406 1.484375 15.519531 1.359375 C 15.1875 0.503906 14.316406 -0.0507812 13.394531 0.0078125 M 15.539062 8.367188 C 14.433594 8.726562 13.523438 9.023438 13.519531 9.027344 C 13.515625 9.03125 13.839844 10.042969 14.242188 11.273438 C 14.640625 12.507812 14.96875 13.515625 14.964844 13.519531 C 14.964844 13.519531 14.527344 13.664062 14 13.835938 C 12.933594 14.179688 12.121094 14.445312 11.519531 14.640625 C 11.304688 14.710938 10.984375 14.8125 10.808594 14.871094 C 10.636719 14.925781 10.492188 14.976562 10.488281 14.980469 C 10.480469 14.988281 11.785156 19.027344 11.800781 19.042969 C 11.804688 19.046875 11.855469 19.035156 11.917969 19.015625 C 12.117188 18.953125 12.875 18.703125 14.058594 18.320312 C 14.707031 18.109375 15.324219 17.910156 15.429688 17.875 C 16.042969 17.675781 16.289062 17.597656 16.292969 17.601562 C 16.296875 17.601562 16.460938 18.105469 16.660156 18.714844 C 16.855469 19.324219 17.03125 19.855469 17.046875 19.890625 C 17.441406 20.867188 18.503906 21.410156 19.535156 21.160156 C 20.683594 20.882812 21.410156 19.707031 21.121094 18.59375 C 21.101562 18.535156 20.929688 17.988281 20.730469 17.378906 C 20.53125 16.773438 20.371094 16.273438 20.375 16.273438 C 20.378906 16.265625 20.964844 16.074219 22.074219 15.714844 C 22.707031 15.511719 22.808594 15.46875 23.019531 15.332031 C 24.15625 14.59375 24.332031 12.992188 23.375 12.023438 C 22.875 11.519531 22.128906 11.292969 21.433594 11.433594 C 21.28125 11.464844 21.332031 11.449219 20.101562 11.851562 C 19.523438 12.039062 19.046875 12.191406 19.046875 12.1875 C 19.042969 12.1875 17.816406 8.410156 17.625 7.824219 C 17.597656 7.738281 17.585938 7.710938 17.570312 7.710938 C 17.5625 7.710938 16.648438 8.003906 15.539062 8.367188 M 5.445312 16.613281 C 4.917969 16.785156 4.40625 16.953125 4.3125 16.984375 C 3.585938 17.21875 3.078125 17.722656 2.871094 18.417969 C 2.464844 19.761719 3.453125 21.148438 4.84375 21.1875 C 5.152344 21.195312 5.28125 21.171875 5.769531 21.015625 C 5.929688 20.960938 6.257812 20.855469 6.496094 20.777344 C 6.730469 20.703125 7.015625 20.609375 7.121094 20.574219 C 7.230469 20.539062 7.410156 20.480469 7.519531 20.445312 C 7.628906 20.410156 7.722656 20.378906 7.722656 20.378906 C 7.738281 20.378906 6.433594 16.328125 6.410156 16.308594 C 6.40625 16.304688 5.972656 16.441406 5.445312 16.613281 "/>
<path style=" stroke:none;fill-rule:evenodd;fill:rgb(0%,0%,0%);fill-opacity:1;" d="M 4.734375 2.796875 C 3.621094 2.933594 2.824219 3.824219 2.824219 4.933594 C 2.824219 5.296875 2.804688 5.222656 3.265625 6.636719 C 3.460938 7.238281 3.617188 7.734375 3.617188 7.738281 C 3.613281 7.742188 3.109375 7.90625 2.496094 8.105469 C 1.332031 8.484375 1.230469 8.519531 1.058594 8.621094 C 0.136719 9.171875 -0.242188 10.277344 0.152344 11.273438 C 0.496094 12.144531 1.402344 12.710938 2.3125 12.621094 C 2.5 12.601562 2.640625 12.5625 3.183594 12.386719 C 3.480469 12.289062 4 12.121094 4.335938 12.011719 C 4.675781 11.902344 4.949219 11.816406 4.949219 11.816406 C 4.949219 11.828125 6.402344 16.289062 6.410156 16.300781 C 6.421875 16.320312 7.730469 20.347656 7.730469 20.363281 C 7.730469 20.378906 8.449219 22.585938 8.480469 22.667969 C 8.890625 23.703125 10.070312 24.246094 11.140625 23.894531 C 12.175781 23.550781 12.800781 22.484375 12.574219 21.449219 C 12.550781 21.347656 11.820312 19.078125 11.796875 19.039062 C 11.789062 19.019531 10.480469 14.996094 10.480469 14.980469 C 10.480469 14.976562 10.152344 13.964844 9.753906 12.738281 C 9.355469 11.511719 9.03125 10.5 9.035156 10.496094 C 9.035156 10.488281 9.25 10.414062 9.511719 10.332031 C 10.773438 9.921875 13.519531 9.027344 13.625 8.992188 C 13.757812 8.945312 16.964844 7.90625 18.65625 7.359375 C 19.824219 6.980469 19.894531 6.957031 20.058594 6.875 C 21.179688 6.296875 21.558594 4.855469 20.863281 3.796875 C 20.382812 3.058594 19.507812 2.699219 18.632812 2.875 C 18.527344 2.898438 16.457031 3.558594 16.261719 3.636719 C 16.222656 3.648438 15.820312 3.78125 15.359375 3.929688 C 14.902344 4.078125 14.339844 4.261719 14.113281 4.335938 C 13.46875 4.546875 12.199219 4.957031 12.136719 4.976562 C 12.082031 4.992188 11.101562 5.308594 8.636719 6.109375 C 8.125 6.277344 7.703125 6.40625 7.699219 6.402344 C 7.695312 6.398438 7.539062 5.921875 7.351562 5.339844 C 6.917969 4.003906 6.914062 3.996094 6.753906 3.75 C 6.3125 3.085938 5.503906 2.703125 4.734375 2.796875 M 23.355469 15.0625 L 23.324219 15.09375 L 23.359375 15.066406 C 23.386719 15.039062 23.394531 15.03125 23.386719 15.03125 C 23.386719 15.03125 23.371094 15.042969 23.355469 15.0625 "/>
</g>
</svg>
