<?xml version="1.0" encoding="UTF-8"?>
<svg xmlns="http://www.w3.org/2000/svg" xmlns:xlink="http://www.w3.org/1999/xlink" width="24px" height="24px" viewBox="0 0 24 24" version="1.1">
<g id="surface1">
<path style=" stroke:none;fill-rule:evenodd;fill:rgb(0%,0%,0%);fill-opacity:1;" d="M 11.363281 0.0117188 C 10.148438 0.0742188 8.925781 0.328125 7.796875 0.753906 C 7.554688 0.84375 7.25 0.96875 7.0625 1.054688 C 7.019531 1.074219 6.984375 1.089844 6.984375 1.089844 C 6.976562 1.089844 6.4375 1.359375 6.355469 1.402344 C 6.3125 1.425781 6.214844 1.480469 6.144531 1.519531 C 6.074219 1.558594 5.996094 1.605469 5.96875 1.617188 C 5.78125 1.722656 5.300781 2.035156 5.039062 2.21875 C 4.839844 2.363281 4.480469 2.636719 4.449219 2.671875 C 4.445312 2.671875 4.394531 2.71875 4.328125 2.769531 C 4.265625 2.820312 4.210938 2.867188 4.210938 2.871094 C 4.207031 2.871094 4.1875 2.886719 4.171875 2.902344 C 4.152344 2.917969 4.097656 2.964844 4.054688 3.003906 C 3.359375 3.625 2.753906 4.300781 2.238281 5.023438 C 2.203125 5.074219 2.164062 5.128906 2.152344 5.148438 C 1.980469 5.382812 1.667969 5.890625 1.460938 6.269531 C 1.402344 6.375 1.136719 6.90625 1.101562 6.984375 C 1.089844 7.011719 1.058594 7.085938 1.03125 7.148438 C -0.335938 10.1875 -0.3125 13.789062 1.09375 16.929688 C 1.375 17.558594 1.800781 18.296875 2.222656 18.890625 C 2.371094 19.097656 2.402344 19.144531 2.410156 19.148438 C 2.414062 19.152344 2.441406 19.191406 2.476562 19.234375 C 2.796875 19.671875 3.296875 20.226562 3.761719 20.664062 C 3.90625 20.804688 4.101562 20.980469 4.171875 21.035156 C 4.1875 21.050781 4.207031 21.066406 4.210938 21.070312 C 4.210938 21.074219 4.242188 21.097656 4.273438 21.125 C 4.308594 21.152344 4.339844 21.179688 4.347656 21.183594 C 4.414062 21.246094 4.585938 21.382812 4.832031 21.566406 C 5.1875 21.832031 5.664062 22.148438 5.96875 22.320312 C 5.996094 22.335938 6.066406 22.375 6.128906 22.414062 C 7.609375 23.25 9.296875 23.765625 11.011719 23.90625 C 11.484375 23.941406 12.398438 23.953125 12.78125 23.921875 C 13.195312 23.886719 13.421875 23.863281 13.695312 23.824219 C 14.800781 23.667969 15.914062 23.34375 16.90625 22.894531 C 16.949219 22.875 17.011719 22.847656 17.046875 22.832031 C 17.179688 22.773438 17.757812 22.476562 17.84375 22.421875 C 17.863281 22.410156 17.882812 22.398438 17.882812 22.398438 C 17.90625 22.398438 18.613281 21.960938 18.765625 21.851562 C 18.800781 21.828125 18.867188 21.777344 18.914062 21.746094 C 19.113281 21.605469 19.613281 21.222656 19.648438 21.179688 C 19.652344 21.175781 19.683594 21.152344 19.714844 21.125 C 19.972656 20.910156 20.183594 20.714844 20.460938 20.441406 C 20.703125 20.195312 20.839844 20.050781 21.050781 19.804688 C 21.136719 19.710938 21.144531 19.695312 21.378906 19.414062 C 21.570312 19.183594 21.917969 18.6875 22.144531 18.328125 C 22.15625 18.3125 22.179688 18.273438 22.195312 18.25 C 22.242188 18.171875 22.304688 18.070312 22.40625 17.890625 C 22.605469 17.539062 22.78125 17.191406 22.949219 16.816406 C 22.960938 16.792969 22.976562 16.75 22.988281 16.726562 C 23.160156 16.339844 23.402344 15.664062 23.519531 15.234375 C 23.53125 15.191406 23.546875 15.132812 23.554688 15.109375 C 23.597656 14.96875 23.695312 14.550781 23.75 14.269531 C 23.816406 13.925781 23.894531 13.40625 23.914062 13.128906 C 23.917969 13.089844 23.921875 13.039062 23.925781 13.019531 C 23.929688 13 23.933594 12.917969 23.941406 12.839844 C 24.035156 11.4375 23.898438 10.070312 23.535156 8.75 C 23.40625 8.289062 23.15625 7.585938 22.992188 7.21875 C 22.980469 7.191406 22.960938 7.148438 22.949219 7.121094 C 22.769531 6.714844 22.585938 6.363281 22.332031 5.914062 C 22.300781 5.867188 22.226562 5.738281 22.183594 5.675781 C 22.164062 5.640625 22.136719 5.597656 22.125 5.578125 C 22.003906 5.378906 21.628906 4.847656 21.457031 4.625 C 21.375 4.523438 21.378906 4.527344 21.304688 4.433594 C 21.269531 4.394531 21.230469 4.34375 21.210938 4.324219 C 21.191406 4.300781 21.167969 4.269531 21.160156 4.257812 C 21.148438 4.246094 21.121094 4.214844 21.097656 4.1875 C 21.074219 4.160156 21.050781 4.132812 21.046875 4.125 C 21.039062 4.121094 21.003906 4.078125 20.964844 4.035156 C 20.898438 3.957031 20.863281 3.917969 20.699219 3.746094 C 20.210938 3.222656 19.5 2.601562 18.960938 2.226562 C 18.929688 2.207031 18.859375 2.15625 18.800781 2.113281 C 18.679688 2.03125 18.351562 1.816406 18.179688 1.714844 C 18.011719 1.613281 17.890625 1.539062 17.882812 1.539062 C 17.882812 1.539062 17.863281 1.53125 17.84375 1.515625 C 17.75 1.460938 17.199219 1.179688 17.011719 1.089844 C 15.242188 0.28125 13.292969 -0.0898438 11.363281 0.0117188 M 16.375 3.351562 C 17.65625 3.621094 18.105469 5.179688 17.164062 6.082031 C 16.261719 6.945312 14.742188 6.460938 14.496094 5.234375 C 14.273438 4.125 15.277344 3.121094 16.375 3.351562 M 12.238281 5.03125 C 12.746094 5.050781 13.171875 5.109375 13.652344 5.226562 C 13.863281 5.277344 13.851562 5.273438 13.867188 5.359375 C 14.105469 6.652344 15.476562 7.457031 16.75 7.054688 L 16.863281 7.019531 L 16.980469 7.136719 C 18.121094 8.324219 18.839844 9.933594 18.921875 11.476562 L 18.925781 11.523438 L 18.871094 11.527344 C 18.839844 11.527344 18.457031 11.535156 18.019531 11.539062 C 17.582031 11.546875 17.09375 11.554688 16.933594 11.554688 L 16.644531 11.5625 L 16.621094 11.382812 C 16.417969 9.714844 15.308594 8.277344 13.738281 7.640625 C 12.585938 7.175781 11.226562 7.199219 10.097656 7.707031 L 10.03125 7.738281 L 10.015625 7.71875 C 9.992188 7.679688 8.929688 5.773438 8.925781 5.757812 C 8.921875 5.746094 8.953125 5.726562 9.039062 5.6875 C 9.890625 5.28125 10.878906 5.046875 11.824219 5.027344 C 11.890625 5.027344 11.953125 5.023438 11.964844 5.023438 C 11.976562 5.019531 12.101562 5.023438 12.238281 5.03125 M 8.730469 7.167969 C 9.046875 7.703125 9.308594 8.144531 9.308594 8.148438 C 9.308594 8.152344 9.289062 8.171875 9.261719 8.191406 C 7.769531 9.246094 7.039062 11.179688 7.445312 12.996094 C 7.691406 14.09375 8.367188 15.117188 9.261719 15.75 C 9.289062 15.769531 9.308594 15.785156 9.308594 15.792969 C 9.308594 15.796875 8.1875 17.6875 8.15625 17.734375 C 8.144531 17.75 8.132812 17.742188 8.019531 17.664062 C 6.710938 16.75 5.753906 15.40625 5.316406 13.875 L 5.269531 13.714844 L 5.378906 13.613281 C 6.332031 12.71875 6.335938 11.234375 5.390625 10.335938 L 5.269531 10.222656 L 5.316406 10.066406 C 5.757812 8.523438 6.710938 7.195312 8.035156 6.265625 C 8.09375 6.222656 8.144531 6.191406 8.144531 6.191406 C 8.148438 6.195312 8.410156 6.632812 8.730469 7.167969 M 4.164062 10.398438 C 5.453125 10.664062 5.902344 12.265625 4.933594 13.152344 C 4.042969 13.96875 2.578125 13.519531 2.300781 12.34375 C 2.03125 11.214844 3.039062 10.167969 4.164062 10.398438 M 18.039062 12.402344 C 18.515625 12.40625 18.910156 12.414062 18.914062 12.414062 C 18.9375 12.421875 18.882812 12.917969 18.824219 13.230469 C 18.574219 14.578125 17.945312 15.796875 16.980469 16.804688 L 16.863281 16.921875 L 16.75 16.886719 C 15.480469 16.480469 14.097656 17.292969 13.871094 18.578125 C 13.855469 18.667969 13.863281 18.660156 13.691406 18.703125 C 12.179688 19.085938 10.558594 18.945312 9.15625 18.308594 C 8.957031 18.21875 8.917969 18.195312 8.925781 18.183594 C 8.929688 18.167969 9.992188 16.257812 10.015625 16.222656 L 10.03125 16.199219 L 10.097656 16.230469 C 11.132812 16.699219 12.367188 16.761719 13.464844 16.398438 C 15.199219 15.824219 16.453125 14.265625 16.636719 12.445312 L 16.644531 12.378906 L 16.910156 12.382812 C 17.054688 12.386719 17.5625 12.394531 18.039062 12.402344 M 16.289062 17.433594 C 17.507812 17.609375 18.082031 19.035156 17.324219 20.003906 C 16.648438 20.875 15.300781 20.804688 14.714844 19.871094 C 14.082031 18.871094 14.707031 17.582031 15.894531 17.425781 C 15.972656 17.417969 16.191406 17.421875 16.289062 17.433594 "/>
</g>
</svg>
