<?xml version="1.0" encoding="UTF-8"?>
<svg xmlns="http://www.w3.org/2000/svg" xmlns:xlink="http://www.w3.org/1999/xlink" width="24px" height="24px" viewBox="0 0 24 24" version="1.1">
<g id="surface1">
<path style=" stroke:none;fill-rule:nonzero;fill:rgb(0%,0%,0%);fill-opacity:1;" d="M 23.148438 2.585938 L 18.210938 0.210938 C 17.636719 -0.0664062 16.953125 0.0507812 16.503906 0.5 L 7.046875 9.128906 L 2.925781 6.003906 C 2.542969 5.710938 2.003906 5.734375 1.648438 6.058594 L 0.328125 7.261719 C -0.109375 7.65625 -0.109375 8.34375 0.324219 8.738281 L 3.898438 12 L 0.324219 15.261719 C -0.109375 15.65625 -0.109375 16.34375 0.328125 16.738281 L 1.648438 17.941406 C 2.007812 18.265625 2.542969 18.289062 2.925781 17.996094 L 7.046875 14.867188 L 16.507812 23.5 C 16.953125 23.949219 17.636719 24.066406 18.210938 23.789062 L 23.152344 21.410156 C 23.671875 21.160156 24 20.636719 24 20.058594 L 24 3.9375 C 24 3.363281 23.667969 2.835938 23.148438 2.585938 Z M 18.003906 17.449219 L 10.824219 12 L 18.003906 6.550781 Z M 18.003906 17.449219 "/>
</g>
</svg>
