<?xml version="1.0" encoding="UTF-8"?>
<svg xmlns="http://www.w3.org/2000/svg" xmlns:xlink="http://www.w3.org/1999/xlink" width="24px" height="24px" viewBox="0 0 24 24" version="1.1">
<g id="surface1">
<path style=" stroke:none;fill-rule:evenodd;fill:rgb(0%,0%,0%);fill-opacity:1;" d="M 23.679688 0.0273438 C 23.675781 0.0390625 23.640625 0.0429688 23.609375 0.0351562 C 23.574219 0.03125 23.535156 0.03125 23.523438 0.0429688 C 23.507812 0.0507812 23.460938 0.0625 23.414062 0.0625 C 23.332031 0.0703125 23.191406 0.0859375 23.191406 0.09375 C 23.191406 0.0976562 23.128906 0.109375 22.96875 0.128906 C 22.792969 0.148438 22.734375 0.160156 22.652344 0.175781 C 22.613281 0.183594 22.539062 0.195312 22.488281 0.199219 C 22.4375 0.203125 22.394531 0.207031 22.394531 0.210938 C 22.394531 0.214844 22.359375 0.21875 22.3125 0.222656 C 22.265625 0.226562 22.15625 0.242188 22.066406 0.257812 C 21.976562 0.273438 21.867188 0.289062 21.820312 0.296875 C 21.640625 0.316406 21.597656 0.324219 21.597656 0.328125 C 21.597656 0.335938 21.507812 0.347656 21.375 0.359375 C 21.316406 0.367188 21.269531 0.371094 21.269531 0.375 C 21.269531 0.378906 21.234375 0.382812 21.1875 0.386719 C 21.140625 0.390625 21.027344 0.40625 20.929688 0.421875 C 20.746094 0.449219 20.65625 0.464844 20.554688 0.476562 C 20.519531 0.480469 20.484375 0.492188 20.46875 0.5 C 20.457031 0.507812 20.417969 0.507812 20.390625 0.503906 C 20.359375 0.496094 20.324219 0.503906 20.308594 0.511719 C 20.296875 0.523438 20.257812 0.53125 20.226562 0.527344 C 20.195312 0.523438 20.15625 0.53125 20.144531 0.539062 C 20.128906 0.550781 20.089844 0.554688 20.054688 0.550781 C 20.019531 0.546875 19.984375 0.554688 19.976562 0.566406 C 19.972656 0.578125 19.957031 0.582031 19.949219 0.578125 C 19.933594 0.570312 19.777344 0.589844 19.558594 0.625 C 19.519531 0.628906 19.460938 0.636719 19.429688 0.640625 C 19.394531 0.644531 19.359375 0.652344 19.34375 0.664062 C 19.332031 0.671875 19.296875 0.671875 19.265625 0.667969 C 19.234375 0.664062 19.199219 0.664062 19.1875 0.675781 C 19.171875 0.683594 19.125 0.695312 19.078125 0.695312 C 18.996094 0.703125 18.855469 0.71875 18.855469 0.726562 C 18.855469 0.730469 18.792969 0.742188 18.632812 0.761719 C 18.457031 0.78125 18.398438 0.792969 18.316406 0.808594 C 18.277344 0.816406 18.203125 0.828125 18.152344 0.832031 C 18.101562 0.835938 18.058594 0.839844 18.058594 0.84375 C 18.058594 0.847656 18.023438 0.851562 17.976562 0.855469 C 17.929688 0.859375 17.820312 0.875 17.730469 0.890625 C 17.640625 0.90625 17.53125 0.921875 17.484375 0.929688 C 17.304688 0.949219 17.261719 0.957031 17.261719 0.960938 C 17.261719 0.96875 17.171875 0.980469 17.039062 0.992188 C 16.980469 1 16.933594 1.003906 16.933594 1.007812 C 16.933594 1.011719 16.898438 1.015625 16.851562 1.019531 C 16.804688 1.023438 16.691406 1.039062 16.59375 1.054688 C 16.410156 1.082031 16.320312 1.097656 16.21875 1.109375 C 16.183594 1.113281 16.148438 1.125 16.132812 1.132812 C 16.121094 1.140625 16.082031 1.140625 16.054688 1.136719 C 16.023438 1.128906 15.988281 1.136719 15.972656 1.144531 C 15.960938 1.15625 15.921875 1.164062 15.890625 1.160156 C 15.859375 1.15625 15.820312 1.164062 15.808594 1.171875 C 15.792969 1.183594 15.753906 1.1875 15.71875 1.183594 C 15.683594 1.179688 15.648438 1.1875 15.640625 1.199219 C 15.636719 1.210938 15.621094 1.214844 15.613281 1.210938 C 15.597656 1.203125 15.441406 1.222656 15.222656 1.257812 C 15.183594 1.261719 15.125 1.269531 15.09375 1.273438 C 15.058594 1.277344 15.023438 1.285156 15.007812 1.296875 C 14.996094 1.304688 14.960938 1.304688 14.929688 1.300781 C 14.898438 1.296875 14.863281 1.296875 14.851562 1.308594 C 14.835938 1.316406 14.789062 1.328125 14.742188 1.328125 C 14.660156 1.335938 14.519531 1.351562 14.519531 1.359375 C 14.519531 1.363281 14.457031 1.375 14.296875 1.394531 C 14.121094 1.414062 14.0625 1.425781 13.980469 1.441406 C 13.941406 1.449219 13.867188 1.460938 13.816406 1.464844 C 13.765625 1.46875 13.722656 1.472656 13.722656 1.476562 C 13.722656 1.480469 13.6875 1.484375 13.640625 1.488281 C 13.59375 1.492188 13.484375 1.507812 13.394531 1.523438 C 13.304688 1.539062 13.195312 1.554688 13.148438 1.5625 C 12.96875 1.582031 12.925781 1.589844 12.925781 1.59375 C 12.925781 1.601562 12.835938 1.613281 12.703125 1.625 C 12.644531 1.632812 12.597656 1.636719 12.597656 1.640625 C 12.597656 1.644531 12.5625 1.648438 12.515625 1.652344 C 12.46875 1.65625 12.355469 1.671875 12.257812 1.6875 C 12.074219 1.714844 11.984375 1.730469 11.882812 1.742188 C 11.847656 1.746094 11.8125 1.757812 11.796875 1.765625 C 11.785156 1.773438 11.746094 1.773438 11.71875 1.769531 C 11.6875 1.761719 11.652344 1.769531 11.636719 1.777344 C 11.625 1.789062 11.585938 1.796875 11.554688 1.792969 C 11.523438 1.789062 11.484375 1.796875 11.472656 1.804688 C 11.457031 1.816406 11.417969 1.820312 11.382812 1.816406 C 11.347656 1.8125 11.316406 1.816406 11.308594 1.824219 C 11.304688 1.832031 11.242188 1.84375 11.171875 1.847656 C 11.101562 1.851562 11.015625 1.863281 10.976562 1.871094 L 10.910156 1.890625 L 10.902344 6.652344 L 10.898438 11.414062 L 11.03125 11.414062 C 11.105469 11.414062 11.351562 11.417969 11.578125 11.417969 C 11.804688 11.421875 12.859375 11.417969 13.921875 11.40625 C 14.984375 11.394531 16.402344 11.382812 17.074219 11.378906 C 17.746094 11.375 19.046875 11.363281 19.96875 11.355469 C 20.890625 11.347656 22.125 11.335938 22.710938 11.332031 C 23.296875 11.328125 23.785156 11.324219 23.796875 11.324219 C 23.804688 11.320312 23.808594 8.777344 23.808594 5.667969 L 23.800781 0.015625 L 23.746094 0.0117188 C 23.71875 0.0078125 23.6875 0.015625 23.679688 0.0273438 M 9.546875 2.085938 C 9.539062 2.09375 9.496094 2.097656 9.449219 2.101562 C 9.363281 2.105469 9.207031 2.125 9.1875 2.136719 C 9.179688 2.136719 9.148438 2.140625 9.117188 2.144531 C 9.085938 2.148438 9.054688 2.152344 9.046875 2.15625 C 9.039062 2.160156 8.992188 2.164062 8.941406 2.167969 C 8.839844 2.175781 8.691406 2.195312 8.671875 2.207031 C 8.664062 2.207031 8.632812 2.210938 8.601562 2.214844 C 8.570312 2.21875 8.539062 2.222656 8.53125 2.226562 C 8.519531 2.234375 8.441406 2.242188 8.273438 2.257812 C 8.226562 2.261719 8.179688 2.269531 8.164062 2.28125 C 8.152344 2.289062 8.117188 2.289062 8.085938 2.285156 C 8.054688 2.28125 8.019531 2.28125 8.007812 2.292969 C 7.992188 2.300781 7.949219 2.3125 7.910156 2.3125 C 7.777344 2.324219 7.652344 2.339844 7.652344 2.34375 C 7.652344 2.351562 7.59375 2.359375 7.394531 2.378906 C 7.203125 2.398438 7.136719 2.410156 7.136719 2.414062 C 7.136719 2.417969 7.101562 2.425781 7.054688 2.429688 C 6.851562 2.449219 6.621094 2.480469 6.621094 2.484375 C 6.621094 2.488281 6.585938 2.492188 6.539062 2.496094 C 6.46875 2.503906 6.351562 2.515625 6.152344 2.542969 C 6.125 2.546875 6.105469 2.554688 6.105469 2.554688 C 6.105469 2.558594 6.070312 2.566406 6.023438 2.570312 C 5.976562 2.574219 5.898438 2.582031 5.847656 2.589844 C 5.796875 2.597656 5.71875 2.609375 5.671875 2.613281 C 5.625 2.617188 5.589844 2.621094 5.589844 2.625 C 5.589844 2.628906 5.53125 2.632812 5.460938 2.640625 C 5.390625 2.644531 5.304688 2.652344 5.273438 2.664062 C 5.242188 2.671875 5.183594 2.683594 5.144531 2.683594 C 5.105469 2.6875 5.070312 2.691406 5.0625 2.695312 C 5.054688 2.699219 5.023438 2.703125 4.992188 2.707031 C 4.960938 2.710938 4.871094 2.71875 4.792969 2.730469 C 4.714844 2.742188 4.632812 2.753906 4.605469 2.757812 C 4.578125 2.757812 4.558594 2.765625 4.558594 2.765625 C 4.558594 2.769531 4.523438 2.773438 4.476562 2.777344 C 4.40625 2.78125 4.242188 2.800781 4.089844 2.824219 C 4.0625 2.828125 4.042969 2.835938 4.042969 2.835938 C 4.042969 2.839844 4.007812 2.84375 3.960938 2.847656 C 3.890625 2.851562 3.726562 2.871094 3.574219 2.894531 C 3.546875 2.898438 3.527344 2.90625 3.527344 2.90625 C 3.527344 2.910156 3.484375 2.914062 3.433594 2.917969 C 3.332031 2.925781 3.183594 2.945312 3.164062 2.957031 C 3.15625 2.957031 3.125 2.960938 3.09375 2.964844 C 3.0625 2.96875 3.03125 2.972656 3.023438 2.976562 C 3.011719 2.984375 2.933594 2.992188 2.765625 3.007812 C 2.71875 3.011719 2.671875 3.019531 2.660156 3.027344 C 2.648438 3.035156 2.609375 3.039062 2.578125 3.035156 C 2.546875 3.03125 2.507812 3.035156 2.496094 3.042969 C 2.484375 3.050781 2.441406 3.0625 2.402344 3.0625 C 2.210938 3.078125 2.164062 3.085938 2.140625 3.101562 C 2.128906 3.109375 2.09375 3.109375 2.0625 3.105469 C 2.03125 3.101562 1.996094 3.101562 1.984375 3.113281 C 1.96875 3.121094 1.921875 3.128906 1.875 3.132812 C 1.78125 3.136719 1.628906 3.160156 1.628906 3.164062 C 1.628906 3.167969 1.59375 3.175781 1.546875 3.179688 C 1.34375 3.199219 1.113281 3.230469 1.113281 3.234375 C 1.113281 3.238281 1.078125 3.246094 1.03125 3.25 C 0.828125 3.269531 0.597656 3.300781 0.597656 3.304688 C 0.597656 3.308594 0.5625 3.3125 0.515625 3.316406 C 0.46875 3.320312 0.375 3.332031 0.304688 3.339844 C 0.234375 3.351562 0.15625 3.359375 0.136719 3.363281 C 0.113281 3.363281 0.0898438 3.371094 0.0820312 3.378906 C 0.0703125 3.390625 0.0546875 3.390625 0.0390625 3.382812 C 0.015625 3.375 0.0078125 4.269531 0.0117188 7.433594 L 0.0117188 11.496094 L 1.042969 11.492188 C 1.609375 11.492188 3.1875 11.484375 4.546875 11.472656 C 5.90625 11.464844 7.628906 11.457031 8.371094 11.453125 C 9.253906 11.449219 9.726562 11.441406 9.730469 11.425781 C 9.730469 11.414062 9.734375 9.300781 9.734375 6.730469 L 9.738281 2.0625 L 9.648438 2.066406 C 9.597656 2.070312 9.554688 2.078125 9.546875 2.085938 M 0.00390625 16.523438 C 0.0117188 20.367188 0.015625 20.578125 0.0546875 20.582031 C 0.0976562 20.585938 0.136719 20.59375 0.144531 20.601562 C 0.148438 20.605469 0.183594 20.609375 0.222656 20.613281 C 0.261719 20.613281 0.347656 20.625 0.410156 20.636719 C 0.472656 20.648438 0.554688 20.65625 0.585938 20.660156 C 0.617188 20.660156 0.65625 20.667969 0.667969 20.675781 C 0.679688 20.683594 0.71875 20.6875 0.75 20.683594 C 0.78125 20.679688 0.820312 20.683594 0.832031 20.691406 C 0.84375 20.699219 0.878906 20.707031 0.914062 20.710938 C 0.945312 20.714844 1.019531 20.722656 1.078125 20.730469 C 1.136719 20.738281 1.21875 20.746094 1.265625 20.75 C 1.3125 20.753906 1.347656 20.761719 1.347656 20.765625 C 1.347656 20.769531 1.421875 20.78125 1.582031 20.800781 C 1.644531 20.808594 1.734375 20.820312 1.78125 20.824219 C 1.828125 20.832031 1.898438 20.839844 1.945312 20.84375 C 1.992188 20.847656 2.027344 20.855469 2.027344 20.859375 C 2.027344 20.863281 2.058594 20.867188 2.097656 20.871094 C 2.136719 20.871094 2.191406 20.882812 2.21875 20.890625 C 2.246094 20.902344 2.328125 20.910156 2.402344 20.910156 C 2.476562 20.914062 2.539062 20.921875 2.542969 20.929688 C 2.550781 20.941406 2.582031 20.945312 2.617188 20.941406 C 2.652344 20.9375 2.691406 20.941406 2.707031 20.949219 C 2.71875 20.957031 2.746094 20.964844 2.765625 20.964844 C 2.785156 20.96875 2.859375 20.976562 2.929688 20.988281 C 3 20.996094 3.09375 21.007812 3.140625 21.011719 C 3.1875 21.015625 3.222656 21.019531 3.222656 21.023438 C 3.222656 21.03125 3.328125 21.042969 3.691406 21.082031 C 3.835938 21.097656 3.902344 21.109375 3.902344 21.117188 C 3.902344 21.121094 3.933594 21.125 3.972656 21.128906 C 4.011719 21.128906 4.066406 21.140625 4.09375 21.148438 C 4.121094 21.160156 4.203125 21.167969 4.277344 21.167969 C 4.351562 21.171875 4.414062 21.179688 4.417969 21.1875 C 4.425781 21.199219 4.457031 21.203125 4.492188 21.199219 C 4.527344 21.195312 4.566406 21.199219 4.582031 21.207031 C 4.59375 21.214844 4.621094 21.222656 4.640625 21.222656 C 4.660156 21.226562 4.734375 21.234375 4.804688 21.246094 C 4.875 21.253906 4.96875 21.265625 5.015625 21.269531 C 5.0625 21.273438 5.097656 21.277344 5.097656 21.28125 C 5.097656 21.28125 5.117188 21.289062 5.144531 21.292969 C 5.300781 21.316406 5.441406 21.332031 5.554688 21.34375 C 5.691406 21.355469 5.769531 21.367188 5.789062 21.375 C 5.816406 21.386719 6.105469 21.429688 6.210938 21.433594 C 6.257812 21.4375 6.296875 21.441406 6.304688 21.445312 C 6.3125 21.449219 6.34375 21.453125 6.375 21.457031 C 6.40625 21.460938 6.4375 21.464844 6.445312 21.46875 C 6.453125 21.46875 6.476562 21.476562 6.503906 21.480469 C 6.703125 21.507812 6.820312 21.519531 6.890625 21.527344 C 6.9375 21.53125 6.972656 21.535156 6.972656 21.539062 C 6.972656 21.539062 6.992188 21.546875 7.019531 21.550781 C 7.175781 21.574219 7.316406 21.589844 7.429688 21.601562 C 7.566406 21.613281 7.644531 21.625 7.664062 21.632812 C 7.691406 21.644531 7.980469 21.6875 8.085938 21.691406 C 8.132812 21.695312 8.171875 21.699219 8.179688 21.703125 C 8.1875 21.707031 8.21875 21.710938 8.25 21.714844 C 8.28125 21.71875 8.3125 21.722656 8.320312 21.726562 C 8.328125 21.726562 8.351562 21.734375 8.378906 21.738281 C 8.578125 21.765625 8.695312 21.777344 8.765625 21.785156 C 8.8125 21.789062 8.847656 21.792969 8.847656 21.796875 C 8.847656 21.796875 8.867188 21.804688 8.894531 21.808594 C 9.058594 21.832031 9.207031 21.851562 9.269531 21.851562 C 9.308594 21.855469 9.351562 21.863281 9.367188 21.871094 C 9.378906 21.882812 9.414062 21.882812 9.445312 21.878906 C 9.476562 21.875 9.511719 21.875 9.523438 21.882812 C 9.539062 21.894531 9.589844 21.902344 9.636719 21.910156 L 9.726562 21.917969 L 9.730469 21.804688 C 9.738281 21.425781 9.722656 12.550781 9.714844 12.542969 C 9.699219 12.527344 8.433594 12.515625 2.242188 12.480469 L 0 12.46875 L 0.00390625 16.523438 M 10.894531 12.738281 C 10.894531 12.976562 10.914062 21.976562 10.917969 22.039062 C 10.921875 22.066406 10.933594 22.078125 10.953125 22.070312 C 10.972656 22.0625 10.992188 22.0625 11 22.070312 C 11.015625 22.085938 11.078125 22.097656 11.238281 22.113281 C 11.289062 22.117188 11.332031 22.121094 11.332031 22.125 C 11.332031 22.125 11.367188 22.132812 11.414062 22.136719 C 11.460938 22.144531 11.558594 22.160156 11.636719 22.171875 C 11.714844 22.183594 11.824219 22.199219 11.882812 22.207031 C 11.941406 22.210938 12.03125 22.222656 12.082031 22.230469 C 12.132812 22.242188 12.210938 22.25 12.257812 22.253906 C 12.304688 22.257812 12.339844 22.261719 12.339844 22.265625 C 12.339844 22.269531 12.558594 22.292969 12.613281 22.292969 C 12.636719 22.292969 12.660156 22.300781 12.667969 22.3125 C 12.675781 22.324219 12.710938 22.328125 12.75 22.324219 C 12.789062 22.320312 12.824219 22.324219 12.832031 22.332031 C 12.835938 22.34375 12.871094 22.351562 12.90625 22.347656 C 12.941406 22.34375 12.980469 22.347656 12.996094 22.355469 C 13.019531 22.371094 13.046875 22.375 13.21875 22.390625 C 13.277344 22.394531 13.359375 22.40625 13.40625 22.414062 C 13.453125 22.421875 13.523438 22.433594 13.570312 22.441406 C 13.617188 22.445312 13.679688 22.457031 13.710938 22.464844 C 13.742188 22.46875 13.820312 22.480469 13.886719 22.488281 C 13.953125 22.496094 14.039062 22.507812 14.085938 22.511719 C 14.132812 22.519531 14.199219 22.527344 14.238281 22.53125 C 14.277344 22.53125 14.320312 22.542969 14.332031 22.546875 C 14.34375 22.554688 14.382812 22.558594 14.414062 22.558594 C 14.445312 22.554688 14.484375 22.5625 14.496094 22.570312 C 14.511719 22.582031 14.550781 22.585938 14.582031 22.582031 C 14.617188 22.574219 14.652344 22.578125 14.660156 22.59375 C 14.667969 22.605469 14.703125 22.609375 14.742188 22.605469 C 14.78125 22.601562 14.816406 22.605469 14.824219 22.613281 C 14.828125 22.625 14.863281 22.632812 14.898438 22.628906 C 14.933594 22.625 14.972656 22.628906 14.988281 22.636719 C 15.011719 22.652344 15.039062 22.65625 15.210938 22.671875 C 15.269531 22.675781 15.375 22.691406 15.445312 22.707031 C 15.515625 22.71875 15.589844 22.730469 15.609375 22.730469 C 15.628906 22.730469 15.671875 22.738281 15.707031 22.746094 C 15.742188 22.75 15.820312 22.761719 15.882812 22.769531 C 15.945312 22.777344 16.03125 22.785156 16.078125 22.792969 C 16.1875 22.808594 16.386719 22.832031 16.429688 22.832031 C 16.449219 22.832031 16.476562 22.84375 16.488281 22.855469 C 16.503906 22.863281 16.542969 22.867188 16.574219 22.863281 C 16.609375 22.855469 16.644531 22.859375 16.648438 22.871094 C 16.65625 22.882812 16.695312 22.890625 16.734375 22.882812 C 16.769531 22.878906 16.808594 22.886719 16.816406 22.894531 C 16.820312 22.90625 16.855469 22.914062 16.890625 22.910156 C 16.925781 22.90625 16.964844 22.910156 16.980469 22.917969 C 16.992188 22.925781 17.019531 22.933594 17.039062 22.933594 C 17.269531 22.960938 17.347656 22.972656 17.449219 22.992188 C 17.515625 23.003906 17.617188 23.019531 17.683594 23.027344 C 17.75 23.03125 17.84375 23.042969 17.894531 23.050781 C 17.945312 23.0625 18.023438 23.070312 18.070312 23.074219 C 18.117188 23.078125 18.152344 23.082031 18.152344 23.085938 C 18.152344 23.089844 18.371094 23.113281 18.425781 23.113281 C 18.449219 23.113281 18.472656 23.121094 18.480469 23.132812 C 18.488281 23.144531 18.523438 23.148438 18.5625 23.144531 C 18.601562 23.140625 18.636719 23.144531 18.644531 23.15625 C 18.648438 23.164062 18.683594 23.171875 18.71875 23.167969 C 18.753906 23.164062 18.792969 23.164062 18.804688 23.175781 C 18.832031 23.1875 18.886719 23.199219 19.042969 23.214844 C 19.09375 23.21875 19.136719 23.222656 19.136719 23.226562 C 19.136719 23.230469 19.207031 23.238281 19.382812 23.257812 C 19.429688 23.265625 19.480469 23.273438 19.5 23.28125 C 19.519531 23.289062 19.597656 23.300781 19.675781 23.308594 C 19.753906 23.316406 19.851562 23.328125 19.898438 23.332031 C 19.945312 23.339844 20.011719 23.347656 20.050781 23.351562 C 20.089844 23.351562 20.132812 23.363281 20.144531 23.367188 C 20.15625 23.375 20.195312 23.378906 20.226562 23.378906 C 20.257812 23.375 20.296875 23.382812 20.308594 23.390625 C 20.324219 23.402344 20.363281 23.40625 20.394531 23.402344 C 20.429688 23.394531 20.464844 23.398438 20.472656 23.414062 C 20.480469 23.425781 20.515625 23.429688 20.554688 23.425781 C 20.59375 23.421875 20.628906 23.425781 20.636719 23.433594 C 20.640625 23.445312 20.675781 23.453125 20.710938 23.449219 C 20.746094 23.445312 20.785156 23.449219 20.800781 23.457031 C 20.824219 23.472656 20.851562 23.476562 21.023438 23.492188 C 21.082031 23.496094 21.164062 23.507812 21.210938 23.515625 C 21.257812 23.523438 21.328125 23.535156 21.375 23.542969 C 21.421875 23.546875 21.484375 23.558594 21.515625 23.566406 C 21.546875 23.570312 21.625 23.582031 21.691406 23.589844 C 21.757812 23.597656 21.84375 23.609375 21.890625 23.613281 C 22.011719 23.628906 22.203125 23.652344 22.242188 23.652344 C 22.261719 23.652344 22.289062 23.664062 22.300781 23.675781 C 22.316406 23.683594 22.355469 23.6875 22.386719 23.683594 C 22.421875 23.675781 22.457031 23.679688 22.460938 23.691406 C 22.46875 23.703125 22.507812 23.710938 22.546875 23.703125 C 22.582031 23.699219 22.621094 23.707031 22.628906 23.714844 C 22.632812 23.726562 22.667969 23.734375 22.703125 23.730469 C 22.738281 23.726562 22.777344 23.730469 22.792969 23.738281 C 22.804688 23.746094 22.832031 23.753906 22.851562 23.753906 C 23.082031 23.78125 23.160156 23.792969 23.261719 23.8125 C 23.328125 23.824219 23.394531 23.832031 23.414062 23.832031 C 23.433594 23.832031 23.472656 23.835938 23.5 23.84375 C 23.527344 23.851562 23.609375 23.863281 23.683594 23.871094 L 23.8125 23.882812 L 23.8125 12.617188 L 20.410156 12.609375 C 18.535156 12.601562 15.628906 12.597656 13.953125 12.597656 L 10.898438 12.597656 L 10.894531 12.738281 "/>
<path style=" stroke:none;fill-rule:evenodd;fill:rgb(1.568627%,70.588235%,94.509804%);fill-opacity:1;" d="M 23.808594 5.652344 C 23.8125 10.164062 23.808594 11.308594 23.785156 11.324219 C 23.761719 11.335938 23.765625 11.34375 23.792969 11.34375 C 23.832031 11.34375 23.835938 11.058594 23.835938 5.671875 C 23.835938 2.550781 23.828125 0 23.820312 0 C 23.808594 0 23.804688 2.542969 23.808594 5.652344 M 22.511719 0.1875 C 22.5 0.203125 22.519531 0.207031 22.5625 0.195312 C 22.652344 0.175781 22.660156 0.164062 22.585938 0.164062 C 22.554688 0.164062 22.519531 0.175781 22.511719 0.1875 M 21.386719 0.351562 C 21.375 0.367188 21.394531 0.371094 21.4375 0.359375 C 21.527344 0.339844 21.535156 0.328125 21.460938 0.328125 C 21.429688 0.328125 21.394531 0.339844 21.386719 0.351562 M 18.175781 0.820312 C 18.164062 0.835938 18.183594 0.839844 18.226562 0.828125 C 18.316406 0.808594 18.324219 0.796875 18.25 0.796875 C 18.21875 0.796875 18.183594 0.808594 18.175781 0.820312 M 17.050781 0.984375 C 17.039062 1 17.058594 1.003906 17.101562 0.992188 C 17.191406 0.972656 17.199219 0.960938 17.125 0.960938 C 17.09375 0.960938 17.058594 0.972656 17.050781 0.984375 M 13.839844 1.453125 C 13.828125 1.46875 13.847656 1.472656 13.890625 1.460938 C 13.980469 1.441406 13.988281 1.429688 13.914062 1.429688 C 13.882812 1.429688 13.847656 1.441406 13.839844 1.453125 M 12.714844 1.617188 C 12.703125 1.632812 12.722656 1.636719 12.765625 1.625 C 12.855469 1.605469 12.863281 1.59375 12.789062 1.59375 C 12.757812 1.59375 12.722656 1.605469 12.714844 1.617188 M 9.734375 2.367188 C 9.734375 2.425781 9.738281 2.449219 9.742188 2.417969 C 9.75 2.390625 9.75 2.34375 9.742188 2.3125 C 9.738281 2.285156 9.734375 2.308594 9.734375 2.367188 M 7.445312 2.363281 C 7.4375 2.375 7.464844 2.378906 7.5 2.371094 C 7.539062 2.367188 7.570312 2.359375 7.570312 2.351562 C 7.570312 2.335938 7.457031 2.34375 7.445312 2.363281 M 9.734375 2.941406 C 9.734375 3.109375 9.738281 3.175781 9.742188 3.085938 C 9.75 3 9.75 2.863281 9.742188 2.78125 C 9.738281 2.703125 9.734375 2.773438 9.734375 2.941406 M 9.738281 3.925781 C 9.738281 4.195312 9.738281 4.304688 9.742188 4.164062 C 9.75 4.027344 9.75 3.804688 9.742188 3.671875 C 9.738281 3.542969 9.738281 3.65625 9.738281 3.925781 M 0.0078125 3.761719 C 0.0078125 3.929688 0.0117188 3.996094 0.015625 3.90625 C 0.0234375 3.820312 0.0234375 3.683594 0.015625 3.601562 C 0.0117188 3.523438 0.0078125 3.59375 0.0078125 3.761719 M 9.734375 5.003906 C 9.734375 5.222656 9.738281 5.316406 9.742188 5.210938 C 9.75 5.105469 9.75 4.925781 9.742188 4.8125 C 9.738281 4.699219 9.734375 4.785156 9.734375 5.003906 M 0.0078125 5.636719 C 0.0078125 5.6875 0.0117188 5.707031 0.015625 5.675781 C 0.0234375 5.648438 0.0234375 5.605469 0.015625 5.582031 C 0.0117188 5.5625 0.00390625 5.585938 0.0078125 5.636719 M 9.738281 6.28125 C 9.738281 6.558594 9.738281 6.671875 9.742188 6.535156 C 9.75 6.394531 9.75 6.167969 9.742188 6.027344 C 9.738281 5.890625 9.738281 6.003906 9.738281 6.28125 M 0.0078125 6.796875 C 0.0078125 6.894531 0.0117188 6.933594 0.015625 6.882812 C 0.0234375 6.835938 0.0234375 6.757812 0.015625 6.707031 C 0.0117188 6.660156 0.0078125 6.699219 0.0078125 6.796875 M 9.734375 7.160156 C 9.734375 7.277344 9.738281 7.328125 9.742188 7.273438 C 9.75 7.21875 9.75 7.121094 9.742188 7.0625 C 9.738281 7 9.734375 7.042969 9.734375 7.160156 M 9.734375 7.839844 C 9.734375 7.902344 9.738281 7.929688 9.742188 7.890625 C 9.75 7.855469 9.75 7.804688 9.742188 7.773438 C 9.738281 7.746094 9.734375 7.777344 9.734375 7.839844 M 0.0078125 8.027344 C 0.0078125 8.078125 0.0117188 8.097656 0.015625 8.066406 C 0.0234375 8.039062 0.0234375 7.996094 0.015625 7.972656 C 0.0117188 7.953125 0.00390625 7.976562 0.0078125 8.027344 M 9.738281 8.71875 C 9.738281 9.046875 9.738281 9.183594 9.742188 9.019531 C 9.75 8.851562 9.75 8.585938 9.742188 8.417969 C 9.738281 8.253906 9.738281 8.390625 9.738281 8.71875 M 0.0078125 8.777344 C 0.0078125 8.828125 0.0117188 8.847656 0.015625 8.816406 C 0.0234375 8.789062 0.0234375 8.746094 0.015625 8.722656 C 0.0117188 8.703125 0.00390625 8.726562 0.0078125 8.777344 M 0.0078125 9.199219 C 0.0078125 9.25 0.0117188 9.269531 0.015625 9.238281 C 0.0234375 9.210938 0.0234375 9.167969 0.015625 9.144531 C 0.0117188 9.125 0.00390625 9.148438 0.0078125 9.199219 M 0.0078125 9.480469 C 0.0078125 9.558594 0.0117188 9.585938 0.015625 9.542969 C 0.0234375 9.503906 0.0234375 9.4375 0.015625 9.402344 C 0.0117188 9.367188 0.0078125 9.402344 0.0078125 9.480469 M 9.738281 9.984375 C 9.738281 10.261719 9.738281 10.375 9.742188 10.234375 C 9.75 10.097656 9.75 9.871094 9.742188 9.730469 C 9.738281 9.59375 9.738281 9.707031 9.738281 9.984375 M 0.0078125 10.113281 C 0.0078125 10.164062 0.0117188 10.183594 0.015625 10.152344 C 0.0234375 10.125 0.0234375 10.082031 0.015625 10.058594 C 0.0117188 10.039062 0.00390625 10.0625 0.0078125 10.113281 M 0.0078125 10.347656 C 0.0078125 10.398438 0.0117188 10.417969 0.015625 10.386719 C 0.0234375 10.359375 0.0234375 10.316406 0.015625 10.292969 C 0.0117188 10.273438 0.00390625 10.296875 0.0078125 10.347656 M 0.0078125 10.722656 C 0.0078125 10.839844 0.0117188 10.890625 0.015625 10.835938 C 0.0234375 10.78125 0.0234375 10.683594 0.015625 10.625 C 0.0117188 10.5625 0.0078125 10.605469 0.0078125 10.722656 M 21.875 11.335938 C 21.910156 11.34375 21.960938 11.34375 21.992188 11.335938 C 22.019531 11.332031 21.992188 11.328125 21.925781 11.328125 C 21.859375 11.328125 21.835938 11.332031 21.875 11.335938 M 22.660156 11.335938 C 22.6875 11.34375 22.730469 11.34375 22.753906 11.335938 C 22.773438 11.332031 22.75 11.324219 22.699219 11.328125 C 22.648438 11.328125 22.628906 11.332031 22.660156 11.335938 M 22.894531 11.335938 C 22.949219 11.34375 23.035156 11.34375 23.089844 11.335938 C 23.148438 11.332031 23.101562 11.328125 22.992188 11.328125 C 22.882812 11.328125 22.835938 11.332031 22.894531 11.335938 M 23.242188 11.335938 C 23.273438 11.34375 23.320312 11.34375 23.347656 11.335938 C 23.378906 11.332031 23.355469 11.328125 23.296875 11.328125 C 23.238281 11.328125 23.214844 11.332031 23.242188 11.335938 M 19.027344 11.359375 C 19.054688 11.367188 19.101562 11.367188 19.132812 11.359375 C 19.160156 11.355469 19.136719 11.351562 19.078125 11.351562 C 19.019531 11.351562 18.996094 11.355469 19.027344 11.359375 M 19.796875 11.359375 C 19.828125 11.367188 19.875 11.367188 19.902344 11.359375 C 19.933594 11.355469 19.910156 11.351562 19.851562 11.351562 C 19.792969 11.351562 19.769531 11.355469 19.796875 11.359375 M 20.011719 11.359375 C 20.039062 11.367188 20.082031 11.367188 20.105469 11.359375 C 20.125 11.355469 20.101562 11.347656 20.050781 11.351562 C 20 11.351562 19.980469 11.355469 20.011719 11.359375 M 20.199219 11.359375 C 20.226562 11.367188 20.269531 11.367188 20.292969 11.359375 C 20.3125 11.355469 20.289062 11.347656 20.238281 11.351562 C 20.1875 11.351562 20.167969 11.355469 20.199219 11.359375 M 20.398438 11.359375 C 20.433594 11.367188 20.484375 11.367188 20.515625 11.359375 C 20.542969 11.355469 20.515625 11.351562 20.449219 11.351562 C 20.382812 11.351562 20.359375 11.355469 20.398438 11.359375 M 21.078125 11.359375 C 21.164062 11.367188 21.304688 11.367188 21.394531 11.359375 C 21.480469 11.355469 21.410156 11.351562 21.234375 11.351562 C 21.058594 11.351562 20.988281 11.355469 21.078125 11.359375 M 16.070312 11.382812 C 16.101562 11.390625 16.148438 11.390625 16.179688 11.382812 C 16.207031 11.378906 16.183594 11.375 16.125 11.375 C 16.066406 11.375 16.042969 11.378906 16.070312 11.382812 M 16.847656 11.382812 C 16.875 11.390625 16.921875 11.390625 16.953125 11.382812 C 16.980469 11.378906 16.957031 11.375 16.898438 11.375 C 16.839844 11.375 16.816406 11.378906 16.847656 11.382812 M 17.058594 11.382812 C 17.085938 11.390625 17.128906 11.390625 17.152344 11.382812 C 17.171875 11.378906 17.148438 11.371094 17.097656 11.375 C 17.046875 11.375 17.027344 11.378906 17.058594 11.382812 M 17.246094 11.382812 C 17.273438 11.390625 17.316406 11.390625 17.339844 11.382812 C 17.359375 11.378906 17.335938 11.371094 17.285156 11.375 C 17.234375 11.375 17.214844 11.378906 17.246094 11.382812 M 17.445312 11.382812 C 17.480469 11.390625 17.53125 11.390625 17.5625 11.382812 C 17.589844 11.378906 17.5625 11.375 17.496094 11.375 C 17.429688 11.375 17.40625 11.378906 17.445312 11.382812 M 18.125 11.382812 C 18.210938 11.390625 18.351562 11.390625 18.4375 11.382812 C 18.527344 11.378906 18.457031 11.375 18.28125 11.375 C 18.105469 11.375 18.035156 11.378906 18.125 11.382812 M 13.117188 11.40625 C 13.148438 11.414062 13.195312 11.414062 13.222656 11.40625 C 13.253906 11.402344 13.230469 11.398438 13.171875 11.398438 C 13.113281 11.398438 13.089844 11.402344 13.117188 11.40625 M 13.894531 11.40625 C 13.921875 11.414062 13.96875 11.414062 14 11.40625 C 14.027344 11.402344 14.003906 11.398438 13.945312 11.398438 C 13.886719 11.398438 13.863281 11.402344 13.894531 11.40625 M 14.105469 11.40625 C 14.132812 11.414062 14.175781 11.414062 14.199219 11.40625 C 14.21875 11.402344 14.195312 11.394531 14.144531 11.398438 C 14.09375 11.398438 14.074219 11.402344 14.105469 11.40625 M 14.292969 11.40625 C 14.320312 11.414062 14.367188 11.414062 14.394531 11.40625 C 14.425781 11.402344 14.402344 11.398438 14.34375 11.398438 C 14.285156 11.398438 14.261719 11.402344 14.292969 11.40625 M 14.5 11.40625 C 14.53125 11.414062 14.578125 11.414062 14.605469 11.40625 C 14.636719 11.402344 14.613281 11.398438 14.554688 11.398438 C 14.496094 11.398438 14.472656 11.402344 14.5 11.40625 M 15.167969 11.40625 C 15.257812 11.414062 15.398438 11.414062 15.484375 11.40625 C 15.574219 11.402344 15.503906 11.398438 15.328125 11.398438 C 15.152344 11.398438 15.082031 11.402344 15.167969 11.40625 M 10.964844 11.429688 C 11.003906 11.4375 11.074219 11.4375 11.117188 11.429688 C 11.15625 11.425781 11.121094 11.421875 11.039062 11.421875 C 10.957031 11.421875 10.921875 11.425781 10.964844 11.429688 M 11.304688 11.429688 C 11.363281 11.4375 11.460938 11.4375 11.515625 11.429688 C 11.570312 11.425781 11.519531 11.421875 11.402344 11.421875 C 11.285156 11.421875 11.242188 11.425781 11.304688 11.429688 M 12.125 11.429688 C 12.210938 11.4375 12.351562 11.4375 12.4375 11.429688 C 12.527344 11.425781 12.457031 11.421875 12.28125 11.421875 C 12.105469 11.421875 12.035156 11.425781 12.125 11.429688 M 7.425781 11.453125 C 7.464844 11.460938 7.53125 11.460938 7.566406 11.453125 C 7.601562 11.449219 7.566406 11.445312 7.488281 11.445312 C 7.410156 11.445312 7.382812 11.449219 7.425781 11.453125 M 8.5 11.453125 C 8.542969 11.460938 8.613281 11.460938 8.652344 11.453125 C 8.695312 11.449219 8.660156 11.445312 8.578125 11.445312 C 8.496094 11.445312 8.460938 11.449219 8.5 11.453125 M 8.867188 11.453125 C 8.9375 11.460938 9.0625 11.460938 9.132812 11.453125 C 9.207031 11.449219 9.148438 11.445312 9 11.445312 C 8.851562 11.445312 8.792969 11.449219 8.867188 11.453125 M 9.347656 11.453125 C 9.386719 11.460938 9.457031 11.460938 9.5 11.453125 C 9.539062 11.449219 9.503906 11.445312 9.421875 11.445312 C 9.339844 11.445312 9.304688 11.449219 9.347656 11.453125 M 3.4375 11.476562 C 3.480469 11.484375 3.550781 11.484375 3.589844 11.476562 C 3.632812 11.472656 3.597656 11.46875 3.515625 11.46875 C 3.433594 11.46875 3.398438 11.472656 3.4375 11.476562 M 4.542969 11.476562 C 4.582031 11.484375 4.648438 11.484375 4.683594 11.476562 C 4.71875 11.472656 4.683594 11.46875 4.605469 11.46875 C 4.527344 11.46875 4.5 11.472656 4.542969 11.476562 M 4.824219 11.476562 C 4.863281 11.484375 4.929688 11.484375 4.964844 11.476562 C 5 11.472656 4.964844 11.46875 4.886719 11.46875 C 4.808594 11.46875 4.78125 11.472656 4.824219 11.476562 M 5.089844 11.476562 C 5.128906 11.484375 5.183594 11.484375 5.222656 11.476562 C 5.257812 11.472656 5.226562 11.46875 5.15625 11.46875 C 5.085938 11.46875 5.054688 11.472656 5.089844 11.476562 M 5.359375 11.476562 C 5.402344 11.484375 5.472656 11.484375 5.515625 11.476562 C 5.554688 11.472656 5.519531 11.46875 5.4375 11.46875 C 5.355469 11.46875 5.320312 11.472656 5.359375 11.476562 M 6.3125 11.476562 C 6.4375 11.484375 6.636719 11.484375 6.757812 11.476562 C 6.875 11.472656 6.773438 11.46875 6.527344 11.46875 C 6.28125 11.472656 6.183594 11.472656 6.3125 11.476562 M 0.488281 11.5 C 0.644531 11.507812 0.898438 11.507812 1.050781 11.5 C 1.199219 11.496094 1.070312 11.496094 0.761719 11.496094 C 0.453125 11.496094 0.328125 11.496094 0.488281 11.5 M 2.054688 11.5 C 2.175781 11.507812 2.371094 11.507812 2.492188 11.5 C 2.609375 11.496094 2.511719 11.492188 2.273438 11.492188 C 2.035156 11.492188 1.9375 11.496094 2.054688 11.5 M 0.171875 12.460938 C 0.273438 12.46875 0.429688 12.46875 0.523438 12.460938 C 0.617188 12.457031 0.535156 12.453125 0.339844 12.453125 C 0.144531 12.453125 0.0703125 12.457031 0.171875 12.460938 M 1.339844 12.484375 C 1.378906 12.492188 1.433594 12.492188 1.472656 12.484375 C 1.507812 12.480469 1.476562 12.476562 1.40625 12.476562 C 1.335938 12.476562 1.304688 12.480469 1.339844 12.484375 M 2.304688 12.484375 C 2.339844 12.492188 2.394531 12.492188 2.429688 12.484375 C 2.46875 12.480469 2.4375 12.476562 2.367188 12.476562 C 2.296875 12.476562 2.265625 12.480469 2.304688 12.484375 M 2.5625 12.484375 C 2.597656 12.492188 2.648438 12.492188 2.679688 12.484375 C 2.707031 12.480469 2.679688 12.476562 2.613281 12.476562 C 2.546875 12.476562 2.523438 12.480469 2.5625 12.484375 M 2.796875 12.484375 C 2.832031 12.492188 2.882812 12.492188 2.914062 12.484375 C 2.941406 12.480469 2.910156 12.476562 2.847656 12.476562 C 2.785156 12.476562 2.757812 12.480469 2.796875 12.484375 M 3.027344 12.484375 C 3.066406 12.492188 3.121094 12.492188 3.160156 12.484375 C 3.195312 12.480469 3.164062 12.476562 3.09375 12.476562 C 3.023438 12.476562 2.992188 12.480469 3.027344 12.484375 M 3.859375 12.484375 C 3.96875 12.492188 4.140625 12.492188 4.25 12.484375 C 4.355469 12.480469 4.265625 12.476562 4.054688 12.476562 C 3.84375 12.476562 3.753906 12.480469 3.859375 12.484375 M 4.964844 12.507812 C 5.003906 12.515625 5.070312 12.515625 5.105469 12.507812 C 5.140625 12.503906 5.105469 12.5 5.027344 12.5 C 4.949219 12.5 4.921875 12.503906 4.964844 12.507812 M 5.9375 12.507812 C 5.972656 12.515625 6.023438 12.515625 6.054688 12.507812 C 6.082031 12.503906 6.054688 12.5 5.988281 12.5 C 5.921875 12.5 5.898438 12.503906 5.9375 12.507812 M 6.171875 12.507812 C 6.207031 12.515625 6.257812 12.515625 6.289062 12.507812 C 6.316406 12.503906 6.285156 12.5 6.222656 12.5 C 6.160156 12.5 6.132812 12.503906 6.171875 12.507812 M 6.40625 12.507812 C 6.441406 12.515625 6.492188 12.515625 6.523438 12.507812 C 6.550781 12.503906 6.519531 12.5 6.457031 12.5 C 6.394531 12.5 6.367188 12.503906 6.40625 12.507812 M 6.652344 12.507812 C 6.691406 12.515625 6.757812 12.515625 6.792969 12.507812 C 6.828125 12.503906 6.792969 12.5 6.714844 12.5 C 6.636719 12.5 6.609375 12.503906 6.652344 12.507812 M 7.472656 12.507812 C 7.578125 12.515625 7.75 12.515625 7.855469 12.507812 C 7.964844 12.503906 7.875 12.5 7.664062 12.5 C 7.453125 12.5 7.363281 12.503906 7.472656 12.507812 M 8.46875 12.53125 C 8.503906 12.539062 8.554688 12.539062 8.585938 12.53125 C 8.613281 12.527344 8.582031 12.523438 8.519531 12.523438 C 8.457031 12.523438 8.429688 12.527344 8.46875 12.53125 M 9.53125 12.53125 L 9.726562 12.539062 L 9.730469 14.304688 L 9.738281 16.066406 L 9.746094 14.292969 L 9.75 12.515625 L 9.542969 12.519531 L 9.339844 12.523438 L 9.53125 12.53125 M 10.882812 12.726562 C 10.882812 12.808594 10.886719 12.84375 10.890625 12.804688 C 10.898438 12.761719 10.898438 12.691406 10.890625 12.652344 C 10.886719 12.609375 10.882812 12.644531 10.882812 12.726562 M 11.445312 12.601562 C 11.582031 12.609375 11.804688 12.609375 11.9375 12.601562 C 12.066406 12.597656 11.953125 12.597656 11.683594 12.597656 C 11.414062 12.597656 11.304688 12.597656 11.445312 12.601562 M 12.910156 12.601562 C 13.3125 12.605469 13.96875 12.605469 14.375 12.601562 C 14.777344 12.601562 14.445312 12.597656 13.640625 12.597656 C 12.835938 12.597656 12.503906 12.601562 12.910156 12.601562 M 17.714844 12.601562 C 18.117188 12.605469 18.773438 12.605469 19.179688 12.601562 C 19.582031 12.601562 19.25 12.597656 18.445312 12.597656 C 17.640625 12.597656 17.308594 12.601562 17.714844 12.601562 M 22.0625 12.625 C 22.199219 12.632812 22.421875 12.632812 22.554688 12.625 C 22.683594 12.621094 22.570312 12.621094 22.300781 12.621094 C 22.03125 12.621094 21.921875 12.621094 22.0625 12.625 M 23.8125 18.242188 C 23.8125 22.730469 23.804688 23.882812 23.785156 23.890625 C 23.765625 23.898438 23.769531 23.902344 23.792969 23.90625 C 23.832031 23.90625 23.835938 23.621094 23.835938 18.257812 C 23.835938 15.152344 23.832031 12.609375 23.824219 12.609375 C 23.816406 12.609375 23.8125 15.144531 23.8125 18.242188 M 10.882812 13.066406 C 10.882812 13.132812 10.886719 13.15625 10.890625 13.117188 C 10.898438 13.082031 10.898438 13.03125 10.890625 13 C 10.886719 12.972656 10.882812 13 10.882812 13.066406 M 10.882812 13.335938 C 10.882812 13.40625 10.886719 13.4375 10.890625 13.402344 C 10.898438 13.363281 10.898438 13.308594 10.890625 13.269531 C 10.886719 13.234375 10.882812 13.265625 10.882812 13.335938 M 10.878906 13.570312 C 10.878906 13.617188 10.886719 13.632812 10.890625 13.609375 C 10.898438 13.589844 10.898438 13.550781 10.890625 13.527344 C 10.886719 13.507812 10.878906 13.523438 10.878906 13.570312 M 10.882812 13.863281 C 10.882812 13.914062 10.886719 13.933594 10.890625 13.902344 C 10.898438 13.875 10.898438 13.832031 10.890625 13.808594 C 10.886719 13.789062 10.878906 13.8125 10.882812 13.863281 M 10.882812 14.15625 C 10.882812 14.253906 10.886719 14.292969 10.890625 14.242188 C 10.898438 14.195312 10.898438 14.117188 10.890625 14.070312 C 10.886719 14.019531 10.882812 14.058594 10.882812 14.15625 M 10.882812 14.519531 C 10.882812 14.609375 10.886719 14.644531 10.890625 14.59375 C 10.898438 14.546875 10.898438 14.472656 10.890625 14.429688 C 10.886719 14.390625 10.882812 14.429688 10.882812 14.519531 M 10.886719 15.878906 C 10.886719 16.523438 10.890625 16.785156 10.894531 16.457031 C 10.894531 16.132812 10.894531 15.605469 10.894531 15.285156 C 10.890625 14.96875 10.886719 15.234375 10.886719 15.878906 M 9.734375 16.511719 C 9.734375 16.707031 9.738281 16.78125 9.742188 16.679688 C 9.75 16.582031 9.75 16.421875 9.742188 16.328125 C 9.738281 16.234375 9.734375 16.320312 9.734375 16.511719 M 0.0117188 17.894531 C 0.0117188 18.640625 0.015625 18.953125 0.0195312 18.582031 C 0.0195312 18.210938 0.0195312 17.601562 0.0195312 17.222656 C 0.015625 16.84375 0.0117188 17.148438 0.0117188 17.894531 M 9.734375 17.34375 C 9.734375 17.570312 9.738281 17.660156 9.742188 17.546875 C 9.75 17.4375 9.75 17.25 9.742188 17.140625 C 9.738281 17.027344 9.734375 17.117188 9.734375 17.34375 M 10.90625 17.273438 C 10.90625 17.371094 10.910156 17.410156 10.914062 17.359375 C 10.921875 17.3125 10.921875 17.234375 10.914062 17.1875 C 10.910156 17.136719 10.90625 17.175781 10.90625 17.273438 M 9.734375 18.023438 C 9.734375 18.121094 9.738281 18.160156 9.742188 18.109375 C 9.75 18.0625 9.75 17.984375 9.742188 17.9375 C 9.738281 17.886719 9.734375 17.925781 9.734375 18.023438 M 9.734375 18.703125 C 9.734375 18.800781 9.738281 18.839844 9.742188 18.792969 C 9.75 18.742188 9.75 18.664062 9.742188 18.617188 C 9.738281 18.566406 9.734375 18.605469 9.734375 18.703125 M 10.90625 19.03125 C 10.90625 19.089844 10.910156 19.113281 10.914062 19.082031 C 10.921875 19.054688 10.921875 19.007812 10.914062 18.980469 C 10.910156 18.949219 10.90625 18.972656 10.90625 19.03125 M 9.734375 19.265625 C 9.734375 19.425781 9.738281 19.492188 9.742188 19.410156 C 9.75 19.332031 9.75 19.199219 9.742188 19.117188 C 9.738281 19.039062 9.734375 19.105469 9.734375 19.265625 M 9.734375 19.898438 C 9.734375 20.035156 9.738281 20.089844 9.742188 20.019531 C 9.75 19.953125 9.75 19.84375 9.742188 19.777344 C 9.738281 19.707031 9.734375 19.761719 9.734375 19.898438 M 9.734375 20.625 C 9.734375 20.785156 9.738281 20.851562 9.742188 20.769531 C 9.75 20.691406 9.75 20.558594 9.742188 20.480469 C 9.738281 20.398438 9.734375 20.464844 9.734375 20.625 M 10.902344 20.601562 C 10.902344 20.648438 10.910156 20.664062 10.914062 20.644531 C 10.921875 20.621094 10.921875 20.582031 10.914062 20.5625 C 10.910156 20.539062 10.902344 20.554688 10.902344 20.601562 M 9.734375 21.140625 C 9.734375 21.210938 9.738281 21.242188 9.742188 21.207031 C 9.75 21.167969 9.75 21.113281 9.742188 21.078125 C 9.738281 21.039062 9.734375 21.070312 9.734375 21.140625 M 3.691406 21.09375 C 3.699219 21.105469 3.734375 21.117188 3.765625 21.117188 C 3.839844 21.117188 3.832031 21.105469 3.742188 21.085938 C 3.699219 21.074219 3.679688 21.078125 3.691406 21.09375 M 10.90625 21.328125 C 10.90625 21.398438 10.910156 21.429688 10.914062 21.394531 C 10.921875 21.355469 10.921875 21.300781 10.914062 21.265625 C 10.910156 21.226562 10.90625 21.257812 10.90625 21.328125 M 5.566406 21.351562 C 5.574219 21.363281 5.609375 21.375 5.640625 21.375 C 5.714844 21.375 5.707031 21.363281 5.617188 21.34375 C 5.574219 21.332031 5.554688 21.335938 5.566406 21.351562 M 7.441406 21.609375 C 7.449219 21.621094 7.484375 21.632812 7.515625 21.632812 C 7.589844 21.632812 7.582031 21.621094 7.492188 21.601562 C 7.449219 21.589844 7.429688 21.59375 7.441406 21.609375 M 9.726562 21.808594 C 9.726562 21.886719 9.71875 21.914062 9.6875 21.921875 C 9.65625 21.929688 9.65625 21.933594 9.695312 21.933594 C 9.746094 21.9375 9.75 21.925781 9.75 21.820312 C 9.75 21.757812 9.746094 21.703125 9.738281 21.703125 C 9.730469 21.703125 9.726562 21.75 9.726562 21.808594 M 10.902344 21.820312 C 10.902344 21.867188 10.910156 21.882812 10.914062 21.859375 C 10.921875 21.839844 10.921875 21.800781 10.914062 21.777344 C 10.910156 21.757812 10.902344 21.773438 10.902344 21.820312 M 12.457031 22.289062 C 12.464844 22.300781 12.5 22.3125 12.53125 22.3125 C 12.605469 22.3125 12.597656 22.300781 12.507812 22.28125 C 12.464844 22.269531 12.445312 22.273438 12.457031 22.289062 M 16.277344 22.828125 C 16.285156 22.839844 16.320312 22.851562 16.351562 22.851562 C 16.425781 22.851562 16.417969 22.839844 16.328125 22.820312 C 16.285156 22.808594 16.265625 22.8125 16.277344 22.828125 M 18.269531 23.109375 C 18.277344 23.121094 18.3125 23.132812 18.34375 23.132812 C 18.417969 23.132812 18.410156 23.121094 18.320312 23.101562 C 18.277344 23.089844 18.257812 23.09375 18.269531 23.109375 M 22.089844 23.648438 C 22.097656 23.660156 22.132812 23.671875 22.164062 23.671875 C 22.238281 23.671875 22.230469 23.660156 22.140625 23.640625 C 22.097656 23.628906 22.078125 23.632812 22.089844 23.648438 "/>
</g>
</svg>
